%TF.GenerationSoftware,KiCad,Pcbnew,(5.1.6)-1*%
%TF.CreationDate,2022-07-31T05:26:31+09:00*%
%TF.ProjectId,az-core-bottom,617a2d63-6f72-4652-9d62-6f74746f6d2e,rev?*%
%TF.SameCoordinates,Original*%
%TF.FileFunction,Legend,Top*%
%TF.FilePolarity,Positive*%
%FSLAX46Y46*%
G04 Gerber Fmt 4.6, Leading zero omitted, Abs format (unit mm)*
G04 Created by KiCad (PCBNEW (5.1.6)-1) date 2022-07-31 05:26:31*
%MOMM*%
%LPD*%
G01*
G04 APERTURE LIST*
%ADD10C,0.150000*%
%ADD11C,0.200000*%
%ADD12C,0.120000*%
%ADD13C,0.127000*%
G04 APERTURE END LIST*
D10*
X129952380Y-105080952D02*
X129952380Y-105557142D01*
X128952380Y-105557142D01*
X129952380Y-104747619D02*
X129285714Y-104747619D01*
X128952380Y-104747619D02*
X129000000Y-104795238D01*
X129047619Y-104747619D01*
X129000000Y-104700000D01*
X128952380Y-104747619D01*
X129047619Y-104747619D01*
X129952380Y-104271428D02*
X128952380Y-104271428D01*
X128952380Y-103890476D01*
X129000000Y-103795238D01*
X129047619Y-103747619D01*
X129142857Y-103700000D01*
X129285714Y-103700000D01*
X129380952Y-103747619D01*
X129428571Y-103795238D01*
X129476190Y-103890476D01*
X129476190Y-104271428D01*
X129952380Y-103128571D02*
X129904761Y-103223809D01*
X129857142Y-103271428D01*
X129761904Y-103319047D01*
X129476190Y-103319047D01*
X129380952Y-103271428D01*
X129333333Y-103223809D01*
X129285714Y-103128571D01*
X129285714Y-102985714D01*
X129333333Y-102890476D01*
X129380952Y-102842857D01*
X129476190Y-102795238D01*
X129761904Y-102795238D01*
X129857142Y-102842857D01*
X129904761Y-102890476D01*
X129952380Y-102985714D01*
X129952380Y-103128571D01*
D11*
X151595238Y-113507142D02*
X150604761Y-113507142D01*
X156904761Y-113392857D02*
X157895238Y-113392857D01*
X157400000Y-113888095D02*
X157400000Y-112897619D01*
X147807142Y-93204761D02*
X147807142Y-94195238D01*
X147404761Y-101692857D02*
X148395238Y-101692857D01*
X147900000Y-102188095D02*
X147900000Y-101197619D01*
D10*
X156804761Y-119657142D02*
X156852380Y-119514285D01*
X156852380Y-119276190D01*
X156804761Y-119180952D01*
X156757142Y-119133333D01*
X156661904Y-119085714D01*
X156566666Y-119085714D01*
X156471428Y-119133333D01*
X156423809Y-119180952D01*
X156376190Y-119276190D01*
X156328571Y-119466666D01*
X156280952Y-119561904D01*
X156233333Y-119609523D01*
X156138095Y-119657142D01*
X156042857Y-119657142D01*
X155947619Y-119609523D01*
X155900000Y-119561904D01*
X155852380Y-119466666D01*
X155852380Y-119228571D01*
X155900000Y-119085714D01*
X155852380Y-118752380D02*
X156852380Y-118514285D01*
X156138095Y-118323809D01*
X156852380Y-118133333D01*
X155852380Y-117895238D01*
X131385714Y-106609523D02*
X132052380Y-106609523D01*
X131004761Y-106847619D02*
X131719047Y-107085714D01*
X131719047Y-106466666D01*
X131052380Y-105895238D02*
X131052380Y-105800000D01*
X131100000Y-105704761D01*
X131147619Y-105657142D01*
X131242857Y-105609523D01*
X131433333Y-105561904D01*
X131671428Y-105561904D01*
X131861904Y-105609523D01*
X131957142Y-105657142D01*
X132004761Y-105704761D01*
X132052380Y-105800000D01*
X132052380Y-105895238D01*
X132004761Y-105990476D01*
X131957142Y-106038095D01*
X131861904Y-106085714D01*
X131671428Y-106133333D01*
X131433333Y-106133333D01*
X131242857Y-106085714D01*
X131147619Y-106038095D01*
X131100000Y-105990476D01*
X131052380Y-105895238D01*
X131052380Y-104942857D02*
X131052380Y-104847619D01*
X131100000Y-104752380D01*
X131147619Y-104704761D01*
X131242857Y-104657142D01*
X131433333Y-104609523D01*
X131671428Y-104609523D01*
X131861904Y-104657142D01*
X131957142Y-104704761D01*
X132004761Y-104752380D01*
X132052380Y-104847619D01*
X132052380Y-104942857D01*
X132004761Y-105038095D01*
X131957142Y-105085714D01*
X131861904Y-105133333D01*
X131671428Y-105180952D01*
X131433333Y-105180952D01*
X131242857Y-105133333D01*
X131147619Y-105085714D01*
X131100000Y-105038095D01*
X131052380Y-104942857D01*
X132052380Y-104180952D02*
X131385714Y-104180952D01*
X131480952Y-104180952D02*
X131433333Y-104133333D01*
X131385714Y-104038095D01*
X131385714Y-103895238D01*
X131433333Y-103800000D01*
X131528571Y-103752380D01*
X132052380Y-103752380D01*
X131528571Y-103752380D02*
X131433333Y-103704761D01*
X131385714Y-103609523D01*
X131385714Y-103466666D01*
X131433333Y-103371428D01*
X131528571Y-103323809D01*
X132052380Y-103323809D01*
X131766666Y-102895238D02*
X131766666Y-102419047D01*
X132052380Y-102990476D02*
X131052380Y-102657142D01*
X132052380Y-102323809D01*
X132052380Y-101990476D02*
X131052380Y-101990476D01*
X132052380Y-101561904D02*
X131528571Y-101561904D01*
X131433333Y-101609523D01*
X131385714Y-101704761D01*
X131385714Y-101847619D01*
X131433333Y-101942857D01*
X131480952Y-101990476D01*
D12*
%TO.C,LiPo*%
X146500000Y-91900000D02*
X146500000Y-116900000D01*
X146500000Y-116900000D02*
X110500000Y-116900000D01*
X110500000Y-91900000D02*
X146500000Y-91900000D01*
%TO.C,U2*%
X148200000Y-114810000D02*
X150000000Y-114810000D01*
X150000000Y-111590000D02*
X147550000Y-111590000D01*
%TO.C,U1*%
X156300000Y-105190000D02*
X153850000Y-105190000D01*
X154500000Y-108410000D02*
X156300000Y-108410000D01*
%TO.C,R1*%
X148890000Y-106641422D02*
X148890000Y-107158578D01*
X150310000Y-106641422D02*
X150310000Y-107158578D01*
%TO.C,R5*%
X164090000Y-102041422D02*
X164090000Y-102558578D01*
X165510000Y-102041422D02*
X165510000Y-102558578D01*
%TO.C,R4*%
X163310000Y-102041422D02*
X163310000Y-102558578D01*
X161890000Y-102041422D02*
X161890000Y-102558578D01*
D13*
%TO.C,REF\u002A\u002A*%
X165030000Y-114170000D02*
X163570000Y-114170000D01*
X165030000Y-105230000D02*
X163570000Y-105230000D01*
D12*
%TO.C,R3\u002A*%
X160610000Y-102141422D02*
X160610000Y-102658578D01*
X159190000Y-102141422D02*
X159190000Y-102658578D01*
%TO.C,R2*%
X155510000Y-102658578D02*
X155510000Y-102141422D01*
X154090000Y-102658578D02*
X154090000Y-102141422D01*
%TO.C,D1*%
X156540000Y-100715000D02*
X156540000Y-103400000D01*
X158460000Y-100715000D02*
X156540000Y-100715000D01*
X158460000Y-103400000D02*
X158460000Y-100715000D01*
%TO.C,C1*%
X156241422Y-109290000D02*
X156758578Y-109290000D01*
X156241422Y-110710000D02*
X156758578Y-110710000D01*
%TO.C,C2*%
X152041422Y-110710000D02*
X152558578Y-110710000D01*
X152041422Y-109290000D02*
X152558578Y-109290000D01*
%TO.C,U2*%
D10*
X148352380Y-117061904D02*
X149161904Y-117061904D01*
X149257142Y-117014285D01*
X149304761Y-116966666D01*
X149352380Y-116871428D01*
X149352380Y-116680952D01*
X149304761Y-116585714D01*
X149257142Y-116538095D01*
X149161904Y-116490476D01*
X148352380Y-116490476D01*
X148447619Y-116061904D02*
X148400000Y-116014285D01*
X148352380Y-115919047D01*
X148352380Y-115680952D01*
X148400000Y-115585714D01*
X148447619Y-115538095D01*
X148542857Y-115490476D01*
X148638095Y-115490476D01*
X148780952Y-115538095D01*
X149352380Y-116109523D01*
X149352380Y-115490476D01*
%TO.C,U1*%
X158352380Y-107561904D02*
X159161904Y-107561904D01*
X159257142Y-107514285D01*
X159304761Y-107466666D01*
X159352380Y-107371428D01*
X159352380Y-107180952D01*
X159304761Y-107085714D01*
X159257142Y-107038095D01*
X159161904Y-106990476D01*
X158352380Y-106990476D01*
X159352380Y-105990476D02*
X159352380Y-106561904D01*
X159352380Y-106276190D02*
X158352380Y-106276190D01*
X158495238Y-106371428D01*
X158590476Y-106466666D01*
X158638095Y-106561904D01*
%TO.C,R1*%
X151752380Y-107166666D02*
X151276190Y-107500000D01*
X151752380Y-107738095D02*
X150752380Y-107738095D01*
X150752380Y-107357142D01*
X150800000Y-107261904D01*
X150847619Y-107214285D01*
X150942857Y-107166666D01*
X151085714Y-107166666D01*
X151180952Y-107214285D01*
X151228571Y-107261904D01*
X151276190Y-107357142D01*
X151276190Y-107738095D01*
X151752380Y-106214285D02*
X151752380Y-106785714D01*
X151752380Y-106500000D02*
X150752380Y-106500000D01*
X150895238Y-106595238D01*
X150990476Y-106690476D01*
X151038095Y-106785714D01*
%TO.C,LiPo*%
X151552380Y-98480952D02*
X151552380Y-98957142D01*
X150552380Y-98957142D01*
X151552380Y-98147619D02*
X150885714Y-98147619D01*
X150552380Y-98147619D02*
X150600000Y-98195238D01*
X150647619Y-98147619D01*
X150600000Y-98100000D01*
X150552380Y-98147619D01*
X150647619Y-98147619D01*
X151552380Y-97671428D02*
X150552380Y-97671428D01*
X150552380Y-97290476D01*
X150600000Y-97195238D01*
X150647619Y-97147619D01*
X150742857Y-97100000D01*
X150885714Y-97100000D01*
X150980952Y-97147619D01*
X151028571Y-97195238D01*
X151076190Y-97290476D01*
X151076190Y-97671428D01*
X151552380Y-96528571D02*
X151504761Y-96623809D01*
X151457142Y-96671428D01*
X151361904Y-96719047D01*
X151076190Y-96719047D01*
X150980952Y-96671428D01*
X150933333Y-96623809D01*
X150885714Y-96528571D01*
X150885714Y-96385714D01*
X150933333Y-96290476D01*
X150980952Y-96242857D01*
X151076190Y-96195238D01*
X151361904Y-96195238D01*
X151457142Y-96242857D01*
X151504761Y-96290476D01*
X151552380Y-96385714D01*
X151552380Y-96528571D01*
%TO.C,R5*%
X165252380Y-99366666D02*
X164776190Y-99700000D01*
X165252380Y-99938095D02*
X164252380Y-99938095D01*
X164252380Y-99557142D01*
X164300000Y-99461904D01*
X164347619Y-99414285D01*
X164442857Y-99366666D01*
X164585714Y-99366666D01*
X164680952Y-99414285D01*
X164728571Y-99461904D01*
X164776190Y-99557142D01*
X164776190Y-99938095D01*
X164252380Y-98461904D02*
X164252380Y-98938095D01*
X164728571Y-98985714D01*
X164680952Y-98938095D01*
X164633333Y-98842857D01*
X164633333Y-98604761D01*
X164680952Y-98509523D01*
X164728571Y-98461904D01*
X164823809Y-98414285D01*
X165061904Y-98414285D01*
X165157142Y-98461904D01*
X165204761Y-98509523D01*
X165252380Y-98604761D01*
X165252380Y-98842857D01*
X165204761Y-98938095D01*
X165157142Y-98985714D01*
%TO.C,R4*%
X163152380Y-99366666D02*
X162676190Y-99700000D01*
X163152380Y-99938095D02*
X162152380Y-99938095D01*
X162152380Y-99557142D01*
X162200000Y-99461904D01*
X162247619Y-99414285D01*
X162342857Y-99366666D01*
X162485714Y-99366666D01*
X162580952Y-99414285D01*
X162628571Y-99461904D01*
X162676190Y-99557142D01*
X162676190Y-99938095D01*
X162485714Y-98509523D02*
X163152380Y-98509523D01*
X162104761Y-98747619D02*
X162819047Y-98985714D01*
X162819047Y-98366666D01*
%TO.C,R3\u002A*%
X160552380Y-99447619D02*
X160076190Y-99780952D01*
X160552380Y-100019047D02*
X159552380Y-100019047D01*
X159552380Y-99638095D01*
X159600000Y-99542857D01*
X159647619Y-99495238D01*
X159742857Y-99447619D01*
X159885714Y-99447619D01*
X159980952Y-99495238D01*
X160028571Y-99542857D01*
X160076190Y-99638095D01*
X160076190Y-100019047D01*
X159552380Y-99114285D02*
X159552380Y-98495238D01*
X159933333Y-98828571D01*
X159933333Y-98685714D01*
X159980952Y-98590476D01*
X160028571Y-98542857D01*
X160123809Y-98495238D01*
X160361904Y-98495238D01*
X160457142Y-98542857D01*
X160504761Y-98590476D01*
X160552380Y-98685714D01*
X160552380Y-98971428D01*
X160504761Y-99066666D01*
X160457142Y-99114285D01*
X159552380Y-97923809D02*
X159790476Y-97923809D01*
X159695238Y-98161904D02*
X159790476Y-97923809D01*
X159695238Y-97685714D01*
X159980952Y-98066666D02*
X159790476Y-97923809D01*
X159980952Y-97780952D01*
%TO.C,R2*%
X155352380Y-99566666D02*
X154876190Y-99900000D01*
X155352380Y-100138095D02*
X154352380Y-100138095D01*
X154352380Y-99757142D01*
X154400000Y-99661904D01*
X154447619Y-99614285D01*
X154542857Y-99566666D01*
X154685714Y-99566666D01*
X154780952Y-99614285D01*
X154828571Y-99661904D01*
X154876190Y-99757142D01*
X154876190Y-100138095D01*
X154447619Y-99185714D02*
X154400000Y-99138095D01*
X154352380Y-99042857D01*
X154352380Y-98804761D01*
X154400000Y-98709523D01*
X154447619Y-98661904D01*
X154542857Y-98614285D01*
X154638095Y-98614285D01*
X154780952Y-98661904D01*
X155352380Y-99233333D01*
X155352380Y-98614285D01*
%TO.C,D1*%
X158052380Y-100038095D02*
X157052380Y-100038095D01*
X157052380Y-99800000D01*
X157100000Y-99657142D01*
X157195238Y-99561904D01*
X157290476Y-99514285D01*
X157480952Y-99466666D01*
X157623809Y-99466666D01*
X157814285Y-99514285D01*
X157909523Y-99561904D01*
X158004761Y-99657142D01*
X158052380Y-99800000D01*
X158052380Y-100038095D01*
X158052380Y-98514285D02*
X158052380Y-99085714D01*
X158052380Y-98800000D02*
X157052380Y-98800000D01*
X157195238Y-98895238D01*
X157290476Y-98990476D01*
X157338095Y-99085714D01*
%TO.C,C1*%
X159357142Y-110066666D02*
X159404761Y-110114285D01*
X159452380Y-110257142D01*
X159452380Y-110352380D01*
X159404761Y-110495238D01*
X159309523Y-110590476D01*
X159214285Y-110638095D01*
X159023809Y-110685714D01*
X158880952Y-110685714D01*
X158690476Y-110638095D01*
X158595238Y-110590476D01*
X158500000Y-110495238D01*
X158452380Y-110352380D01*
X158452380Y-110257142D01*
X158500000Y-110114285D01*
X158547619Y-110066666D01*
X159452380Y-109114285D02*
X159452380Y-109685714D01*
X159452380Y-109400000D02*
X158452380Y-109400000D01*
X158595238Y-109495238D01*
X158690476Y-109590476D01*
X158738095Y-109685714D01*
%TO.C,C2*%
X149757142Y-110266666D02*
X149804761Y-110314285D01*
X149852380Y-110457142D01*
X149852380Y-110552380D01*
X149804761Y-110695238D01*
X149709523Y-110790476D01*
X149614285Y-110838095D01*
X149423809Y-110885714D01*
X149280952Y-110885714D01*
X149090476Y-110838095D01*
X148995238Y-110790476D01*
X148900000Y-110695238D01*
X148852380Y-110552380D01*
X148852380Y-110457142D01*
X148900000Y-110314285D01*
X148947619Y-110266666D01*
X148947619Y-109885714D02*
X148900000Y-109838095D01*
X148852380Y-109742857D01*
X148852380Y-109504761D01*
X148900000Y-109409523D01*
X148947619Y-109361904D01*
X149042857Y-109314285D01*
X149138095Y-109314285D01*
X149280952Y-109361904D01*
X149852380Y-109933333D01*
X149852380Y-109314285D01*
%TD*%
M02*
