%TF.GenerationSoftware,KiCad,Pcbnew,(5.1.6)-1*%
%TF.CreationDate,2022-07-31T05:26:31+09:00*%
%TF.ProjectId,az-core-bottom,617a2d63-6f72-4652-9d62-6f74746f6d2e,rev?*%
%TF.SameCoordinates,Original*%
%TF.FileFunction,Paste,Top*%
%TF.FilePolarity,Positive*%
%FSLAX46Y46*%
G04 Gerber Fmt 4.6, Leading zero omitted, Abs format (unit mm)*
G04 Created by KiCad (PCBNEW (5.1.6)-1) date 2022-07-31 05:26:31*
%MOMM*%
%LPD*%
G01*
G04 APERTURE LIST*
%ADD10R,1.600000X0.650000*%
%ADD11R,2.400000X0.900000*%
%ADD12R,2.400000X0.800000*%
%ADD13R,2.400000X0.700000*%
G04 APERTURE END LIST*
D10*
%TO.C,U2*%
X150400000Y-112250000D03*
X150400000Y-114150000D03*
X147800000Y-113200000D03*
%TD*%
%TO.C,U1*%
X154100000Y-105850000D03*
X154100000Y-106800000D03*
X154100000Y-107750000D03*
X156700000Y-107750000D03*
X156700000Y-105850000D03*
%TD*%
%TO.C,J3*%
G36*
G01*
X153425000Y-114750000D02*
X152575000Y-114750000D01*
G75*
G02*
X152150000Y-114325000I0J425000D01*
G01*
X152150000Y-112675000D01*
G75*
G02*
X152575000Y-112250000I425000J0D01*
G01*
X153425000Y-112250000D01*
G75*
G02*
X153850000Y-112675000I0J-425000D01*
G01*
X153850000Y-114325000D01*
G75*
G02*
X153425000Y-114750000I-425000J0D01*
G01*
G37*
G36*
G01*
X155965000Y-114750000D02*
X155115000Y-114750000D01*
G75*
G02*
X154690000Y-114325000I0J425000D01*
G01*
X154690000Y-112675000D01*
G75*
G02*
X155115000Y-112250000I425000J0D01*
G01*
X155965000Y-112250000D01*
G75*
G02*
X156390000Y-112675000I0J-425000D01*
G01*
X156390000Y-114325000D01*
G75*
G02*
X155965000Y-114750000I-425000J0D01*
G01*
G37*
%TD*%
%TO.C,R1*%
G36*
G01*
X149200000Y-105362500D02*
X150000000Y-105362500D01*
G75*
G02*
X150300000Y-105662500I0J-300000D01*
G01*
X150300000Y-106262500D01*
G75*
G02*
X150000000Y-106562500I-300000J0D01*
G01*
X149200000Y-106562500D01*
G75*
G02*
X148900000Y-106262500I0J300000D01*
G01*
X148900000Y-105662500D01*
G75*
G02*
X149200000Y-105362500I300000J0D01*
G01*
G37*
G36*
G01*
X149200000Y-107237500D02*
X150000000Y-107237500D01*
G75*
G02*
X150300000Y-107537500I0J-300000D01*
G01*
X150300000Y-108137500D01*
G75*
G02*
X150000000Y-108437500I-300000J0D01*
G01*
X149200000Y-108437500D01*
G75*
G02*
X148900000Y-108137500I0J300000D01*
G01*
X148900000Y-107537500D01*
G75*
G02*
X149200000Y-107237500I300000J0D01*
G01*
G37*
%TD*%
%TO.C,LiPo*%
G36*
G01*
X151825000Y-95450000D02*
X150075000Y-95450000D01*
G75*
G02*
X149200000Y-94575000I0J875000D01*
G01*
X149200000Y-92825000D01*
G75*
G02*
X150075000Y-91950000I875000J0D01*
G01*
X151825000Y-91950000D01*
G75*
G02*
X152700000Y-92825000I0J-875000D01*
G01*
X152700000Y-94575000D01*
G75*
G02*
X151825000Y-95450000I-875000J0D01*
G01*
G37*
G36*
G01*
X151825000Y-103450000D02*
X150075000Y-103450000D01*
G75*
G02*
X149200000Y-102575000I0J875000D01*
G01*
X149200000Y-100825000D01*
G75*
G02*
X150075000Y-99950000I875000J0D01*
G01*
X151825000Y-99950000D01*
G75*
G02*
X152700000Y-100825000I0J-875000D01*
G01*
X152700000Y-102575000D01*
G75*
G02*
X151825000Y-103450000I-875000J0D01*
G01*
G37*
%TD*%
%TO.C,R5*%
G36*
G01*
X164400000Y-100762500D02*
X165200000Y-100762500D01*
G75*
G02*
X165500000Y-101062500I0J-300000D01*
G01*
X165500000Y-101662500D01*
G75*
G02*
X165200000Y-101962500I-300000J0D01*
G01*
X164400000Y-101962500D01*
G75*
G02*
X164100000Y-101662500I0J300000D01*
G01*
X164100000Y-101062500D01*
G75*
G02*
X164400000Y-100762500I300000J0D01*
G01*
G37*
G36*
G01*
X164400000Y-102637500D02*
X165200000Y-102637500D01*
G75*
G02*
X165500000Y-102937500I0J-300000D01*
G01*
X165500000Y-103537500D01*
G75*
G02*
X165200000Y-103837500I-300000J0D01*
G01*
X164400000Y-103837500D01*
G75*
G02*
X164100000Y-103537500I0J300000D01*
G01*
X164100000Y-102937500D01*
G75*
G02*
X164400000Y-102637500I300000J0D01*
G01*
G37*
%TD*%
%TO.C,R4*%
G36*
G01*
X162200000Y-102637500D02*
X163000000Y-102637500D01*
G75*
G02*
X163300000Y-102937500I0J-300000D01*
G01*
X163300000Y-103537500D01*
G75*
G02*
X163000000Y-103837500I-300000J0D01*
G01*
X162200000Y-103837500D01*
G75*
G02*
X161900000Y-103537500I0J300000D01*
G01*
X161900000Y-102937500D01*
G75*
G02*
X162200000Y-102637500I300000J0D01*
G01*
G37*
G36*
G01*
X162200000Y-100762500D02*
X163000000Y-100762500D01*
G75*
G02*
X163300000Y-101062500I0J-300000D01*
G01*
X163300000Y-101662500D01*
G75*
G02*
X163000000Y-101962500I-300000J0D01*
G01*
X162200000Y-101962500D01*
G75*
G02*
X161900000Y-101662500I0J300000D01*
G01*
X161900000Y-101062500D01*
G75*
G02*
X162200000Y-100762500I300000J0D01*
G01*
G37*
%TD*%
D11*
%TO.C,REF\u002A\u002A*%
X161892000Y-106950000D03*
X161892000Y-112494000D03*
D12*
X161892000Y-108180000D03*
X161892000Y-111224000D03*
D13*
X161892000Y-110208000D03*
X161892000Y-109200000D03*
%TD*%
%TO.C,R3\u002A*%
G36*
G01*
X159500000Y-102737500D02*
X160300000Y-102737500D01*
G75*
G02*
X160600000Y-103037500I0J-300000D01*
G01*
X160600000Y-103637500D01*
G75*
G02*
X160300000Y-103937500I-300000J0D01*
G01*
X159500000Y-103937500D01*
G75*
G02*
X159200000Y-103637500I0J300000D01*
G01*
X159200000Y-103037500D01*
G75*
G02*
X159500000Y-102737500I300000J0D01*
G01*
G37*
G36*
G01*
X159500000Y-100862500D02*
X160300000Y-100862500D01*
G75*
G02*
X160600000Y-101162500I0J-300000D01*
G01*
X160600000Y-101762500D01*
G75*
G02*
X160300000Y-102062500I-300000J0D01*
G01*
X159500000Y-102062500D01*
G75*
G02*
X159200000Y-101762500I0J300000D01*
G01*
X159200000Y-101162500D01*
G75*
G02*
X159500000Y-100862500I300000J0D01*
G01*
G37*
%TD*%
%TO.C,R2*%
G36*
G01*
X155200000Y-103937500D02*
X154400000Y-103937500D01*
G75*
G02*
X154100000Y-103637500I0J300000D01*
G01*
X154100000Y-103037500D01*
G75*
G02*
X154400000Y-102737500I300000J0D01*
G01*
X155200000Y-102737500D01*
G75*
G02*
X155500000Y-103037500I0J-300000D01*
G01*
X155500000Y-103637500D01*
G75*
G02*
X155200000Y-103937500I-300000J0D01*
G01*
G37*
G36*
G01*
X155200000Y-102062500D02*
X154400000Y-102062500D01*
G75*
G02*
X154100000Y-101762500I0J300000D01*
G01*
X154100000Y-101162500D01*
G75*
G02*
X154400000Y-100862500I300000J0D01*
G01*
X155200000Y-100862500D01*
G75*
G02*
X155500000Y-101162500I0J-300000D01*
G01*
X155500000Y-101762500D01*
G75*
G02*
X155200000Y-102062500I-300000J0D01*
G01*
G37*
%TD*%
%TO.C,D1*%
G36*
G01*
X157100000Y-100862500D02*
X157900000Y-100862500D01*
G75*
G02*
X158200000Y-101162500I0J-300000D01*
G01*
X158200000Y-101762500D01*
G75*
G02*
X157900000Y-102062500I-300000J0D01*
G01*
X157100000Y-102062500D01*
G75*
G02*
X156800000Y-101762500I0J300000D01*
G01*
X156800000Y-101162500D01*
G75*
G02*
X157100000Y-100862500I300000J0D01*
G01*
G37*
G36*
G01*
X157100000Y-102737500D02*
X157900000Y-102737500D01*
G75*
G02*
X158200000Y-103037500I0J-300000D01*
G01*
X158200000Y-103637500D01*
G75*
G02*
X157900000Y-103937500I-300000J0D01*
G01*
X157100000Y-103937500D01*
G75*
G02*
X156800000Y-103637500I0J300000D01*
G01*
X156800000Y-103037500D01*
G75*
G02*
X157100000Y-102737500I300000J0D01*
G01*
G37*
%TD*%
%TO.C,C1*%
G36*
G01*
X156837500Y-110400000D02*
X156837500Y-109600000D01*
G75*
G02*
X157137500Y-109300000I300000J0D01*
G01*
X157737500Y-109300000D01*
G75*
G02*
X158037500Y-109600000I0J-300000D01*
G01*
X158037500Y-110400000D01*
G75*
G02*
X157737500Y-110700000I-300000J0D01*
G01*
X157137500Y-110700000D01*
G75*
G02*
X156837500Y-110400000I0J300000D01*
G01*
G37*
G36*
G01*
X154962500Y-110400000D02*
X154962500Y-109600000D01*
G75*
G02*
X155262500Y-109300000I300000J0D01*
G01*
X155862500Y-109300000D01*
G75*
G02*
X156162500Y-109600000I0J-300000D01*
G01*
X156162500Y-110400000D01*
G75*
G02*
X155862500Y-110700000I-300000J0D01*
G01*
X155262500Y-110700000D01*
G75*
G02*
X154962500Y-110400000I0J300000D01*
G01*
G37*
%TD*%
%TO.C,C2*%
G36*
G01*
X150762500Y-110400000D02*
X150762500Y-109600000D01*
G75*
G02*
X151062500Y-109300000I300000J0D01*
G01*
X151662500Y-109300000D01*
G75*
G02*
X151962500Y-109600000I0J-300000D01*
G01*
X151962500Y-110400000D01*
G75*
G02*
X151662500Y-110700000I-300000J0D01*
G01*
X151062500Y-110700000D01*
G75*
G02*
X150762500Y-110400000I0J300000D01*
G01*
G37*
G36*
G01*
X152637500Y-110400000D02*
X152637500Y-109600000D01*
G75*
G02*
X152937500Y-109300000I300000J0D01*
G01*
X153537500Y-109300000D01*
G75*
G02*
X153837500Y-109600000I0J-300000D01*
G01*
X153837500Y-110400000D01*
G75*
G02*
X153537500Y-110700000I-300000J0D01*
G01*
X152937500Y-110700000D01*
G75*
G02*
X152637500Y-110400000I0J300000D01*
G01*
G37*
%TD*%
M02*
