%TF.GenerationSoftware,KiCad,Pcbnew,(5.1.6)-1*%
%TF.CreationDate,2022-07-31T05:26:31+09:00*%
%TF.ProjectId,az-core-bottom,617a2d63-6f72-4652-9d62-6f74746f6d2e,rev?*%
%TF.SameCoordinates,Original*%
%TF.FileFunction,Soldermask,Top*%
%TF.FilePolarity,Negative*%
%FSLAX46Y46*%
G04 Gerber Fmt 4.6, Leading zero omitted, Abs format (unit mm)*
G04 Created by KiCad (PCBNEW (5.1.6)-1) date 2022-07-31 05:26:31*
%MOMM*%
%LPD*%
G01*
G04 APERTURE LIST*
%ADD10R,1.700000X0.750000*%
%ADD11O,1.500000X1.500000*%
%ADD12O,1.400000X1.400000*%
%ADD13R,2.500000X1.000000*%
%ADD14R,2.500000X0.900000*%
%ADD15R,2.500000X0.800000*%
%ADD16O,2.000000X1.300000*%
G04 APERTURE END LIST*
D10*
%TO.C,U2*%
X150400000Y-112250000D03*
X150400000Y-114150000D03*
X147800000Y-113200000D03*
%TD*%
%TO.C,U1*%
X154100000Y-105850000D03*
X154100000Y-106800000D03*
X154100000Y-107750000D03*
X156700000Y-107750000D03*
X156700000Y-105850000D03*
%TD*%
%TO.C,J3*%
G36*
G01*
X153450000Y-114800000D02*
X152550000Y-114800000D01*
G75*
G02*
X152100000Y-114350000I0J450000D01*
G01*
X152100000Y-112650000D01*
G75*
G02*
X152550000Y-112200000I450000J0D01*
G01*
X153450000Y-112200000D01*
G75*
G02*
X153900000Y-112650000I0J-450000D01*
G01*
X153900000Y-114350000D01*
G75*
G02*
X153450000Y-114800000I-450000J0D01*
G01*
G37*
G36*
G01*
X155990000Y-114800000D02*
X155090000Y-114800000D01*
G75*
G02*
X154640000Y-114350000I0J450000D01*
G01*
X154640000Y-112650000D01*
G75*
G02*
X155090000Y-112200000I450000J0D01*
G01*
X155990000Y-112200000D01*
G75*
G02*
X156440000Y-112650000I0J-450000D01*
G01*
X156440000Y-114350000D01*
G75*
G02*
X155990000Y-114800000I-450000J0D01*
G01*
G37*
%TD*%
%TO.C,R1*%
G36*
G01*
X149175000Y-105312500D02*
X150025000Y-105312500D01*
G75*
G02*
X150350000Y-105637500I0J-325000D01*
G01*
X150350000Y-106287500D01*
G75*
G02*
X150025000Y-106612500I-325000J0D01*
G01*
X149175000Y-106612500D01*
G75*
G02*
X148850000Y-106287500I0J325000D01*
G01*
X148850000Y-105637500D01*
G75*
G02*
X149175000Y-105312500I325000J0D01*
G01*
G37*
G36*
G01*
X149175000Y-107187500D02*
X150025000Y-107187500D01*
G75*
G02*
X150350000Y-107512500I0J-325000D01*
G01*
X150350000Y-108162500D01*
G75*
G02*
X150025000Y-108487500I-325000J0D01*
G01*
X149175000Y-108487500D01*
G75*
G02*
X148850000Y-108162500I0J325000D01*
G01*
X148850000Y-107512500D01*
G75*
G02*
X149175000Y-107187500I325000J0D01*
G01*
G37*
%TD*%
%TO.C,LiPo*%
G36*
G01*
X151850000Y-95500000D02*
X150050000Y-95500000D01*
G75*
G02*
X149150000Y-94600000I0J900000D01*
G01*
X149150000Y-92800000D01*
G75*
G02*
X150050000Y-91900000I900000J0D01*
G01*
X151850000Y-91900000D01*
G75*
G02*
X152750000Y-92800000I0J-900000D01*
G01*
X152750000Y-94600000D01*
G75*
G02*
X151850000Y-95500000I-900000J0D01*
G01*
G37*
G36*
G01*
X151850000Y-103500000D02*
X150050000Y-103500000D01*
G75*
G02*
X149150000Y-102600000I0J900000D01*
G01*
X149150000Y-100800000D01*
G75*
G02*
X150050000Y-99900000I900000J0D01*
G01*
X151850000Y-99900000D01*
G75*
G02*
X152750000Y-100800000I0J-900000D01*
G01*
X152750000Y-102600000D01*
G75*
G02*
X151850000Y-103500000I-900000J0D01*
G01*
G37*
%TD*%
D11*
%TO.C,J4*%
X153900000Y-117950000D03*
D12*
X158900000Y-117950000D03*
X156400000Y-121150000D03*
%TD*%
%TO.C,R5*%
G36*
G01*
X164375000Y-100712500D02*
X165225000Y-100712500D01*
G75*
G02*
X165550000Y-101037500I0J-325000D01*
G01*
X165550000Y-101687500D01*
G75*
G02*
X165225000Y-102012500I-325000J0D01*
G01*
X164375000Y-102012500D01*
G75*
G02*
X164050000Y-101687500I0J325000D01*
G01*
X164050000Y-101037500D01*
G75*
G02*
X164375000Y-100712500I325000J0D01*
G01*
G37*
G36*
G01*
X164375000Y-102587500D02*
X165225000Y-102587500D01*
G75*
G02*
X165550000Y-102912500I0J-325000D01*
G01*
X165550000Y-103562500D01*
G75*
G02*
X165225000Y-103887500I-325000J0D01*
G01*
X164375000Y-103887500D01*
G75*
G02*
X164050000Y-103562500I0J325000D01*
G01*
X164050000Y-102912500D01*
G75*
G02*
X164375000Y-102587500I325000J0D01*
G01*
G37*
%TD*%
%TO.C,R4*%
G36*
G01*
X162175000Y-102587500D02*
X163025000Y-102587500D01*
G75*
G02*
X163350000Y-102912500I0J-325000D01*
G01*
X163350000Y-103562500D01*
G75*
G02*
X163025000Y-103887500I-325000J0D01*
G01*
X162175000Y-103887500D01*
G75*
G02*
X161850000Y-103562500I0J325000D01*
G01*
X161850000Y-102912500D01*
G75*
G02*
X162175000Y-102587500I325000J0D01*
G01*
G37*
G36*
G01*
X162175000Y-100712500D02*
X163025000Y-100712500D01*
G75*
G02*
X163350000Y-101037500I0J-325000D01*
G01*
X163350000Y-101687500D01*
G75*
G02*
X163025000Y-102012500I-325000J0D01*
G01*
X162175000Y-102012500D01*
G75*
G02*
X161850000Y-101687500I0J325000D01*
G01*
X161850000Y-101037500D01*
G75*
G02*
X162175000Y-100712500I325000J0D01*
G01*
G37*
%TD*%
D13*
%TO.C,REF\u002A\u002A*%
X161892000Y-106950000D03*
X161892000Y-112494000D03*
D14*
X161892000Y-108180000D03*
X161892000Y-111224000D03*
D15*
X161892000Y-110208000D03*
X161892000Y-109200000D03*
D16*
X166200000Y-105380000D03*
X166200000Y-114020000D03*
X162400000Y-105380000D03*
X162400000Y-114020000D03*
%TD*%
%TO.C,R3\u002A*%
G36*
G01*
X159475000Y-102687500D02*
X160325000Y-102687500D01*
G75*
G02*
X160650000Y-103012500I0J-325000D01*
G01*
X160650000Y-103662500D01*
G75*
G02*
X160325000Y-103987500I-325000J0D01*
G01*
X159475000Y-103987500D01*
G75*
G02*
X159150000Y-103662500I0J325000D01*
G01*
X159150000Y-103012500D01*
G75*
G02*
X159475000Y-102687500I325000J0D01*
G01*
G37*
G36*
G01*
X159475000Y-100812500D02*
X160325000Y-100812500D01*
G75*
G02*
X160650000Y-101137500I0J-325000D01*
G01*
X160650000Y-101787500D01*
G75*
G02*
X160325000Y-102112500I-325000J0D01*
G01*
X159475000Y-102112500D01*
G75*
G02*
X159150000Y-101787500I0J325000D01*
G01*
X159150000Y-101137500D01*
G75*
G02*
X159475000Y-100812500I325000J0D01*
G01*
G37*
%TD*%
%TO.C,R2*%
G36*
G01*
X155225000Y-103987500D02*
X154375000Y-103987500D01*
G75*
G02*
X154050000Y-103662500I0J325000D01*
G01*
X154050000Y-103012500D01*
G75*
G02*
X154375000Y-102687500I325000J0D01*
G01*
X155225000Y-102687500D01*
G75*
G02*
X155550000Y-103012500I0J-325000D01*
G01*
X155550000Y-103662500D01*
G75*
G02*
X155225000Y-103987500I-325000J0D01*
G01*
G37*
G36*
G01*
X155225000Y-102112500D02*
X154375000Y-102112500D01*
G75*
G02*
X154050000Y-101787500I0J325000D01*
G01*
X154050000Y-101137500D01*
G75*
G02*
X154375000Y-100812500I325000J0D01*
G01*
X155225000Y-100812500D01*
G75*
G02*
X155550000Y-101137500I0J-325000D01*
G01*
X155550000Y-101787500D01*
G75*
G02*
X155225000Y-102112500I-325000J0D01*
G01*
G37*
%TD*%
%TO.C,D1*%
G36*
G01*
X157075000Y-100812500D02*
X157925000Y-100812500D01*
G75*
G02*
X158250000Y-101137500I0J-325000D01*
G01*
X158250000Y-101787500D01*
G75*
G02*
X157925000Y-102112500I-325000J0D01*
G01*
X157075000Y-102112500D01*
G75*
G02*
X156750000Y-101787500I0J325000D01*
G01*
X156750000Y-101137500D01*
G75*
G02*
X157075000Y-100812500I325000J0D01*
G01*
G37*
G36*
G01*
X157075000Y-102687500D02*
X157925000Y-102687500D01*
G75*
G02*
X158250000Y-103012500I0J-325000D01*
G01*
X158250000Y-103662500D01*
G75*
G02*
X157925000Y-103987500I-325000J0D01*
G01*
X157075000Y-103987500D01*
G75*
G02*
X156750000Y-103662500I0J325000D01*
G01*
X156750000Y-103012500D01*
G75*
G02*
X157075000Y-102687500I325000J0D01*
G01*
G37*
%TD*%
%TO.C,C1*%
G36*
G01*
X156787500Y-110425000D02*
X156787500Y-109575000D01*
G75*
G02*
X157112500Y-109250000I325000J0D01*
G01*
X157762500Y-109250000D01*
G75*
G02*
X158087500Y-109575000I0J-325000D01*
G01*
X158087500Y-110425000D01*
G75*
G02*
X157762500Y-110750000I-325000J0D01*
G01*
X157112500Y-110750000D01*
G75*
G02*
X156787500Y-110425000I0J325000D01*
G01*
G37*
G36*
G01*
X154912500Y-110425000D02*
X154912500Y-109575000D01*
G75*
G02*
X155237500Y-109250000I325000J0D01*
G01*
X155887500Y-109250000D01*
G75*
G02*
X156212500Y-109575000I0J-325000D01*
G01*
X156212500Y-110425000D01*
G75*
G02*
X155887500Y-110750000I-325000J0D01*
G01*
X155237500Y-110750000D01*
G75*
G02*
X154912500Y-110425000I0J325000D01*
G01*
G37*
%TD*%
%TO.C,C2*%
G36*
G01*
X150712500Y-110425000D02*
X150712500Y-109575000D01*
G75*
G02*
X151037500Y-109250000I325000J0D01*
G01*
X151687500Y-109250000D01*
G75*
G02*
X152012500Y-109575000I0J-325000D01*
G01*
X152012500Y-110425000D01*
G75*
G02*
X151687500Y-110750000I-325000J0D01*
G01*
X151037500Y-110750000D01*
G75*
G02*
X150712500Y-110425000I0J325000D01*
G01*
G37*
G36*
G01*
X152587500Y-110425000D02*
X152587500Y-109575000D01*
G75*
G02*
X152912500Y-109250000I325000J0D01*
G01*
X153562500Y-109250000D01*
G75*
G02*
X153887500Y-109575000I0J-325000D01*
G01*
X153887500Y-110425000D01*
G75*
G02*
X153562500Y-110750000I-325000J0D01*
G01*
X152912500Y-110750000D01*
G75*
G02*
X152587500Y-110425000I0J325000D01*
G01*
G37*
%TD*%
M02*
