%FSLAX45Y45*%
G04 Gerber Fmt 4.5, Leading zero omitted, Abs format (unit mm)*
G04 Created by KiCad (PCBNEW (5.1.6)-1) date 2022-07-31 05:26:36*
%MOMM*%
%LPD*%
G01*
G04 APERTURE LIST*
%TA.AperFunction,Profile*%
%ADD10C,0.050000*%
%TD*%
%ADD11C,0.200000*%
%ADD12C,0.300000*%
G04 APERTURE END LIST*
D10*
X10820000Y-11455000D02*
G75*
G03*
X10865000Y-11470000I25000J0D01*
G01*
X11080000Y-11455000D02*
G75*
G02*
X11035000Y-11470000I-25000J0D01*
G01*
X11035000Y-11470000D02*
X10865000Y-11470000D01*
X11080000Y-9445000D02*
G75*
G03*
X11035000Y-9430000I-25000J0D01*
G01*
X10820000Y-9445000D02*
G75*
G02*
X10865000Y-9430000I25000J0D01*
G01*
X11080000Y-11455000D02*
X11080000Y-9445000D01*
X10820000Y-9445000D02*
X10820000Y-11455000D01*
X10865000Y-9430000D02*
X11035000Y-9430000D01*
X16600000Y-11900000D02*
G75*
G03*
X16600000Y-11900000I-100000J0D01*
G01*
X16800000Y-11900000D02*
G75*
G02*
X16500000Y-12200000I-300000J0D01*
G01*
X16500000Y-8700000D02*
G75*
G02*
X16800000Y-9000000I0J-300000D01*
G01*
X10800000Y-12200000D02*
G75*
G02*
X10500000Y-11900000I0J300000D01*
G01*
X10800000Y-12200000D02*
X16500000Y-12200000D01*
X16800000Y-9000000D02*
X16800000Y-11900000D01*
X16500000Y-8700000D02*
X10800000Y-8700000D01*
X10500000Y-9000000D02*
G75*
G02*
X10800000Y-8700000I300000J0D01*
G01*
X10500000Y-9000000D02*
X10500000Y-11900000D01*
X16600000Y-9000000D02*
G75*
G03*
X16600000Y-9000000I-100000J0D01*
G01*
X10900000Y-9000000D02*
G75*
G03*
X10900000Y-9000000I-100000J0D01*
G01*
X10900000Y-11900000D02*
G75*
G03*
X10900000Y-11900000I-100000J0D01*
G01*
D11*
D12*
X10783928Y-12668214D02*
X10783928Y-12368214D01*
X10855357Y-12368214D01*
X10898214Y-12382500D01*
X10926786Y-12411071D01*
X10941071Y-12439643D01*
X10955357Y-12496786D01*
X10955357Y-12539643D01*
X10941071Y-12596786D01*
X10926786Y-12625357D01*
X10898214Y-12653929D01*
X10855357Y-12668214D01*
X10783928Y-12668214D01*
X11083928Y-12668214D02*
X11083928Y-12468214D01*
X11083928Y-12525357D02*
X11098214Y-12496786D01*
X11112500Y-12482500D01*
X11141071Y-12468214D01*
X11169643Y-12468214D01*
X11269643Y-12668214D02*
X11269643Y-12468214D01*
X11269643Y-12368214D02*
X11255357Y-12382500D01*
X11269643Y-12396786D01*
X11283928Y-12382500D01*
X11269643Y-12368214D01*
X11269643Y-12396786D01*
X11455357Y-12668214D02*
X11426786Y-12653929D01*
X11412500Y-12625357D01*
X11412500Y-12368214D01*
X11612500Y-12668214D02*
X11583928Y-12653929D01*
X11569643Y-12625357D01*
X11569643Y-12368214D01*
X11955357Y-12668214D02*
X11955357Y-12368214D01*
X12055357Y-12582500D01*
X12155357Y-12368214D01*
X12155357Y-12668214D01*
X12426786Y-12668214D02*
X12426786Y-12511071D01*
X12412500Y-12482500D01*
X12383928Y-12468214D01*
X12326786Y-12468214D01*
X12298214Y-12482500D01*
X12426786Y-12653929D02*
X12398214Y-12668214D01*
X12326786Y-12668214D01*
X12298214Y-12653929D01*
X12283928Y-12625357D01*
X12283928Y-12596786D01*
X12298214Y-12568214D01*
X12326786Y-12553929D01*
X12398214Y-12553929D01*
X12426786Y-12539643D01*
X12569643Y-12468214D02*
X12569643Y-12768214D01*
X12569643Y-12482500D02*
X12598214Y-12468214D01*
X12655357Y-12468214D01*
X12683928Y-12482500D01*
X12698214Y-12496786D01*
X12712500Y-12525357D01*
X12712500Y-12611071D01*
X12698214Y-12639643D01*
X12683928Y-12653929D01*
X12655357Y-12668214D01*
X12598214Y-12668214D01*
X12569643Y-12653929D01*
X12841071Y-12639643D02*
X12855357Y-12653929D01*
X12841071Y-12668214D01*
X12826786Y-12653929D01*
X12841071Y-12639643D01*
X12841071Y-12668214D01*
X12841071Y-12482500D02*
X12855357Y-12496786D01*
X12841071Y-12511071D01*
X12826786Y-12496786D01*
X12841071Y-12482500D01*
X12841071Y-12511071D01*
M02*
