%TF.GenerationSoftware,KiCad,Pcbnew,(5.1.6)-1*%
%TF.CreationDate,2022-07-31T05:26:30+09:00*%
%TF.ProjectId,az-core-bottom,617a2d63-6f72-4652-9d62-6f74746f6d2e,rev?*%
%TF.SameCoordinates,Original*%
%TF.FileFunction,Copper,L1,Top*%
%TF.FilePolarity,Positive*%
%FSLAX46Y46*%
G04 Gerber Fmt 4.6, Leading zero omitted, Abs format (unit mm)*
G04 Created by KiCad (PCBNEW (5.1.6)-1) date 2022-07-31 05:26:30*
%MOMM*%
%LPD*%
G01*
G04 APERTURE LIST*
%TA.AperFunction,SMDPad,CuDef*%
%ADD10R,1.600000X0.650000*%
%TD*%
%TA.AperFunction,ComponentPad*%
%ADD11O,1.400000X1.400000*%
%TD*%
%TA.AperFunction,ComponentPad*%
%ADD12O,1.300000X1.300000*%
%TD*%
%TA.AperFunction,SMDPad,CuDef*%
%ADD13R,2.400000X0.900000*%
%TD*%
%TA.AperFunction,SMDPad,CuDef*%
%ADD14R,2.400000X0.800000*%
%TD*%
%TA.AperFunction,SMDPad,CuDef*%
%ADD15R,2.400000X0.700000*%
%TD*%
%TA.AperFunction,ComponentPad*%
%ADD16O,1.900000X1.200000*%
%TD*%
%TA.AperFunction,Conductor*%
%ADD17R,0.200000X0.200000*%
%TD*%
%TA.AperFunction,Conductor*%
%ADD18C,0.700000*%
%TD*%
%TA.AperFunction,Conductor*%
%ADD19C,1.000000*%
%TD*%
%TA.AperFunction,Conductor*%
%ADD20C,0.800000*%
%TD*%
%TA.AperFunction,Conductor*%
%ADD21C,0.250000*%
%TD*%
%TA.AperFunction,Conductor*%
%ADD22C,0.254000*%
%TD*%
G04 APERTURE END LIST*
D10*
%TO.P,U2,5*%
%TO.N,VIN*%
X150400000Y-112250000D03*
%TO.P,U2,4*%
%TO.N,VREAD*%
X150400000Y-114150000D03*
%TO.P,U2,2*%
%TO.N,5V*%
X147800000Y-113200000D03*
%TD*%
%TO.P,U1,1*%
%TO.N,Net-(R2-Pad1)*%
X154100000Y-105850000D03*
%TO.P,U1,2*%
%TO.N,GND*%
X154100000Y-106800000D03*
%TO.P,U1,3*%
%TO.N,VIN*%
X154100000Y-107750000D03*
%TO.P,U1,4*%
%TO.N,Net-(C4-Pad1)*%
X156700000Y-107750000D03*
%TO.P,U1,5*%
%TO.N,Net-(R3-Pad2)*%
X156700000Y-105850000D03*
%TD*%
%TO.P,J3,1*%
%TO.N,GND*%
%TA.AperFunction,SMDPad,CuDef*%
G36*
G01*
X153425000Y-114750000D02*
X152575000Y-114750000D01*
G75*
G02*
X152150000Y-114325000I0J425000D01*
G01*
X152150000Y-112675000D01*
G75*
G02*
X152575000Y-112250000I425000J0D01*
G01*
X153425000Y-112250000D01*
G75*
G02*
X153850000Y-112675000I0J-425000D01*
G01*
X153850000Y-114325000D01*
G75*
G02*
X153425000Y-114750000I-425000J0D01*
G01*
G37*
%TD.AperFunction*%
%TO.P,J3,2*%
%TO.N,5V*%
%TA.AperFunction,SMDPad,CuDef*%
G36*
G01*
X155965000Y-114750000D02*
X155115000Y-114750000D01*
G75*
G02*
X154690000Y-114325000I0J425000D01*
G01*
X154690000Y-112675000D01*
G75*
G02*
X155115000Y-112250000I425000J0D01*
G01*
X155965000Y-112250000D01*
G75*
G02*
X156390000Y-112675000I0J-425000D01*
G01*
X156390000Y-114325000D01*
G75*
G02*
X155965000Y-114750000I-425000J0D01*
G01*
G37*
%TD.AperFunction*%
%TD*%
%TO.P,R1,1*%
%TO.N,VIN*%
%TA.AperFunction,SMDPad,CuDef*%
G36*
G01*
X149200000Y-105362500D02*
X150000000Y-105362500D01*
G75*
G02*
X150300000Y-105662500I0J-300000D01*
G01*
X150300000Y-106262500D01*
G75*
G02*
X150000000Y-106562500I-300000J0D01*
G01*
X149200000Y-106562500D01*
G75*
G02*
X148900000Y-106262500I0J300000D01*
G01*
X148900000Y-105662500D01*
G75*
G02*
X149200000Y-105362500I300000J0D01*
G01*
G37*
%TD.AperFunction*%
%TO.P,R1,2*%
%TO.N,VREAD*%
%TA.AperFunction,SMDPad,CuDef*%
G36*
G01*
X149200000Y-107237500D02*
X150000000Y-107237500D01*
G75*
G02*
X150300000Y-107537500I0J-300000D01*
G01*
X150300000Y-108137500D01*
G75*
G02*
X150000000Y-108437500I-300000J0D01*
G01*
X149200000Y-108437500D01*
G75*
G02*
X148900000Y-108137500I0J300000D01*
G01*
X148900000Y-107537500D01*
G75*
G02*
X149200000Y-107237500I300000J0D01*
G01*
G37*
%TD.AperFunction*%
%TD*%
%TO.P,LiPo,2*%
%TO.N,GND*%
%TA.AperFunction,SMDPad,CuDef*%
G36*
G01*
X151825000Y-95450000D02*
X150075000Y-95450000D01*
G75*
G02*
X149200000Y-94575000I0J875000D01*
G01*
X149200000Y-92825000D01*
G75*
G02*
X150075000Y-91950000I875000J0D01*
G01*
X151825000Y-91950000D01*
G75*
G02*
X152700000Y-92825000I0J-875000D01*
G01*
X152700000Y-94575000D01*
G75*
G02*
X151825000Y-95450000I-875000J0D01*
G01*
G37*
%TD.AperFunction*%
%TO.P,LiPo,1*%
%TO.N,VIN*%
%TA.AperFunction,SMDPad,CuDef*%
G36*
G01*
X151825000Y-103450000D02*
X150075000Y-103450000D01*
G75*
G02*
X149200000Y-102575000I0J875000D01*
G01*
X149200000Y-100825000D01*
G75*
G02*
X150075000Y-99950000I875000J0D01*
G01*
X151825000Y-99950000D01*
G75*
G02*
X152700000Y-100825000I0J-875000D01*
G01*
X152700000Y-102575000D01*
G75*
G02*
X151825000Y-103450000I-875000J0D01*
G01*
G37*
%TD.AperFunction*%
%TD*%
D11*
%TO.P,J4,1*%
%TO.N,VREAD*%
X153900000Y-117950000D03*
D12*
%TO.P,J4,3*%
%TO.N,N/C*%
X158900000Y-117950000D03*
%TO.P,J4,2*%
%TO.N,GND*%
X156400000Y-121150000D03*
%TD*%
%TO.P,R5,1*%
%TO.N,GND*%
%TA.AperFunction,SMDPad,CuDef*%
G36*
G01*
X164400000Y-100762500D02*
X165200000Y-100762500D01*
G75*
G02*
X165500000Y-101062500I0J-300000D01*
G01*
X165500000Y-101662500D01*
G75*
G02*
X165200000Y-101962500I-300000J0D01*
G01*
X164400000Y-101962500D01*
G75*
G02*
X164100000Y-101662500I0J300000D01*
G01*
X164100000Y-101062500D01*
G75*
G02*
X164400000Y-100762500I300000J0D01*
G01*
G37*
%TD.AperFunction*%
%TO.P,R5,2*%
%TO.N,IN1*%
%TA.AperFunction,SMDPad,CuDef*%
G36*
G01*
X164400000Y-102637500D02*
X165200000Y-102637500D01*
G75*
G02*
X165500000Y-102937500I0J-300000D01*
G01*
X165500000Y-103537500D01*
G75*
G02*
X165200000Y-103837500I-300000J0D01*
G01*
X164400000Y-103837500D01*
G75*
G02*
X164100000Y-103537500I0J300000D01*
G01*
X164100000Y-102937500D01*
G75*
G02*
X164400000Y-102637500I300000J0D01*
G01*
G37*
%TD.AperFunction*%
%TD*%
%TO.P,R4,2*%
%TO.N,IN2*%
%TA.AperFunction,SMDPad,CuDef*%
G36*
G01*
X162200000Y-102637500D02*
X163000000Y-102637500D01*
G75*
G02*
X163300000Y-102937500I0J-300000D01*
G01*
X163300000Y-103537500D01*
G75*
G02*
X163000000Y-103837500I-300000J0D01*
G01*
X162200000Y-103837500D01*
G75*
G02*
X161900000Y-103537500I0J300000D01*
G01*
X161900000Y-102937500D01*
G75*
G02*
X162200000Y-102637500I300000J0D01*
G01*
G37*
%TD.AperFunction*%
%TO.P,R4,1*%
%TO.N,GND*%
%TA.AperFunction,SMDPad,CuDef*%
G36*
G01*
X162200000Y-100762500D02*
X163000000Y-100762500D01*
G75*
G02*
X163300000Y-101062500I0J-300000D01*
G01*
X163300000Y-101662500D01*
G75*
G02*
X163000000Y-101962500I-300000J0D01*
G01*
X162200000Y-101962500D01*
G75*
G02*
X161900000Y-101662500I0J300000D01*
G01*
X161900000Y-101062500D01*
G75*
G02*
X162200000Y-100762500I300000J0D01*
G01*
G37*
%TD.AperFunction*%
%TD*%
D13*
%TO.P,REF\u002A\u002A,A12*%
%TO.N,GND*%
X161892000Y-106950000D03*
%TO.P,REF\u002A\u002A,B12*%
X161892000Y-112494000D03*
D14*
%TO.P,REF\u002A\u002A,A9*%
%TO.N,Net-(C4-Pad1)*%
X161892000Y-108180000D03*
%TO.P,REF\u002A\u002A,B9*%
X161892000Y-111224000D03*
D15*
%TO.P,REF\u002A\u002A,A5*%
%TO.N,IN1*%
X161892000Y-110208000D03*
%TO.P,REF\u002A\u002A,B5*%
%TO.N,IN2*%
X161892000Y-109200000D03*
D16*
%TO.P,REF\u002A\u002A,*%
%TO.N,*%
X166200000Y-105380000D03*
D17*
%TD*%
%TO.N,N/C*%
%TO.C,REF\u002A\u002A*%
X166200000Y-114395000D03*
D16*
%TO.P,REF\u002A\u002A,*%
%TO.N,*%
X166200000Y-114020000D03*
X162400000Y-105380000D03*
X162400000Y-114020000D03*
%TD*%
%TO.P,R3\u002A,2*%
%TO.N,Net-(R3-Pad2)*%
%TA.AperFunction,SMDPad,CuDef*%
G36*
G01*
X159500000Y-102737500D02*
X160300000Y-102737500D01*
G75*
G02*
X160600000Y-103037500I0J-300000D01*
G01*
X160600000Y-103637500D01*
G75*
G02*
X160300000Y-103937500I-300000J0D01*
G01*
X159500000Y-103937500D01*
G75*
G02*
X159200000Y-103637500I0J300000D01*
G01*
X159200000Y-103037500D01*
G75*
G02*
X159500000Y-102737500I300000J0D01*
G01*
G37*
%TD.AperFunction*%
%TO.P,R3\u002A,1*%
%TO.N,GND*%
%TA.AperFunction,SMDPad,CuDef*%
G36*
G01*
X159500000Y-100862500D02*
X160300000Y-100862500D01*
G75*
G02*
X160600000Y-101162500I0J-300000D01*
G01*
X160600000Y-101762500D01*
G75*
G02*
X160300000Y-102062500I-300000J0D01*
G01*
X159500000Y-102062500D01*
G75*
G02*
X159200000Y-101762500I0J300000D01*
G01*
X159200000Y-101162500D01*
G75*
G02*
X159500000Y-100862500I300000J0D01*
G01*
G37*
%TD.AperFunction*%
%TD*%
%TO.P,R2,1*%
%TO.N,Net-(R2-Pad1)*%
%TA.AperFunction,SMDPad,CuDef*%
G36*
G01*
X155200000Y-103937500D02*
X154400000Y-103937500D01*
G75*
G02*
X154100000Y-103637500I0J300000D01*
G01*
X154100000Y-103037500D01*
G75*
G02*
X154400000Y-102737500I300000J0D01*
G01*
X155200000Y-102737500D01*
G75*
G02*
X155500000Y-103037500I0J-300000D01*
G01*
X155500000Y-103637500D01*
G75*
G02*
X155200000Y-103937500I-300000J0D01*
G01*
G37*
%TD.AperFunction*%
%TO.P,R2,2*%
%TO.N,Net-(D1-Pad1)*%
%TA.AperFunction,SMDPad,CuDef*%
G36*
G01*
X155200000Y-102062500D02*
X154400000Y-102062500D01*
G75*
G02*
X154100000Y-101762500I0J300000D01*
G01*
X154100000Y-101162500D01*
G75*
G02*
X154400000Y-100862500I300000J0D01*
G01*
X155200000Y-100862500D01*
G75*
G02*
X155500000Y-101162500I0J-300000D01*
G01*
X155500000Y-101762500D01*
G75*
G02*
X155200000Y-102062500I-300000J0D01*
G01*
G37*
%TD.AperFunction*%
%TD*%
%TO.P,D1,1*%
%TO.N,Net-(D1-Pad1)*%
%TA.AperFunction,SMDPad,CuDef*%
G36*
G01*
X157100000Y-100862500D02*
X157900000Y-100862500D01*
G75*
G02*
X158200000Y-101162500I0J-300000D01*
G01*
X158200000Y-101762500D01*
G75*
G02*
X157900000Y-102062500I-300000J0D01*
G01*
X157100000Y-102062500D01*
G75*
G02*
X156800000Y-101762500I0J300000D01*
G01*
X156800000Y-101162500D01*
G75*
G02*
X157100000Y-100862500I300000J0D01*
G01*
G37*
%TD.AperFunction*%
%TO.P,D1,2*%
%TO.N,Net-(C4-Pad1)*%
%TA.AperFunction,SMDPad,CuDef*%
G36*
G01*
X157100000Y-102737500D02*
X157900000Y-102737500D01*
G75*
G02*
X158200000Y-103037500I0J-300000D01*
G01*
X158200000Y-103637500D01*
G75*
G02*
X157900000Y-103937500I-300000J0D01*
G01*
X157100000Y-103937500D01*
G75*
G02*
X156800000Y-103637500I0J300000D01*
G01*
X156800000Y-103037500D01*
G75*
G02*
X157100000Y-102737500I300000J0D01*
G01*
G37*
%TD.AperFunction*%
%TD*%
%TO.P,C1,2*%
%TO.N,GND*%
%TA.AperFunction,SMDPad,CuDef*%
G36*
G01*
X156837500Y-110400000D02*
X156837500Y-109600000D01*
G75*
G02*
X157137500Y-109300000I300000J0D01*
G01*
X157737500Y-109300000D01*
G75*
G02*
X158037500Y-109600000I0J-300000D01*
G01*
X158037500Y-110400000D01*
G75*
G02*
X157737500Y-110700000I-300000J0D01*
G01*
X157137500Y-110700000D01*
G75*
G02*
X156837500Y-110400000I0J300000D01*
G01*
G37*
%TD.AperFunction*%
%TO.P,C1,1*%
%TO.N,Net-(C4-Pad1)*%
%TA.AperFunction,SMDPad,CuDef*%
G36*
G01*
X154962500Y-110400000D02*
X154962500Y-109600000D01*
G75*
G02*
X155262500Y-109300000I300000J0D01*
G01*
X155862500Y-109300000D01*
G75*
G02*
X156162500Y-109600000I0J-300000D01*
G01*
X156162500Y-110400000D01*
G75*
G02*
X155862500Y-110700000I-300000J0D01*
G01*
X155262500Y-110700000D01*
G75*
G02*
X154962500Y-110400000I0J300000D01*
G01*
G37*
%TD.AperFunction*%
%TD*%
%TO.P,C2,1*%
%TO.N,VIN*%
%TA.AperFunction,SMDPad,CuDef*%
G36*
G01*
X150762500Y-110400000D02*
X150762500Y-109600000D01*
G75*
G02*
X151062500Y-109300000I300000J0D01*
G01*
X151662500Y-109300000D01*
G75*
G02*
X151962500Y-109600000I0J-300000D01*
G01*
X151962500Y-110400000D01*
G75*
G02*
X151662500Y-110700000I-300000J0D01*
G01*
X151062500Y-110700000D01*
G75*
G02*
X150762500Y-110400000I0J300000D01*
G01*
G37*
%TD.AperFunction*%
%TO.P,C2,2*%
%TO.N,GND*%
%TA.AperFunction,SMDPad,CuDef*%
G36*
G01*
X152637500Y-110400000D02*
X152637500Y-109600000D01*
G75*
G02*
X152937500Y-109300000I300000J0D01*
G01*
X153537500Y-109300000D01*
G75*
G02*
X153837500Y-109600000I0J-300000D01*
G01*
X153837500Y-110400000D01*
G75*
G02*
X153537500Y-110700000I-300000J0D01*
G01*
X152937500Y-110700000D01*
G75*
G02*
X152637500Y-110400000I0J300000D01*
G01*
G37*
%TD.AperFunction*%
%TD*%
D18*
%TO.N,GND*%
X152200000Y-104700000D02*
X152200000Y-104700000D01*
X160600000Y-101462500D02*
X159900000Y-101462500D01*
X161300000Y-102162500D02*
X160600000Y-101462500D01*
X161300000Y-103903641D02*
X161300000Y-102162500D01*
X159900000Y-100500000D02*
X159900000Y-101462500D01*
X158800000Y-99400000D02*
X159900000Y-100500000D01*
X154200000Y-99400000D02*
X158800000Y-99400000D01*
X153400000Y-100200000D02*
X154200000Y-99400000D01*
X152900000Y-106800000D02*
X152200000Y-106100000D01*
X154100000Y-106800000D02*
X152900000Y-106800000D01*
X153400000Y-103500000D02*
X153400000Y-100200000D01*
X152200000Y-106100000D02*
X152200000Y-104700000D01*
X152200000Y-104700000D02*
X153400000Y-103500000D01*
D19*
X156400000Y-121150000D02*
X159350000Y-121150000D01*
X159350000Y-121150000D02*
X161400000Y-119100000D01*
X161400000Y-119100000D02*
X161400000Y-117300000D01*
X159094000Y-114994000D02*
X159094000Y-112494000D01*
X161400000Y-117300000D02*
X159094000Y-114994000D01*
X156400000Y-121150000D02*
X147950000Y-121150000D01*
X147950000Y-121150000D02*
X144700000Y-117900000D01*
X144700000Y-117900000D02*
X144700000Y-97200000D01*
X148200000Y-93700000D02*
X150950000Y-93700000D01*
X144700000Y-97200000D02*
X148200000Y-93700000D01*
D20*
X153000000Y-111900000D02*
X153000000Y-113500000D01*
X153400000Y-111500000D02*
X153000000Y-111900000D01*
X159094000Y-112494000D02*
X158100000Y-111500000D01*
X158100000Y-111500000D02*
X153400000Y-111500000D01*
X161892000Y-106950000D02*
X160950000Y-106950000D01*
X160950000Y-106950000D02*
X160300000Y-106300000D01*
X160300000Y-106300000D02*
X160300000Y-105300000D01*
X161300000Y-104300000D02*
X161300000Y-103903641D01*
X160300000Y-105300000D02*
X161300000Y-104300000D01*
X161892000Y-112494000D02*
X159094000Y-112494000D01*
D18*
%TO.N,Net-(C4-Pad1)*%
X156700000Y-107750000D02*
X158550000Y-107750000D01*
X158550000Y-107750000D02*
X158980000Y-108180000D01*
X158980000Y-110680000D02*
X158980000Y-108180000D01*
X159524000Y-111224000D02*
X158980000Y-110680000D01*
X155562500Y-108887500D02*
X156700000Y-107750000D01*
X155562500Y-110000000D02*
X155562500Y-108887500D01*
X158550000Y-107750000D02*
X158550000Y-107750000D01*
D21*
X157500000Y-103337500D02*
X157162500Y-103337500D01*
X157162500Y-103337500D02*
X155400000Y-105100000D01*
X155400000Y-105100000D02*
X155400000Y-106500000D01*
X156650000Y-107750000D02*
X156700000Y-107750000D01*
X155400000Y-106500000D02*
X156650000Y-107750000D01*
D18*
X158980000Y-108180000D02*
X161892000Y-108180000D01*
X159524000Y-111224000D02*
X161892000Y-111224000D01*
D21*
%TO.N,Net-(D1-Pad1)*%
X154800000Y-101462500D02*
X157500000Y-101462500D01*
%TO.N,Net-(R2-Pad1)*%
X154100000Y-104037500D02*
X154800000Y-103337500D01*
X154100000Y-105850000D02*
X154100000Y-104037500D01*
%TO.N,Net-(R3-Pad2)*%
X158750000Y-104350000D02*
X157250000Y-105850000D01*
X157250000Y-105850000D02*
X156700000Y-105850000D01*
X158750000Y-103850000D02*
X158750000Y-104350000D01*
X159900000Y-103337500D02*
X159262500Y-103337500D01*
X159262500Y-103337500D02*
X158750000Y-103850000D01*
D19*
%TO.N,VIN*%
X149600000Y-103050000D02*
X150950000Y-101700000D01*
X149600000Y-105962500D02*
X149600000Y-103050000D01*
X150300000Y-105962500D02*
X149600000Y-105962500D01*
X151362500Y-107025000D02*
X150300000Y-105962500D01*
X151362500Y-110000000D02*
X151362500Y-107025000D01*
X150400000Y-112250000D02*
X151150000Y-112250000D01*
X151362500Y-112037500D02*
X151362500Y-110000000D01*
X151150000Y-112250000D02*
X151362500Y-112037500D01*
D18*
X152500000Y-107750000D02*
X151362500Y-108887500D01*
X151362500Y-108887500D02*
X151362500Y-110000000D01*
X154100000Y-107750000D02*
X152500000Y-107750000D01*
D19*
%TO.N,5V*%
X147800000Y-113200000D02*
X147800000Y-117000000D01*
X147800000Y-117000000D02*
X150600000Y-119800000D01*
X150600000Y-119800000D02*
X154900000Y-119800000D01*
X155540000Y-115740000D02*
X155540000Y-113500000D01*
X154900000Y-119800000D02*
X156200000Y-118500000D01*
X156200000Y-116400000D02*
X155540000Y-115740000D01*
X156200000Y-118500000D02*
X156200000Y-116400000D01*
D21*
%TO.N,IN1*%
X164600000Y-103437500D02*
X164800000Y-103237500D01*
X164600000Y-109400000D02*
X164600000Y-103437500D01*
X163792000Y-110208000D02*
X164600000Y-109400000D01*
X161892000Y-110208000D02*
X163792000Y-110208000D01*
%TO.N,IN2*%
X162600000Y-103237500D02*
X162600000Y-103600000D01*
X162600000Y-103600000D02*
X163900000Y-104900000D01*
X163900000Y-104900000D02*
X163900000Y-108600000D01*
X163300000Y-109200000D02*
X161892000Y-109200000D01*
X163900000Y-108600000D02*
X163300000Y-109200000D01*
%TO.N,VREAD*%
X153900000Y-117950000D02*
X152650000Y-117950000D01*
X150400000Y-115700000D02*
X150400000Y-114150000D01*
X152650000Y-117950000D02*
X150550000Y-115850000D01*
X150550000Y-115850000D02*
X150400000Y-115700000D01*
X149600000Y-107837500D02*
X148962500Y-107837500D01*
X148962500Y-107837500D02*
X148300000Y-108500000D01*
X148300000Y-111300000D02*
X149019999Y-112019999D01*
X149019999Y-112019999D02*
X149019999Y-112680001D01*
X148300000Y-108500000D02*
X148300000Y-111300000D01*
X149319999Y-112980001D02*
X149319999Y-113719999D01*
X149019999Y-112680001D02*
X149319999Y-112980001D01*
X149750000Y-114150000D02*
X150400000Y-114150000D01*
X149319999Y-113719999D02*
X149750000Y-114150000D01*
%TD*%
D22*
%TO.N,GND*%
G36*
X165455456Y-87699785D02*
G01*
X165893561Y-87832056D01*
X166297633Y-88046905D01*
X166652279Y-88336147D01*
X166943989Y-88688764D01*
X167161652Y-89091325D01*
X167296981Y-89528499D01*
X167348000Y-90013917D01*
X167348000Y-104447603D01*
X167234983Y-104354851D01*
X167021824Y-104240916D01*
X166790534Y-104170755D01*
X166610268Y-104153000D01*
X165892210Y-104153000D01*
X165973294Y-104054199D01*
X166059238Y-103893408D01*
X166112163Y-103718940D01*
X166130033Y-103537500D01*
X166130033Y-102937500D01*
X166112163Y-102756060D01*
X166059238Y-102581592D01*
X165973294Y-102420801D01*
X165959320Y-102403773D01*
X166030537Y-102316994D01*
X166089502Y-102206680D01*
X166125812Y-102086982D01*
X166138072Y-101962500D01*
X166135000Y-101648250D01*
X165976250Y-101489500D01*
X164927000Y-101489500D01*
X164927000Y-101509500D01*
X164673000Y-101509500D01*
X164673000Y-101489500D01*
X162727000Y-101489500D01*
X162727000Y-101509500D01*
X162473000Y-101509500D01*
X162473000Y-101489500D01*
X161423750Y-101489500D01*
X161265000Y-101648250D01*
X161261928Y-101962500D01*
X161274188Y-102086982D01*
X161310498Y-102206680D01*
X161369463Y-102316994D01*
X161440680Y-102403773D01*
X161426706Y-102420801D01*
X161340762Y-102581592D01*
X161287837Y-102756060D01*
X161269967Y-102937500D01*
X161269967Y-103537500D01*
X161287837Y-103718940D01*
X161340762Y-103893408D01*
X161426706Y-104054199D01*
X161542367Y-104195133D01*
X161592762Y-104236491D01*
X161578176Y-104240916D01*
X161365017Y-104354851D01*
X161178183Y-104508183D01*
X161024851Y-104695017D01*
X160910916Y-104908176D01*
X160840755Y-105139466D01*
X160817064Y-105380000D01*
X160840755Y-105620534D01*
X160910916Y-105851824D01*
X160916720Y-105862683D01*
X160692000Y-105861928D01*
X160567518Y-105874188D01*
X160447820Y-105910498D01*
X160337506Y-105969463D01*
X160240815Y-106048815D01*
X160161463Y-106145506D01*
X160102498Y-106255820D01*
X160066188Y-106375518D01*
X160053928Y-106500000D01*
X160057000Y-106664250D01*
X160215750Y-106823000D01*
X161765000Y-106823000D01*
X161765000Y-106803000D01*
X162019000Y-106803000D01*
X162019000Y-106823000D01*
X162039000Y-106823000D01*
X162039000Y-107077000D01*
X162019000Y-107077000D01*
X162019000Y-107097000D01*
X161765000Y-107097000D01*
X161765000Y-107077000D01*
X160215750Y-107077000D01*
X160089750Y-107203000D01*
X159384686Y-107203000D01*
X159274784Y-107093098D01*
X159244186Y-107055814D01*
X159095418Y-106933724D01*
X158925691Y-106843003D01*
X158741525Y-106787137D01*
X158597993Y-106773000D01*
X158550000Y-106768273D01*
X158502007Y-106773000D01*
X157688605Y-106773000D01*
X157741103Y-106757075D01*
X157850028Y-106698853D01*
X157945501Y-106620501D01*
X158023853Y-106525028D01*
X158082075Y-106416103D01*
X158117927Y-106297913D01*
X158130033Y-106175000D01*
X158130033Y-106033455D01*
X159255626Y-104907863D01*
X159284317Y-104884317D01*
X159328854Y-104830048D01*
X159378290Y-104769811D01*
X159426192Y-104680191D01*
X159448118Y-104639170D01*
X159470724Y-104564650D01*
X159500000Y-104567533D01*
X160300000Y-104567533D01*
X160481440Y-104549663D01*
X160655908Y-104496738D01*
X160816699Y-104410794D01*
X160957633Y-104295133D01*
X161073294Y-104154199D01*
X161159238Y-103993408D01*
X161212163Y-103818940D01*
X161230033Y-103637500D01*
X161230033Y-103037500D01*
X161212163Y-102856060D01*
X161159238Y-102681592D01*
X161073294Y-102520801D01*
X161059320Y-102503773D01*
X161130537Y-102416994D01*
X161189502Y-102306680D01*
X161225812Y-102186982D01*
X161238072Y-102062500D01*
X161235000Y-101748250D01*
X161076250Y-101589500D01*
X160027000Y-101589500D01*
X160027000Y-101609500D01*
X159773000Y-101609500D01*
X159773000Y-101589500D01*
X159753000Y-101589500D01*
X159753000Y-101335500D01*
X159773000Y-101335500D01*
X159773000Y-100386250D01*
X160027000Y-100386250D01*
X160027000Y-101335500D01*
X161076250Y-101335500D01*
X161235000Y-101176750D01*
X161238072Y-100862500D01*
X161228224Y-100762500D01*
X161261928Y-100762500D01*
X161265000Y-101076750D01*
X161423750Y-101235500D01*
X162473000Y-101235500D01*
X162473000Y-100286250D01*
X162727000Y-100286250D01*
X162727000Y-101235500D01*
X164673000Y-101235500D01*
X164673000Y-100286250D01*
X164927000Y-100286250D01*
X164927000Y-101235500D01*
X165976250Y-101235500D01*
X166135000Y-101076750D01*
X166138072Y-100762500D01*
X166125812Y-100638018D01*
X166089502Y-100518320D01*
X166030537Y-100408006D01*
X165951185Y-100311315D01*
X165854494Y-100231963D01*
X165744180Y-100172998D01*
X165624482Y-100136688D01*
X165500000Y-100124428D01*
X165085750Y-100127500D01*
X164927000Y-100286250D01*
X164673000Y-100286250D01*
X164514250Y-100127500D01*
X164100000Y-100124428D01*
X163975518Y-100136688D01*
X163855820Y-100172998D01*
X163745506Y-100231963D01*
X163700000Y-100269309D01*
X163654494Y-100231963D01*
X163544180Y-100172998D01*
X163424482Y-100136688D01*
X163300000Y-100124428D01*
X162885750Y-100127500D01*
X162727000Y-100286250D01*
X162473000Y-100286250D01*
X162314250Y-100127500D01*
X161900000Y-100124428D01*
X161775518Y-100136688D01*
X161655820Y-100172998D01*
X161545506Y-100231963D01*
X161448815Y-100311315D01*
X161369463Y-100408006D01*
X161310498Y-100518320D01*
X161274188Y-100638018D01*
X161261928Y-100762500D01*
X161228224Y-100762500D01*
X161225812Y-100738018D01*
X161189502Y-100618320D01*
X161130537Y-100508006D01*
X161051185Y-100411315D01*
X160954494Y-100331963D01*
X160844180Y-100272998D01*
X160724482Y-100236688D01*
X160600000Y-100224428D01*
X160185750Y-100227500D01*
X160027000Y-100386250D01*
X159773000Y-100386250D01*
X159614250Y-100227500D01*
X159200000Y-100224428D01*
X159075518Y-100236688D01*
X158955820Y-100272998D01*
X158845506Y-100331963D01*
X158748815Y-100411315D01*
X158669463Y-100508006D01*
X158626371Y-100588625D01*
X158557633Y-100504867D01*
X158416699Y-100389206D01*
X158255908Y-100303262D01*
X158081440Y-100250337D01*
X157900000Y-100232467D01*
X157100000Y-100232467D01*
X156918560Y-100250337D01*
X156744092Y-100303262D01*
X156583301Y-100389206D01*
X156442367Y-100504867D01*
X156326706Y-100645801D01*
X156292124Y-100710500D01*
X156007876Y-100710500D01*
X155973294Y-100645801D01*
X155857633Y-100504867D01*
X155716699Y-100389206D01*
X155555908Y-100303262D01*
X155381440Y-100250337D01*
X155200000Y-100232467D01*
X154400000Y-100232467D01*
X154218560Y-100250337D01*
X154044092Y-100303262D01*
X153883301Y-100389206D01*
X153742367Y-100504867D01*
X153626706Y-100645801D01*
X153540762Y-100806592D01*
X153487837Y-100981060D01*
X153469967Y-101162500D01*
X153469967Y-101762500D01*
X153487837Y-101943940D01*
X153540762Y-102118408D01*
X153626706Y-102279199D01*
X153725844Y-102400000D01*
X153626706Y-102520801D01*
X153540762Y-102681592D01*
X153487837Y-102856060D01*
X153469967Y-103037500D01*
X153469967Y-103620951D01*
X153401882Y-103748331D01*
X153373126Y-103843126D01*
X153358882Y-103890082D01*
X153357620Y-103902893D01*
X153344362Y-104037500D01*
X153348001Y-104074445D01*
X153348001Y-104894967D01*
X153300000Y-104894967D01*
X153177087Y-104907073D01*
X153058897Y-104942925D01*
X152949972Y-105001147D01*
X152854499Y-105079499D01*
X152776147Y-105174972D01*
X152717925Y-105283897D01*
X152682073Y-105402087D01*
X152669967Y-105525000D01*
X152669967Y-106175000D01*
X152682073Y-106297913D01*
X152686109Y-106311219D01*
X152674188Y-106350518D01*
X152661928Y-106475000D01*
X152665000Y-106514250D01*
X152823748Y-106672998D01*
X152665000Y-106672998D01*
X152665000Y-106773000D01*
X152547993Y-106773000D01*
X152500000Y-106768273D01*
X152463427Y-106771875D01*
X152408750Y-106591629D01*
X152304100Y-106395843D01*
X152287420Y-106375518D01*
X152198558Y-106267239D01*
X152198555Y-106267236D01*
X152163265Y-106224235D01*
X152120264Y-106188945D01*
X151136059Y-105204741D01*
X151100765Y-105161735D01*
X150929157Y-105020900D01*
X150733371Y-104916250D01*
X150727000Y-104914317D01*
X150727000Y-104080033D01*
X151825000Y-104080033D01*
X152118617Y-104051114D01*
X152400951Y-103965469D01*
X152661152Y-103826389D01*
X152889219Y-103639219D01*
X153076389Y-103411152D01*
X153215469Y-103150951D01*
X153301114Y-102868617D01*
X153330033Y-102575000D01*
X153330033Y-100825000D01*
X153301114Y-100531383D01*
X153215469Y-100249049D01*
X153076389Y-99988848D01*
X152889219Y-99760781D01*
X152661152Y-99573611D01*
X152400951Y-99434531D01*
X152118617Y-99348886D01*
X151825000Y-99319967D01*
X150075000Y-99319967D01*
X149781383Y-99348886D01*
X149499049Y-99434531D01*
X149238848Y-99573611D01*
X149010781Y-99760781D01*
X148823611Y-99988848D01*
X148684531Y-100249049D01*
X148598886Y-100531383D01*
X148569967Y-100825000D01*
X148569967Y-102575000D01*
X148570906Y-102584533D01*
X148553750Y-102616630D01*
X148529558Y-102696381D01*
X148489308Y-102829069D01*
X148482008Y-102903183D01*
X148467548Y-103050000D01*
X148473001Y-103105364D01*
X148473000Y-105089391D01*
X148426706Y-105145801D01*
X148340762Y-105306592D01*
X148287837Y-105481060D01*
X148269967Y-105662500D01*
X148269967Y-106262500D01*
X148287837Y-106443940D01*
X148340762Y-106618408D01*
X148426706Y-106779199D01*
X148525844Y-106900000D01*
X148426706Y-107020801D01*
X148340762Y-107181592D01*
X148287837Y-107356060D01*
X148277719Y-107458792D01*
X147794379Y-107942133D01*
X147765683Y-107965683D01*
X147716337Y-108025812D01*
X147671710Y-108080190D01*
X147646866Y-108126671D01*
X147601882Y-108210831D01*
X147558881Y-108352583D01*
X147553768Y-108404499D01*
X147544362Y-108500000D01*
X147548000Y-108536936D01*
X147548001Y-111263055D01*
X147544362Y-111300000D01*
X147558882Y-111447417D01*
X147601882Y-111589169D01*
X147671710Y-111719810D01*
X147742137Y-111805625D01*
X147765684Y-111834317D01*
X147794375Y-111857863D01*
X148027947Y-112091436D01*
X148020930Y-112089307D01*
X147800000Y-112067547D01*
X147579069Y-112089307D01*
X147366629Y-112153750D01*
X147195974Y-112244967D01*
X147000000Y-112244967D01*
X146877087Y-112257073D01*
X146758897Y-112292925D01*
X146649972Y-112351147D01*
X146554499Y-112429499D01*
X146476147Y-112524972D01*
X146417925Y-112633897D01*
X146382073Y-112752087D01*
X146369967Y-112875000D01*
X146369967Y-113525000D01*
X146382073Y-113647913D01*
X146417925Y-113766103D01*
X146476147Y-113875028D01*
X146554499Y-113970501D01*
X146649972Y-114048853D01*
X146673000Y-114061162D01*
X146673001Y-116944636D01*
X146667548Y-117000000D01*
X146673001Y-117055364D01*
X146673001Y-117055365D01*
X146687050Y-117198000D01*
X146689308Y-117220930D01*
X146753750Y-117433370D01*
X146858400Y-117629156D01*
X146963942Y-117757760D01*
X146963946Y-117757764D01*
X146999236Y-117800765D01*
X147042237Y-117836055D01*
X149763945Y-120557764D01*
X149799235Y-120600765D01*
X149842236Y-120636055D01*
X149842239Y-120636058D01*
X149945760Y-120721015D01*
X149970843Y-120741600D01*
X150166629Y-120846250D01*
X150379069Y-120910693D01*
X150544635Y-120927000D01*
X150544645Y-120927000D01*
X150600000Y-120932452D01*
X150655354Y-120927000D01*
X154844646Y-120927000D01*
X154900000Y-120932452D01*
X154955354Y-120927000D01*
X154955365Y-120927000D01*
X155120931Y-120910693D01*
X155196191Y-120887863D01*
X155280036Y-121023000D01*
X156273000Y-121023000D01*
X156273000Y-121003000D01*
X156527000Y-121003000D01*
X156527000Y-121023000D01*
X157519964Y-121023000D01*
X157643104Y-120824529D01*
X157555722Y-120588265D01*
X157423926Y-120373588D01*
X157252781Y-120188748D01*
X157048864Y-120040849D01*
X156820012Y-119935574D01*
X156725471Y-119906901D01*
X156527002Y-120030932D01*
X156527002Y-119865000D01*
X156428818Y-119865000D01*
X156957764Y-119336055D01*
X157000765Y-119300765D01*
X157036055Y-119257764D01*
X157036058Y-119257761D01*
X157141600Y-119129157D01*
X157246250Y-118933371D01*
X157310693Y-118720931D01*
X157312199Y-118705638D01*
X157327000Y-118555365D01*
X157327000Y-118555357D01*
X157332452Y-118500000D01*
X157327000Y-118444643D01*
X157327000Y-117824226D01*
X157623000Y-117824226D01*
X157623000Y-118075774D01*
X157672074Y-118322487D01*
X157768337Y-118554886D01*
X157908089Y-118764040D01*
X158085960Y-118941911D01*
X158295114Y-119081663D01*
X158527513Y-119177926D01*
X158774226Y-119227000D01*
X159025774Y-119227000D01*
X159272487Y-119177926D01*
X159504886Y-119081663D01*
X159714040Y-118941911D01*
X159819836Y-118836115D01*
X163336051Y-118836115D01*
X163336051Y-119163885D01*
X163399996Y-119485356D01*
X163525428Y-119788175D01*
X163707527Y-120060706D01*
X163939294Y-120292473D01*
X164211825Y-120474572D01*
X164514644Y-120600004D01*
X164836115Y-120663949D01*
X165163885Y-120663949D01*
X165485356Y-120600004D01*
X165788175Y-120474572D01*
X166060706Y-120292473D01*
X166292473Y-120060706D01*
X166474572Y-119788175D01*
X166600004Y-119485356D01*
X166663949Y-119163885D01*
X166663949Y-118836115D01*
X166600004Y-118514644D01*
X166474572Y-118211825D01*
X166292473Y-117939294D01*
X166060706Y-117707527D01*
X165788175Y-117525428D01*
X165485356Y-117399996D01*
X165163885Y-117336051D01*
X164836115Y-117336051D01*
X164514644Y-117399996D01*
X164211825Y-117525428D01*
X163939294Y-117707527D01*
X163707527Y-117939294D01*
X163525428Y-118211825D01*
X163399996Y-118514644D01*
X163336051Y-118836115D01*
X159819836Y-118836115D01*
X159891911Y-118764040D01*
X160031663Y-118554886D01*
X160127926Y-118322487D01*
X160177000Y-118075774D01*
X160177000Y-117824226D01*
X160127926Y-117577513D01*
X160031663Y-117345114D01*
X159891911Y-117135960D01*
X159714040Y-116958089D01*
X159504886Y-116818337D01*
X159272487Y-116722074D01*
X159025774Y-116673000D01*
X158774226Y-116673000D01*
X158527513Y-116722074D01*
X158295114Y-116818337D01*
X158085960Y-116958089D01*
X157908089Y-117135960D01*
X157768337Y-117345114D01*
X157672074Y-117577513D01*
X157623000Y-117824226D01*
X157327000Y-117824226D01*
X157327000Y-116455354D01*
X157332452Y-116400000D01*
X157327000Y-116344645D01*
X157327000Y-116344635D01*
X157310693Y-116179069D01*
X157246250Y-115966629D01*
X157141600Y-115770843D01*
X157000765Y-115599235D01*
X156957758Y-115563940D01*
X156667000Y-115273182D01*
X156667000Y-115107148D01*
X156711021Y-115071021D01*
X156842228Y-114911145D01*
X156939723Y-114728744D01*
X156999761Y-114530827D01*
X157020033Y-114325000D01*
X157020033Y-112944000D01*
X160053928Y-112944000D01*
X160066188Y-113068482D01*
X160102498Y-113188180D01*
X160161463Y-113298494D01*
X160240815Y-113395185D01*
X160337506Y-113474537D01*
X160447820Y-113533502D01*
X160567518Y-113569812D01*
X160692000Y-113582072D01*
X160900847Y-113581370D01*
X160840755Y-113779466D01*
X160817064Y-114020000D01*
X160840755Y-114260534D01*
X160910916Y-114491824D01*
X161024851Y-114704983D01*
X161178183Y-114891817D01*
X161365017Y-115045149D01*
X161578176Y-115159084D01*
X161809466Y-115229245D01*
X161989732Y-115247000D01*
X162810268Y-115247000D01*
X162990534Y-115229245D01*
X163221824Y-115159084D01*
X163434983Y-115045149D01*
X163621817Y-114891817D01*
X163775149Y-114704983D01*
X163889084Y-114491824D01*
X163959245Y-114260534D01*
X163982936Y-114020000D01*
X163959245Y-113779466D01*
X163889084Y-113548176D01*
X163775149Y-113335017D01*
X163670908Y-113208000D01*
X163681502Y-113188180D01*
X163717812Y-113068482D01*
X163730072Y-112944000D01*
X163727000Y-112779750D01*
X163568250Y-112621000D01*
X162019000Y-112621000D01*
X162019000Y-112641000D01*
X161765000Y-112641000D01*
X161765000Y-112621000D01*
X160215750Y-112621000D01*
X160057000Y-112779750D01*
X160053928Y-112944000D01*
X157020033Y-112944000D01*
X157020033Y-112675000D01*
X156999761Y-112469173D01*
X156939723Y-112271256D01*
X156842228Y-112088855D01*
X156711021Y-111928979D01*
X156551145Y-111797772D01*
X156368744Y-111700277D01*
X156170827Y-111640239D01*
X155965000Y-111619967D01*
X155115000Y-111619967D01*
X154909173Y-111640239D01*
X154711256Y-111700277D01*
X154528855Y-111797772D01*
X154389449Y-111912179D01*
X154380537Y-111895506D01*
X154301185Y-111798815D01*
X154204494Y-111719463D01*
X154094180Y-111660498D01*
X153974482Y-111624188D01*
X153850000Y-111611928D01*
X153285750Y-111615000D01*
X153127000Y-111773750D01*
X153127000Y-113373000D01*
X153147000Y-113373000D01*
X153147000Y-113627000D01*
X153127000Y-113627000D01*
X153127000Y-115226250D01*
X153285750Y-115385000D01*
X153850000Y-115388072D01*
X153974482Y-115375812D01*
X154094180Y-115339502D01*
X154204494Y-115280537D01*
X154301185Y-115201185D01*
X154380537Y-115104494D01*
X154389449Y-115087821D01*
X154413000Y-115107148D01*
X154413000Y-115684645D01*
X154407548Y-115740000D01*
X154413000Y-115795354D01*
X154413000Y-115795364D01*
X154429307Y-115960930D01*
X154493750Y-116173370D01*
X154598400Y-116369157D01*
X154739235Y-116540765D01*
X154782242Y-116576060D01*
X155073001Y-116866819D01*
X155073001Y-117316983D01*
X154930748Y-117104087D01*
X154745913Y-116919252D01*
X154528570Y-116774028D01*
X154287072Y-116673996D01*
X154030698Y-116623000D01*
X153769302Y-116623000D01*
X153512928Y-116673996D01*
X153271430Y-116774028D01*
X153054087Y-116919252D01*
X152869252Y-117104087D01*
X152868581Y-117105092D01*
X151152000Y-115388512D01*
X151152000Y-115105033D01*
X151200000Y-115105033D01*
X151322913Y-115092927D01*
X151441103Y-115057075D01*
X151550028Y-114998853D01*
X151559546Y-114991042D01*
X151560498Y-114994180D01*
X151619463Y-115104494D01*
X151698815Y-115201185D01*
X151795506Y-115280537D01*
X151905820Y-115339502D01*
X152025518Y-115375812D01*
X152150000Y-115388072D01*
X152714250Y-115385000D01*
X152873000Y-115226250D01*
X152873000Y-113627000D01*
X152853000Y-113627000D01*
X152853000Y-113373000D01*
X152873000Y-113373000D01*
X152873000Y-111773750D01*
X152714250Y-111615000D01*
X152489500Y-111613776D01*
X152489500Y-111318678D01*
X152513018Y-111325812D01*
X152637500Y-111338072D01*
X152951750Y-111335000D01*
X153110500Y-111176250D01*
X153110500Y-110127000D01*
X153090500Y-110127000D01*
X153090500Y-109873000D01*
X153110500Y-109873000D01*
X153110500Y-109853000D01*
X153364500Y-109853000D01*
X153364500Y-109873000D01*
X153384500Y-109873000D01*
X153384500Y-110127000D01*
X153364500Y-110127000D01*
X153364500Y-111176250D01*
X153523250Y-111335000D01*
X153837500Y-111338072D01*
X153961982Y-111325812D01*
X154081680Y-111289502D01*
X154191994Y-111230537D01*
X154288685Y-111151185D01*
X154368037Y-111054494D01*
X154427002Y-110944180D01*
X154454841Y-110852407D01*
X154489206Y-110916699D01*
X154604867Y-111057633D01*
X154745801Y-111173294D01*
X154906592Y-111259238D01*
X155081060Y-111312163D01*
X155262500Y-111330033D01*
X155862500Y-111330033D01*
X156043940Y-111312163D01*
X156218408Y-111259238D01*
X156379199Y-111173294D01*
X156396227Y-111159320D01*
X156483006Y-111230537D01*
X156593320Y-111289502D01*
X156713018Y-111325812D01*
X156837500Y-111338072D01*
X157151750Y-111335000D01*
X157310500Y-111176250D01*
X157310500Y-110127000D01*
X157290500Y-110127000D01*
X157290500Y-109873000D01*
X157310500Y-109873000D01*
X157310500Y-109853000D01*
X157564500Y-109853000D01*
X157564500Y-109873000D01*
X157584500Y-109873000D01*
X157584500Y-110127000D01*
X157564500Y-110127000D01*
X157564500Y-111176250D01*
X157723250Y-111335000D01*
X158037500Y-111338072D01*
X158161982Y-111325812D01*
X158229345Y-111305378D01*
X158285814Y-111374186D01*
X158323098Y-111404784D01*
X158799216Y-111880902D01*
X158829814Y-111918186D01*
X158978582Y-112040276D01*
X159148309Y-112130997D01*
X159332475Y-112186863D01*
X159476007Y-112201000D01*
X159476009Y-112201000D01*
X159523999Y-112205727D01*
X159571990Y-112201000D01*
X160056864Y-112201000D01*
X160057000Y-112208250D01*
X160215750Y-112367000D01*
X161765000Y-112367000D01*
X161765000Y-112347000D01*
X162019000Y-112347000D01*
X162019000Y-112367000D01*
X163568250Y-112367000D01*
X163727000Y-112208250D01*
X163730072Y-112044000D01*
X163717812Y-111919518D01*
X163687690Y-111820219D01*
X163709927Y-111746913D01*
X163722033Y-111624000D01*
X163722033Y-110960000D01*
X163755065Y-110960000D01*
X163792000Y-110963638D01*
X163828935Y-110960000D01*
X163828938Y-110960000D01*
X163939418Y-110949119D01*
X164081170Y-110906118D01*
X164211810Y-110836290D01*
X164326317Y-110742317D01*
X164349867Y-110713621D01*
X165105622Y-109957866D01*
X165134317Y-109934317D01*
X165228290Y-109819810D01*
X165298118Y-109689170D01*
X165341119Y-109547418D01*
X165352000Y-109436938D01*
X165352000Y-109436936D01*
X165355638Y-109400000D01*
X165352000Y-109363065D01*
X165352000Y-106505093D01*
X165378176Y-106519084D01*
X165609466Y-106589245D01*
X165789732Y-106607000D01*
X166610268Y-106607000D01*
X166790534Y-106589245D01*
X167021824Y-106519084D01*
X167234983Y-106405149D01*
X167348001Y-106312397D01*
X167348001Y-113087603D01*
X167234983Y-112994851D01*
X167021824Y-112880916D01*
X166790534Y-112810755D01*
X166610268Y-112793000D01*
X165789732Y-112793000D01*
X165609466Y-112810755D01*
X165378176Y-112880916D01*
X165165017Y-112994851D01*
X164978183Y-113148183D01*
X164824851Y-113335017D01*
X164710916Y-113548176D01*
X164640755Y-113779466D01*
X164617064Y-114020000D01*
X164640755Y-114260534D01*
X164710916Y-114491824D01*
X164824851Y-114704983D01*
X164978183Y-114891817D01*
X165165017Y-115045149D01*
X165378176Y-115159084D01*
X165609466Y-115229245D01*
X165789732Y-115247000D01*
X166610268Y-115247000D01*
X166790534Y-115229245D01*
X167021824Y-115159084D01*
X167234983Y-115045149D01*
X167348001Y-114952397D01*
X167348001Y-118968104D01*
X167300215Y-119455457D01*
X167167944Y-119893560D01*
X166953095Y-120297633D01*
X166663853Y-120652279D01*
X166311236Y-120943989D01*
X165908675Y-121161652D01*
X165471503Y-121296980D01*
X164986083Y-121348000D01*
X157564015Y-121348000D01*
X157519964Y-121277000D01*
X156527000Y-121277000D01*
X156527000Y-121297000D01*
X156273000Y-121297000D01*
X156273000Y-121277000D01*
X155280036Y-121277000D01*
X155235985Y-121348000D01*
X108031886Y-121348000D01*
X107544543Y-121300215D01*
X107106440Y-121167944D01*
X106702367Y-120953095D01*
X106347721Y-120663853D01*
X106056011Y-120311236D01*
X105838348Y-119908675D01*
X105703020Y-119471503D01*
X105652000Y-118986083D01*
X105652000Y-118836115D01*
X106336051Y-118836115D01*
X106336051Y-119163885D01*
X106399996Y-119485356D01*
X106525428Y-119788175D01*
X106707527Y-120060706D01*
X106939294Y-120292473D01*
X107211825Y-120474572D01*
X107514644Y-120600004D01*
X107836115Y-120663949D01*
X108163885Y-120663949D01*
X108485356Y-120600004D01*
X108788175Y-120474572D01*
X109060706Y-120292473D01*
X109292473Y-120060706D01*
X109474572Y-119788175D01*
X109600004Y-119485356D01*
X109663949Y-119163885D01*
X109663949Y-118836115D01*
X109600004Y-118514644D01*
X109474572Y-118211825D01*
X109292473Y-117939294D01*
X109060706Y-117707527D01*
X108788175Y-117525428D01*
X108485356Y-117399996D01*
X108163885Y-117336051D01*
X107836115Y-117336051D01*
X107514644Y-117399996D01*
X107211825Y-117525428D01*
X106939294Y-117707527D01*
X106707527Y-117939294D01*
X106525428Y-118211825D01*
X106399996Y-118514644D01*
X106336051Y-118836115D01*
X105652000Y-118836115D01*
X105652000Y-94417979D01*
X107548000Y-94417979D01*
X107548001Y-114582022D01*
X107550431Y-114606697D01*
X107552787Y-114637562D01*
X107554345Y-114646429D01*
X107557436Y-114677814D01*
X107562661Y-114695040D01*
X107568994Y-114740495D01*
X107571185Y-114749330D01*
X107583262Y-114796603D01*
X107603413Y-114852176D01*
X107622766Y-114907971D01*
X107626631Y-114916213D01*
X107647659Y-114960241D01*
X107678233Y-115010865D01*
X107708060Y-115061845D01*
X107713453Y-115069179D01*
X107742633Y-115108283D01*
X107782445Y-115151989D01*
X107821601Y-115196200D01*
X107828316Y-115202347D01*
X107828320Y-115202350D01*
X107828323Y-115202354D01*
X107828327Y-115202357D01*
X107864535Y-115235039D01*
X107912084Y-115270185D01*
X107959077Y-115305946D01*
X107966857Y-115310671D01*
X107966866Y-115310677D01*
X108008736Y-115335706D01*
X108062193Y-115360942D01*
X108115271Y-115386909D01*
X108123801Y-115390026D01*
X108123806Y-115390028D01*
X108123810Y-115390029D01*
X108123821Y-115390033D01*
X108169766Y-115406456D01*
X108227104Y-115420826D01*
X108284202Y-115435986D01*
X108293197Y-115437390D01*
X108341456Y-115444576D01*
X108400505Y-115447536D01*
X108459443Y-115451316D01*
X108468539Y-115450946D01*
X108468546Y-115450946D01*
X108517274Y-115448622D01*
X108575784Y-115440055D01*
X108634328Y-115432316D01*
X108643177Y-115430187D01*
X108643180Y-115430187D01*
X108643182Y-115430186D01*
X108690536Y-115418441D01*
X108746260Y-115398675D01*
X108802191Y-115379712D01*
X108810459Y-115375904D01*
X108810461Y-115375903D01*
X108810464Y-115375902D01*
X108810467Y-115375900D01*
X108854632Y-115355184D01*
X108859988Y-115352000D01*
X110139741Y-115352000D01*
X110154277Y-115359599D01*
X110209079Y-115381741D01*
X110263547Y-115404637D01*
X110272262Y-115407269D01*
X110319069Y-115421045D01*
X110377165Y-115432128D01*
X110435003Y-115444000D01*
X110444063Y-115444889D01*
X110492653Y-115449311D01*
X110551783Y-115448898D01*
X110610837Y-115449310D01*
X110619897Y-115448422D01*
X110619899Y-115448422D01*
X110668420Y-115443322D01*
X110726309Y-115431439D01*
X110784353Y-115420367D01*
X110793064Y-115417737D01*
X110793070Y-115417736D01*
X110793076Y-115417734D01*
X110839678Y-115403308D01*
X110894165Y-115380404D01*
X110948956Y-115358266D01*
X110956978Y-115354001D01*
X110956984Y-115353998D01*
X110956994Y-115353992D01*
X110999913Y-115330786D01*
X111048951Y-115297708D01*
X111098333Y-115265395D01*
X111105388Y-115259642D01*
X111142983Y-115228542D01*
X111184643Y-115186592D01*
X111226860Y-115145249D01*
X111232663Y-115138235D01*
X111263499Y-115100424D01*
X111296189Y-115051221D01*
X111329576Y-115002461D01*
X111333907Y-114994453D01*
X111356814Y-114951373D01*
X111379356Y-114896684D01*
X111402618Y-114842409D01*
X111405302Y-114833740D01*
X111405307Y-114833727D01*
X111405310Y-114833713D01*
X111419412Y-114787005D01*
X111430895Y-114729012D01*
X111439933Y-114686491D01*
X111442565Y-114677814D01*
X111443763Y-114665652D01*
X111444128Y-114662180D01*
X111448889Y-114613621D01*
X111448889Y-114613607D01*
X111452000Y-114582022D01*
X111452000Y-95450000D01*
X148561928Y-95450000D01*
X148574188Y-95574482D01*
X148610498Y-95694180D01*
X148669463Y-95804494D01*
X148748815Y-95901185D01*
X148845506Y-95980537D01*
X148955820Y-96039502D01*
X149075518Y-96075812D01*
X149200000Y-96088072D01*
X150664250Y-96085000D01*
X150823000Y-95926250D01*
X150823000Y-93827000D01*
X151077000Y-93827000D01*
X151077000Y-95926250D01*
X151235750Y-96085000D01*
X152700000Y-96088072D01*
X152824482Y-96075812D01*
X152944180Y-96039502D01*
X153054494Y-95980537D01*
X153151185Y-95901185D01*
X153230537Y-95804494D01*
X153289502Y-95694180D01*
X153325812Y-95574482D01*
X153338072Y-95450000D01*
X153335000Y-93985750D01*
X153176250Y-93827000D01*
X151077000Y-93827000D01*
X150823000Y-93827000D01*
X148723750Y-93827000D01*
X148565000Y-93985750D01*
X148561928Y-95450000D01*
X111452000Y-95450000D01*
X111452000Y-94417978D01*
X111449565Y-94393258D01*
X111447213Y-94362438D01*
X111445658Y-94353584D01*
X111442565Y-94322186D01*
X111437338Y-94304954D01*
X111431006Y-94259505D01*
X111428815Y-94250669D01*
X111416738Y-94203397D01*
X111396587Y-94147824D01*
X111377234Y-94092029D01*
X111373369Y-94083787D01*
X111352341Y-94039759D01*
X111321750Y-93989107D01*
X111291939Y-93938155D01*
X111286547Y-93930821D01*
X111257367Y-93891717D01*
X111217555Y-93848011D01*
X111178399Y-93803800D01*
X111171684Y-93797653D01*
X111171680Y-93797650D01*
X111171677Y-93797646D01*
X111171673Y-93797643D01*
X111135465Y-93764961D01*
X111087911Y-93729811D01*
X111040923Y-93694054D01*
X111033143Y-93689328D01*
X110991264Y-93664294D01*
X110937820Y-93639064D01*
X110884729Y-93613091D01*
X110876179Y-93609967D01*
X110830234Y-93593544D01*
X110772886Y-93579172D01*
X110715797Y-93564014D01*
X110706803Y-93562610D01*
X110658544Y-93555424D01*
X110599496Y-93552464D01*
X110540557Y-93548684D01*
X110531461Y-93549054D01*
X110531452Y-93549054D01*
X110482725Y-93551378D01*
X110424211Y-93559946D01*
X110365672Y-93567684D01*
X110356823Y-93569813D01*
X110356820Y-93569813D01*
X110356818Y-93569814D01*
X110309464Y-93581559D01*
X110253750Y-93601321D01*
X110197809Y-93620288D01*
X110189541Y-93624096D01*
X110145368Y-93644816D01*
X110140012Y-93648000D01*
X108860260Y-93648000D01*
X108845723Y-93640400D01*
X108790874Y-93618239D01*
X108736452Y-93595363D01*
X108727738Y-93592731D01*
X108680931Y-93578955D01*
X108622835Y-93567872D01*
X108564997Y-93556000D01*
X108555937Y-93555111D01*
X108507347Y-93550689D01*
X108448217Y-93551102D01*
X108389163Y-93550690D01*
X108380103Y-93551578D01*
X108380101Y-93551578D01*
X108331579Y-93556678D01*
X108273683Y-93568562D01*
X108215647Y-93579633D01*
X108206936Y-93582263D01*
X108206930Y-93582264D01*
X108206924Y-93582266D01*
X108160322Y-93596692D01*
X108105820Y-93619602D01*
X108051043Y-93641734D01*
X108043022Y-93645999D01*
X108043016Y-93646002D01*
X108043006Y-93646008D01*
X108000087Y-93669215D01*
X107951092Y-93702263D01*
X107901666Y-93734605D01*
X107894612Y-93740358D01*
X107894600Y-93740368D01*
X107894594Y-93740372D01*
X107894591Y-93740375D01*
X107857017Y-93771458D01*
X107815357Y-93813408D01*
X107773140Y-93854751D01*
X107767337Y-93861765D01*
X107736500Y-93899576D01*
X107703778Y-93948828D01*
X107670424Y-93997539D01*
X107666094Y-94005546D01*
X107666087Y-94005558D01*
X107666083Y-94005565D01*
X107666080Y-94005572D01*
X107643186Y-94048627D01*
X107620651Y-94103300D01*
X107597382Y-94157591D01*
X107594690Y-94166287D01*
X107580588Y-94212996D01*
X107569108Y-94270974D01*
X107560066Y-94313512D01*
X107557435Y-94322187D01*
X107556239Y-94334334D01*
X107555872Y-94337820D01*
X107551111Y-94386379D01*
X107551111Y-94386394D01*
X107548000Y-94417979D01*
X105652000Y-94417979D01*
X105652000Y-91950000D01*
X148561928Y-91950000D01*
X148565000Y-93414250D01*
X148723750Y-93573000D01*
X150823000Y-93573000D01*
X150823000Y-91473750D01*
X151077000Y-91473750D01*
X151077000Y-93573000D01*
X153176250Y-93573000D01*
X153335000Y-93414250D01*
X153338072Y-91950000D01*
X153325812Y-91825518D01*
X153289502Y-91705820D01*
X153230537Y-91595506D01*
X153151185Y-91498815D01*
X153054494Y-91419463D01*
X152944180Y-91360498D01*
X152824482Y-91324188D01*
X152700000Y-91311928D01*
X151235750Y-91315000D01*
X151077000Y-91473750D01*
X150823000Y-91473750D01*
X150664250Y-91315000D01*
X149200000Y-91311928D01*
X149075518Y-91324188D01*
X148955820Y-91360498D01*
X148845506Y-91419463D01*
X148748815Y-91498815D01*
X148669463Y-91595506D01*
X148610498Y-91705820D01*
X148574188Y-91825518D01*
X148561928Y-91950000D01*
X105652000Y-91950000D01*
X105652000Y-90031887D01*
X105671195Y-89836115D01*
X106336051Y-89836115D01*
X106336051Y-90163885D01*
X106399996Y-90485356D01*
X106525428Y-90788175D01*
X106707527Y-91060706D01*
X106939294Y-91292473D01*
X107211825Y-91474572D01*
X107514644Y-91600004D01*
X107836115Y-91663949D01*
X108163885Y-91663949D01*
X108485356Y-91600004D01*
X108788175Y-91474572D01*
X109060706Y-91292473D01*
X109292473Y-91060706D01*
X109474572Y-90788175D01*
X109600004Y-90485356D01*
X109663949Y-90163885D01*
X109663949Y-89836115D01*
X163336051Y-89836115D01*
X163336051Y-90163885D01*
X163399996Y-90485356D01*
X163525428Y-90788175D01*
X163707527Y-91060706D01*
X163939294Y-91292473D01*
X164211825Y-91474572D01*
X164514644Y-91600004D01*
X164836115Y-91663949D01*
X165163885Y-91663949D01*
X165485356Y-91600004D01*
X165788175Y-91474572D01*
X166060706Y-91292473D01*
X166292473Y-91060706D01*
X166474572Y-90788175D01*
X166600004Y-90485356D01*
X166663949Y-90163885D01*
X166663949Y-89836115D01*
X166600004Y-89514644D01*
X166474572Y-89211825D01*
X166292473Y-88939294D01*
X166060706Y-88707527D01*
X165788175Y-88525428D01*
X165485356Y-88399996D01*
X165163885Y-88336051D01*
X164836115Y-88336051D01*
X164514644Y-88399996D01*
X164211825Y-88525428D01*
X163939294Y-88707527D01*
X163707527Y-88939294D01*
X163525428Y-89211825D01*
X163399996Y-89514644D01*
X163336051Y-89836115D01*
X109663949Y-89836115D01*
X109600004Y-89514644D01*
X109474572Y-89211825D01*
X109292473Y-88939294D01*
X109060706Y-88707527D01*
X108788175Y-88525428D01*
X108485356Y-88399996D01*
X108163885Y-88336051D01*
X107836115Y-88336051D01*
X107514644Y-88399996D01*
X107211825Y-88525428D01*
X106939294Y-88707527D01*
X106707527Y-88939294D01*
X106525428Y-89211825D01*
X106399996Y-89514644D01*
X106336051Y-89836115D01*
X105671195Y-89836115D01*
X105699785Y-89544544D01*
X105832056Y-89106439D01*
X106046905Y-88702367D01*
X106336147Y-88347721D01*
X106688764Y-88056011D01*
X107091325Y-87838348D01*
X107528499Y-87703019D01*
X108013917Y-87652000D01*
X164968113Y-87652000D01*
X165455456Y-87699785D01*
G37*
X165455456Y-87699785D02*
X165893561Y-87832056D01*
X166297633Y-88046905D01*
X166652279Y-88336147D01*
X166943989Y-88688764D01*
X167161652Y-89091325D01*
X167296981Y-89528499D01*
X167348000Y-90013917D01*
X167348000Y-104447603D01*
X167234983Y-104354851D01*
X167021824Y-104240916D01*
X166790534Y-104170755D01*
X166610268Y-104153000D01*
X165892210Y-104153000D01*
X165973294Y-104054199D01*
X166059238Y-103893408D01*
X166112163Y-103718940D01*
X166130033Y-103537500D01*
X166130033Y-102937500D01*
X166112163Y-102756060D01*
X166059238Y-102581592D01*
X165973294Y-102420801D01*
X165959320Y-102403773D01*
X166030537Y-102316994D01*
X166089502Y-102206680D01*
X166125812Y-102086982D01*
X166138072Y-101962500D01*
X166135000Y-101648250D01*
X165976250Y-101489500D01*
X164927000Y-101489500D01*
X164927000Y-101509500D01*
X164673000Y-101509500D01*
X164673000Y-101489500D01*
X162727000Y-101489500D01*
X162727000Y-101509500D01*
X162473000Y-101509500D01*
X162473000Y-101489500D01*
X161423750Y-101489500D01*
X161265000Y-101648250D01*
X161261928Y-101962500D01*
X161274188Y-102086982D01*
X161310498Y-102206680D01*
X161369463Y-102316994D01*
X161440680Y-102403773D01*
X161426706Y-102420801D01*
X161340762Y-102581592D01*
X161287837Y-102756060D01*
X161269967Y-102937500D01*
X161269967Y-103537500D01*
X161287837Y-103718940D01*
X161340762Y-103893408D01*
X161426706Y-104054199D01*
X161542367Y-104195133D01*
X161592762Y-104236491D01*
X161578176Y-104240916D01*
X161365017Y-104354851D01*
X161178183Y-104508183D01*
X161024851Y-104695017D01*
X160910916Y-104908176D01*
X160840755Y-105139466D01*
X160817064Y-105380000D01*
X160840755Y-105620534D01*
X160910916Y-105851824D01*
X160916720Y-105862683D01*
X160692000Y-105861928D01*
X160567518Y-105874188D01*
X160447820Y-105910498D01*
X160337506Y-105969463D01*
X160240815Y-106048815D01*
X160161463Y-106145506D01*
X160102498Y-106255820D01*
X160066188Y-106375518D01*
X160053928Y-106500000D01*
X160057000Y-106664250D01*
X160215750Y-106823000D01*
X161765000Y-106823000D01*
X161765000Y-106803000D01*
X162019000Y-106803000D01*
X162019000Y-106823000D01*
X162039000Y-106823000D01*
X162039000Y-107077000D01*
X162019000Y-107077000D01*
X162019000Y-107097000D01*
X161765000Y-107097000D01*
X161765000Y-107077000D01*
X160215750Y-107077000D01*
X160089750Y-107203000D01*
X159384686Y-107203000D01*
X159274784Y-107093098D01*
X159244186Y-107055814D01*
X159095418Y-106933724D01*
X158925691Y-106843003D01*
X158741525Y-106787137D01*
X158597993Y-106773000D01*
X158550000Y-106768273D01*
X158502007Y-106773000D01*
X157688605Y-106773000D01*
X157741103Y-106757075D01*
X157850028Y-106698853D01*
X157945501Y-106620501D01*
X158023853Y-106525028D01*
X158082075Y-106416103D01*
X158117927Y-106297913D01*
X158130033Y-106175000D01*
X158130033Y-106033455D01*
X159255626Y-104907863D01*
X159284317Y-104884317D01*
X159328854Y-104830048D01*
X159378290Y-104769811D01*
X159426192Y-104680191D01*
X159448118Y-104639170D01*
X159470724Y-104564650D01*
X159500000Y-104567533D01*
X160300000Y-104567533D01*
X160481440Y-104549663D01*
X160655908Y-104496738D01*
X160816699Y-104410794D01*
X160957633Y-104295133D01*
X161073294Y-104154199D01*
X161159238Y-103993408D01*
X161212163Y-103818940D01*
X161230033Y-103637500D01*
X161230033Y-103037500D01*
X161212163Y-102856060D01*
X161159238Y-102681592D01*
X161073294Y-102520801D01*
X161059320Y-102503773D01*
X161130537Y-102416994D01*
X161189502Y-102306680D01*
X161225812Y-102186982D01*
X161238072Y-102062500D01*
X161235000Y-101748250D01*
X161076250Y-101589500D01*
X160027000Y-101589500D01*
X160027000Y-101609500D01*
X159773000Y-101609500D01*
X159773000Y-101589500D01*
X159753000Y-101589500D01*
X159753000Y-101335500D01*
X159773000Y-101335500D01*
X159773000Y-100386250D01*
X160027000Y-100386250D01*
X160027000Y-101335500D01*
X161076250Y-101335500D01*
X161235000Y-101176750D01*
X161238072Y-100862500D01*
X161228224Y-100762500D01*
X161261928Y-100762500D01*
X161265000Y-101076750D01*
X161423750Y-101235500D01*
X162473000Y-101235500D01*
X162473000Y-100286250D01*
X162727000Y-100286250D01*
X162727000Y-101235500D01*
X164673000Y-101235500D01*
X164673000Y-100286250D01*
X164927000Y-100286250D01*
X164927000Y-101235500D01*
X165976250Y-101235500D01*
X166135000Y-101076750D01*
X166138072Y-100762500D01*
X166125812Y-100638018D01*
X166089502Y-100518320D01*
X166030537Y-100408006D01*
X165951185Y-100311315D01*
X165854494Y-100231963D01*
X165744180Y-100172998D01*
X165624482Y-100136688D01*
X165500000Y-100124428D01*
X165085750Y-100127500D01*
X164927000Y-100286250D01*
X164673000Y-100286250D01*
X164514250Y-100127500D01*
X164100000Y-100124428D01*
X163975518Y-100136688D01*
X163855820Y-100172998D01*
X163745506Y-100231963D01*
X163700000Y-100269309D01*
X163654494Y-100231963D01*
X163544180Y-100172998D01*
X163424482Y-100136688D01*
X163300000Y-100124428D01*
X162885750Y-100127500D01*
X162727000Y-100286250D01*
X162473000Y-100286250D01*
X162314250Y-100127500D01*
X161900000Y-100124428D01*
X161775518Y-100136688D01*
X161655820Y-100172998D01*
X161545506Y-100231963D01*
X161448815Y-100311315D01*
X161369463Y-100408006D01*
X161310498Y-100518320D01*
X161274188Y-100638018D01*
X161261928Y-100762500D01*
X161228224Y-100762500D01*
X161225812Y-100738018D01*
X161189502Y-100618320D01*
X161130537Y-100508006D01*
X161051185Y-100411315D01*
X160954494Y-100331963D01*
X160844180Y-100272998D01*
X160724482Y-100236688D01*
X160600000Y-100224428D01*
X160185750Y-100227500D01*
X160027000Y-100386250D01*
X159773000Y-100386250D01*
X159614250Y-100227500D01*
X159200000Y-100224428D01*
X159075518Y-100236688D01*
X158955820Y-100272998D01*
X158845506Y-100331963D01*
X158748815Y-100411315D01*
X158669463Y-100508006D01*
X158626371Y-100588625D01*
X158557633Y-100504867D01*
X158416699Y-100389206D01*
X158255908Y-100303262D01*
X158081440Y-100250337D01*
X157900000Y-100232467D01*
X157100000Y-100232467D01*
X156918560Y-100250337D01*
X156744092Y-100303262D01*
X156583301Y-100389206D01*
X156442367Y-100504867D01*
X156326706Y-100645801D01*
X156292124Y-100710500D01*
X156007876Y-100710500D01*
X155973294Y-100645801D01*
X155857633Y-100504867D01*
X155716699Y-100389206D01*
X155555908Y-100303262D01*
X155381440Y-100250337D01*
X155200000Y-100232467D01*
X154400000Y-100232467D01*
X154218560Y-100250337D01*
X154044092Y-100303262D01*
X153883301Y-100389206D01*
X153742367Y-100504867D01*
X153626706Y-100645801D01*
X153540762Y-100806592D01*
X153487837Y-100981060D01*
X153469967Y-101162500D01*
X153469967Y-101762500D01*
X153487837Y-101943940D01*
X153540762Y-102118408D01*
X153626706Y-102279199D01*
X153725844Y-102400000D01*
X153626706Y-102520801D01*
X153540762Y-102681592D01*
X153487837Y-102856060D01*
X153469967Y-103037500D01*
X153469967Y-103620951D01*
X153401882Y-103748331D01*
X153373126Y-103843126D01*
X153358882Y-103890082D01*
X153357620Y-103902893D01*
X153344362Y-104037500D01*
X153348001Y-104074445D01*
X153348001Y-104894967D01*
X153300000Y-104894967D01*
X153177087Y-104907073D01*
X153058897Y-104942925D01*
X152949972Y-105001147D01*
X152854499Y-105079499D01*
X152776147Y-105174972D01*
X152717925Y-105283897D01*
X152682073Y-105402087D01*
X152669967Y-105525000D01*
X152669967Y-106175000D01*
X152682073Y-106297913D01*
X152686109Y-106311219D01*
X152674188Y-106350518D01*
X152661928Y-106475000D01*
X152665000Y-106514250D01*
X152823748Y-106672998D01*
X152665000Y-106672998D01*
X152665000Y-106773000D01*
X152547993Y-106773000D01*
X152500000Y-106768273D01*
X152463427Y-106771875D01*
X152408750Y-106591629D01*
X152304100Y-106395843D01*
X152287420Y-106375518D01*
X152198558Y-106267239D01*
X152198555Y-106267236D01*
X152163265Y-106224235D01*
X152120264Y-106188945D01*
X151136059Y-105204741D01*
X151100765Y-105161735D01*
X150929157Y-105020900D01*
X150733371Y-104916250D01*
X150727000Y-104914317D01*
X150727000Y-104080033D01*
X151825000Y-104080033D01*
X152118617Y-104051114D01*
X152400951Y-103965469D01*
X152661152Y-103826389D01*
X152889219Y-103639219D01*
X153076389Y-103411152D01*
X153215469Y-103150951D01*
X153301114Y-102868617D01*
X153330033Y-102575000D01*
X153330033Y-100825000D01*
X153301114Y-100531383D01*
X153215469Y-100249049D01*
X153076389Y-99988848D01*
X152889219Y-99760781D01*
X152661152Y-99573611D01*
X152400951Y-99434531D01*
X152118617Y-99348886D01*
X151825000Y-99319967D01*
X150075000Y-99319967D01*
X149781383Y-99348886D01*
X149499049Y-99434531D01*
X149238848Y-99573611D01*
X149010781Y-99760781D01*
X148823611Y-99988848D01*
X148684531Y-100249049D01*
X148598886Y-100531383D01*
X148569967Y-100825000D01*
X148569967Y-102575000D01*
X148570906Y-102584533D01*
X148553750Y-102616630D01*
X148529558Y-102696381D01*
X148489308Y-102829069D01*
X148482008Y-102903183D01*
X148467548Y-103050000D01*
X148473001Y-103105364D01*
X148473000Y-105089391D01*
X148426706Y-105145801D01*
X148340762Y-105306592D01*
X148287837Y-105481060D01*
X148269967Y-105662500D01*
X148269967Y-106262500D01*
X148287837Y-106443940D01*
X148340762Y-106618408D01*
X148426706Y-106779199D01*
X148525844Y-106900000D01*
X148426706Y-107020801D01*
X148340762Y-107181592D01*
X148287837Y-107356060D01*
X148277719Y-107458792D01*
X147794379Y-107942133D01*
X147765683Y-107965683D01*
X147716337Y-108025812D01*
X147671710Y-108080190D01*
X147646866Y-108126671D01*
X147601882Y-108210831D01*
X147558881Y-108352583D01*
X147553768Y-108404499D01*
X147544362Y-108500000D01*
X147548000Y-108536936D01*
X147548001Y-111263055D01*
X147544362Y-111300000D01*
X147558882Y-111447417D01*
X147601882Y-111589169D01*
X147671710Y-111719810D01*
X147742137Y-111805625D01*
X147765684Y-111834317D01*
X147794375Y-111857863D01*
X148027947Y-112091436D01*
X148020930Y-112089307D01*
X147800000Y-112067547D01*
X147579069Y-112089307D01*
X147366629Y-112153750D01*
X147195974Y-112244967D01*
X147000000Y-112244967D01*
X146877087Y-112257073D01*
X146758897Y-112292925D01*
X146649972Y-112351147D01*
X146554499Y-112429499D01*
X146476147Y-112524972D01*
X146417925Y-112633897D01*
X146382073Y-112752087D01*
X146369967Y-112875000D01*
X146369967Y-113525000D01*
X146382073Y-113647913D01*
X146417925Y-113766103D01*
X146476147Y-113875028D01*
X146554499Y-113970501D01*
X146649972Y-114048853D01*
X146673000Y-114061162D01*
X146673001Y-116944636D01*
X146667548Y-117000000D01*
X146673001Y-117055364D01*
X146673001Y-117055365D01*
X146687050Y-117198000D01*
X146689308Y-117220930D01*
X146753750Y-117433370D01*
X146858400Y-117629156D01*
X146963942Y-117757760D01*
X146963946Y-117757764D01*
X146999236Y-117800765D01*
X147042237Y-117836055D01*
X149763945Y-120557764D01*
X149799235Y-120600765D01*
X149842236Y-120636055D01*
X149842239Y-120636058D01*
X149945760Y-120721015D01*
X149970843Y-120741600D01*
X150166629Y-120846250D01*
X150379069Y-120910693D01*
X150544635Y-120927000D01*
X150544645Y-120927000D01*
X150600000Y-120932452D01*
X150655354Y-120927000D01*
X154844646Y-120927000D01*
X154900000Y-120932452D01*
X154955354Y-120927000D01*
X154955365Y-120927000D01*
X155120931Y-120910693D01*
X155196191Y-120887863D01*
X155280036Y-121023000D01*
X156273000Y-121023000D01*
X156273000Y-121003000D01*
X156527000Y-121003000D01*
X156527000Y-121023000D01*
X157519964Y-121023000D01*
X157643104Y-120824529D01*
X157555722Y-120588265D01*
X157423926Y-120373588D01*
X157252781Y-120188748D01*
X157048864Y-120040849D01*
X156820012Y-119935574D01*
X156725471Y-119906901D01*
X156527002Y-120030932D01*
X156527002Y-119865000D01*
X156428818Y-119865000D01*
X156957764Y-119336055D01*
X157000765Y-119300765D01*
X157036055Y-119257764D01*
X157036058Y-119257761D01*
X157141600Y-119129157D01*
X157246250Y-118933371D01*
X157310693Y-118720931D01*
X157312199Y-118705638D01*
X157327000Y-118555365D01*
X157327000Y-118555357D01*
X157332452Y-118500000D01*
X157327000Y-118444643D01*
X157327000Y-117824226D01*
X157623000Y-117824226D01*
X157623000Y-118075774D01*
X157672074Y-118322487D01*
X157768337Y-118554886D01*
X157908089Y-118764040D01*
X158085960Y-118941911D01*
X158295114Y-119081663D01*
X158527513Y-119177926D01*
X158774226Y-119227000D01*
X159025774Y-119227000D01*
X159272487Y-119177926D01*
X159504886Y-119081663D01*
X159714040Y-118941911D01*
X159819836Y-118836115D01*
X163336051Y-118836115D01*
X163336051Y-119163885D01*
X163399996Y-119485356D01*
X163525428Y-119788175D01*
X163707527Y-120060706D01*
X163939294Y-120292473D01*
X164211825Y-120474572D01*
X164514644Y-120600004D01*
X164836115Y-120663949D01*
X165163885Y-120663949D01*
X165485356Y-120600004D01*
X165788175Y-120474572D01*
X166060706Y-120292473D01*
X166292473Y-120060706D01*
X166474572Y-119788175D01*
X166600004Y-119485356D01*
X166663949Y-119163885D01*
X166663949Y-118836115D01*
X166600004Y-118514644D01*
X166474572Y-118211825D01*
X166292473Y-117939294D01*
X166060706Y-117707527D01*
X165788175Y-117525428D01*
X165485356Y-117399996D01*
X165163885Y-117336051D01*
X164836115Y-117336051D01*
X164514644Y-117399996D01*
X164211825Y-117525428D01*
X163939294Y-117707527D01*
X163707527Y-117939294D01*
X163525428Y-118211825D01*
X163399996Y-118514644D01*
X163336051Y-118836115D01*
X159819836Y-118836115D01*
X159891911Y-118764040D01*
X160031663Y-118554886D01*
X160127926Y-118322487D01*
X160177000Y-118075774D01*
X160177000Y-117824226D01*
X160127926Y-117577513D01*
X160031663Y-117345114D01*
X159891911Y-117135960D01*
X159714040Y-116958089D01*
X159504886Y-116818337D01*
X159272487Y-116722074D01*
X159025774Y-116673000D01*
X158774226Y-116673000D01*
X158527513Y-116722074D01*
X158295114Y-116818337D01*
X158085960Y-116958089D01*
X157908089Y-117135960D01*
X157768337Y-117345114D01*
X157672074Y-117577513D01*
X157623000Y-117824226D01*
X157327000Y-117824226D01*
X157327000Y-116455354D01*
X157332452Y-116400000D01*
X157327000Y-116344645D01*
X157327000Y-116344635D01*
X157310693Y-116179069D01*
X157246250Y-115966629D01*
X157141600Y-115770843D01*
X157000765Y-115599235D01*
X156957758Y-115563940D01*
X156667000Y-115273182D01*
X156667000Y-115107148D01*
X156711021Y-115071021D01*
X156842228Y-114911145D01*
X156939723Y-114728744D01*
X156999761Y-114530827D01*
X157020033Y-114325000D01*
X157020033Y-112944000D01*
X160053928Y-112944000D01*
X160066188Y-113068482D01*
X160102498Y-113188180D01*
X160161463Y-113298494D01*
X160240815Y-113395185D01*
X160337506Y-113474537D01*
X160447820Y-113533502D01*
X160567518Y-113569812D01*
X160692000Y-113582072D01*
X160900847Y-113581370D01*
X160840755Y-113779466D01*
X160817064Y-114020000D01*
X160840755Y-114260534D01*
X160910916Y-114491824D01*
X161024851Y-114704983D01*
X161178183Y-114891817D01*
X161365017Y-115045149D01*
X161578176Y-115159084D01*
X161809466Y-115229245D01*
X161989732Y-115247000D01*
X162810268Y-115247000D01*
X162990534Y-115229245D01*
X163221824Y-115159084D01*
X163434983Y-115045149D01*
X163621817Y-114891817D01*
X163775149Y-114704983D01*
X163889084Y-114491824D01*
X163959245Y-114260534D01*
X163982936Y-114020000D01*
X163959245Y-113779466D01*
X163889084Y-113548176D01*
X163775149Y-113335017D01*
X163670908Y-113208000D01*
X163681502Y-113188180D01*
X163717812Y-113068482D01*
X163730072Y-112944000D01*
X163727000Y-112779750D01*
X163568250Y-112621000D01*
X162019000Y-112621000D01*
X162019000Y-112641000D01*
X161765000Y-112641000D01*
X161765000Y-112621000D01*
X160215750Y-112621000D01*
X160057000Y-112779750D01*
X160053928Y-112944000D01*
X157020033Y-112944000D01*
X157020033Y-112675000D01*
X156999761Y-112469173D01*
X156939723Y-112271256D01*
X156842228Y-112088855D01*
X156711021Y-111928979D01*
X156551145Y-111797772D01*
X156368744Y-111700277D01*
X156170827Y-111640239D01*
X155965000Y-111619967D01*
X155115000Y-111619967D01*
X154909173Y-111640239D01*
X154711256Y-111700277D01*
X154528855Y-111797772D01*
X154389449Y-111912179D01*
X154380537Y-111895506D01*
X154301185Y-111798815D01*
X154204494Y-111719463D01*
X154094180Y-111660498D01*
X153974482Y-111624188D01*
X153850000Y-111611928D01*
X153285750Y-111615000D01*
X153127000Y-111773750D01*
X153127000Y-113373000D01*
X153147000Y-113373000D01*
X153147000Y-113627000D01*
X153127000Y-113627000D01*
X153127000Y-115226250D01*
X153285750Y-115385000D01*
X153850000Y-115388072D01*
X153974482Y-115375812D01*
X154094180Y-115339502D01*
X154204494Y-115280537D01*
X154301185Y-115201185D01*
X154380537Y-115104494D01*
X154389449Y-115087821D01*
X154413000Y-115107148D01*
X154413000Y-115684645D01*
X154407548Y-115740000D01*
X154413000Y-115795354D01*
X154413000Y-115795364D01*
X154429307Y-115960930D01*
X154493750Y-116173370D01*
X154598400Y-116369157D01*
X154739235Y-116540765D01*
X154782242Y-116576060D01*
X155073001Y-116866819D01*
X155073001Y-117316983D01*
X154930748Y-117104087D01*
X154745913Y-116919252D01*
X154528570Y-116774028D01*
X154287072Y-116673996D01*
X154030698Y-116623000D01*
X153769302Y-116623000D01*
X153512928Y-116673996D01*
X153271430Y-116774028D01*
X153054087Y-116919252D01*
X152869252Y-117104087D01*
X152868581Y-117105092D01*
X151152000Y-115388512D01*
X151152000Y-115105033D01*
X151200000Y-115105033D01*
X151322913Y-115092927D01*
X151441103Y-115057075D01*
X151550028Y-114998853D01*
X151559546Y-114991042D01*
X151560498Y-114994180D01*
X151619463Y-115104494D01*
X151698815Y-115201185D01*
X151795506Y-115280537D01*
X151905820Y-115339502D01*
X152025518Y-115375812D01*
X152150000Y-115388072D01*
X152714250Y-115385000D01*
X152873000Y-115226250D01*
X152873000Y-113627000D01*
X152853000Y-113627000D01*
X152853000Y-113373000D01*
X152873000Y-113373000D01*
X152873000Y-111773750D01*
X152714250Y-111615000D01*
X152489500Y-111613776D01*
X152489500Y-111318678D01*
X152513018Y-111325812D01*
X152637500Y-111338072D01*
X152951750Y-111335000D01*
X153110500Y-111176250D01*
X153110500Y-110127000D01*
X153090500Y-110127000D01*
X153090500Y-109873000D01*
X153110500Y-109873000D01*
X153110500Y-109853000D01*
X153364500Y-109853000D01*
X153364500Y-109873000D01*
X153384500Y-109873000D01*
X153384500Y-110127000D01*
X153364500Y-110127000D01*
X153364500Y-111176250D01*
X153523250Y-111335000D01*
X153837500Y-111338072D01*
X153961982Y-111325812D01*
X154081680Y-111289502D01*
X154191994Y-111230537D01*
X154288685Y-111151185D01*
X154368037Y-111054494D01*
X154427002Y-110944180D01*
X154454841Y-110852407D01*
X154489206Y-110916699D01*
X154604867Y-111057633D01*
X154745801Y-111173294D01*
X154906592Y-111259238D01*
X155081060Y-111312163D01*
X155262500Y-111330033D01*
X155862500Y-111330033D01*
X156043940Y-111312163D01*
X156218408Y-111259238D01*
X156379199Y-111173294D01*
X156396227Y-111159320D01*
X156483006Y-111230537D01*
X156593320Y-111289502D01*
X156713018Y-111325812D01*
X156837500Y-111338072D01*
X157151750Y-111335000D01*
X157310500Y-111176250D01*
X157310500Y-110127000D01*
X157290500Y-110127000D01*
X157290500Y-109873000D01*
X157310500Y-109873000D01*
X157310500Y-109853000D01*
X157564500Y-109853000D01*
X157564500Y-109873000D01*
X157584500Y-109873000D01*
X157584500Y-110127000D01*
X157564500Y-110127000D01*
X157564500Y-111176250D01*
X157723250Y-111335000D01*
X158037500Y-111338072D01*
X158161982Y-111325812D01*
X158229345Y-111305378D01*
X158285814Y-111374186D01*
X158323098Y-111404784D01*
X158799216Y-111880902D01*
X158829814Y-111918186D01*
X158978582Y-112040276D01*
X159148309Y-112130997D01*
X159332475Y-112186863D01*
X159476007Y-112201000D01*
X159476009Y-112201000D01*
X159523999Y-112205727D01*
X159571990Y-112201000D01*
X160056864Y-112201000D01*
X160057000Y-112208250D01*
X160215750Y-112367000D01*
X161765000Y-112367000D01*
X161765000Y-112347000D01*
X162019000Y-112347000D01*
X162019000Y-112367000D01*
X163568250Y-112367000D01*
X163727000Y-112208250D01*
X163730072Y-112044000D01*
X163717812Y-111919518D01*
X163687690Y-111820219D01*
X163709927Y-111746913D01*
X163722033Y-111624000D01*
X163722033Y-110960000D01*
X163755065Y-110960000D01*
X163792000Y-110963638D01*
X163828935Y-110960000D01*
X163828938Y-110960000D01*
X163939418Y-110949119D01*
X164081170Y-110906118D01*
X164211810Y-110836290D01*
X164326317Y-110742317D01*
X164349867Y-110713621D01*
X165105622Y-109957866D01*
X165134317Y-109934317D01*
X165228290Y-109819810D01*
X165298118Y-109689170D01*
X165341119Y-109547418D01*
X165352000Y-109436938D01*
X165352000Y-109436936D01*
X165355638Y-109400000D01*
X165352000Y-109363065D01*
X165352000Y-106505093D01*
X165378176Y-106519084D01*
X165609466Y-106589245D01*
X165789732Y-106607000D01*
X166610268Y-106607000D01*
X166790534Y-106589245D01*
X167021824Y-106519084D01*
X167234983Y-106405149D01*
X167348001Y-106312397D01*
X167348001Y-113087603D01*
X167234983Y-112994851D01*
X167021824Y-112880916D01*
X166790534Y-112810755D01*
X166610268Y-112793000D01*
X165789732Y-112793000D01*
X165609466Y-112810755D01*
X165378176Y-112880916D01*
X165165017Y-112994851D01*
X164978183Y-113148183D01*
X164824851Y-113335017D01*
X164710916Y-113548176D01*
X164640755Y-113779466D01*
X164617064Y-114020000D01*
X164640755Y-114260534D01*
X164710916Y-114491824D01*
X164824851Y-114704983D01*
X164978183Y-114891817D01*
X165165017Y-115045149D01*
X165378176Y-115159084D01*
X165609466Y-115229245D01*
X165789732Y-115247000D01*
X166610268Y-115247000D01*
X166790534Y-115229245D01*
X167021824Y-115159084D01*
X167234983Y-115045149D01*
X167348001Y-114952397D01*
X167348001Y-118968104D01*
X167300215Y-119455457D01*
X167167944Y-119893560D01*
X166953095Y-120297633D01*
X166663853Y-120652279D01*
X166311236Y-120943989D01*
X165908675Y-121161652D01*
X165471503Y-121296980D01*
X164986083Y-121348000D01*
X157564015Y-121348000D01*
X157519964Y-121277000D01*
X156527000Y-121277000D01*
X156527000Y-121297000D01*
X156273000Y-121297000D01*
X156273000Y-121277000D01*
X155280036Y-121277000D01*
X155235985Y-121348000D01*
X108031886Y-121348000D01*
X107544543Y-121300215D01*
X107106440Y-121167944D01*
X106702367Y-120953095D01*
X106347721Y-120663853D01*
X106056011Y-120311236D01*
X105838348Y-119908675D01*
X105703020Y-119471503D01*
X105652000Y-118986083D01*
X105652000Y-118836115D01*
X106336051Y-118836115D01*
X106336051Y-119163885D01*
X106399996Y-119485356D01*
X106525428Y-119788175D01*
X106707527Y-120060706D01*
X106939294Y-120292473D01*
X107211825Y-120474572D01*
X107514644Y-120600004D01*
X107836115Y-120663949D01*
X108163885Y-120663949D01*
X108485356Y-120600004D01*
X108788175Y-120474572D01*
X109060706Y-120292473D01*
X109292473Y-120060706D01*
X109474572Y-119788175D01*
X109600004Y-119485356D01*
X109663949Y-119163885D01*
X109663949Y-118836115D01*
X109600004Y-118514644D01*
X109474572Y-118211825D01*
X109292473Y-117939294D01*
X109060706Y-117707527D01*
X108788175Y-117525428D01*
X108485356Y-117399996D01*
X108163885Y-117336051D01*
X107836115Y-117336051D01*
X107514644Y-117399996D01*
X107211825Y-117525428D01*
X106939294Y-117707527D01*
X106707527Y-117939294D01*
X106525428Y-118211825D01*
X106399996Y-118514644D01*
X106336051Y-118836115D01*
X105652000Y-118836115D01*
X105652000Y-94417979D01*
X107548000Y-94417979D01*
X107548001Y-114582022D01*
X107550431Y-114606697D01*
X107552787Y-114637562D01*
X107554345Y-114646429D01*
X107557436Y-114677814D01*
X107562661Y-114695040D01*
X107568994Y-114740495D01*
X107571185Y-114749330D01*
X107583262Y-114796603D01*
X107603413Y-114852176D01*
X107622766Y-114907971D01*
X107626631Y-114916213D01*
X107647659Y-114960241D01*
X107678233Y-115010865D01*
X107708060Y-115061845D01*
X107713453Y-115069179D01*
X107742633Y-115108283D01*
X107782445Y-115151989D01*
X107821601Y-115196200D01*
X107828316Y-115202347D01*
X107828320Y-115202350D01*
X107828323Y-115202354D01*
X107828327Y-115202357D01*
X107864535Y-115235039D01*
X107912084Y-115270185D01*
X107959077Y-115305946D01*
X107966857Y-115310671D01*
X107966866Y-115310677D01*
X108008736Y-115335706D01*
X108062193Y-115360942D01*
X108115271Y-115386909D01*
X108123801Y-115390026D01*
X108123806Y-115390028D01*
X108123810Y-115390029D01*
X108123821Y-115390033D01*
X108169766Y-115406456D01*
X108227104Y-115420826D01*
X108284202Y-115435986D01*
X108293197Y-115437390D01*
X108341456Y-115444576D01*
X108400505Y-115447536D01*
X108459443Y-115451316D01*
X108468539Y-115450946D01*
X108468546Y-115450946D01*
X108517274Y-115448622D01*
X108575784Y-115440055D01*
X108634328Y-115432316D01*
X108643177Y-115430187D01*
X108643180Y-115430187D01*
X108643182Y-115430186D01*
X108690536Y-115418441D01*
X108746260Y-115398675D01*
X108802191Y-115379712D01*
X108810459Y-115375904D01*
X108810461Y-115375903D01*
X108810464Y-115375902D01*
X108810467Y-115375900D01*
X108854632Y-115355184D01*
X108859988Y-115352000D01*
X110139741Y-115352000D01*
X110154277Y-115359599D01*
X110209079Y-115381741D01*
X110263547Y-115404637D01*
X110272262Y-115407269D01*
X110319069Y-115421045D01*
X110377165Y-115432128D01*
X110435003Y-115444000D01*
X110444063Y-115444889D01*
X110492653Y-115449311D01*
X110551783Y-115448898D01*
X110610837Y-115449310D01*
X110619897Y-115448422D01*
X110619899Y-115448422D01*
X110668420Y-115443322D01*
X110726309Y-115431439D01*
X110784353Y-115420367D01*
X110793064Y-115417737D01*
X110793070Y-115417736D01*
X110793076Y-115417734D01*
X110839678Y-115403308D01*
X110894165Y-115380404D01*
X110948956Y-115358266D01*
X110956978Y-115354001D01*
X110956984Y-115353998D01*
X110956994Y-115353992D01*
X110999913Y-115330786D01*
X111048951Y-115297708D01*
X111098333Y-115265395D01*
X111105388Y-115259642D01*
X111142983Y-115228542D01*
X111184643Y-115186592D01*
X111226860Y-115145249D01*
X111232663Y-115138235D01*
X111263499Y-115100424D01*
X111296189Y-115051221D01*
X111329576Y-115002461D01*
X111333907Y-114994453D01*
X111356814Y-114951373D01*
X111379356Y-114896684D01*
X111402618Y-114842409D01*
X111405302Y-114833740D01*
X111405307Y-114833727D01*
X111405310Y-114833713D01*
X111419412Y-114787005D01*
X111430895Y-114729012D01*
X111439933Y-114686491D01*
X111442565Y-114677814D01*
X111443763Y-114665652D01*
X111444128Y-114662180D01*
X111448889Y-114613621D01*
X111448889Y-114613607D01*
X111452000Y-114582022D01*
X111452000Y-95450000D01*
X148561928Y-95450000D01*
X148574188Y-95574482D01*
X148610498Y-95694180D01*
X148669463Y-95804494D01*
X148748815Y-95901185D01*
X148845506Y-95980537D01*
X148955820Y-96039502D01*
X149075518Y-96075812D01*
X149200000Y-96088072D01*
X150664250Y-96085000D01*
X150823000Y-95926250D01*
X150823000Y-93827000D01*
X151077000Y-93827000D01*
X151077000Y-95926250D01*
X151235750Y-96085000D01*
X152700000Y-96088072D01*
X152824482Y-96075812D01*
X152944180Y-96039502D01*
X153054494Y-95980537D01*
X153151185Y-95901185D01*
X153230537Y-95804494D01*
X153289502Y-95694180D01*
X153325812Y-95574482D01*
X153338072Y-95450000D01*
X153335000Y-93985750D01*
X153176250Y-93827000D01*
X151077000Y-93827000D01*
X150823000Y-93827000D01*
X148723750Y-93827000D01*
X148565000Y-93985750D01*
X148561928Y-95450000D01*
X111452000Y-95450000D01*
X111452000Y-94417978D01*
X111449565Y-94393258D01*
X111447213Y-94362438D01*
X111445658Y-94353584D01*
X111442565Y-94322186D01*
X111437338Y-94304954D01*
X111431006Y-94259505D01*
X111428815Y-94250669D01*
X111416738Y-94203397D01*
X111396587Y-94147824D01*
X111377234Y-94092029D01*
X111373369Y-94083787D01*
X111352341Y-94039759D01*
X111321750Y-93989107D01*
X111291939Y-93938155D01*
X111286547Y-93930821D01*
X111257367Y-93891717D01*
X111217555Y-93848011D01*
X111178399Y-93803800D01*
X111171684Y-93797653D01*
X111171680Y-93797650D01*
X111171677Y-93797646D01*
X111171673Y-93797643D01*
X111135465Y-93764961D01*
X111087911Y-93729811D01*
X111040923Y-93694054D01*
X111033143Y-93689328D01*
X110991264Y-93664294D01*
X110937820Y-93639064D01*
X110884729Y-93613091D01*
X110876179Y-93609967D01*
X110830234Y-93593544D01*
X110772886Y-93579172D01*
X110715797Y-93564014D01*
X110706803Y-93562610D01*
X110658544Y-93555424D01*
X110599496Y-93552464D01*
X110540557Y-93548684D01*
X110531461Y-93549054D01*
X110531452Y-93549054D01*
X110482725Y-93551378D01*
X110424211Y-93559946D01*
X110365672Y-93567684D01*
X110356823Y-93569813D01*
X110356820Y-93569813D01*
X110356818Y-93569814D01*
X110309464Y-93581559D01*
X110253750Y-93601321D01*
X110197809Y-93620288D01*
X110189541Y-93624096D01*
X110145368Y-93644816D01*
X110140012Y-93648000D01*
X108860260Y-93648000D01*
X108845723Y-93640400D01*
X108790874Y-93618239D01*
X108736452Y-93595363D01*
X108727738Y-93592731D01*
X108680931Y-93578955D01*
X108622835Y-93567872D01*
X108564997Y-93556000D01*
X108555937Y-93555111D01*
X108507347Y-93550689D01*
X108448217Y-93551102D01*
X108389163Y-93550690D01*
X108380103Y-93551578D01*
X108380101Y-93551578D01*
X108331579Y-93556678D01*
X108273683Y-93568562D01*
X108215647Y-93579633D01*
X108206936Y-93582263D01*
X108206930Y-93582264D01*
X108206924Y-93582266D01*
X108160322Y-93596692D01*
X108105820Y-93619602D01*
X108051043Y-93641734D01*
X108043022Y-93645999D01*
X108043016Y-93646002D01*
X108043006Y-93646008D01*
X108000087Y-93669215D01*
X107951092Y-93702263D01*
X107901666Y-93734605D01*
X107894612Y-93740358D01*
X107894600Y-93740368D01*
X107894594Y-93740372D01*
X107894591Y-93740375D01*
X107857017Y-93771458D01*
X107815357Y-93813408D01*
X107773140Y-93854751D01*
X107767337Y-93861765D01*
X107736500Y-93899576D01*
X107703778Y-93948828D01*
X107670424Y-93997539D01*
X107666094Y-94005546D01*
X107666087Y-94005558D01*
X107666083Y-94005565D01*
X107666080Y-94005572D01*
X107643186Y-94048627D01*
X107620651Y-94103300D01*
X107597382Y-94157591D01*
X107594690Y-94166287D01*
X107580588Y-94212996D01*
X107569108Y-94270974D01*
X107560066Y-94313512D01*
X107557435Y-94322187D01*
X107556239Y-94334334D01*
X107555872Y-94337820D01*
X107551111Y-94386379D01*
X107551111Y-94386394D01*
X107548000Y-94417979D01*
X105652000Y-94417979D01*
X105652000Y-91950000D01*
X148561928Y-91950000D01*
X148565000Y-93414250D01*
X148723750Y-93573000D01*
X150823000Y-93573000D01*
X150823000Y-91473750D01*
X151077000Y-91473750D01*
X151077000Y-93573000D01*
X153176250Y-93573000D01*
X153335000Y-93414250D01*
X153338072Y-91950000D01*
X153325812Y-91825518D01*
X153289502Y-91705820D01*
X153230537Y-91595506D01*
X153151185Y-91498815D01*
X153054494Y-91419463D01*
X152944180Y-91360498D01*
X152824482Y-91324188D01*
X152700000Y-91311928D01*
X151235750Y-91315000D01*
X151077000Y-91473750D01*
X150823000Y-91473750D01*
X150664250Y-91315000D01*
X149200000Y-91311928D01*
X149075518Y-91324188D01*
X148955820Y-91360498D01*
X148845506Y-91419463D01*
X148748815Y-91498815D01*
X148669463Y-91595506D01*
X148610498Y-91705820D01*
X148574188Y-91825518D01*
X148561928Y-91950000D01*
X105652000Y-91950000D01*
X105652000Y-90031887D01*
X105671195Y-89836115D01*
X106336051Y-89836115D01*
X106336051Y-90163885D01*
X106399996Y-90485356D01*
X106525428Y-90788175D01*
X106707527Y-91060706D01*
X106939294Y-91292473D01*
X107211825Y-91474572D01*
X107514644Y-91600004D01*
X107836115Y-91663949D01*
X108163885Y-91663949D01*
X108485356Y-91600004D01*
X108788175Y-91474572D01*
X109060706Y-91292473D01*
X109292473Y-91060706D01*
X109474572Y-90788175D01*
X109600004Y-90485356D01*
X109663949Y-90163885D01*
X109663949Y-89836115D01*
X163336051Y-89836115D01*
X163336051Y-90163885D01*
X163399996Y-90485356D01*
X163525428Y-90788175D01*
X163707527Y-91060706D01*
X163939294Y-91292473D01*
X164211825Y-91474572D01*
X164514644Y-91600004D01*
X164836115Y-91663949D01*
X165163885Y-91663949D01*
X165485356Y-91600004D01*
X165788175Y-91474572D01*
X166060706Y-91292473D01*
X166292473Y-91060706D01*
X166474572Y-90788175D01*
X166600004Y-90485356D01*
X166663949Y-90163885D01*
X166663949Y-89836115D01*
X166600004Y-89514644D01*
X166474572Y-89211825D01*
X166292473Y-88939294D01*
X166060706Y-88707527D01*
X165788175Y-88525428D01*
X165485356Y-88399996D01*
X165163885Y-88336051D01*
X164836115Y-88336051D01*
X164514644Y-88399996D01*
X164211825Y-88525428D01*
X163939294Y-88707527D01*
X163707527Y-88939294D01*
X163525428Y-89211825D01*
X163399996Y-89514644D01*
X163336051Y-89836115D01*
X109663949Y-89836115D01*
X109600004Y-89514644D01*
X109474572Y-89211825D01*
X109292473Y-88939294D01*
X109060706Y-88707527D01*
X108788175Y-88525428D01*
X108485356Y-88399996D01*
X108163885Y-88336051D01*
X107836115Y-88336051D01*
X107514644Y-88399996D01*
X107211825Y-88525428D01*
X106939294Y-88707527D01*
X106707527Y-88939294D01*
X106525428Y-89211825D01*
X106399996Y-89514644D01*
X106336051Y-89836115D01*
X105671195Y-89836115D01*
X105699785Y-89544544D01*
X105832056Y-89106439D01*
X106046905Y-88702367D01*
X106336147Y-88347721D01*
X106688764Y-88056011D01*
X107091325Y-87838348D01*
X107528499Y-87703019D01*
X108013917Y-87652000D01*
X164968113Y-87652000D01*
X165455456Y-87699785D01*
%TD*%
M02*
