%FSLAX45Y45*%
G04 Gerber Fmt 4.5, Leading zero omitted, Abs format (unit mm)*
G04 Created by KiCad (PCBNEW (5.1.6)-1) date 2022-07-31 05:26:36*
%MOMM*%
%LPD*%
G01*
G04 APERTURE LIST*
%TA.AperFunction,Profile*%
%ADD10C,0.050000*%
%TD*%
%ADD11C,0.200000*%
%ADD12C,0.300000*%
G04 APERTURE END LIST*
D10*
X10820000Y-11455000D02*
G75*
G03*
X10865000Y-11470000I25000J0D01*
G01*
X11080000Y-11455000D02*
G75*
G02*
X11035000Y-11470000I-25000J0D01*
G01*
X11035000Y-11470000D02*
X10865000Y-11470000D01*
X11080000Y-9445000D02*
G75*
G03*
X11035000Y-9430000I-25000J0D01*
G01*
X10820000Y-9445000D02*
G75*
G02*
X10865000Y-9430000I25000J0D01*
G01*
X11080000Y-11455000D02*
X11080000Y-9445000D01*
X10820000Y-9445000D02*
X10820000Y-11455000D01*
X10865000Y-9430000D02*
X11035000Y-9430000D01*
X16600000Y-11900000D02*
G75*
G03*
X16600000Y-11900000I-100000J0D01*
G01*
X16800000Y-11900000D02*
G75*
G02*
X16500000Y-12200000I-300000J0D01*
G01*
X16500000Y-8700000D02*
G75*
G02*
X16800000Y-9000000I0J-300000D01*
G01*
X10800000Y-12200000D02*
G75*
G02*
X10500000Y-11900000I0J300000D01*
G01*
X10800000Y-12200000D02*
X16500000Y-12200000D01*
X16800000Y-9000000D02*
X16800000Y-11900000D01*
X16500000Y-8700000D02*
X10800000Y-8700000D01*
X10500000Y-9000000D02*
G75*
G02*
X10800000Y-8700000I300000J0D01*
G01*
X10500000Y-9000000D02*
X10500000Y-11900000D01*
X16600000Y-9000000D02*
G75*
G03*
X16600000Y-9000000I-100000J0D01*
G01*
X10900000Y-9000000D02*
G75*
G03*
X10900000Y-9000000I-100000J0D01*
G01*
X10900000Y-11900000D02*
G75*
G03*
X10900000Y-11900000I-100000J0D01*
G01*
D11*
X16215000Y-10513000D02*
X16265000Y-10563000D01*
X16265000Y-10513000D02*
X16215000Y-10563000D01*
X16205000Y-10553000D02*
X16275000Y-10553000D01*
X16205000Y-10523000D02*
X16275000Y-10523000D01*
X16275000Y-10553000D02*
G75*
G03*
X16275000Y-10523000I0J15000D01*
G01*
X16205000Y-10523000D02*
G75*
G03*
X16205000Y-10553000I0J-15000D01*
G01*
X16215000Y-11377000D02*
X16265000Y-11427000D01*
X16265000Y-11377000D02*
X16215000Y-11427000D01*
X16205000Y-11417000D02*
X16275000Y-11417000D01*
X16205000Y-11387000D02*
X16275000Y-11387000D01*
X16275000Y-11417000D02*
G75*
G03*
X16275000Y-11387000I0J15000D01*
G01*
X16205000Y-11387000D02*
G75*
G03*
X16205000Y-11417000I0J-15000D01*
G01*
X16595000Y-10513000D02*
X16645000Y-10563000D01*
X16645000Y-10513000D02*
X16595000Y-10563000D01*
X16585000Y-10553000D02*
X16655000Y-10553000D01*
X16585000Y-10523000D02*
X16655000Y-10523000D01*
X16655000Y-10553000D02*
G75*
G03*
X16655000Y-10523000I0J15000D01*
G01*
X16585000Y-10523000D02*
G75*
G03*
X16585000Y-10553000I0J-15000D01*
G01*
X16595000Y-11377000D02*
X16645000Y-11427000D01*
X16645000Y-11377000D02*
X16595000Y-11427000D01*
X16585000Y-11417000D02*
X16655000Y-11417000D01*
X16585000Y-11387000D02*
X16655000Y-11387000D01*
X16655000Y-11417000D02*
G75*
G03*
X16655000Y-11387000I0J15000D01*
G01*
X16585000Y-11387000D02*
G75*
G03*
X16585000Y-11417000I0J-15000D01*
G01*
X15430000Y-11795000D02*
G75*
G03*
X15430000Y-11795000I-40000J0D01*
G01*
X15680000Y-12115000D02*
G75*
G03*
X15680000Y-12115000I-40000J0D01*
G01*
X15930000Y-11795000D02*
G75*
G03*
X15930000Y-11795000I-40000J0D01*
G01*
D12*
X10783928Y-12668214D02*
X10783928Y-12368214D01*
X10855357Y-12368214D01*
X10898214Y-12382500D01*
X10926786Y-12411071D01*
X10941071Y-12439643D01*
X10955357Y-12496786D01*
X10955357Y-12539643D01*
X10941071Y-12596786D01*
X10926786Y-12625357D01*
X10898214Y-12653929D01*
X10855357Y-12668214D01*
X10783928Y-12668214D01*
X11083928Y-12668214D02*
X11083928Y-12468214D01*
X11083928Y-12525357D02*
X11098214Y-12496786D01*
X11112500Y-12482500D01*
X11141071Y-12468214D01*
X11169643Y-12468214D01*
X11269643Y-12668214D02*
X11269643Y-12468214D01*
X11269643Y-12368214D02*
X11255357Y-12382500D01*
X11269643Y-12396786D01*
X11283928Y-12382500D01*
X11269643Y-12368214D01*
X11269643Y-12396786D01*
X11455357Y-12668214D02*
X11426786Y-12653929D01*
X11412500Y-12625357D01*
X11412500Y-12368214D01*
X11612500Y-12668214D02*
X11583928Y-12653929D01*
X11569643Y-12625357D01*
X11569643Y-12368214D01*
X11955357Y-12668214D02*
X11955357Y-12368214D01*
X12055357Y-12582500D01*
X12155357Y-12368214D01*
X12155357Y-12668214D01*
X12426786Y-12668214D02*
X12426786Y-12511071D01*
X12412500Y-12482500D01*
X12383928Y-12468214D01*
X12326786Y-12468214D01*
X12298214Y-12482500D01*
X12426786Y-12653929D02*
X12398214Y-12668214D01*
X12326786Y-12668214D01*
X12298214Y-12653929D01*
X12283928Y-12625357D01*
X12283928Y-12596786D01*
X12298214Y-12568214D01*
X12326786Y-12553929D01*
X12398214Y-12553929D01*
X12426786Y-12539643D01*
X12569643Y-12468214D02*
X12569643Y-12768214D01*
X12569643Y-12482500D02*
X12598214Y-12468214D01*
X12655357Y-12468214D01*
X12683928Y-12482500D01*
X12698214Y-12496786D01*
X12712500Y-12525357D01*
X12712500Y-12611071D01*
X12698214Y-12639643D01*
X12683928Y-12653929D01*
X12655357Y-12668214D01*
X12598214Y-12668214D01*
X12569643Y-12653929D01*
X12841071Y-12639643D02*
X12855357Y-12653929D01*
X12841071Y-12668214D01*
X12826786Y-12653929D01*
X12841071Y-12639643D01*
X12841071Y-12668214D01*
X12841071Y-12482500D02*
X12855357Y-12496786D01*
X12841071Y-12511071D01*
X12826786Y-12496786D01*
X12841071Y-12482500D01*
X12841071Y-12511071D01*
X10447500Y-13137500D02*
X10497500Y-13187500D01*
X10497500Y-13137500D02*
X10447500Y-13187500D01*
X10841071Y-12998214D02*
X10869643Y-12998214D01*
X10898214Y-13012500D01*
X10912500Y-13026786D01*
X10926786Y-13055357D01*
X10941071Y-13112500D01*
X10941071Y-13183929D01*
X10926786Y-13241071D01*
X10912500Y-13269643D01*
X10898214Y-13283929D01*
X10869643Y-13298214D01*
X10841071Y-13298214D01*
X10812500Y-13283929D01*
X10798214Y-13269643D01*
X10783928Y-13241071D01*
X10769643Y-13183929D01*
X10769643Y-13112500D01*
X10783928Y-13055357D01*
X10798214Y-13026786D01*
X10812500Y-13012500D01*
X10841071Y-12998214D01*
X11069643Y-13269643D02*
X11083928Y-13283929D01*
X11069643Y-13298214D01*
X11055357Y-13283929D01*
X11069643Y-13269643D01*
X11069643Y-13298214D01*
X11355357Y-12998214D02*
X11212500Y-12998214D01*
X11198214Y-13141071D01*
X11212500Y-13126786D01*
X11241071Y-13112500D01*
X11312500Y-13112500D01*
X11341071Y-13126786D01*
X11355357Y-13141071D01*
X11369643Y-13169643D01*
X11369643Y-13241071D01*
X11355357Y-13269643D01*
X11341071Y-13283929D01*
X11312500Y-13298214D01*
X11241071Y-13298214D01*
X11212500Y-13283929D01*
X11198214Y-13269643D01*
X11555357Y-12998214D02*
X11583928Y-12998214D01*
X11612500Y-13012500D01*
X11626786Y-13026786D01*
X11641071Y-13055357D01*
X11655357Y-13112500D01*
X11655357Y-13183929D01*
X11641071Y-13241071D01*
X11626786Y-13269643D01*
X11612500Y-13283929D01*
X11583928Y-13298214D01*
X11555357Y-13298214D01*
X11526786Y-13283929D01*
X11512500Y-13269643D01*
X11498214Y-13241071D01*
X11483928Y-13183929D01*
X11483928Y-13112500D01*
X11498214Y-13055357D01*
X11512500Y-13026786D01*
X11526786Y-13012500D01*
X11555357Y-12998214D01*
X11783928Y-13298214D02*
X11783928Y-13098214D01*
X11783928Y-13126786D02*
X11798214Y-13112500D01*
X11826786Y-13098214D01*
X11869643Y-13098214D01*
X11898214Y-13112500D01*
X11912500Y-13141071D01*
X11912500Y-13298214D01*
X11912500Y-13141071D02*
X11926786Y-13112500D01*
X11955357Y-13098214D01*
X11998214Y-13098214D01*
X12026786Y-13112500D01*
X12041071Y-13141071D01*
X12041071Y-13298214D01*
X12183928Y-13298214D02*
X12183928Y-13098214D01*
X12183928Y-13126786D02*
X12198214Y-13112500D01*
X12226786Y-13098214D01*
X12269643Y-13098214D01*
X12298214Y-13112500D01*
X12312500Y-13141071D01*
X12312500Y-13298214D01*
X12312500Y-13141071D02*
X12326786Y-13112500D01*
X12355357Y-13098214D01*
X12398214Y-13098214D01*
X12426786Y-13112500D01*
X12441071Y-13141071D01*
X12441071Y-13298214D01*
X13026786Y-12983929D02*
X12769643Y-13369643D01*
X13412500Y-12998214D02*
X13441071Y-12998214D01*
X13469643Y-13012500D01*
X13483928Y-13026786D01*
X13498214Y-13055357D01*
X13512500Y-13112500D01*
X13512500Y-13183929D01*
X13498214Y-13241071D01*
X13483928Y-13269643D01*
X13469643Y-13283929D01*
X13441071Y-13298214D01*
X13412500Y-13298214D01*
X13383928Y-13283929D01*
X13369643Y-13269643D01*
X13355357Y-13241071D01*
X13341071Y-13183929D01*
X13341071Y-13112500D01*
X13355357Y-13055357D01*
X13369643Y-13026786D01*
X13383928Y-13012500D01*
X13412500Y-12998214D01*
X13641071Y-13269643D02*
X13655357Y-13283929D01*
X13641071Y-13298214D01*
X13626786Y-13283929D01*
X13641071Y-13269643D01*
X13641071Y-13298214D01*
X13841071Y-12998214D02*
X13869643Y-12998214D01*
X13898214Y-13012500D01*
X13912500Y-13026786D01*
X13926786Y-13055357D01*
X13941071Y-13112500D01*
X13941071Y-13183929D01*
X13926786Y-13241071D01*
X13912500Y-13269643D01*
X13898214Y-13283929D01*
X13869643Y-13298214D01*
X13841071Y-13298214D01*
X13812500Y-13283929D01*
X13798214Y-13269643D01*
X13783928Y-13241071D01*
X13769643Y-13183929D01*
X13769643Y-13112500D01*
X13783928Y-13055357D01*
X13798214Y-13026786D01*
X13812500Y-13012500D01*
X13841071Y-12998214D01*
X14055357Y-13026786D02*
X14069643Y-13012500D01*
X14098214Y-12998214D01*
X14169643Y-12998214D01*
X14198214Y-13012500D01*
X14212500Y-13026786D01*
X14226786Y-13055357D01*
X14226786Y-13083929D01*
X14212500Y-13126786D01*
X14041071Y-13298214D01*
X14226786Y-13298214D01*
X14412500Y-12998214D02*
X14441071Y-12998214D01*
X14469643Y-13012500D01*
X14483928Y-13026786D01*
X14498214Y-13055357D01*
X14512500Y-13112500D01*
X14512500Y-13183929D01*
X14498214Y-13241071D01*
X14483928Y-13269643D01*
X14469643Y-13283929D01*
X14441071Y-13298214D01*
X14412500Y-13298214D01*
X14383928Y-13283929D01*
X14369643Y-13269643D01*
X14355357Y-13241071D01*
X14341071Y-13183929D01*
X14341071Y-13112500D01*
X14355357Y-13055357D01*
X14369643Y-13026786D01*
X14383928Y-13012500D01*
X14412500Y-12998214D01*
X14626786Y-12998214D02*
X14626786Y-13055357D01*
X14741071Y-12998214D02*
X14741071Y-13055357D01*
X15183928Y-13412500D02*
X15169643Y-13398214D01*
X15141071Y-13355357D01*
X15126786Y-13326786D01*
X15112500Y-13283929D01*
X15098214Y-13212500D01*
X15098214Y-13155357D01*
X15112500Y-13083929D01*
X15126786Y-13041071D01*
X15141071Y-13012500D01*
X15169643Y-12969643D01*
X15183928Y-12955357D01*
X15355357Y-12998214D02*
X15383928Y-12998214D01*
X15412500Y-13012500D01*
X15426786Y-13026786D01*
X15441071Y-13055357D01*
X15455357Y-13112500D01*
X15455357Y-13183929D01*
X15441071Y-13241071D01*
X15426786Y-13269643D01*
X15412500Y-13283929D01*
X15383928Y-13298214D01*
X15355357Y-13298214D01*
X15326786Y-13283929D01*
X15312500Y-13269643D01*
X15298214Y-13241071D01*
X15283928Y-13183929D01*
X15283928Y-13112500D01*
X15298214Y-13055357D01*
X15312500Y-13026786D01*
X15326786Y-13012500D01*
X15355357Y-12998214D01*
X15812500Y-13298214D02*
X15812500Y-12998214D01*
X15941071Y-13298214D02*
X15941071Y-13141071D01*
X15926786Y-13112500D01*
X15898214Y-13098214D01*
X15855357Y-13098214D01*
X15826786Y-13112500D01*
X15812500Y-13126786D01*
X16126786Y-13298214D02*
X16098214Y-13283929D01*
X16083928Y-13269643D01*
X16069643Y-13241071D01*
X16069643Y-13155357D01*
X16083928Y-13126786D01*
X16098214Y-13112500D01*
X16126786Y-13098214D01*
X16169643Y-13098214D01*
X16198214Y-13112500D01*
X16212500Y-13126786D01*
X16226786Y-13155357D01*
X16226786Y-13241071D01*
X16212500Y-13269643D01*
X16198214Y-13283929D01*
X16169643Y-13298214D01*
X16126786Y-13298214D01*
X16398214Y-13298214D02*
X16369643Y-13283929D01*
X16355357Y-13255357D01*
X16355357Y-12998214D01*
X16626786Y-13283929D02*
X16598214Y-13298214D01*
X16541071Y-13298214D01*
X16512500Y-13283929D01*
X16498214Y-13255357D01*
X16498214Y-13141071D01*
X16512500Y-13112500D01*
X16541071Y-13098214D01*
X16598214Y-13098214D01*
X16626786Y-13112500D01*
X16641071Y-13141071D01*
X16641071Y-13169643D01*
X16498214Y-13198214D01*
X16755357Y-13283929D02*
X16783928Y-13298214D01*
X16841071Y-13298214D01*
X16869643Y-13283929D01*
X16883928Y-13255357D01*
X16883928Y-13241071D01*
X16869643Y-13212500D01*
X16841071Y-13198214D01*
X16798214Y-13198214D01*
X16769643Y-13183929D01*
X16755357Y-13155357D01*
X16755357Y-13141071D01*
X16769643Y-13112500D01*
X16798214Y-13098214D01*
X16841071Y-13098214D01*
X16869643Y-13112500D01*
X17241071Y-13183929D02*
X17469643Y-13183929D01*
X17355357Y-13298214D02*
X17355357Y-13069643D01*
X17969643Y-13098214D02*
X17969643Y-13298214D01*
X17898214Y-12983929D02*
X17826786Y-13198214D01*
X18012500Y-13198214D01*
X18341071Y-13283929D02*
X18369643Y-13298214D01*
X18426786Y-13298214D01*
X18455357Y-13283929D01*
X18469643Y-13255357D01*
X18469643Y-13241071D01*
X18455357Y-13212500D01*
X18426786Y-13198214D01*
X18383928Y-13198214D01*
X18355357Y-13183929D01*
X18341071Y-13155357D01*
X18341071Y-13141071D01*
X18355357Y-13112500D01*
X18383928Y-13098214D01*
X18426786Y-13098214D01*
X18455357Y-13112500D01*
X18641071Y-13298214D02*
X18612500Y-13283929D01*
X18598214Y-13255357D01*
X18598214Y-12998214D01*
X18798214Y-13298214D02*
X18769643Y-13283929D01*
X18755357Y-13269643D01*
X18741071Y-13241071D01*
X18741071Y-13155357D01*
X18755357Y-13126786D01*
X18769643Y-13112500D01*
X18798214Y-13098214D01*
X18841071Y-13098214D01*
X18869643Y-13112500D01*
X18883928Y-13126786D01*
X18898214Y-13155357D01*
X18898214Y-13241071D01*
X18883928Y-13269643D01*
X18869643Y-13283929D01*
X18841071Y-13298214D01*
X18798214Y-13298214D01*
X18983928Y-13098214D02*
X19098214Y-13098214D01*
X19026786Y-12998214D02*
X19026786Y-13255357D01*
X19041071Y-13283929D01*
X19069643Y-13298214D01*
X19098214Y-13298214D01*
X19183928Y-13283929D02*
X19212500Y-13298214D01*
X19269643Y-13298214D01*
X19298214Y-13283929D01*
X19312500Y-13255357D01*
X19312500Y-13241071D01*
X19298214Y-13212500D01*
X19269643Y-13198214D01*
X19226786Y-13198214D01*
X19198214Y-13183929D01*
X19183928Y-13155357D01*
X19183928Y-13141071D01*
X19198214Y-13112500D01*
X19226786Y-13098214D01*
X19269643Y-13098214D01*
X19298214Y-13112500D01*
X19412500Y-13412500D02*
X19426786Y-13398214D01*
X19455357Y-13355357D01*
X19469643Y-13326786D01*
X19483928Y-13283929D01*
X19498214Y-13212500D01*
X19498214Y-13155357D01*
X19483928Y-13083929D01*
X19469643Y-13041071D01*
X19455357Y-13012500D01*
X19426786Y-12969643D01*
X19412500Y-12955357D01*
X10497500Y-13558500D02*
G75*
G03*
X10497500Y-13558500I-40000J0D01*
G01*
X10841071Y-13394214D02*
X10869643Y-13394214D01*
X10898214Y-13408500D01*
X10912500Y-13422786D01*
X10926786Y-13451357D01*
X10941071Y-13508500D01*
X10941071Y-13579929D01*
X10926786Y-13637071D01*
X10912500Y-13665643D01*
X10898214Y-13679929D01*
X10869643Y-13694214D01*
X10841071Y-13694214D01*
X10812500Y-13679929D01*
X10798214Y-13665643D01*
X10783928Y-13637071D01*
X10769643Y-13579929D01*
X10769643Y-13508500D01*
X10783928Y-13451357D01*
X10798214Y-13422786D01*
X10812500Y-13408500D01*
X10841071Y-13394214D01*
X11069643Y-13665643D02*
X11083928Y-13679929D01*
X11069643Y-13694214D01*
X11055357Y-13679929D01*
X11069643Y-13665643D01*
X11069643Y-13694214D01*
X11255357Y-13522786D02*
X11226786Y-13508500D01*
X11212500Y-13494214D01*
X11198214Y-13465643D01*
X11198214Y-13451357D01*
X11212500Y-13422786D01*
X11226786Y-13408500D01*
X11255357Y-13394214D01*
X11312500Y-13394214D01*
X11341071Y-13408500D01*
X11355357Y-13422786D01*
X11369643Y-13451357D01*
X11369643Y-13465643D01*
X11355357Y-13494214D01*
X11341071Y-13508500D01*
X11312500Y-13522786D01*
X11255357Y-13522786D01*
X11226786Y-13537071D01*
X11212500Y-13551357D01*
X11198214Y-13579929D01*
X11198214Y-13637071D01*
X11212500Y-13665643D01*
X11226786Y-13679929D01*
X11255357Y-13694214D01*
X11312500Y-13694214D01*
X11341071Y-13679929D01*
X11355357Y-13665643D01*
X11369643Y-13637071D01*
X11369643Y-13579929D01*
X11355357Y-13551357D01*
X11341071Y-13537071D01*
X11312500Y-13522786D01*
X11555357Y-13394214D02*
X11583928Y-13394214D01*
X11612500Y-13408500D01*
X11626786Y-13422786D01*
X11641071Y-13451357D01*
X11655357Y-13508500D01*
X11655357Y-13579929D01*
X11641071Y-13637071D01*
X11626786Y-13665643D01*
X11612500Y-13679929D01*
X11583928Y-13694214D01*
X11555357Y-13694214D01*
X11526786Y-13679929D01*
X11512500Y-13665643D01*
X11498214Y-13637071D01*
X11483928Y-13579929D01*
X11483928Y-13508500D01*
X11498214Y-13451357D01*
X11512500Y-13422786D01*
X11526786Y-13408500D01*
X11555357Y-13394214D01*
X11783928Y-13694214D02*
X11783928Y-13494214D01*
X11783928Y-13522786D02*
X11798214Y-13508500D01*
X11826786Y-13494214D01*
X11869643Y-13494214D01*
X11898214Y-13508500D01*
X11912500Y-13537071D01*
X11912500Y-13694214D01*
X11912500Y-13537071D02*
X11926786Y-13508500D01*
X11955357Y-13494214D01*
X11998214Y-13494214D01*
X12026786Y-13508500D01*
X12041071Y-13537071D01*
X12041071Y-13694214D01*
X12183928Y-13694214D02*
X12183928Y-13494214D01*
X12183928Y-13522786D02*
X12198214Y-13508500D01*
X12226786Y-13494214D01*
X12269643Y-13494214D01*
X12298214Y-13508500D01*
X12312500Y-13537071D01*
X12312500Y-13694214D01*
X12312500Y-13537071D02*
X12326786Y-13508500D01*
X12355357Y-13494214D01*
X12398214Y-13494214D01*
X12426786Y-13508500D01*
X12441071Y-13537071D01*
X12441071Y-13694214D01*
X13026786Y-13379929D02*
X12769643Y-13765643D01*
X13412500Y-13394214D02*
X13441071Y-13394214D01*
X13469643Y-13408500D01*
X13483928Y-13422786D01*
X13498214Y-13451357D01*
X13512500Y-13508500D01*
X13512500Y-13579929D01*
X13498214Y-13637071D01*
X13483928Y-13665643D01*
X13469643Y-13679929D01*
X13441071Y-13694214D01*
X13412500Y-13694214D01*
X13383928Y-13679929D01*
X13369643Y-13665643D01*
X13355357Y-13637071D01*
X13341071Y-13579929D01*
X13341071Y-13508500D01*
X13355357Y-13451357D01*
X13369643Y-13422786D01*
X13383928Y-13408500D01*
X13412500Y-13394214D01*
X13641071Y-13665643D02*
X13655357Y-13679929D01*
X13641071Y-13694214D01*
X13626786Y-13679929D01*
X13641071Y-13665643D01*
X13641071Y-13694214D01*
X13841071Y-13394214D02*
X13869643Y-13394214D01*
X13898214Y-13408500D01*
X13912500Y-13422786D01*
X13926786Y-13451357D01*
X13941071Y-13508500D01*
X13941071Y-13579929D01*
X13926786Y-13637071D01*
X13912500Y-13665643D01*
X13898214Y-13679929D01*
X13869643Y-13694214D01*
X13841071Y-13694214D01*
X13812500Y-13679929D01*
X13798214Y-13665643D01*
X13783928Y-13637071D01*
X13769643Y-13579929D01*
X13769643Y-13508500D01*
X13783928Y-13451357D01*
X13798214Y-13422786D01*
X13812500Y-13408500D01*
X13841071Y-13394214D01*
X14041071Y-13394214D02*
X14226786Y-13394214D01*
X14126786Y-13508500D01*
X14169643Y-13508500D01*
X14198214Y-13522786D01*
X14212500Y-13537071D01*
X14226786Y-13565643D01*
X14226786Y-13637071D01*
X14212500Y-13665643D01*
X14198214Y-13679929D01*
X14169643Y-13694214D01*
X14083928Y-13694214D01*
X14055357Y-13679929D01*
X14041071Y-13665643D01*
X14512500Y-13694214D02*
X14341071Y-13694214D01*
X14426786Y-13694214D02*
X14426786Y-13394214D01*
X14398214Y-13437071D01*
X14369643Y-13465643D01*
X14341071Y-13479929D01*
X14626786Y-13394214D02*
X14626786Y-13451357D01*
X14741071Y-13394214D02*
X14741071Y-13451357D01*
X15183928Y-13808500D02*
X15169643Y-13794214D01*
X15141071Y-13751357D01*
X15126786Y-13722786D01*
X15112500Y-13679929D01*
X15098214Y-13608500D01*
X15098214Y-13551357D01*
X15112500Y-13479929D01*
X15126786Y-13437071D01*
X15141071Y-13408500D01*
X15169643Y-13365643D01*
X15183928Y-13351357D01*
X15269643Y-13394214D02*
X15455357Y-13394214D01*
X15355357Y-13508500D01*
X15398214Y-13508500D01*
X15426786Y-13522786D01*
X15441071Y-13537071D01*
X15455357Y-13565643D01*
X15455357Y-13637071D01*
X15441071Y-13665643D01*
X15426786Y-13679929D01*
X15398214Y-13694214D01*
X15312500Y-13694214D01*
X15283928Y-13679929D01*
X15269643Y-13665643D01*
X15812500Y-13694214D02*
X15812500Y-13394214D01*
X15941071Y-13694214D02*
X15941071Y-13537071D01*
X15926786Y-13508500D01*
X15898214Y-13494214D01*
X15855357Y-13494214D01*
X15826786Y-13508500D01*
X15812500Y-13522786D01*
X16126786Y-13694214D02*
X16098214Y-13679929D01*
X16083928Y-13665643D01*
X16069643Y-13637071D01*
X16069643Y-13551357D01*
X16083928Y-13522786D01*
X16098214Y-13508500D01*
X16126786Y-13494214D01*
X16169643Y-13494214D01*
X16198214Y-13508500D01*
X16212500Y-13522786D01*
X16226786Y-13551357D01*
X16226786Y-13637071D01*
X16212500Y-13665643D01*
X16198214Y-13679929D01*
X16169643Y-13694214D01*
X16126786Y-13694214D01*
X16398214Y-13694214D02*
X16369643Y-13679929D01*
X16355357Y-13651357D01*
X16355357Y-13394214D01*
X16626786Y-13679929D02*
X16598214Y-13694214D01*
X16541071Y-13694214D01*
X16512500Y-13679929D01*
X16498214Y-13651357D01*
X16498214Y-13537071D01*
X16512500Y-13508500D01*
X16541071Y-13494214D01*
X16598214Y-13494214D01*
X16626786Y-13508500D01*
X16641071Y-13537071D01*
X16641071Y-13565643D01*
X16498214Y-13594214D01*
X16755357Y-13679929D02*
X16783928Y-13694214D01*
X16841071Y-13694214D01*
X16869643Y-13679929D01*
X16883928Y-13651357D01*
X16883928Y-13637071D01*
X16869643Y-13608500D01*
X16841071Y-13594214D01*
X16798214Y-13594214D01*
X16769643Y-13579929D01*
X16755357Y-13551357D01*
X16755357Y-13537071D01*
X16769643Y-13508500D01*
X16798214Y-13494214D01*
X16841071Y-13494214D01*
X16869643Y-13508500D01*
X16983928Y-13808500D02*
X16998214Y-13794214D01*
X17026786Y-13751357D01*
X17041071Y-13722786D01*
X17055357Y-13679929D01*
X17069643Y-13608500D01*
X17069643Y-13551357D01*
X17055357Y-13479929D01*
X17041071Y-13437071D01*
X17026786Y-13408500D01*
X16998214Y-13365643D01*
X16983928Y-13351357D01*
M02*
