%TF.GenerationSoftware,KiCad,Pcbnew,(5.1.6)-1*%
%TF.CreationDate,2022-07-31T05:20:53+09:00*%
%TF.ProjectId,az-core-top,617a2d63-6f72-4652-9d74-6f702e6b6963,rev?*%
%TF.SameCoordinates,Original*%
%TF.FileFunction,Profile,NP*%
%FSLAX46Y46*%
G04 Gerber Fmt 4.6, Leading zero omitted, Abs format (unit mm)*
G04 Created by KiCad (PCBNEW (5.1.6)-1) date 2022-07-31 05:20:53*
%MOMM*%
%LPD*%
G01*
G04 APERTURE LIST*
%TA.AperFunction,Profile*%
%ADD10C,0.050000*%
%TD*%
%TA.AperFunction,Profile*%
%ADD11C,0.100000*%
%TD*%
G04 APERTURE END LIST*
D10*
X117000000Y-82000000D02*
X117000000Y-111000000D01*
X120000000Y-114000000D02*
G75*
G02*
X117000000Y-111000000I0J3000000D01*
G01*
X117000000Y-82000000D02*
G75*
G02*
X120000000Y-79000000I3000000J0D01*
G01*
X121000000Y-111000000D02*
G75*
G03*
X121000000Y-111000000I-1000000J0D01*
G01*
X121000000Y-82000000D02*
G75*
G03*
X121000000Y-82000000I-1000000J0D01*
G01*
X180000000Y-111000000D02*
G75*
G02*
X177000000Y-114000000I-3000000J0D01*
G01*
X177000000Y-79000000D02*
G75*
G02*
X180000000Y-82000000I0J-3000000D01*
G01*
X178000000Y-111000000D02*
G75*
G03*
X178000000Y-111000000I-1000000J0D01*
G01*
X178000000Y-82000000D02*
G75*
G03*
X178000000Y-82000000I-1000000J0D01*
G01*
X120000000Y-114000000D02*
X177000000Y-114000000D01*
X177000000Y-79000000D02*
X120000000Y-79000000D01*
X180000000Y-82000000D02*
X180000000Y-111000000D01*
D11*
X150250000Y-102050000D02*
G75*
G02*
X150550000Y-102350000I0J-300000D01*
G01*
X133550000Y-105850000D02*
G75*
G02*
X133250000Y-106150000I-300000J0D01*
G01*
X145450000Y-102350000D02*
G75*
G02*
X145750000Y-102050000I300000J0D01*
G01*
X128450000Y-105850000D02*
X128450000Y-102350000D01*
X145750000Y-106150000D02*
G75*
G02*
X145450000Y-105850000I0J300000D01*
G01*
X133250000Y-102050000D02*
G75*
G02*
X133550000Y-102350000I0J-300000D01*
G01*
X133250000Y-102050000D02*
X128750000Y-102050000D01*
X133250000Y-106150000D02*
X128750000Y-106150000D01*
X128750000Y-106150000D02*
G75*
G02*
X128450000Y-105850000I0J300000D01*
G01*
X150550000Y-105850000D02*
G75*
G02*
X150250000Y-106150000I-300000J0D01*
G01*
X133550000Y-102350000D02*
X133550000Y-105850000D01*
X128450000Y-102350000D02*
G75*
G02*
X128750000Y-102050000I300000J0D01*
G01*
X150250000Y-102050000D02*
X145750000Y-102050000D01*
X145450000Y-105850000D02*
X145450000Y-102350000D01*
X150550000Y-102350000D02*
X150550000Y-105850000D01*
X150250000Y-106150000D02*
X145750000Y-106150000D01*
X150550000Y-88850000D02*
G75*
G02*
X150250000Y-89150000I-300000J0D01*
G01*
X150250000Y-85050000D02*
G75*
G02*
X150550000Y-85350000I0J-300000D01*
G01*
X150250000Y-85050000D02*
X145750000Y-85050000D01*
X145450000Y-85350000D02*
G75*
G02*
X145750000Y-85050000I300000J0D01*
G01*
X145450000Y-88850000D02*
X145450000Y-85350000D01*
X150550000Y-85350000D02*
X150550000Y-88850000D01*
X145750000Y-89150000D02*
G75*
G02*
X145450000Y-88850000I0J300000D01*
G01*
X150250000Y-89150000D02*
X145750000Y-89150000D01*
X133550000Y-88850000D02*
G75*
G02*
X133250000Y-89150000I-300000J0D01*
G01*
X133250000Y-85050000D02*
G75*
G02*
X133550000Y-85350000I0J-300000D01*
G01*
X133250000Y-85050000D02*
X128750000Y-85050000D01*
X128450000Y-85350000D02*
G75*
G02*
X128750000Y-85050000I300000J0D01*
G01*
X128450000Y-88850000D02*
X128450000Y-85350000D01*
X133550000Y-85350000D02*
X133550000Y-88850000D01*
X128750000Y-89150000D02*
G75*
G02*
X128450000Y-88850000I0J300000D01*
G01*
X133250000Y-89150000D02*
X128750000Y-89150000D01*
M02*
