%TF.GenerationSoftware,KiCad,Pcbnew,(5.1.6)-1*%
%TF.CreationDate,2022-07-31T05:20:53+09:00*%
%TF.ProjectId,az-core-top,617a2d63-6f72-4652-9d74-6f702e6b6963,rev?*%
%TF.SameCoordinates,Original*%
%TF.FileFunction,Soldermask,Bot*%
%TF.FilePolarity,Negative*%
%FSLAX46Y46*%
G04 Gerber Fmt 4.6, Leading zero omitted, Abs format (unit mm)*
G04 Created by KiCad (PCBNEW (5.1.6)-1) date 2022-07-31 05:20:53*
%MOMM*%
%LPD*%
G01*
G04 APERTURE LIST*
%ADD10R,3.700000X1.370000*%
%ADD11O,1.300000X1.800000*%
%ADD12C,1.400000*%
%ADD13O,1.300000X2.000000*%
%ADD14R,2.000000X1.100000*%
%ADD15R,1.300000X2.600000*%
%ADD16C,1.000000*%
G04 APERTURE END LIST*
%TO.C,F1*%
G36*
G01*
X165000000Y-91650000D02*
X162600000Y-91650000D01*
G75*
G02*
X162300000Y-91350000I0J300000D01*
G01*
X162300000Y-90750000D01*
G75*
G02*
X162600000Y-90450000I300000J0D01*
G01*
X165000000Y-90450000D01*
G75*
G02*
X165300000Y-90750000I0J-300000D01*
G01*
X165300000Y-91350000D01*
G75*
G02*
X165000000Y-91650000I-300000J0D01*
G01*
G37*
G36*
G01*
X165000000Y-88350000D02*
X162600000Y-88350000D01*
G75*
G02*
X162300000Y-88050000I0J300000D01*
G01*
X162300000Y-87450000D01*
G75*
G02*
X162600000Y-87150000I300000J0D01*
G01*
X165000000Y-87150000D01*
G75*
G02*
X165300000Y-87450000I0J-300000D01*
G01*
X165300000Y-88050000D01*
G75*
G02*
X165000000Y-88350000I-300000J0D01*
G01*
G37*
%TD*%
D10*
%TO.C,REF\u002A\u002A*%
X121500000Y-87610000D03*
X121500000Y-90150000D03*
X121500000Y-92690000D03*
X121500000Y-95230000D03*
X121500000Y-97770000D03*
X121500000Y-100310000D03*
X121500000Y-102850000D03*
X121500000Y-105390000D03*
%TD*%
D11*
%TO.C,REF\u002A\u002A*%
X134400008Y-86000164D03*
D12*
X125500008Y-82500164D03*
X136500008Y-93500164D03*
D13*
X134400008Y-90900164D03*
%TD*%
%TO.C,REF\u002A\u002A*%
X151400008Y-90900164D03*
D12*
X153500008Y-93500164D03*
X142500008Y-82500164D03*
D11*
X151400008Y-86000164D03*
%TD*%
%TO.C,REF\u002A\u002A*%
X151400008Y-103000164D03*
D12*
X142500008Y-99500164D03*
X153500008Y-110500164D03*
D13*
X151400008Y-107900164D03*
%TD*%
%TO.C,REF\u002A\u002A*%
X134400008Y-107900164D03*
D12*
X136500008Y-110500164D03*
X125500008Y-99500164D03*
D11*
X134400008Y-103000164D03*
%TD*%
D14*
%TO.C,REF\u002A\u002A*%
X169250000Y-93750000D03*
X169250000Y-98830000D03*
X169250000Y-103910000D03*
X169250000Y-106450000D03*
X169250000Y-101370000D03*
X169250000Y-96290000D03*
%TD*%
%TO.C,R4*%
G36*
G01*
X162425000Y-97087500D02*
X161575000Y-97087500D01*
G75*
G02*
X161250000Y-96762500I0J325000D01*
G01*
X161250000Y-96112500D01*
G75*
G02*
X161575000Y-95787500I325000J0D01*
G01*
X162425000Y-95787500D01*
G75*
G02*
X162750000Y-96112500I0J-325000D01*
G01*
X162750000Y-96762500D01*
G75*
G02*
X162425000Y-97087500I-325000J0D01*
G01*
G37*
G36*
G01*
X162425000Y-95212500D02*
X161575000Y-95212500D01*
G75*
G02*
X161250000Y-94887500I0J325000D01*
G01*
X161250000Y-94237500D01*
G75*
G02*
X161575000Y-93912500I325000J0D01*
G01*
X162425000Y-93912500D01*
G75*
G02*
X162750000Y-94237500I0J-325000D01*
G01*
X162750000Y-94887500D01*
G75*
G02*
X162425000Y-95212500I-325000J0D01*
G01*
G37*
%TD*%
%TO.C,R3*%
G36*
G01*
X159925000Y-95212500D02*
X159075000Y-95212500D01*
G75*
G02*
X158750000Y-94887500I0J325000D01*
G01*
X158750000Y-94237500D01*
G75*
G02*
X159075000Y-93912500I325000J0D01*
G01*
X159925000Y-93912500D01*
G75*
G02*
X160250000Y-94237500I0J-325000D01*
G01*
X160250000Y-94887500D01*
G75*
G02*
X159925000Y-95212500I-325000J0D01*
G01*
G37*
G36*
G01*
X159925000Y-97087500D02*
X159075000Y-97087500D01*
G75*
G02*
X158750000Y-96762500I0J325000D01*
G01*
X158750000Y-96112500D01*
G75*
G02*
X159075000Y-95787500I325000J0D01*
G01*
X159925000Y-95787500D01*
G75*
G02*
X160250000Y-96112500I0J-325000D01*
G01*
X160250000Y-96762500D01*
G75*
G02*
X159925000Y-97087500I-325000J0D01*
G01*
G37*
%TD*%
%TO.C,J3*%
G36*
G01*
X166415000Y-107500000D02*
X165465000Y-107500000D01*
G75*
G02*
X164990000Y-107025000I0J475000D01*
G01*
X164990000Y-105675000D01*
G75*
G02*
X165465000Y-105200000I475000J0D01*
G01*
X166415000Y-105200000D01*
G75*
G02*
X166890000Y-105675000I0J-475000D01*
G01*
X166890000Y-107025000D01*
G75*
G02*
X166415000Y-107500000I-475000J0D01*
G01*
G37*
G36*
G01*
X163875000Y-107500000D02*
X162925000Y-107500000D01*
G75*
G02*
X162450000Y-107025000I0J475000D01*
G01*
X162450000Y-105675000D01*
G75*
G02*
X162925000Y-105200000I475000J0D01*
G01*
X163875000Y-105200000D01*
G75*
G02*
X164350000Y-105675000I0J-475000D01*
G01*
X164350000Y-107025000D01*
G75*
G02*
X163875000Y-107500000I-475000J0D01*
G01*
G37*
%TD*%
%TO.C,R2*%
G36*
G01*
X160075000Y-89187500D02*
X160925000Y-89187500D01*
G75*
G02*
X161250000Y-89512500I0J-325000D01*
G01*
X161250000Y-90162500D01*
G75*
G02*
X160925000Y-90487500I-325000J0D01*
G01*
X160075000Y-90487500D01*
G75*
G02*
X159750000Y-90162500I0J325000D01*
G01*
X159750000Y-89512500D01*
G75*
G02*
X160075000Y-89187500I325000J0D01*
G01*
G37*
G36*
G01*
X160075000Y-87312500D02*
X160925000Y-87312500D01*
G75*
G02*
X161250000Y-87637500I0J-325000D01*
G01*
X161250000Y-88287500D01*
G75*
G02*
X160925000Y-88612500I-325000J0D01*
G01*
X160075000Y-88612500D01*
G75*
G02*
X159750000Y-88287500I0J325000D01*
G01*
X159750000Y-87637500D01*
G75*
G02*
X160075000Y-87312500I325000J0D01*
G01*
G37*
%TD*%
%TO.C,R1*%
G36*
G01*
X157575000Y-87412500D02*
X158425000Y-87412500D01*
G75*
G02*
X158750000Y-87737500I0J-325000D01*
G01*
X158750000Y-88387500D01*
G75*
G02*
X158425000Y-88712500I-325000J0D01*
G01*
X157575000Y-88712500D01*
G75*
G02*
X157250000Y-88387500I0J325000D01*
G01*
X157250000Y-87737500D01*
G75*
G02*
X157575000Y-87412500I325000J0D01*
G01*
G37*
G36*
G01*
X157575000Y-89287500D02*
X158425000Y-89287500D01*
G75*
G02*
X158750000Y-89612500I0J-325000D01*
G01*
X158750000Y-90262500D01*
G75*
G02*
X158425000Y-90587500I-325000J0D01*
G01*
X157575000Y-90587500D01*
G75*
G02*
X157250000Y-90262500I0J325000D01*
G01*
X157250000Y-89612500D01*
G75*
G02*
X157575000Y-89287500I325000J0D01*
G01*
G37*
%TD*%
D15*
%TO.C,PJ320D*%
X167175000Y-92350000D03*
X168275000Y-85850000D03*
X172275000Y-85850000D03*
X175275000Y-85850000D03*
D16*
X176875000Y-89100000D03*
X169875000Y-89100000D03*
%TD*%
M02*
