%FSLAX45Y45*%
G04 Gerber Fmt 4.5, Leading zero omitted, Abs format (unit mm)*
G04 Created by KiCad (PCBNEW (5.1.6)-1) date 2022-07-31 05:20:59*
%MOMM*%
%LPD*%
G01*
G04 APERTURE LIST*
%TA.AperFunction,Profile*%
%ADD10C,0.050000*%
%TD*%
%TA.AperFunction,Profile*%
%ADD11C,0.100000*%
%TD*%
%ADD12C,0.200000*%
%ADD13C,0.300000*%
G04 APERTURE END LIST*
D10*
X11700000Y-8200000D02*
X11700000Y-11100000D01*
X12000000Y-11400000D02*
G75*
G02*
X11700000Y-11100000I0J300000D01*
G01*
X11700000Y-8200000D02*
G75*
G02*
X12000000Y-7900000I300000J0D01*
G01*
X12100000Y-11100000D02*
G75*
G03*
X12100000Y-11100000I-100000J0D01*
G01*
X12100000Y-8200000D02*
G75*
G03*
X12100000Y-8200000I-100000J0D01*
G01*
X18000000Y-11100000D02*
G75*
G02*
X17700000Y-11400000I-300000J0D01*
G01*
X17700000Y-7900000D02*
G75*
G02*
X18000000Y-8200000I0J-300000D01*
G01*
X17800000Y-11100000D02*
G75*
G03*
X17800000Y-11100000I-100000J0D01*
G01*
X17800000Y-8200000D02*
G75*
G03*
X17800000Y-8200000I-100000J0D01*
G01*
X12000000Y-11400000D02*
X17700000Y-11400000D01*
X17700000Y-7900000D02*
X12000000Y-7900000D01*
X18000000Y-8200000D02*
X18000000Y-11100000D01*
D11*
X15025000Y-10205000D02*
G75*
G02*
X15055000Y-10235000I0J-30000D01*
G01*
X13355000Y-10585000D02*
G75*
G02*
X13325000Y-10615000I-30000J0D01*
G01*
X14545000Y-10235000D02*
G75*
G02*
X14575000Y-10205000I30000J0D01*
G01*
X12845000Y-10585000D02*
X12845000Y-10235000D01*
X14575000Y-10615000D02*
G75*
G02*
X14545000Y-10585000I0J30000D01*
G01*
X13325000Y-10205000D02*
G75*
G02*
X13355000Y-10235000I0J-30000D01*
G01*
X13325000Y-10205000D02*
X12875000Y-10205000D01*
X13325000Y-10615000D02*
X12875000Y-10615000D01*
X12875000Y-10615000D02*
G75*
G02*
X12845000Y-10585000I0J30000D01*
G01*
X15055000Y-10585000D02*
G75*
G02*
X15025000Y-10615000I-30000J0D01*
G01*
X13355000Y-10235000D02*
X13355000Y-10585000D01*
X12845000Y-10235000D02*
G75*
G02*
X12875000Y-10205000I30000J0D01*
G01*
X15025000Y-10205000D02*
X14575000Y-10205000D01*
X14545000Y-10585000D02*
X14545000Y-10235000D01*
X15055000Y-10235000D02*
X15055000Y-10585000D01*
X15025000Y-10615000D02*
X14575000Y-10615000D01*
X15055000Y-8885000D02*
G75*
G02*
X15025000Y-8915000I-30000J0D01*
G01*
X15025000Y-8505000D02*
G75*
G02*
X15055000Y-8535000I0J-30000D01*
G01*
X15025000Y-8505000D02*
X14575000Y-8505000D01*
X14545000Y-8535000D02*
G75*
G02*
X14575000Y-8505000I30000J0D01*
G01*
X14545000Y-8885000D02*
X14545000Y-8535000D01*
X15055000Y-8535000D02*
X15055000Y-8885000D01*
X14575000Y-8915000D02*
G75*
G02*
X14545000Y-8885000I0J30000D01*
G01*
X15025000Y-8915000D02*
X14575000Y-8915000D01*
X13355000Y-8885000D02*
G75*
G02*
X13325000Y-8915000I-30000J0D01*
G01*
X13325000Y-8505000D02*
G75*
G02*
X13355000Y-8535000I0J-30000D01*
G01*
X13325000Y-8505000D02*
X12875000Y-8505000D01*
X12845000Y-8535000D02*
G75*
G02*
X12875000Y-8505000I30000J0D01*
G01*
X12845000Y-8885000D02*
X12845000Y-8535000D01*
X13355000Y-8535000D02*
X13355000Y-8885000D01*
X12875000Y-8915000D02*
G75*
G02*
X12845000Y-8885000I0J30000D01*
G01*
X13325000Y-8915000D02*
X12875000Y-8915000D01*
D12*
X12295000Y-8545000D02*
X12335000Y-8585000D01*
X12335000Y-8545000D02*
X12295000Y-8585000D01*
X12680000Y-10640000D02*
X12720000Y-10680000D01*
X12720000Y-10640000D02*
X12680000Y-10680000D01*
X12740000Y-10920000D02*
X12780000Y-10960000D01*
X12780000Y-10920000D02*
X12740000Y-10960000D01*
X13000000Y-9150000D02*
X13040000Y-9190000D01*
X13040000Y-9150000D02*
X13000000Y-9190000D01*
X14290000Y-8630000D02*
X14330000Y-8670000D01*
X14330000Y-8630000D02*
X14290000Y-8670000D01*
X14330000Y-10870000D02*
X14370000Y-10910000D01*
X14370000Y-10870000D02*
X14330000Y-10910000D01*
X14710000Y-9170000D02*
X14750000Y-9210000D01*
X14750000Y-9170000D02*
X14710000Y-9210000D01*
X14770000Y-10930000D02*
X14810000Y-10970000D01*
X14810000Y-10930000D02*
X14770000Y-10970000D01*
X15580000Y-9060000D02*
X15620000Y-9100000D01*
X15620000Y-9060000D02*
X15580000Y-9100000D01*
X16040000Y-9980000D02*
X16080000Y-10020000D01*
X16080000Y-9980000D02*
X16040000Y-10020000D01*
X16060000Y-9220000D02*
X16100000Y-9260000D01*
X16100000Y-9220000D02*
X16060000Y-9260000D01*
X16100000Y-8410000D02*
X16140000Y-8450000D01*
X16140000Y-8410000D02*
X16100000Y-8450000D01*
X16140000Y-8940000D02*
X16180000Y-8980000D01*
X16180000Y-8940000D02*
X16140000Y-8980000D01*
X16315974Y-8584026D02*
X16355974Y-8624026D01*
X16355974Y-8584026D02*
X16315974Y-8624026D01*
X16972026Y-9092026D02*
X17012026Y-9132026D01*
X17012026Y-9092026D02*
X16972026Y-9132026D01*
X17081018Y-10268982D02*
X17121018Y-10308982D01*
X17121018Y-10268982D02*
X17081018Y-10308982D01*
X17161000Y-9609000D02*
X17201000Y-9649000D01*
X17201000Y-9609000D02*
X17161000Y-9649000D01*
X17163000Y-10117000D02*
X17203000Y-10157000D01*
X17203000Y-10117000D02*
X17163000Y-10157000D01*
X17217000Y-9863000D02*
X17257000Y-9903000D01*
X17257000Y-9863000D02*
X17217000Y-9903000D01*
X17249000Y-10371000D02*
X17289000Y-10411000D01*
X17289000Y-10371000D02*
X17249000Y-10411000D01*
X15115000Y-8250000D02*
G75*
G03*
X15115000Y-8250000I-25000J0D01*
G01*
X16425000Y-9860000D02*
G75*
G03*
X16425000Y-9860000I-25000J0D01*
G01*
X16545000Y-9420000D02*
G75*
G03*
X16545000Y-9420000I-25000J0D01*
G01*
X16651250Y-8756250D02*
G75*
G03*
X16651250Y-8756250I-25000J0D01*
G01*
X17135000Y-9360000D02*
G75*
G03*
X17135000Y-9360000I-25000J0D01*
G01*
X13465001Y-10300016D02*
G75*
G03*
X13465001Y-10300016I-25000J0D01*
G01*
X13425001Y-10275016D02*
X13425001Y-10325016D01*
X13455001Y-10275016D02*
X13455001Y-10325016D01*
X13425001Y-10325016D02*
G75*
G03*
X13455001Y-10325016I15000J0D01*
G01*
X13455001Y-10275016D02*
G75*
G03*
X13425001Y-10275016I-15000J0D01*
G01*
X13465001Y-10790016D02*
G75*
G03*
X13465001Y-10790016I-25000J0D01*
G01*
X13425001Y-10755016D02*
X13425001Y-10825016D01*
X13455001Y-10755016D02*
X13455001Y-10825016D01*
X13425001Y-10825016D02*
G75*
G03*
X13455001Y-10825016I15000J0D01*
G01*
X13455001Y-10755016D02*
G75*
G03*
X13425001Y-10755016I-15000J0D01*
G01*
X15165001Y-10300016D02*
G75*
G03*
X15165001Y-10300016I-25000J0D01*
G01*
X15125001Y-10275016D02*
X15125001Y-10325016D01*
X15155001Y-10275016D02*
X15155001Y-10325016D01*
X15125001Y-10325016D02*
G75*
G03*
X15155001Y-10325016I15000J0D01*
G01*
X15155001Y-10275016D02*
G75*
G03*
X15125001Y-10275016I-15000J0D01*
G01*
X15165001Y-10790016D02*
G75*
G03*
X15165001Y-10790016I-25000J0D01*
G01*
X15125001Y-10755016D02*
X15125001Y-10825016D01*
X15155001Y-10755016D02*
X15155001Y-10825016D01*
X15125001Y-10825016D02*
G75*
G03*
X15155001Y-10825016I15000J0D01*
G01*
X15155001Y-10755016D02*
G75*
G03*
X15125001Y-10755016I-15000J0D01*
G01*
X13465001Y-8600016D02*
G75*
G03*
X13465001Y-8600016I-25000J0D01*
G01*
X13425001Y-8575016D02*
X13425001Y-8625016D01*
X13455001Y-8575016D02*
X13455001Y-8625016D01*
X13425001Y-8625016D02*
G75*
G03*
X13455001Y-8625016I15000J0D01*
G01*
X13455001Y-8575016D02*
G75*
G03*
X13425001Y-8575016I-15000J0D01*
G01*
X13465001Y-9090016D02*
G75*
G03*
X13465001Y-9090016I-25000J0D01*
G01*
X13425001Y-9055016D02*
X13425001Y-9125016D01*
X13455001Y-9055016D02*
X13455001Y-9125016D01*
X13425001Y-9125016D02*
G75*
G03*
X13455001Y-9125016I15000J0D01*
G01*
X13455001Y-9055016D02*
G75*
G03*
X13425001Y-9055016I-15000J0D01*
G01*
X15165001Y-8600016D02*
G75*
G03*
X15165001Y-8600016I-25000J0D01*
G01*
X15125001Y-8575016D02*
X15125001Y-8625016D01*
X15155001Y-8575016D02*
X15155001Y-8625016D01*
X15125001Y-8625016D02*
G75*
G03*
X15155001Y-8625016I15000J0D01*
G01*
X15155001Y-8575016D02*
G75*
G03*
X15125001Y-8575016I-15000J0D01*
G01*
X15165001Y-9090016D02*
G75*
G03*
X15165001Y-9090016I-25000J0D01*
G01*
X15125001Y-9055016D02*
X15125001Y-9125016D01*
X15155001Y-9055016D02*
X15155001Y-9125016D01*
X15125001Y-9125016D02*
G75*
G03*
X15155001Y-9125016I15000J0D01*
G01*
X15155001Y-9055016D02*
G75*
G03*
X15125001Y-9055016I-15000J0D01*
G01*
X16340000Y-10585000D02*
X16340000Y-10685000D01*
X16290000Y-10635000D02*
X16390000Y-10635000D01*
X16594000Y-10585000D02*
X16594000Y-10685000D01*
X16544000Y-10635000D02*
X16644000Y-10635000D01*
D13*
X11983928Y-11868214D02*
X11983928Y-11568214D01*
X12055357Y-11568214D01*
X12098214Y-11582500D01*
X12126786Y-11611071D01*
X12141071Y-11639643D01*
X12155357Y-11696786D01*
X12155357Y-11739643D01*
X12141071Y-11796786D01*
X12126786Y-11825357D01*
X12098214Y-11853929D01*
X12055357Y-11868214D01*
X11983928Y-11868214D01*
X12283928Y-11868214D02*
X12283928Y-11668214D01*
X12283928Y-11725357D02*
X12298214Y-11696786D01*
X12312500Y-11682500D01*
X12341071Y-11668214D01*
X12369643Y-11668214D01*
X12469643Y-11868214D02*
X12469643Y-11668214D01*
X12469643Y-11568214D02*
X12455357Y-11582500D01*
X12469643Y-11596786D01*
X12483928Y-11582500D01*
X12469643Y-11568214D01*
X12469643Y-11596786D01*
X12655357Y-11868214D02*
X12626786Y-11853929D01*
X12612500Y-11825357D01*
X12612500Y-11568214D01*
X12812500Y-11868214D02*
X12783928Y-11853929D01*
X12769643Y-11825357D01*
X12769643Y-11568214D01*
X13155357Y-11868214D02*
X13155357Y-11568214D01*
X13255357Y-11782500D01*
X13355357Y-11568214D01*
X13355357Y-11868214D01*
X13626786Y-11868214D02*
X13626786Y-11711071D01*
X13612500Y-11682500D01*
X13583928Y-11668214D01*
X13526786Y-11668214D01*
X13498214Y-11682500D01*
X13626786Y-11853929D02*
X13598214Y-11868214D01*
X13526786Y-11868214D01*
X13498214Y-11853929D01*
X13483928Y-11825357D01*
X13483928Y-11796786D01*
X13498214Y-11768214D01*
X13526786Y-11753929D01*
X13598214Y-11753929D01*
X13626786Y-11739643D01*
X13769643Y-11668214D02*
X13769643Y-11968214D01*
X13769643Y-11682500D02*
X13798214Y-11668214D01*
X13855357Y-11668214D01*
X13883928Y-11682500D01*
X13898214Y-11696786D01*
X13912500Y-11725357D01*
X13912500Y-11811071D01*
X13898214Y-11839643D01*
X13883928Y-11853929D01*
X13855357Y-11868214D01*
X13798214Y-11868214D01*
X13769643Y-11853929D01*
X14041071Y-11839643D02*
X14055357Y-11853929D01*
X14041071Y-11868214D01*
X14026786Y-11853929D01*
X14041071Y-11839643D01*
X14041071Y-11868214D01*
X14041071Y-11682500D02*
X14055357Y-11696786D01*
X14041071Y-11711071D01*
X14026786Y-11696786D01*
X14041071Y-11682500D01*
X14041071Y-11711071D01*
X11657500Y-12342500D02*
X11697500Y-12382500D01*
X11697500Y-12342500D02*
X11657500Y-12382500D01*
X12041071Y-12198214D02*
X12069643Y-12198214D01*
X12098214Y-12212500D01*
X12112500Y-12226786D01*
X12126786Y-12255357D01*
X12141071Y-12312500D01*
X12141071Y-12383929D01*
X12126786Y-12441071D01*
X12112500Y-12469643D01*
X12098214Y-12483929D01*
X12069643Y-12498214D01*
X12041071Y-12498214D01*
X12012500Y-12483929D01*
X11998214Y-12469643D01*
X11983928Y-12441071D01*
X11969643Y-12383929D01*
X11969643Y-12312500D01*
X11983928Y-12255357D01*
X11998214Y-12226786D01*
X12012500Y-12212500D01*
X12041071Y-12198214D01*
X12269643Y-12469643D02*
X12283928Y-12483929D01*
X12269643Y-12498214D01*
X12255357Y-12483929D01*
X12269643Y-12469643D01*
X12269643Y-12498214D01*
X12541071Y-12298214D02*
X12541071Y-12498214D01*
X12469643Y-12183929D02*
X12398214Y-12398214D01*
X12583928Y-12398214D01*
X12755357Y-12198214D02*
X12783928Y-12198214D01*
X12812500Y-12212500D01*
X12826786Y-12226786D01*
X12841071Y-12255357D01*
X12855357Y-12312500D01*
X12855357Y-12383929D01*
X12841071Y-12441071D01*
X12826786Y-12469643D01*
X12812500Y-12483929D01*
X12783928Y-12498214D01*
X12755357Y-12498214D01*
X12726786Y-12483929D01*
X12712500Y-12469643D01*
X12698214Y-12441071D01*
X12683928Y-12383929D01*
X12683928Y-12312500D01*
X12698214Y-12255357D01*
X12712500Y-12226786D01*
X12726786Y-12212500D01*
X12755357Y-12198214D01*
X12983928Y-12498214D02*
X12983928Y-12298214D01*
X12983928Y-12326786D02*
X12998214Y-12312500D01*
X13026786Y-12298214D01*
X13069643Y-12298214D01*
X13098214Y-12312500D01*
X13112500Y-12341071D01*
X13112500Y-12498214D01*
X13112500Y-12341071D02*
X13126786Y-12312500D01*
X13155357Y-12298214D01*
X13198214Y-12298214D01*
X13226786Y-12312500D01*
X13241071Y-12341071D01*
X13241071Y-12498214D01*
X13383928Y-12498214D02*
X13383928Y-12298214D01*
X13383928Y-12326786D02*
X13398214Y-12312500D01*
X13426786Y-12298214D01*
X13469643Y-12298214D01*
X13498214Y-12312500D01*
X13512500Y-12341071D01*
X13512500Y-12498214D01*
X13512500Y-12341071D02*
X13526786Y-12312500D01*
X13555357Y-12298214D01*
X13598214Y-12298214D01*
X13626786Y-12312500D01*
X13641071Y-12341071D01*
X13641071Y-12498214D01*
X14226786Y-12183929D02*
X13969643Y-12569643D01*
X14612500Y-12198214D02*
X14641071Y-12198214D01*
X14669643Y-12212500D01*
X14683928Y-12226786D01*
X14698214Y-12255357D01*
X14712500Y-12312500D01*
X14712500Y-12383929D01*
X14698214Y-12441071D01*
X14683928Y-12469643D01*
X14669643Y-12483929D01*
X14641071Y-12498214D01*
X14612500Y-12498214D01*
X14583928Y-12483929D01*
X14569643Y-12469643D01*
X14555357Y-12441071D01*
X14541071Y-12383929D01*
X14541071Y-12312500D01*
X14555357Y-12255357D01*
X14569643Y-12226786D01*
X14583928Y-12212500D01*
X14612500Y-12198214D01*
X14841071Y-12469643D02*
X14855357Y-12483929D01*
X14841071Y-12498214D01*
X14826786Y-12483929D01*
X14841071Y-12469643D01*
X14841071Y-12498214D01*
X15041071Y-12198214D02*
X15069643Y-12198214D01*
X15098214Y-12212500D01*
X15112500Y-12226786D01*
X15126786Y-12255357D01*
X15141071Y-12312500D01*
X15141071Y-12383929D01*
X15126786Y-12441071D01*
X15112500Y-12469643D01*
X15098214Y-12483929D01*
X15069643Y-12498214D01*
X15041071Y-12498214D01*
X15012500Y-12483929D01*
X14998214Y-12469643D01*
X14983928Y-12441071D01*
X14969643Y-12383929D01*
X14969643Y-12312500D01*
X14983928Y-12255357D01*
X14998214Y-12226786D01*
X15012500Y-12212500D01*
X15041071Y-12198214D01*
X15426786Y-12498214D02*
X15255357Y-12498214D01*
X15341071Y-12498214D02*
X15341071Y-12198214D01*
X15312500Y-12241071D01*
X15283928Y-12269643D01*
X15255357Y-12283929D01*
X15683928Y-12198214D02*
X15626786Y-12198214D01*
X15598214Y-12212500D01*
X15583928Y-12226786D01*
X15555357Y-12269643D01*
X15541071Y-12326786D01*
X15541071Y-12441071D01*
X15555357Y-12469643D01*
X15569643Y-12483929D01*
X15598214Y-12498214D01*
X15655357Y-12498214D01*
X15683928Y-12483929D01*
X15698214Y-12469643D01*
X15712500Y-12441071D01*
X15712500Y-12369643D01*
X15698214Y-12341071D01*
X15683928Y-12326786D01*
X15655357Y-12312500D01*
X15598214Y-12312500D01*
X15569643Y-12326786D01*
X15555357Y-12341071D01*
X15541071Y-12369643D01*
X15826786Y-12198214D02*
X15826786Y-12255357D01*
X15941071Y-12198214D02*
X15941071Y-12255357D01*
X16383928Y-12612500D02*
X16369643Y-12598214D01*
X16341071Y-12555357D01*
X16326786Y-12526786D01*
X16312500Y-12483929D01*
X16298214Y-12412500D01*
X16298214Y-12355357D01*
X16312500Y-12283929D01*
X16326786Y-12241071D01*
X16341071Y-12212500D01*
X16369643Y-12169643D01*
X16383928Y-12155357D01*
X16483928Y-12226786D02*
X16498214Y-12212500D01*
X16526786Y-12198214D01*
X16598214Y-12198214D01*
X16626786Y-12212500D01*
X16641071Y-12226786D01*
X16655357Y-12255357D01*
X16655357Y-12283929D01*
X16641071Y-12326786D01*
X16469643Y-12498214D01*
X16655357Y-12498214D01*
X16841071Y-12198214D02*
X16869643Y-12198214D01*
X16898214Y-12212500D01*
X16912500Y-12226786D01*
X16926786Y-12255357D01*
X16941071Y-12312500D01*
X16941071Y-12383929D01*
X16926786Y-12441071D01*
X16912500Y-12469643D01*
X16898214Y-12483929D01*
X16869643Y-12498214D01*
X16841071Y-12498214D01*
X16812500Y-12483929D01*
X16798214Y-12469643D01*
X16783928Y-12441071D01*
X16769643Y-12383929D01*
X16769643Y-12312500D01*
X16783928Y-12255357D01*
X16798214Y-12226786D01*
X16812500Y-12212500D01*
X16841071Y-12198214D01*
X17298214Y-12498214D02*
X17298214Y-12198214D01*
X17426786Y-12498214D02*
X17426786Y-12341071D01*
X17412500Y-12312500D01*
X17383928Y-12298214D01*
X17341071Y-12298214D01*
X17312500Y-12312500D01*
X17298214Y-12326786D01*
X17612500Y-12498214D02*
X17583928Y-12483929D01*
X17569643Y-12469643D01*
X17555357Y-12441071D01*
X17555357Y-12355357D01*
X17569643Y-12326786D01*
X17583928Y-12312500D01*
X17612500Y-12298214D01*
X17655357Y-12298214D01*
X17683928Y-12312500D01*
X17698214Y-12326786D01*
X17712500Y-12355357D01*
X17712500Y-12441071D01*
X17698214Y-12469643D01*
X17683928Y-12483929D01*
X17655357Y-12498214D01*
X17612500Y-12498214D01*
X17883928Y-12498214D02*
X17855357Y-12483929D01*
X17841071Y-12455357D01*
X17841071Y-12198214D01*
X18112500Y-12483929D02*
X18083928Y-12498214D01*
X18026786Y-12498214D01*
X17998214Y-12483929D01*
X17983928Y-12455357D01*
X17983928Y-12341071D01*
X17998214Y-12312500D01*
X18026786Y-12298214D01*
X18083928Y-12298214D01*
X18112500Y-12312500D01*
X18126786Y-12341071D01*
X18126786Y-12369643D01*
X17983928Y-12398214D01*
X18241071Y-12483929D02*
X18269643Y-12498214D01*
X18326786Y-12498214D01*
X18355357Y-12483929D01*
X18369643Y-12455357D01*
X18369643Y-12441071D01*
X18355357Y-12412500D01*
X18326786Y-12398214D01*
X18283928Y-12398214D01*
X18255357Y-12383929D01*
X18241071Y-12355357D01*
X18241071Y-12341071D01*
X18255357Y-12312500D01*
X18283928Y-12298214D01*
X18326786Y-12298214D01*
X18355357Y-12312500D01*
X18469643Y-12612500D02*
X18483928Y-12598214D01*
X18512500Y-12555357D01*
X18526786Y-12526786D01*
X18541071Y-12483929D01*
X18555357Y-12412500D01*
X18555357Y-12355357D01*
X18541071Y-12283929D01*
X18526786Y-12241071D01*
X18512500Y-12212500D01*
X18483928Y-12169643D01*
X18469643Y-12155357D01*
X11697500Y-12758500D02*
G75*
G03*
X11697500Y-12758500I-25000J0D01*
G01*
X12041071Y-12594214D02*
X12069643Y-12594214D01*
X12098214Y-12608500D01*
X12112500Y-12622786D01*
X12126786Y-12651357D01*
X12141071Y-12708500D01*
X12141071Y-12779929D01*
X12126786Y-12837071D01*
X12112500Y-12865643D01*
X12098214Y-12879929D01*
X12069643Y-12894214D01*
X12041071Y-12894214D01*
X12012500Y-12879929D01*
X11998214Y-12865643D01*
X11983928Y-12837071D01*
X11969643Y-12779929D01*
X11969643Y-12708500D01*
X11983928Y-12651357D01*
X11998214Y-12622786D01*
X12012500Y-12608500D01*
X12041071Y-12594214D01*
X12269643Y-12865643D02*
X12283928Y-12879929D01*
X12269643Y-12894214D01*
X12255357Y-12879929D01*
X12269643Y-12865643D01*
X12269643Y-12894214D01*
X12555357Y-12594214D02*
X12412500Y-12594214D01*
X12398214Y-12737071D01*
X12412500Y-12722786D01*
X12441071Y-12708500D01*
X12512500Y-12708500D01*
X12541071Y-12722786D01*
X12555357Y-12737071D01*
X12569643Y-12765643D01*
X12569643Y-12837071D01*
X12555357Y-12865643D01*
X12541071Y-12879929D01*
X12512500Y-12894214D01*
X12441071Y-12894214D01*
X12412500Y-12879929D01*
X12398214Y-12865643D01*
X12755357Y-12594214D02*
X12783928Y-12594214D01*
X12812500Y-12608500D01*
X12826786Y-12622786D01*
X12841071Y-12651357D01*
X12855357Y-12708500D01*
X12855357Y-12779929D01*
X12841071Y-12837071D01*
X12826786Y-12865643D01*
X12812500Y-12879929D01*
X12783928Y-12894214D01*
X12755357Y-12894214D01*
X12726786Y-12879929D01*
X12712500Y-12865643D01*
X12698214Y-12837071D01*
X12683928Y-12779929D01*
X12683928Y-12708500D01*
X12698214Y-12651357D01*
X12712500Y-12622786D01*
X12726786Y-12608500D01*
X12755357Y-12594214D01*
X12983928Y-12894214D02*
X12983928Y-12694214D01*
X12983928Y-12722786D02*
X12998214Y-12708500D01*
X13026786Y-12694214D01*
X13069643Y-12694214D01*
X13098214Y-12708500D01*
X13112500Y-12737071D01*
X13112500Y-12894214D01*
X13112500Y-12737071D02*
X13126786Y-12708500D01*
X13155357Y-12694214D01*
X13198214Y-12694214D01*
X13226786Y-12708500D01*
X13241071Y-12737071D01*
X13241071Y-12894214D01*
X13383928Y-12894214D02*
X13383928Y-12694214D01*
X13383928Y-12722786D02*
X13398214Y-12708500D01*
X13426786Y-12694214D01*
X13469643Y-12694214D01*
X13498214Y-12708500D01*
X13512500Y-12737071D01*
X13512500Y-12894214D01*
X13512500Y-12737071D02*
X13526786Y-12708500D01*
X13555357Y-12694214D01*
X13598214Y-12694214D01*
X13626786Y-12708500D01*
X13641071Y-12737071D01*
X13641071Y-12894214D01*
X14226786Y-12579929D02*
X13969643Y-12965643D01*
X14612500Y-12594214D02*
X14641071Y-12594214D01*
X14669643Y-12608500D01*
X14683928Y-12622786D01*
X14698214Y-12651357D01*
X14712500Y-12708500D01*
X14712500Y-12779929D01*
X14698214Y-12837071D01*
X14683928Y-12865643D01*
X14669643Y-12879929D01*
X14641071Y-12894214D01*
X14612500Y-12894214D01*
X14583928Y-12879929D01*
X14569643Y-12865643D01*
X14555357Y-12837071D01*
X14541071Y-12779929D01*
X14541071Y-12708500D01*
X14555357Y-12651357D01*
X14569643Y-12622786D01*
X14583928Y-12608500D01*
X14612500Y-12594214D01*
X14841071Y-12865643D02*
X14855357Y-12879929D01*
X14841071Y-12894214D01*
X14826786Y-12879929D01*
X14841071Y-12865643D01*
X14841071Y-12894214D01*
X15041071Y-12594214D02*
X15069643Y-12594214D01*
X15098214Y-12608500D01*
X15112500Y-12622786D01*
X15126786Y-12651357D01*
X15141071Y-12708500D01*
X15141071Y-12779929D01*
X15126786Y-12837071D01*
X15112500Y-12865643D01*
X15098214Y-12879929D01*
X15069643Y-12894214D01*
X15041071Y-12894214D01*
X15012500Y-12879929D01*
X14998214Y-12865643D01*
X14983928Y-12837071D01*
X14969643Y-12779929D01*
X14969643Y-12708500D01*
X14983928Y-12651357D01*
X14998214Y-12622786D01*
X15012500Y-12608500D01*
X15041071Y-12594214D01*
X15255357Y-12622786D02*
X15269643Y-12608500D01*
X15298214Y-12594214D01*
X15369643Y-12594214D01*
X15398214Y-12608500D01*
X15412500Y-12622786D01*
X15426786Y-12651357D01*
X15426786Y-12679929D01*
X15412500Y-12722786D01*
X15241071Y-12894214D01*
X15426786Y-12894214D01*
X15612500Y-12594214D02*
X15641071Y-12594214D01*
X15669643Y-12608500D01*
X15683928Y-12622786D01*
X15698214Y-12651357D01*
X15712500Y-12708500D01*
X15712500Y-12779929D01*
X15698214Y-12837071D01*
X15683928Y-12865643D01*
X15669643Y-12879929D01*
X15641071Y-12894214D01*
X15612500Y-12894214D01*
X15583928Y-12879929D01*
X15569643Y-12865643D01*
X15555357Y-12837071D01*
X15541071Y-12779929D01*
X15541071Y-12708500D01*
X15555357Y-12651357D01*
X15569643Y-12622786D01*
X15583928Y-12608500D01*
X15612500Y-12594214D01*
X15826786Y-12594214D02*
X15826786Y-12651357D01*
X15941071Y-12594214D02*
X15941071Y-12651357D01*
X16383928Y-13008500D02*
X16369643Y-12994214D01*
X16341071Y-12951357D01*
X16326786Y-12922786D01*
X16312500Y-12879929D01*
X16298214Y-12808500D01*
X16298214Y-12751357D01*
X16312500Y-12679929D01*
X16326786Y-12637071D01*
X16341071Y-12608500D01*
X16369643Y-12565643D01*
X16383928Y-12551357D01*
X16641071Y-12594214D02*
X16498214Y-12594214D01*
X16483928Y-12737071D01*
X16498214Y-12722786D01*
X16526786Y-12708500D01*
X16598214Y-12708500D01*
X16626786Y-12722786D01*
X16641071Y-12737071D01*
X16655357Y-12765643D01*
X16655357Y-12837071D01*
X16641071Y-12865643D01*
X16626786Y-12879929D01*
X16598214Y-12894214D01*
X16526786Y-12894214D01*
X16498214Y-12879929D01*
X16483928Y-12865643D01*
X17012500Y-12894214D02*
X17012500Y-12594214D01*
X17141071Y-12894214D02*
X17141071Y-12737071D01*
X17126786Y-12708500D01*
X17098214Y-12694214D01*
X17055357Y-12694214D01*
X17026786Y-12708500D01*
X17012500Y-12722786D01*
X17326786Y-12894214D02*
X17298214Y-12879929D01*
X17283928Y-12865643D01*
X17269643Y-12837071D01*
X17269643Y-12751357D01*
X17283928Y-12722786D01*
X17298214Y-12708500D01*
X17326786Y-12694214D01*
X17369643Y-12694214D01*
X17398214Y-12708500D01*
X17412500Y-12722786D01*
X17426786Y-12751357D01*
X17426786Y-12837071D01*
X17412500Y-12865643D01*
X17398214Y-12879929D01*
X17369643Y-12894214D01*
X17326786Y-12894214D01*
X17598214Y-12894214D02*
X17569643Y-12879929D01*
X17555357Y-12851357D01*
X17555357Y-12594214D01*
X17826786Y-12879929D02*
X17798214Y-12894214D01*
X17741071Y-12894214D01*
X17712500Y-12879929D01*
X17698214Y-12851357D01*
X17698214Y-12737071D01*
X17712500Y-12708500D01*
X17741071Y-12694214D01*
X17798214Y-12694214D01*
X17826786Y-12708500D01*
X17841071Y-12737071D01*
X17841071Y-12765643D01*
X17698214Y-12794214D01*
X17955357Y-12879929D02*
X17983928Y-12894214D01*
X18041071Y-12894214D01*
X18069643Y-12879929D01*
X18083928Y-12851357D01*
X18083928Y-12837071D01*
X18069643Y-12808500D01*
X18041071Y-12794214D01*
X17998214Y-12794214D01*
X17969643Y-12779929D01*
X17955357Y-12751357D01*
X17955357Y-12737071D01*
X17969643Y-12708500D01*
X17998214Y-12694214D01*
X18041071Y-12694214D01*
X18069643Y-12708500D01*
X18441071Y-12779929D02*
X18669643Y-12779929D01*
X18555357Y-12894214D02*
X18555357Y-12665643D01*
X19083928Y-12722786D02*
X19055357Y-12708500D01*
X19041071Y-12694214D01*
X19026786Y-12665643D01*
X19026786Y-12651357D01*
X19041071Y-12622786D01*
X19055357Y-12608500D01*
X19083928Y-12594214D01*
X19141071Y-12594214D01*
X19169643Y-12608500D01*
X19183928Y-12622786D01*
X19198214Y-12651357D01*
X19198214Y-12665643D01*
X19183928Y-12694214D01*
X19169643Y-12708500D01*
X19141071Y-12722786D01*
X19083928Y-12722786D01*
X19055357Y-12737071D01*
X19041071Y-12751357D01*
X19026786Y-12779929D01*
X19026786Y-12837071D01*
X19041071Y-12865643D01*
X19055357Y-12879929D01*
X19083928Y-12894214D01*
X19141071Y-12894214D01*
X19169643Y-12879929D01*
X19183928Y-12865643D01*
X19198214Y-12837071D01*
X19198214Y-12779929D01*
X19183928Y-12751357D01*
X19169643Y-12737071D01*
X19141071Y-12722786D01*
X19541071Y-12879929D02*
X19569643Y-12894214D01*
X19626786Y-12894214D01*
X19655357Y-12879929D01*
X19669643Y-12851357D01*
X19669643Y-12837071D01*
X19655357Y-12808500D01*
X19626786Y-12794214D01*
X19583928Y-12794214D01*
X19555357Y-12779929D01*
X19541071Y-12751357D01*
X19541071Y-12737071D01*
X19555357Y-12708500D01*
X19583928Y-12694214D01*
X19626786Y-12694214D01*
X19655357Y-12708500D01*
X19841071Y-12894214D02*
X19812500Y-12879929D01*
X19798214Y-12851357D01*
X19798214Y-12594214D01*
X19998214Y-12894214D02*
X19969643Y-12879929D01*
X19955357Y-12865643D01*
X19941071Y-12837071D01*
X19941071Y-12751357D01*
X19955357Y-12722786D01*
X19969643Y-12708500D01*
X19998214Y-12694214D01*
X20041071Y-12694214D01*
X20069643Y-12708500D01*
X20083928Y-12722786D01*
X20098214Y-12751357D01*
X20098214Y-12837071D01*
X20083928Y-12865643D01*
X20069643Y-12879929D01*
X20041071Y-12894214D01*
X19998214Y-12894214D01*
X20183928Y-12694214D02*
X20298214Y-12694214D01*
X20226786Y-12594214D02*
X20226786Y-12851357D01*
X20241071Y-12879929D01*
X20269643Y-12894214D01*
X20298214Y-12894214D01*
X20383928Y-12879929D02*
X20412500Y-12894214D01*
X20469643Y-12894214D01*
X20498214Y-12879929D01*
X20512500Y-12851357D01*
X20512500Y-12837071D01*
X20498214Y-12808500D01*
X20469643Y-12794214D01*
X20426786Y-12794214D01*
X20398214Y-12779929D01*
X20383928Y-12751357D01*
X20383928Y-12737071D01*
X20398214Y-12708500D01*
X20426786Y-12694214D01*
X20469643Y-12694214D01*
X20498214Y-12708500D01*
X20612500Y-13008500D02*
X20626786Y-12994214D01*
X20655357Y-12951357D01*
X20669643Y-12922786D01*
X20683928Y-12879929D01*
X20698214Y-12808500D01*
X20698214Y-12751357D01*
X20683928Y-12679929D01*
X20669643Y-12637071D01*
X20655357Y-12608500D01*
X20626786Y-12565643D01*
X20612500Y-12551357D01*
X11647500Y-13104500D02*
X11647500Y-13204500D01*
X11597500Y-13154500D02*
X11697500Y-13154500D01*
X12141071Y-13290214D02*
X11969643Y-13290214D01*
X12055357Y-13290214D02*
X12055357Y-12990214D01*
X12026786Y-13033071D01*
X11998214Y-13061643D01*
X11969643Y-13075929D01*
X12269643Y-13261643D02*
X12283928Y-13275929D01*
X12269643Y-13290214D01*
X12255357Y-13275929D01*
X12269643Y-13261643D01*
X12269643Y-13290214D01*
X12469643Y-12990214D02*
X12498214Y-12990214D01*
X12526786Y-13004500D01*
X12541071Y-13018786D01*
X12555357Y-13047357D01*
X12569643Y-13104500D01*
X12569643Y-13175929D01*
X12555357Y-13233071D01*
X12541071Y-13261643D01*
X12526786Y-13275929D01*
X12498214Y-13290214D01*
X12469643Y-13290214D01*
X12441071Y-13275929D01*
X12426786Y-13261643D01*
X12412500Y-13233071D01*
X12398214Y-13175929D01*
X12398214Y-13104500D01*
X12412500Y-13047357D01*
X12426786Y-13018786D01*
X12441071Y-13004500D01*
X12469643Y-12990214D01*
X12755357Y-12990214D02*
X12783928Y-12990214D01*
X12812500Y-13004500D01*
X12826786Y-13018786D01*
X12841071Y-13047357D01*
X12855357Y-13104500D01*
X12855357Y-13175929D01*
X12841071Y-13233071D01*
X12826786Y-13261643D01*
X12812500Y-13275929D01*
X12783928Y-13290214D01*
X12755357Y-13290214D01*
X12726786Y-13275929D01*
X12712500Y-13261643D01*
X12698214Y-13233071D01*
X12683928Y-13175929D01*
X12683928Y-13104500D01*
X12698214Y-13047357D01*
X12712500Y-13018786D01*
X12726786Y-13004500D01*
X12755357Y-12990214D01*
X12983928Y-13290214D02*
X12983928Y-13090214D01*
X12983928Y-13118786D02*
X12998214Y-13104500D01*
X13026786Y-13090214D01*
X13069643Y-13090214D01*
X13098214Y-13104500D01*
X13112500Y-13133071D01*
X13112500Y-13290214D01*
X13112500Y-13133071D02*
X13126786Y-13104500D01*
X13155357Y-13090214D01*
X13198214Y-13090214D01*
X13226786Y-13104500D01*
X13241071Y-13133071D01*
X13241071Y-13290214D01*
X13383928Y-13290214D02*
X13383928Y-13090214D01*
X13383928Y-13118786D02*
X13398214Y-13104500D01*
X13426786Y-13090214D01*
X13469643Y-13090214D01*
X13498214Y-13104500D01*
X13512500Y-13133071D01*
X13512500Y-13290214D01*
X13512500Y-13133071D02*
X13526786Y-13104500D01*
X13555357Y-13090214D01*
X13598214Y-13090214D01*
X13626786Y-13104500D01*
X13641071Y-13133071D01*
X13641071Y-13290214D01*
X14226786Y-12975929D02*
X13969643Y-13361643D01*
X14612500Y-12990214D02*
X14641071Y-12990214D01*
X14669643Y-13004500D01*
X14683928Y-13018786D01*
X14698214Y-13047357D01*
X14712500Y-13104500D01*
X14712500Y-13175929D01*
X14698214Y-13233071D01*
X14683928Y-13261643D01*
X14669643Y-13275929D01*
X14641071Y-13290214D01*
X14612500Y-13290214D01*
X14583928Y-13275929D01*
X14569643Y-13261643D01*
X14555357Y-13233071D01*
X14541071Y-13175929D01*
X14541071Y-13104500D01*
X14555357Y-13047357D01*
X14569643Y-13018786D01*
X14583928Y-13004500D01*
X14612500Y-12990214D01*
X14841071Y-13261643D02*
X14855357Y-13275929D01*
X14841071Y-13290214D01*
X14826786Y-13275929D01*
X14841071Y-13261643D01*
X14841071Y-13290214D01*
X15041071Y-12990214D02*
X15069643Y-12990214D01*
X15098214Y-13004500D01*
X15112500Y-13018786D01*
X15126786Y-13047357D01*
X15141071Y-13104500D01*
X15141071Y-13175929D01*
X15126786Y-13233071D01*
X15112500Y-13261643D01*
X15098214Y-13275929D01*
X15069643Y-13290214D01*
X15041071Y-13290214D01*
X15012500Y-13275929D01*
X14998214Y-13261643D01*
X14983928Y-13233071D01*
X14969643Y-13175929D01*
X14969643Y-13104500D01*
X14983928Y-13047357D01*
X14998214Y-13018786D01*
X15012500Y-13004500D01*
X15041071Y-12990214D01*
X15241071Y-12990214D02*
X15426786Y-12990214D01*
X15326786Y-13104500D01*
X15369643Y-13104500D01*
X15398214Y-13118786D01*
X15412500Y-13133071D01*
X15426786Y-13161643D01*
X15426786Y-13233071D01*
X15412500Y-13261643D01*
X15398214Y-13275929D01*
X15369643Y-13290214D01*
X15283928Y-13290214D01*
X15255357Y-13275929D01*
X15241071Y-13261643D01*
X15569643Y-13290214D02*
X15626786Y-13290214D01*
X15655357Y-13275929D01*
X15669643Y-13261643D01*
X15698214Y-13218786D01*
X15712500Y-13161643D01*
X15712500Y-13047357D01*
X15698214Y-13018786D01*
X15683928Y-13004500D01*
X15655357Y-12990214D01*
X15598214Y-12990214D01*
X15569643Y-13004500D01*
X15555357Y-13018786D01*
X15541071Y-13047357D01*
X15541071Y-13118786D01*
X15555357Y-13147357D01*
X15569643Y-13161643D01*
X15598214Y-13175929D01*
X15655357Y-13175929D01*
X15683928Y-13161643D01*
X15698214Y-13147357D01*
X15712500Y-13118786D01*
X15826786Y-12990214D02*
X15826786Y-13047357D01*
X15941071Y-12990214D02*
X15941071Y-13047357D01*
X16383928Y-13404500D02*
X16369643Y-13390214D01*
X16341071Y-13347357D01*
X16326786Y-13318786D01*
X16312500Y-13275929D01*
X16298214Y-13204500D01*
X16298214Y-13147357D01*
X16312500Y-13075929D01*
X16326786Y-13033071D01*
X16341071Y-13004500D01*
X16369643Y-12961643D01*
X16383928Y-12947357D01*
X16483928Y-13018786D02*
X16498214Y-13004500D01*
X16526786Y-12990214D01*
X16598214Y-12990214D01*
X16626786Y-13004500D01*
X16641071Y-13018786D01*
X16655357Y-13047357D01*
X16655357Y-13075929D01*
X16641071Y-13118786D01*
X16469643Y-13290214D01*
X16655357Y-13290214D01*
X17012500Y-13290214D02*
X17012500Y-12990214D01*
X17141071Y-13290214D02*
X17141071Y-13133071D01*
X17126786Y-13104500D01*
X17098214Y-13090214D01*
X17055357Y-13090214D01*
X17026786Y-13104500D01*
X17012500Y-13118786D01*
X17326786Y-13290214D02*
X17298214Y-13275929D01*
X17283928Y-13261643D01*
X17269643Y-13233071D01*
X17269643Y-13147357D01*
X17283928Y-13118786D01*
X17298214Y-13104500D01*
X17326786Y-13090214D01*
X17369643Y-13090214D01*
X17398214Y-13104500D01*
X17412500Y-13118786D01*
X17426786Y-13147357D01*
X17426786Y-13233071D01*
X17412500Y-13261643D01*
X17398214Y-13275929D01*
X17369643Y-13290214D01*
X17326786Y-13290214D01*
X17598214Y-13290214D02*
X17569643Y-13275929D01*
X17555357Y-13247357D01*
X17555357Y-12990214D01*
X17826786Y-13275929D02*
X17798214Y-13290214D01*
X17741071Y-13290214D01*
X17712500Y-13275929D01*
X17698214Y-13247357D01*
X17698214Y-13133071D01*
X17712500Y-13104500D01*
X17741071Y-13090214D01*
X17798214Y-13090214D01*
X17826786Y-13104500D01*
X17841071Y-13133071D01*
X17841071Y-13161643D01*
X17698214Y-13190214D01*
X17955357Y-13275929D02*
X17983928Y-13290214D01*
X18041071Y-13290214D01*
X18069643Y-13275929D01*
X18083928Y-13247357D01*
X18083928Y-13233071D01*
X18069643Y-13204500D01*
X18041071Y-13190214D01*
X17998214Y-13190214D01*
X17969643Y-13175929D01*
X17955357Y-13147357D01*
X17955357Y-13133071D01*
X17969643Y-13104500D01*
X17998214Y-13090214D01*
X18041071Y-13090214D01*
X18069643Y-13104500D01*
X18183928Y-13404500D02*
X18198214Y-13390214D01*
X18226786Y-13347357D01*
X18241071Y-13318786D01*
X18255357Y-13275929D01*
X18269643Y-13204500D01*
X18269643Y-13147357D01*
X18255357Y-13075929D01*
X18241071Y-13033071D01*
X18226786Y-13004500D01*
X18198214Y-12961643D01*
X18183928Y-12947357D01*
M02*
