M48
; DRILL file {KiCad (5.1.6)-1} date 07/31/22 05:20:58
; FORMAT={-:-/ absolute / metric / decimal}
; #@! TF.CreationDate,2022-07-31T05:20:58+09:00
; #@! TF.GenerationSoftware,Kicad,Pcbnew,(5.1.6)-1
; #@! TF.FileFunction,Plated,1,2,PTH
FMAT,2
METRIC
T1C0.400
T2C0.500
T3C1.000
%
G90
G05
T1
X123.15Y-85.65
X127.0Y-106.6
X127.6Y-109.4
X130.2Y-91.7
X143.1Y-86.5
X143.5Y-108.9
X147.3Y-91.9
X147.9Y-109.5
X156.0Y-90.8
X160.6Y-100.0
X160.8Y-92.4
X161.2Y-84.3
X161.6Y-89.6
X163.36Y-86.04
X169.92Y-91.12
X171.01Y-102.89
X171.81Y-96.29
X171.83Y-101.37
X172.37Y-98.83
X172.69Y-103.91
T2
X150.9Y-82.5
X164.0Y-98.6
X165.2Y-94.2
X166.262Y-87.562
X171.1Y-93.6
T3
X163.4Y-106.35
X165.94Y-106.35
T2
G00X134.4Y-102.75
M15
G01X134.4Y-103.25
M16
G05
G00X134.4Y-107.55
M15
G01X134.4Y-108.25
M16
G05
G00X151.4Y-102.75
M15
G01X151.4Y-103.25
M16
G05
G00X151.4Y-107.55
M15
G01X151.4Y-108.25
M16
G05
G00X134.4Y-85.75
M15
G01X134.4Y-86.25
M16
G05
G00X134.4Y-90.55
M15
G01X134.4Y-91.25
M16
G05
G00X151.4Y-85.75
M15
G01X151.4Y-86.25
M16
G05
G00X151.4Y-90.55
M15
G01X151.4Y-91.25
M16
G05
T0
M30
