%FSLAX45Y45*%
G04 Gerber Fmt 4.5, Leading zero omitted, Abs format (unit mm)*
G04 Created by KiCad (PCBNEW (5.1.6)-1) date 2022-07-31 05:20:59*
%MOMM*%
%LPD*%
G01*
G04 APERTURE LIST*
%TA.AperFunction,Profile*%
%ADD10C,0.050000*%
%TD*%
%TA.AperFunction,Profile*%
%ADD11C,0.100000*%
%TD*%
%ADD12C,0.200000*%
%ADD13C,0.300000*%
G04 APERTURE END LIST*
D10*
X11700000Y-8200000D02*
X11700000Y-11100000D01*
X12000000Y-11400000D02*
G75*
G02*
X11700000Y-11100000I0J300000D01*
G01*
X11700000Y-8200000D02*
G75*
G02*
X12000000Y-7900000I300000J0D01*
G01*
X12100000Y-11100000D02*
G75*
G03*
X12100000Y-11100000I-100000J0D01*
G01*
X12100000Y-8200000D02*
G75*
G03*
X12100000Y-8200000I-100000J0D01*
G01*
X18000000Y-11100000D02*
G75*
G02*
X17700000Y-11400000I-300000J0D01*
G01*
X17700000Y-7900000D02*
G75*
G02*
X18000000Y-8200000I0J-300000D01*
G01*
X17800000Y-11100000D02*
G75*
G03*
X17800000Y-11100000I-100000J0D01*
G01*
X17800000Y-8200000D02*
G75*
G03*
X17800000Y-8200000I-100000J0D01*
G01*
X12000000Y-11400000D02*
X17700000Y-11400000D01*
X17700000Y-7900000D02*
X12000000Y-7900000D01*
X18000000Y-8200000D02*
X18000000Y-11100000D01*
D11*
X15025000Y-10205000D02*
G75*
G02*
X15055000Y-10235000I0J-30000D01*
G01*
X13355000Y-10585000D02*
G75*
G02*
X13325000Y-10615000I-30000J0D01*
G01*
X14545000Y-10235000D02*
G75*
G02*
X14575000Y-10205000I30000J0D01*
G01*
X12845000Y-10585000D02*
X12845000Y-10235000D01*
X14575000Y-10615000D02*
G75*
G02*
X14545000Y-10585000I0J30000D01*
G01*
X13325000Y-10205000D02*
G75*
G02*
X13355000Y-10235000I0J-30000D01*
G01*
X13325000Y-10205000D02*
X12875000Y-10205000D01*
X13325000Y-10615000D02*
X12875000Y-10615000D01*
X12875000Y-10615000D02*
G75*
G02*
X12845000Y-10585000I0J30000D01*
G01*
X15055000Y-10585000D02*
G75*
G02*
X15025000Y-10615000I-30000J0D01*
G01*
X13355000Y-10235000D02*
X13355000Y-10585000D01*
X12845000Y-10235000D02*
G75*
G02*
X12875000Y-10205000I30000J0D01*
G01*
X15025000Y-10205000D02*
X14575000Y-10205000D01*
X14545000Y-10585000D02*
X14545000Y-10235000D01*
X15055000Y-10235000D02*
X15055000Y-10585000D01*
X15025000Y-10615000D02*
X14575000Y-10615000D01*
X15055000Y-8885000D02*
G75*
G02*
X15025000Y-8915000I-30000J0D01*
G01*
X15025000Y-8505000D02*
G75*
G02*
X15055000Y-8535000I0J-30000D01*
G01*
X15025000Y-8505000D02*
X14575000Y-8505000D01*
X14545000Y-8535000D02*
G75*
G02*
X14575000Y-8505000I30000J0D01*
G01*
X14545000Y-8885000D02*
X14545000Y-8535000D01*
X15055000Y-8535000D02*
X15055000Y-8885000D01*
X14575000Y-8915000D02*
G75*
G02*
X14545000Y-8885000I0J30000D01*
G01*
X15025000Y-8915000D02*
X14575000Y-8915000D01*
X13355000Y-8885000D02*
G75*
G02*
X13325000Y-8915000I-30000J0D01*
G01*
X13325000Y-8505000D02*
G75*
G02*
X13355000Y-8535000I0J-30000D01*
G01*
X13325000Y-8505000D02*
X12875000Y-8505000D01*
X12845000Y-8535000D02*
G75*
G02*
X12875000Y-8505000I30000J0D01*
G01*
X12845000Y-8885000D02*
X12845000Y-8535000D01*
X13355000Y-8535000D02*
X13355000Y-8885000D01*
X12875000Y-8915000D02*
G75*
G02*
X12845000Y-8885000I0J30000D01*
G01*
X13325000Y-8915000D02*
X12875000Y-8915000D01*
D12*
X16947500Y-8870000D02*
X17027500Y-8950000D01*
X17027500Y-8870000D02*
X16947500Y-8950000D01*
X17647500Y-8870000D02*
X17727500Y-8950000D01*
X17727500Y-8870000D02*
X17647500Y-8950000D01*
X12615001Y-9950016D02*
G75*
G03*
X12615001Y-9950016I-65000J0D01*
G01*
X13715001Y-11050016D02*
G75*
G03*
X13715001Y-11050016I-65000J0D01*
G01*
X14315001Y-9950016D02*
G75*
G03*
X14315001Y-9950016I-65000J0D01*
G01*
X15415001Y-11050016D02*
G75*
G03*
X15415001Y-11050016I-65000J0D01*
G01*
X12615001Y-8250016D02*
G75*
G03*
X12615001Y-8250016I-65000J0D01*
G01*
X13715001Y-9350016D02*
G75*
G03*
X13715001Y-9350016I-65000J0D01*
G01*
X14315001Y-8250016D02*
G75*
G03*
X14315001Y-8250016I-65000J0D01*
G01*
X15415001Y-9350016D02*
G75*
G03*
X15415001Y-9350016I-65000J0D01*
G01*
D13*
X11983928Y-11868214D02*
X11983928Y-11568214D01*
X12055357Y-11568214D01*
X12098214Y-11582500D01*
X12126786Y-11611071D01*
X12141071Y-11639643D01*
X12155357Y-11696786D01*
X12155357Y-11739643D01*
X12141071Y-11796786D01*
X12126786Y-11825357D01*
X12098214Y-11853929D01*
X12055357Y-11868214D01*
X11983928Y-11868214D01*
X12283928Y-11868214D02*
X12283928Y-11668214D01*
X12283928Y-11725357D02*
X12298214Y-11696786D01*
X12312500Y-11682500D01*
X12341071Y-11668214D01*
X12369643Y-11668214D01*
X12469643Y-11868214D02*
X12469643Y-11668214D01*
X12469643Y-11568214D02*
X12455357Y-11582500D01*
X12469643Y-11596786D01*
X12483928Y-11582500D01*
X12469643Y-11568214D01*
X12469643Y-11596786D01*
X12655357Y-11868214D02*
X12626786Y-11853929D01*
X12612500Y-11825357D01*
X12612500Y-11568214D01*
X12812500Y-11868214D02*
X12783928Y-11853929D01*
X12769643Y-11825357D01*
X12769643Y-11568214D01*
X13155357Y-11868214D02*
X13155357Y-11568214D01*
X13255357Y-11782500D01*
X13355357Y-11568214D01*
X13355357Y-11868214D01*
X13626786Y-11868214D02*
X13626786Y-11711071D01*
X13612500Y-11682500D01*
X13583928Y-11668214D01*
X13526786Y-11668214D01*
X13498214Y-11682500D01*
X13626786Y-11853929D02*
X13598214Y-11868214D01*
X13526786Y-11868214D01*
X13498214Y-11853929D01*
X13483928Y-11825357D01*
X13483928Y-11796786D01*
X13498214Y-11768214D01*
X13526786Y-11753929D01*
X13598214Y-11753929D01*
X13626786Y-11739643D01*
X13769643Y-11668214D02*
X13769643Y-11968214D01*
X13769643Y-11682500D02*
X13798214Y-11668214D01*
X13855357Y-11668214D01*
X13883928Y-11682500D01*
X13898214Y-11696786D01*
X13912500Y-11725357D01*
X13912500Y-11811071D01*
X13898214Y-11839643D01*
X13883928Y-11853929D01*
X13855357Y-11868214D01*
X13798214Y-11868214D01*
X13769643Y-11853929D01*
X14041071Y-11839643D02*
X14055357Y-11853929D01*
X14041071Y-11868214D01*
X14026786Y-11853929D01*
X14041071Y-11839643D01*
X14041071Y-11868214D01*
X14041071Y-11682500D02*
X14055357Y-11696786D01*
X14041071Y-11711071D01*
X14026786Y-11696786D01*
X14041071Y-11682500D01*
X14041071Y-11711071D01*
X11617500Y-12322500D02*
X11697500Y-12402500D01*
X11697500Y-12322500D02*
X11617500Y-12402500D01*
X12041071Y-12198214D02*
X12069643Y-12198214D01*
X12098214Y-12212500D01*
X12112500Y-12226786D01*
X12126786Y-12255357D01*
X12141071Y-12312500D01*
X12141071Y-12383929D01*
X12126786Y-12441071D01*
X12112500Y-12469643D01*
X12098214Y-12483929D01*
X12069643Y-12498214D01*
X12041071Y-12498214D01*
X12012500Y-12483929D01*
X11998214Y-12469643D01*
X11983928Y-12441071D01*
X11969643Y-12383929D01*
X11969643Y-12312500D01*
X11983928Y-12255357D01*
X11998214Y-12226786D01*
X12012500Y-12212500D01*
X12041071Y-12198214D01*
X12269643Y-12469643D02*
X12283928Y-12483929D01*
X12269643Y-12498214D01*
X12255357Y-12483929D01*
X12269643Y-12469643D01*
X12269643Y-12498214D01*
X12455357Y-12326786D02*
X12426786Y-12312500D01*
X12412500Y-12298214D01*
X12398214Y-12269643D01*
X12398214Y-12255357D01*
X12412500Y-12226786D01*
X12426786Y-12212500D01*
X12455357Y-12198214D01*
X12512500Y-12198214D01*
X12541071Y-12212500D01*
X12555357Y-12226786D01*
X12569643Y-12255357D01*
X12569643Y-12269643D01*
X12555357Y-12298214D01*
X12541071Y-12312500D01*
X12512500Y-12326786D01*
X12455357Y-12326786D01*
X12426786Y-12341071D01*
X12412500Y-12355357D01*
X12398214Y-12383929D01*
X12398214Y-12441071D01*
X12412500Y-12469643D01*
X12426786Y-12483929D01*
X12455357Y-12498214D01*
X12512500Y-12498214D01*
X12541071Y-12483929D01*
X12555357Y-12469643D01*
X12569643Y-12441071D01*
X12569643Y-12383929D01*
X12555357Y-12355357D01*
X12541071Y-12341071D01*
X12512500Y-12326786D01*
X12755357Y-12198214D02*
X12783928Y-12198214D01*
X12812500Y-12212500D01*
X12826786Y-12226786D01*
X12841071Y-12255357D01*
X12855357Y-12312500D01*
X12855357Y-12383929D01*
X12841071Y-12441071D01*
X12826786Y-12469643D01*
X12812500Y-12483929D01*
X12783928Y-12498214D01*
X12755357Y-12498214D01*
X12726786Y-12483929D01*
X12712500Y-12469643D01*
X12698214Y-12441071D01*
X12683928Y-12383929D01*
X12683928Y-12312500D01*
X12698214Y-12255357D01*
X12712500Y-12226786D01*
X12726786Y-12212500D01*
X12755357Y-12198214D01*
X12983928Y-12498214D02*
X12983928Y-12298214D01*
X12983928Y-12326786D02*
X12998214Y-12312500D01*
X13026786Y-12298214D01*
X13069643Y-12298214D01*
X13098214Y-12312500D01*
X13112500Y-12341071D01*
X13112500Y-12498214D01*
X13112500Y-12341071D02*
X13126786Y-12312500D01*
X13155357Y-12298214D01*
X13198214Y-12298214D01*
X13226786Y-12312500D01*
X13241071Y-12341071D01*
X13241071Y-12498214D01*
X13383928Y-12498214D02*
X13383928Y-12298214D01*
X13383928Y-12326786D02*
X13398214Y-12312500D01*
X13426786Y-12298214D01*
X13469643Y-12298214D01*
X13498214Y-12312500D01*
X13512500Y-12341071D01*
X13512500Y-12498214D01*
X13512500Y-12341071D02*
X13526786Y-12312500D01*
X13555357Y-12298214D01*
X13598214Y-12298214D01*
X13626786Y-12312500D01*
X13641071Y-12341071D01*
X13641071Y-12498214D01*
X14226786Y-12183929D02*
X13969643Y-12569643D01*
X14612500Y-12198214D02*
X14641071Y-12198214D01*
X14669643Y-12212500D01*
X14683928Y-12226786D01*
X14698214Y-12255357D01*
X14712500Y-12312500D01*
X14712500Y-12383929D01*
X14698214Y-12441071D01*
X14683928Y-12469643D01*
X14669643Y-12483929D01*
X14641071Y-12498214D01*
X14612500Y-12498214D01*
X14583928Y-12483929D01*
X14569643Y-12469643D01*
X14555357Y-12441071D01*
X14541071Y-12383929D01*
X14541071Y-12312500D01*
X14555357Y-12255357D01*
X14569643Y-12226786D01*
X14583928Y-12212500D01*
X14612500Y-12198214D01*
X14841071Y-12469643D02*
X14855357Y-12483929D01*
X14841071Y-12498214D01*
X14826786Y-12483929D01*
X14841071Y-12469643D01*
X14841071Y-12498214D01*
X15041071Y-12198214D02*
X15069643Y-12198214D01*
X15098214Y-12212500D01*
X15112500Y-12226786D01*
X15126786Y-12255357D01*
X15141071Y-12312500D01*
X15141071Y-12383929D01*
X15126786Y-12441071D01*
X15112500Y-12469643D01*
X15098214Y-12483929D01*
X15069643Y-12498214D01*
X15041071Y-12498214D01*
X15012500Y-12483929D01*
X14998214Y-12469643D01*
X14983928Y-12441071D01*
X14969643Y-12383929D01*
X14969643Y-12312500D01*
X14983928Y-12255357D01*
X14998214Y-12226786D01*
X15012500Y-12212500D01*
X15041071Y-12198214D01*
X15241071Y-12198214D02*
X15426786Y-12198214D01*
X15326786Y-12312500D01*
X15369643Y-12312500D01*
X15398214Y-12326786D01*
X15412500Y-12341071D01*
X15426786Y-12369643D01*
X15426786Y-12441071D01*
X15412500Y-12469643D01*
X15398214Y-12483929D01*
X15369643Y-12498214D01*
X15283928Y-12498214D01*
X15255357Y-12483929D01*
X15241071Y-12469643D01*
X15712500Y-12498214D02*
X15541071Y-12498214D01*
X15626786Y-12498214D02*
X15626786Y-12198214D01*
X15598214Y-12241071D01*
X15569643Y-12269643D01*
X15541071Y-12283929D01*
X15826786Y-12198214D02*
X15826786Y-12255357D01*
X15941071Y-12198214D02*
X15941071Y-12255357D01*
X16383928Y-12612500D02*
X16369643Y-12598214D01*
X16341071Y-12555357D01*
X16326786Y-12526786D01*
X16312500Y-12483929D01*
X16298214Y-12412500D01*
X16298214Y-12355357D01*
X16312500Y-12283929D01*
X16326786Y-12241071D01*
X16341071Y-12212500D01*
X16369643Y-12169643D01*
X16383928Y-12155357D01*
X16483928Y-12226786D02*
X16498214Y-12212500D01*
X16526786Y-12198214D01*
X16598214Y-12198214D01*
X16626786Y-12212500D01*
X16641071Y-12226786D01*
X16655357Y-12255357D01*
X16655357Y-12283929D01*
X16641071Y-12326786D01*
X16469643Y-12498214D01*
X16655357Y-12498214D01*
X17012500Y-12498214D02*
X17012500Y-12198214D01*
X17141071Y-12498214D02*
X17141071Y-12341071D01*
X17126786Y-12312500D01*
X17098214Y-12298214D01*
X17055357Y-12298214D01*
X17026786Y-12312500D01*
X17012500Y-12326786D01*
X17326786Y-12498214D02*
X17298214Y-12483929D01*
X17283928Y-12469643D01*
X17269643Y-12441071D01*
X17269643Y-12355357D01*
X17283928Y-12326786D01*
X17298214Y-12312500D01*
X17326786Y-12298214D01*
X17369643Y-12298214D01*
X17398214Y-12312500D01*
X17412500Y-12326786D01*
X17426786Y-12355357D01*
X17426786Y-12441071D01*
X17412500Y-12469643D01*
X17398214Y-12483929D01*
X17369643Y-12498214D01*
X17326786Y-12498214D01*
X17598214Y-12498214D02*
X17569643Y-12483929D01*
X17555357Y-12455357D01*
X17555357Y-12198214D01*
X17826786Y-12483929D02*
X17798214Y-12498214D01*
X17741071Y-12498214D01*
X17712500Y-12483929D01*
X17698214Y-12455357D01*
X17698214Y-12341071D01*
X17712500Y-12312500D01*
X17741071Y-12298214D01*
X17798214Y-12298214D01*
X17826786Y-12312500D01*
X17841071Y-12341071D01*
X17841071Y-12369643D01*
X17698214Y-12398214D01*
X17955357Y-12483929D02*
X17983928Y-12498214D01*
X18041071Y-12498214D01*
X18069643Y-12483929D01*
X18083928Y-12455357D01*
X18083928Y-12441071D01*
X18069643Y-12412500D01*
X18041071Y-12398214D01*
X17998214Y-12398214D01*
X17969643Y-12383929D01*
X17955357Y-12355357D01*
X17955357Y-12341071D01*
X17969643Y-12312500D01*
X17998214Y-12298214D01*
X18041071Y-12298214D01*
X18069643Y-12312500D01*
X18183928Y-12612500D02*
X18198214Y-12598214D01*
X18226786Y-12555357D01*
X18241071Y-12526786D01*
X18255357Y-12483929D01*
X18269643Y-12412500D01*
X18269643Y-12355357D01*
X18255357Y-12283929D01*
X18241071Y-12241071D01*
X18226786Y-12212500D01*
X18198214Y-12169643D01*
X18183928Y-12155357D01*
X18726786Y-12612500D02*
X18712500Y-12598214D01*
X18683928Y-12555357D01*
X18669643Y-12526786D01*
X18655357Y-12483929D01*
X18641071Y-12412500D01*
X18641071Y-12355357D01*
X18655357Y-12283929D01*
X18669643Y-12241071D01*
X18683928Y-12212500D01*
X18712500Y-12169643D01*
X18726786Y-12155357D01*
X18841071Y-12298214D02*
X18841071Y-12498214D01*
X18841071Y-12326786D02*
X18855357Y-12312500D01*
X18883928Y-12298214D01*
X18926786Y-12298214D01*
X18955357Y-12312500D01*
X18969643Y-12341071D01*
X18969643Y-12498214D01*
X19155357Y-12498214D02*
X19126786Y-12483929D01*
X19112500Y-12469643D01*
X19098214Y-12441071D01*
X19098214Y-12355357D01*
X19112500Y-12326786D01*
X19126786Y-12312500D01*
X19155357Y-12298214D01*
X19198214Y-12298214D01*
X19226786Y-12312500D01*
X19241071Y-12326786D01*
X19255357Y-12355357D01*
X19255357Y-12441071D01*
X19241071Y-12469643D01*
X19226786Y-12483929D01*
X19198214Y-12498214D01*
X19155357Y-12498214D01*
X19341071Y-12298214D02*
X19455357Y-12298214D01*
X19383928Y-12198214D02*
X19383928Y-12455357D01*
X19398214Y-12483929D01*
X19426786Y-12498214D01*
X19455357Y-12498214D01*
X19783928Y-12298214D02*
X19783928Y-12598214D01*
X19783928Y-12312500D02*
X19812500Y-12298214D01*
X19869643Y-12298214D01*
X19898214Y-12312500D01*
X19912500Y-12326786D01*
X19926786Y-12355357D01*
X19926786Y-12441071D01*
X19912500Y-12469643D01*
X19898214Y-12483929D01*
X19869643Y-12498214D01*
X19812500Y-12498214D01*
X19783928Y-12483929D01*
X20098214Y-12498214D02*
X20069643Y-12483929D01*
X20055357Y-12455357D01*
X20055357Y-12198214D01*
X20341071Y-12498214D02*
X20341071Y-12341071D01*
X20326786Y-12312500D01*
X20298214Y-12298214D01*
X20241071Y-12298214D01*
X20212500Y-12312500D01*
X20341071Y-12483929D02*
X20312500Y-12498214D01*
X20241071Y-12498214D01*
X20212500Y-12483929D01*
X20198214Y-12455357D01*
X20198214Y-12426786D01*
X20212500Y-12398214D01*
X20241071Y-12383929D01*
X20312500Y-12383929D01*
X20341071Y-12369643D01*
X20441071Y-12298214D02*
X20555357Y-12298214D01*
X20483928Y-12198214D02*
X20483928Y-12455357D01*
X20498214Y-12483929D01*
X20526786Y-12498214D01*
X20555357Y-12498214D01*
X20769643Y-12483929D02*
X20741071Y-12498214D01*
X20683928Y-12498214D01*
X20655357Y-12483929D01*
X20641071Y-12455357D01*
X20641071Y-12341071D01*
X20655357Y-12312500D01*
X20683928Y-12298214D01*
X20741071Y-12298214D01*
X20769643Y-12312500D01*
X20783928Y-12341071D01*
X20783928Y-12369643D01*
X20641071Y-12398214D01*
X21041071Y-12498214D02*
X21041071Y-12198214D01*
X21041071Y-12483929D02*
X21012500Y-12498214D01*
X20955357Y-12498214D01*
X20926786Y-12483929D01*
X20912500Y-12469643D01*
X20898214Y-12441071D01*
X20898214Y-12355357D01*
X20912500Y-12326786D01*
X20926786Y-12312500D01*
X20955357Y-12298214D01*
X21012500Y-12298214D01*
X21041071Y-12312500D01*
X21155357Y-12612500D02*
X21169643Y-12598214D01*
X21198214Y-12555357D01*
X21212500Y-12526786D01*
X21226786Y-12483929D01*
X21241071Y-12412500D01*
X21241071Y-12355357D01*
X21226786Y-12283929D01*
X21212500Y-12241071D01*
X21198214Y-12212500D01*
X21169643Y-12169643D01*
X21155357Y-12155357D01*
X11697500Y-12758500D02*
G75*
G03*
X11697500Y-12758500I-65000J0D01*
G01*
X12141071Y-12894214D02*
X11969643Y-12894214D01*
X12055357Y-12894214D02*
X12055357Y-12594214D01*
X12026786Y-12637071D01*
X11998214Y-12665643D01*
X11969643Y-12679929D01*
X12269643Y-12865643D02*
X12283928Y-12879929D01*
X12269643Y-12894214D01*
X12255357Y-12879929D01*
X12269643Y-12865643D01*
X12269643Y-12894214D01*
X12383928Y-12594214D02*
X12569643Y-12594214D01*
X12469643Y-12708500D01*
X12512500Y-12708500D01*
X12541071Y-12722786D01*
X12555357Y-12737071D01*
X12569643Y-12765643D01*
X12569643Y-12837071D01*
X12555357Y-12865643D01*
X12541071Y-12879929D01*
X12512500Y-12894214D01*
X12426786Y-12894214D01*
X12398214Y-12879929D01*
X12383928Y-12865643D01*
X12755357Y-12594214D02*
X12783928Y-12594214D01*
X12812500Y-12608500D01*
X12826786Y-12622786D01*
X12841071Y-12651357D01*
X12855357Y-12708500D01*
X12855357Y-12779929D01*
X12841071Y-12837071D01*
X12826786Y-12865643D01*
X12812500Y-12879929D01*
X12783928Y-12894214D01*
X12755357Y-12894214D01*
X12726786Y-12879929D01*
X12712500Y-12865643D01*
X12698214Y-12837071D01*
X12683928Y-12779929D01*
X12683928Y-12708500D01*
X12698214Y-12651357D01*
X12712500Y-12622786D01*
X12726786Y-12608500D01*
X12755357Y-12594214D01*
X12983928Y-12894214D02*
X12983928Y-12694214D01*
X12983928Y-12722786D02*
X12998214Y-12708500D01*
X13026786Y-12694214D01*
X13069643Y-12694214D01*
X13098214Y-12708500D01*
X13112500Y-12737071D01*
X13112500Y-12894214D01*
X13112500Y-12737071D02*
X13126786Y-12708500D01*
X13155357Y-12694214D01*
X13198214Y-12694214D01*
X13226786Y-12708500D01*
X13241071Y-12737071D01*
X13241071Y-12894214D01*
X13383928Y-12894214D02*
X13383928Y-12694214D01*
X13383928Y-12722786D02*
X13398214Y-12708500D01*
X13426786Y-12694214D01*
X13469643Y-12694214D01*
X13498214Y-12708500D01*
X13512500Y-12737071D01*
X13512500Y-12894214D01*
X13512500Y-12737071D02*
X13526786Y-12708500D01*
X13555357Y-12694214D01*
X13598214Y-12694214D01*
X13626786Y-12708500D01*
X13641071Y-12737071D01*
X13641071Y-12894214D01*
X14226786Y-12579929D02*
X13969643Y-12965643D01*
X14612500Y-12594214D02*
X14641071Y-12594214D01*
X14669643Y-12608500D01*
X14683928Y-12622786D01*
X14698214Y-12651357D01*
X14712500Y-12708500D01*
X14712500Y-12779929D01*
X14698214Y-12837071D01*
X14683928Y-12865643D01*
X14669643Y-12879929D01*
X14641071Y-12894214D01*
X14612500Y-12894214D01*
X14583928Y-12879929D01*
X14569643Y-12865643D01*
X14555357Y-12837071D01*
X14541071Y-12779929D01*
X14541071Y-12708500D01*
X14555357Y-12651357D01*
X14569643Y-12622786D01*
X14583928Y-12608500D01*
X14612500Y-12594214D01*
X14841071Y-12865643D02*
X14855357Y-12879929D01*
X14841071Y-12894214D01*
X14826786Y-12879929D01*
X14841071Y-12865643D01*
X14841071Y-12894214D01*
X15041071Y-12594214D02*
X15069643Y-12594214D01*
X15098214Y-12608500D01*
X15112500Y-12622786D01*
X15126786Y-12651357D01*
X15141071Y-12708500D01*
X15141071Y-12779929D01*
X15126786Y-12837071D01*
X15112500Y-12865643D01*
X15098214Y-12879929D01*
X15069643Y-12894214D01*
X15041071Y-12894214D01*
X15012500Y-12879929D01*
X14998214Y-12865643D01*
X14983928Y-12837071D01*
X14969643Y-12779929D01*
X14969643Y-12708500D01*
X14983928Y-12651357D01*
X14998214Y-12622786D01*
X15012500Y-12608500D01*
X15041071Y-12594214D01*
X15412500Y-12594214D02*
X15269643Y-12594214D01*
X15255357Y-12737071D01*
X15269643Y-12722786D01*
X15298214Y-12708500D01*
X15369643Y-12708500D01*
X15398214Y-12722786D01*
X15412500Y-12737071D01*
X15426786Y-12765643D01*
X15426786Y-12837071D01*
X15412500Y-12865643D01*
X15398214Y-12879929D01*
X15369643Y-12894214D01*
X15298214Y-12894214D01*
X15269643Y-12879929D01*
X15255357Y-12865643D01*
X15712500Y-12894214D02*
X15541071Y-12894214D01*
X15626786Y-12894214D02*
X15626786Y-12594214D01*
X15598214Y-12637071D01*
X15569643Y-12665643D01*
X15541071Y-12679929D01*
X15826786Y-12594214D02*
X15826786Y-12651357D01*
X15941071Y-12594214D02*
X15941071Y-12651357D01*
X16383928Y-13008500D02*
X16369643Y-12994214D01*
X16341071Y-12951357D01*
X16326786Y-12922786D01*
X16312500Y-12879929D01*
X16298214Y-12808500D01*
X16298214Y-12751357D01*
X16312500Y-12679929D01*
X16326786Y-12637071D01*
X16341071Y-12608500D01*
X16369643Y-12565643D01*
X16383928Y-12551357D01*
X16541071Y-12722786D02*
X16512500Y-12708500D01*
X16498214Y-12694214D01*
X16483928Y-12665643D01*
X16483928Y-12651357D01*
X16498214Y-12622786D01*
X16512500Y-12608500D01*
X16541071Y-12594214D01*
X16598214Y-12594214D01*
X16626786Y-12608500D01*
X16641071Y-12622786D01*
X16655357Y-12651357D01*
X16655357Y-12665643D01*
X16641071Y-12694214D01*
X16626786Y-12708500D01*
X16598214Y-12722786D01*
X16541071Y-12722786D01*
X16512500Y-12737071D01*
X16498214Y-12751357D01*
X16483928Y-12779929D01*
X16483928Y-12837071D01*
X16498214Y-12865643D01*
X16512500Y-12879929D01*
X16541071Y-12894214D01*
X16598214Y-12894214D01*
X16626786Y-12879929D01*
X16641071Y-12865643D01*
X16655357Y-12837071D01*
X16655357Y-12779929D01*
X16641071Y-12751357D01*
X16626786Y-12737071D01*
X16598214Y-12722786D01*
X17012500Y-12894214D02*
X17012500Y-12594214D01*
X17141071Y-12894214D02*
X17141071Y-12737071D01*
X17126786Y-12708500D01*
X17098214Y-12694214D01*
X17055357Y-12694214D01*
X17026786Y-12708500D01*
X17012500Y-12722786D01*
X17326786Y-12894214D02*
X17298214Y-12879929D01*
X17283928Y-12865643D01*
X17269643Y-12837071D01*
X17269643Y-12751357D01*
X17283928Y-12722786D01*
X17298214Y-12708500D01*
X17326786Y-12694214D01*
X17369643Y-12694214D01*
X17398214Y-12708500D01*
X17412500Y-12722786D01*
X17426786Y-12751357D01*
X17426786Y-12837071D01*
X17412500Y-12865643D01*
X17398214Y-12879929D01*
X17369643Y-12894214D01*
X17326786Y-12894214D01*
X17598214Y-12894214D02*
X17569643Y-12879929D01*
X17555357Y-12851357D01*
X17555357Y-12594214D01*
X17826786Y-12879929D02*
X17798214Y-12894214D01*
X17741071Y-12894214D01*
X17712500Y-12879929D01*
X17698214Y-12851357D01*
X17698214Y-12737071D01*
X17712500Y-12708500D01*
X17741071Y-12694214D01*
X17798214Y-12694214D01*
X17826786Y-12708500D01*
X17841071Y-12737071D01*
X17841071Y-12765643D01*
X17698214Y-12794214D01*
X17955357Y-12879929D02*
X17983928Y-12894214D01*
X18041071Y-12894214D01*
X18069643Y-12879929D01*
X18083928Y-12851357D01*
X18083928Y-12837071D01*
X18069643Y-12808500D01*
X18041071Y-12794214D01*
X17998214Y-12794214D01*
X17969643Y-12779929D01*
X17955357Y-12751357D01*
X17955357Y-12737071D01*
X17969643Y-12708500D01*
X17998214Y-12694214D01*
X18041071Y-12694214D01*
X18069643Y-12708500D01*
X18183928Y-13008500D02*
X18198214Y-12994214D01*
X18226786Y-12951357D01*
X18241071Y-12922786D01*
X18255357Y-12879929D01*
X18269643Y-12808500D01*
X18269643Y-12751357D01*
X18255357Y-12679929D01*
X18241071Y-12637071D01*
X18226786Y-12608500D01*
X18198214Y-12565643D01*
X18183928Y-12551357D01*
X18726786Y-13008500D02*
X18712500Y-12994214D01*
X18683928Y-12951357D01*
X18669643Y-12922786D01*
X18655357Y-12879929D01*
X18641071Y-12808500D01*
X18641071Y-12751357D01*
X18655357Y-12679929D01*
X18669643Y-12637071D01*
X18683928Y-12608500D01*
X18712500Y-12565643D01*
X18726786Y-12551357D01*
X18841071Y-12694214D02*
X18841071Y-12894214D01*
X18841071Y-12722786D02*
X18855357Y-12708500D01*
X18883928Y-12694214D01*
X18926786Y-12694214D01*
X18955357Y-12708500D01*
X18969643Y-12737071D01*
X18969643Y-12894214D01*
X19155357Y-12894214D02*
X19126786Y-12879929D01*
X19112500Y-12865643D01*
X19098214Y-12837071D01*
X19098214Y-12751357D01*
X19112500Y-12722786D01*
X19126786Y-12708500D01*
X19155357Y-12694214D01*
X19198214Y-12694214D01*
X19226786Y-12708500D01*
X19241071Y-12722786D01*
X19255357Y-12751357D01*
X19255357Y-12837071D01*
X19241071Y-12865643D01*
X19226786Y-12879929D01*
X19198214Y-12894214D01*
X19155357Y-12894214D01*
X19341071Y-12694214D02*
X19455357Y-12694214D01*
X19383928Y-12594214D02*
X19383928Y-12851357D01*
X19398214Y-12879929D01*
X19426786Y-12894214D01*
X19455357Y-12894214D01*
X19783928Y-12694214D02*
X19783928Y-12994214D01*
X19783928Y-12708500D02*
X19812500Y-12694214D01*
X19869643Y-12694214D01*
X19898214Y-12708500D01*
X19912500Y-12722786D01*
X19926786Y-12751357D01*
X19926786Y-12837071D01*
X19912500Y-12865643D01*
X19898214Y-12879929D01*
X19869643Y-12894214D01*
X19812500Y-12894214D01*
X19783928Y-12879929D01*
X20098214Y-12894214D02*
X20069643Y-12879929D01*
X20055357Y-12851357D01*
X20055357Y-12594214D01*
X20341071Y-12894214D02*
X20341071Y-12737071D01*
X20326786Y-12708500D01*
X20298214Y-12694214D01*
X20241071Y-12694214D01*
X20212500Y-12708500D01*
X20341071Y-12879929D02*
X20312500Y-12894214D01*
X20241071Y-12894214D01*
X20212500Y-12879929D01*
X20198214Y-12851357D01*
X20198214Y-12822786D01*
X20212500Y-12794214D01*
X20241071Y-12779929D01*
X20312500Y-12779929D01*
X20341071Y-12765643D01*
X20441071Y-12694214D02*
X20555357Y-12694214D01*
X20483928Y-12594214D02*
X20483928Y-12851357D01*
X20498214Y-12879929D01*
X20526786Y-12894214D01*
X20555357Y-12894214D01*
X20769643Y-12879929D02*
X20741071Y-12894214D01*
X20683928Y-12894214D01*
X20655357Y-12879929D01*
X20641071Y-12851357D01*
X20641071Y-12737071D01*
X20655357Y-12708500D01*
X20683928Y-12694214D01*
X20741071Y-12694214D01*
X20769643Y-12708500D01*
X20783928Y-12737071D01*
X20783928Y-12765643D01*
X20641071Y-12794214D01*
X21041071Y-12894214D02*
X21041071Y-12594214D01*
X21041071Y-12879929D02*
X21012500Y-12894214D01*
X20955357Y-12894214D01*
X20926786Y-12879929D01*
X20912500Y-12865643D01*
X20898214Y-12837071D01*
X20898214Y-12751357D01*
X20912500Y-12722786D01*
X20926786Y-12708500D01*
X20955357Y-12694214D01*
X21012500Y-12694214D01*
X21041071Y-12708500D01*
X21155357Y-13008500D02*
X21169643Y-12994214D01*
X21198214Y-12951357D01*
X21212500Y-12922786D01*
X21226786Y-12879929D01*
X21241071Y-12808500D01*
X21241071Y-12751357D01*
X21226786Y-12679929D01*
X21212500Y-12637071D01*
X21198214Y-12608500D01*
X21169643Y-12565643D01*
X21155357Y-12551357D01*
M02*
