%TF.GenerationSoftware,KiCad,Pcbnew,(5.1.6)-1*%
%TF.CreationDate,2022-07-31T05:20:52+09:00*%
%TF.ProjectId,az-core-top,617a2d63-6f72-4652-9d74-6f702e6b6963,rev?*%
%TF.SameCoordinates,Original*%
%TF.FileFunction,Legend,Bot*%
%TF.FilePolarity,Positive*%
%FSLAX46Y46*%
G04 Gerber Fmt 4.6, Leading zero omitted, Abs format (unit mm)*
G04 Created by KiCad (PCBNEW (5.1.6)-1) date 2022-07-31 05:20:52*
%MOMM*%
%LPD*%
G01*
G04 APERTURE LIST*
%ADD10C,0.150000*%
%ADD11C,0.120000*%
%ADD12C,0.010000*%
G04 APERTURE END LIST*
D10*
X126290476Y-88004761D02*
X126147619Y-88052380D01*
X125909523Y-88052380D01*
X125814285Y-88004761D01*
X125766666Y-87957142D01*
X125719047Y-87861904D01*
X125719047Y-87766666D01*
X125766666Y-87671428D01*
X125814285Y-87623809D01*
X125909523Y-87576190D01*
X126100000Y-87528571D01*
X126195238Y-87480952D01*
X126242857Y-87433333D01*
X126290476Y-87338095D01*
X126290476Y-87242857D01*
X126242857Y-87147619D01*
X126195238Y-87100000D01*
X126100000Y-87052380D01*
X125861904Y-87052380D01*
X125719047Y-87100000D01*
X124719047Y-87957142D02*
X124766666Y-88004761D01*
X124909523Y-88052380D01*
X125004761Y-88052380D01*
X125147619Y-88004761D01*
X125242857Y-87909523D01*
X125290476Y-87814285D01*
X125338095Y-87623809D01*
X125338095Y-87480952D01*
X125290476Y-87290476D01*
X125242857Y-87195238D01*
X125147619Y-87100000D01*
X125004761Y-87052380D01*
X124909523Y-87052380D01*
X124766666Y-87100000D01*
X124719047Y-87147619D01*
X123814285Y-88052380D02*
X124290476Y-88052380D01*
X124290476Y-87052380D01*
X126314285Y-90704761D02*
X126171428Y-90752380D01*
X125933333Y-90752380D01*
X125838095Y-90704761D01*
X125790476Y-90657142D01*
X125742857Y-90561904D01*
X125742857Y-90466666D01*
X125790476Y-90371428D01*
X125838095Y-90323809D01*
X125933333Y-90276190D01*
X126123809Y-90228571D01*
X126219047Y-90180952D01*
X126266666Y-90133333D01*
X126314285Y-90038095D01*
X126314285Y-89942857D01*
X126266666Y-89847619D01*
X126219047Y-89800000D01*
X126123809Y-89752380D01*
X125885714Y-89752380D01*
X125742857Y-89800000D01*
X125314285Y-90752380D02*
X125314285Y-89752380D01*
X125076190Y-89752380D01*
X124933333Y-89800000D01*
X124838095Y-89895238D01*
X124790476Y-89990476D01*
X124742857Y-90180952D01*
X124742857Y-90323809D01*
X124790476Y-90514285D01*
X124838095Y-90609523D01*
X124933333Y-90704761D01*
X125076190Y-90752380D01*
X125314285Y-90752380D01*
X124361904Y-90466666D02*
X123885714Y-90466666D01*
X124457142Y-90752380D02*
X124123809Y-89752380D01*
X123790476Y-90752380D01*
X165352380Y-103209523D02*
X165352380Y-102733333D01*
X165828571Y-102685714D01*
X165780952Y-102733333D01*
X165733333Y-102828571D01*
X165733333Y-103066666D01*
X165780952Y-103161904D01*
X165828571Y-103209523D01*
X165923809Y-103257142D01*
X166161904Y-103257142D01*
X166257142Y-103209523D01*
X166304761Y-103161904D01*
X166352380Y-103066666D01*
X166352380Y-102828571D01*
X166304761Y-102733333D01*
X166257142Y-102685714D01*
X165352380Y-103542857D02*
X166352380Y-103876190D01*
X165352380Y-104209523D01*
X163000000Y-102638095D02*
X162952380Y-102542857D01*
X162952380Y-102400000D01*
X163000000Y-102257142D01*
X163095238Y-102161904D01*
X163190476Y-102114285D01*
X163380952Y-102066666D01*
X163523809Y-102066666D01*
X163714285Y-102114285D01*
X163809523Y-102161904D01*
X163904761Y-102257142D01*
X163952380Y-102400000D01*
X163952380Y-102495238D01*
X163904761Y-102638095D01*
X163857142Y-102685714D01*
X163523809Y-102685714D01*
X163523809Y-102495238D01*
X163952380Y-103114285D02*
X162952380Y-103114285D01*
X163952380Y-103685714D01*
X162952380Y-103685714D01*
X163952380Y-104161904D02*
X162952380Y-104161904D01*
X162952380Y-104400000D01*
X163000000Y-104542857D01*
X163095238Y-104638095D01*
X163190476Y-104685714D01*
X163380952Y-104733333D01*
X163523809Y-104733333D01*
X163714285Y-104685714D01*
X163809523Y-104638095D01*
X163904761Y-104542857D01*
X163952380Y-104400000D01*
X163952380Y-104161904D01*
X124447619Y-102352380D02*
X124352380Y-102352380D01*
X124257142Y-102400000D01*
X124209523Y-102447619D01*
X124161904Y-102542857D01*
X124114285Y-102733333D01*
X124114285Y-102971428D01*
X124161904Y-103161904D01*
X124209523Y-103257142D01*
X124257142Y-103304761D01*
X124352380Y-103352380D01*
X124447619Y-103352380D01*
X124542857Y-103304761D01*
X124590476Y-103257142D01*
X124638095Y-103161904D01*
X124685714Y-102971428D01*
X124685714Y-102733333D01*
X124638095Y-102542857D01*
X124590476Y-102447619D01*
X124542857Y-102400000D01*
X124447619Y-102352380D01*
X125409523Y-100452380D02*
X124790476Y-100452380D01*
X125123809Y-100833333D01*
X124980952Y-100833333D01*
X124885714Y-100880952D01*
X124838095Y-100928571D01*
X124790476Y-101023809D01*
X124790476Y-101261904D01*
X124838095Y-101357142D01*
X124885714Y-101404761D01*
X124980952Y-101452380D01*
X125266666Y-101452380D01*
X125361904Y-101404761D01*
X125409523Y-101357142D01*
X124457142Y-100452380D02*
X123838095Y-100452380D01*
X124171428Y-100833333D01*
X124028571Y-100833333D01*
X123933333Y-100880952D01*
X123885714Y-100928571D01*
X123838095Y-101023809D01*
X123838095Y-101261904D01*
X123885714Y-101357142D01*
X123933333Y-101404761D01*
X124028571Y-101452380D01*
X124314285Y-101452380D01*
X124409523Y-101404761D01*
X124457142Y-101357142D01*
X124733333Y-97252380D02*
X124114285Y-97252380D01*
X124447619Y-97633333D01*
X124304761Y-97633333D01*
X124209523Y-97680952D01*
X124161904Y-97728571D01*
X124114285Y-97823809D01*
X124114285Y-98061904D01*
X124161904Y-98157142D01*
X124209523Y-98204761D01*
X124304761Y-98252380D01*
X124590476Y-98252380D01*
X124685714Y-98204761D01*
X124733333Y-98157142D01*
X124114285Y-95752380D02*
X124685714Y-95752380D01*
X124400000Y-95752380D02*
X124400000Y-94752380D01*
X124495238Y-94895238D01*
X124590476Y-94990476D01*
X124685714Y-95038095D01*
X126538095Y-92252380D02*
X125919047Y-92252380D01*
X126252380Y-92633333D01*
X126109523Y-92633333D01*
X126014285Y-92680952D01*
X125966666Y-92728571D01*
X125919047Y-92823809D01*
X125919047Y-93061904D01*
X125966666Y-93157142D01*
X126014285Y-93204761D01*
X126109523Y-93252380D01*
X126395238Y-93252380D01*
X126490476Y-93204761D01*
X126538095Y-93157142D01*
X125633333Y-92252380D02*
X125300000Y-93252380D01*
X124966666Y-92252380D01*
X124728571Y-92252380D02*
X124109523Y-92252380D01*
X124442857Y-92633333D01*
X124300000Y-92633333D01*
X124204761Y-92680952D01*
X124157142Y-92728571D01*
X124109523Y-92823809D01*
X124109523Y-93061904D01*
X124157142Y-93157142D01*
X124204761Y-93204761D01*
X124300000Y-93252380D01*
X124585714Y-93252380D01*
X124680952Y-93204761D01*
X124728571Y-93157142D01*
X124138095Y-104900000D02*
X124233333Y-104852380D01*
X124376190Y-104852380D01*
X124519047Y-104900000D01*
X124614285Y-104995238D01*
X124661904Y-105090476D01*
X124709523Y-105280952D01*
X124709523Y-105423809D01*
X124661904Y-105614285D01*
X124614285Y-105709523D01*
X124519047Y-105804761D01*
X124376190Y-105852380D01*
X124280952Y-105852380D01*
X124138095Y-105804761D01*
X124090476Y-105757142D01*
X124090476Y-105423809D01*
X124280952Y-105423809D01*
D11*
%TO.C,F1*%
X165200000Y-90400000D02*
X165200000Y-88400000D01*
X162500000Y-90400000D02*
X162500000Y-88400000D01*
%TO.C,REF\u002A\u002A*%
X122830000Y-86180000D02*
X120170000Y-86180000D01*
X120170000Y-106150000D02*
X120170000Y-106820000D01*
X122830000Y-106820000D02*
X120170000Y-106820000D01*
X122830000Y-86180000D02*
X122830000Y-86850000D01*
X172500000Y-92200000D02*
X181000000Y-92200000D01*
X172500000Y-108000000D02*
X181000000Y-108000000D01*
X172500000Y-92200000D02*
X172500000Y-108000000D01*
%TO.C,R4*%
X161290000Y-95758578D02*
X161290000Y-95241422D01*
X162710000Y-95758578D02*
X162710000Y-95241422D01*
%TO.C,R3*%
X160210000Y-95758578D02*
X160210000Y-95241422D01*
X158790000Y-95758578D02*
X158790000Y-95241422D01*
D12*
%TO.C,G\u002A\u002A\u002A*%
G36*
X133231811Y-97293811D02*
G01*
X133407874Y-97271360D01*
X133480057Y-97238397D01*
X133480526Y-97235263D01*
X133418322Y-97201583D01*
X133249938Y-97178108D01*
X133002719Y-97168483D01*
X132979210Y-97168421D01*
X132726610Y-97176715D01*
X132550547Y-97199166D01*
X132478364Y-97232128D01*
X132477895Y-97235263D01*
X132540099Y-97268943D01*
X132708482Y-97292418D01*
X132955701Y-97302042D01*
X132979210Y-97302105D01*
X133231811Y-97293811D01*
G37*
X133231811Y-97293811D02*
X133407874Y-97271360D01*
X133480057Y-97238397D01*
X133480526Y-97235263D01*
X133418322Y-97201583D01*
X133249938Y-97178108D01*
X133002719Y-97168483D01*
X132979210Y-97168421D01*
X132726610Y-97176715D01*
X132550547Y-97199166D01*
X132478364Y-97232128D01*
X132477895Y-97235263D01*
X132540099Y-97268943D01*
X132708482Y-97292418D01*
X132955701Y-97302042D01*
X132979210Y-97302105D01*
X133231811Y-97293811D01*
G36*
X130550021Y-97315619D02*
G01*
X130583250Y-97265801D01*
X130603159Y-97152844D01*
X130549252Y-97141767D01*
X130439581Y-97234853D01*
X130360810Y-97331520D01*
X130374224Y-97365409D01*
X130430948Y-97368947D01*
X130550021Y-97315619D01*
G37*
X130550021Y-97315619D02*
X130583250Y-97265801D01*
X130603159Y-97152844D01*
X130549252Y-97141767D01*
X130439581Y-97234853D01*
X130360810Y-97331520D01*
X130374224Y-97365409D01*
X130430948Y-97368947D01*
X130550021Y-97315619D01*
G36*
X138248559Y-97135277D02*
G01*
X138310959Y-97122006D01*
X138332757Y-97049727D01*
X138323724Y-97030118D01*
X138243992Y-96996730D01*
X138082897Y-96976339D01*
X137883757Y-96969136D01*
X137689889Y-96975311D01*
X137544609Y-96995055D01*
X137491052Y-97026459D01*
X137550558Y-97059975D01*
X137699870Y-97092721D01*
X137895179Y-97119589D01*
X138092678Y-97135477D01*
X138248559Y-97135277D01*
G37*
X138248559Y-97135277D02*
X138310959Y-97122006D01*
X138332757Y-97049727D01*
X138323724Y-97030118D01*
X138243992Y-96996730D01*
X138082897Y-96976339D01*
X137883757Y-96969136D01*
X137689889Y-96975311D01*
X137544609Y-96995055D01*
X137491052Y-97026459D01*
X137550558Y-97059975D01*
X137699870Y-97092721D01*
X137895179Y-97119589D01*
X138092678Y-97135477D01*
X138248559Y-97135277D01*
G36*
X130342759Y-97190404D02*
G01*
X130447339Y-97091161D01*
X130472631Y-97021368D01*
X130434413Y-96969001D01*
X130337512Y-97010428D01*
X130238684Y-97101579D01*
X130164616Y-97198998D01*
X130187484Y-97233518D01*
X130214956Y-97235263D01*
X130342759Y-97190404D01*
G37*
X130342759Y-97190404D02*
X130447339Y-97091161D01*
X130472631Y-97021368D01*
X130434413Y-96969001D01*
X130337512Y-97010428D01*
X130238684Y-97101579D01*
X130164616Y-97198998D01*
X130187484Y-97233518D01*
X130214956Y-97235263D01*
X130342759Y-97190404D01*
G36*
X150183416Y-96931230D02*
G01*
X150269062Y-96850091D01*
X150291368Y-96767755D01*
X150270073Y-96741474D01*
X150185743Y-96756836D01*
X150089363Y-96835786D01*
X150014401Y-96931661D01*
X150034013Y-96965395D01*
X150072245Y-96967894D01*
X150183416Y-96931230D01*
G37*
X150183416Y-96931230D02*
X150269062Y-96850091D01*
X150291368Y-96767755D01*
X150270073Y-96741474D01*
X150185743Y-96756836D01*
X150089363Y-96835786D01*
X150014401Y-96931661D01*
X150034013Y-96965395D01*
X150072245Y-96967894D01*
X150183416Y-96931230D01*
G36*
X136305776Y-96695174D02*
G01*
X136566278Y-96679969D01*
X136719902Y-96656183D01*
X136755789Y-96633684D01*
X136691570Y-96604343D01*
X136509105Y-96582634D01*
X136223679Y-96569832D01*
X135953684Y-96566842D01*
X135601592Y-96572193D01*
X135341090Y-96587399D01*
X135187466Y-96611184D01*
X135151579Y-96633684D01*
X135215797Y-96663025D01*
X135398263Y-96684733D01*
X135683689Y-96697535D01*
X135953684Y-96700526D01*
X136305776Y-96695174D01*
G37*
X136305776Y-96695174D02*
X136566278Y-96679969D01*
X136719902Y-96656183D01*
X136755789Y-96633684D01*
X136691570Y-96604343D01*
X136509105Y-96582634D01*
X136223679Y-96569832D01*
X135953684Y-96566842D01*
X135601592Y-96572193D01*
X135341090Y-96587399D01*
X135187466Y-96611184D01*
X135151579Y-96633684D01*
X135215797Y-96663025D01*
X135398263Y-96684733D01*
X135683689Y-96697535D01*
X135953684Y-96700526D01*
X136305776Y-96695174D01*
G36*
X131341981Y-96917001D02*
G01*
X131422509Y-96802491D01*
X131451720Y-96681619D01*
X131430881Y-96629407D01*
X131364648Y-96641692D01*
X131275590Y-96745574D01*
X131260692Y-96770268D01*
X131193141Y-96905021D01*
X131200191Y-96960409D01*
X131242073Y-96967894D01*
X131341981Y-96917001D01*
G37*
X131341981Y-96917001D02*
X131422509Y-96802491D01*
X131451720Y-96681619D01*
X131430881Y-96629407D01*
X131364648Y-96641692D01*
X131275590Y-96745574D01*
X131260692Y-96770268D01*
X131193141Y-96905021D01*
X131200191Y-96960409D01*
X131242073Y-96967894D01*
X131341981Y-96917001D01*
G36*
X149941835Y-96798121D02*
G01*
X150037917Y-96726549D01*
X150107623Y-96630334D01*
X150114988Y-96572595D01*
X150061070Y-96545115D01*
X149961375Y-96628965D01*
X149880503Y-96739347D01*
X149867701Y-96800508D01*
X149941835Y-96798121D01*
G37*
X149941835Y-96798121D02*
X150037917Y-96726549D01*
X150107623Y-96630334D01*
X150114988Y-96572595D01*
X150061070Y-96545115D01*
X149961375Y-96628965D01*
X149880503Y-96739347D01*
X149867701Y-96800508D01*
X149941835Y-96798121D01*
G36*
X134117709Y-97241221D02*
G01*
X134141847Y-97082171D01*
X134148947Y-96901052D01*
X134138800Y-96687429D01*
X134112292Y-96542599D01*
X134082105Y-96500000D01*
X134046501Y-96560883D01*
X134022363Y-96719933D01*
X134015263Y-96901052D01*
X134025410Y-97114676D01*
X134051919Y-97259505D01*
X134082105Y-97302105D01*
X134117709Y-97241221D01*
G37*
X134117709Y-97241221D02*
X134141847Y-97082171D01*
X134148947Y-96901052D01*
X134138800Y-96687429D01*
X134112292Y-96542599D01*
X134082105Y-96500000D01*
X134046501Y-96560883D01*
X134022363Y-96719933D01*
X134015263Y-96901052D01*
X134025410Y-97114676D01*
X134051919Y-97259505D01*
X134082105Y-97302105D01*
X134117709Y-97241221D01*
G36*
X130905494Y-96880307D02*
G01*
X130987444Y-96791284D01*
X131054494Y-96671527D01*
X131074210Y-96587487D01*
X131046184Y-96505133D01*
X130978496Y-96528727D01*
X130895733Y-96646988D01*
X130881911Y-96675743D01*
X130837031Y-96814809D01*
X130843225Y-96892874D01*
X130905494Y-96880307D01*
G37*
X130905494Y-96880307D02*
X130987444Y-96791284D01*
X131054494Y-96671527D01*
X131074210Y-96587487D01*
X131046184Y-96505133D01*
X130978496Y-96528727D01*
X130895733Y-96646988D01*
X130881911Y-96675743D01*
X130837031Y-96814809D01*
X130843225Y-96892874D01*
X130905494Y-96880307D01*
G36*
X137628828Y-96321618D02*
G01*
X137639219Y-96311728D01*
X137747448Y-96266757D01*
X137937962Y-96238103D01*
X138072579Y-96232631D01*
X138269699Y-96221251D01*
X138398317Y-96191995D01*
X138426842Y-96165789D01*
X138368036Y-96120877D01*
X138219267Y-96098717D01*
X138022002Y-96097642D01*
X137817714Y-96115980D01*
X137647872Y-96152063D01*
X137556554Y-96200825D01*
X137507692Y-96306523D01*
X137541099Y-96359286D01*
X137628828Y-96321618D01*
G37*
X137628828Y-96321618D02*
X137639219Y-96311728D01*
X137747448Y-96266757D01*
X137937962Y-96238103D01*
X138072579Y-96232631D01*
X138269699Y-96221251D01*
X138398317Y-96191995D01*
X138426842Y-96165789D01*
X138368036Y-96120877D01*
X138219267Y-96098717D01*
X138022002Y-96097642D01*
X137817714Y-96115980D01*
X137647872Y-96152063D01*
X137556554Y-96200825D01*
X137507692Y-96306523D01*
X137541099Y-96359286D01*
X137628828Y-96321618D01*
G36*
X130032648Y-97051842D02*
G01*
X130164066Y-96917850D01*
X130327811Y-96677622D01*
X130435991Y-96490529D01*
X130531084Y-96302322D01*
X130557347Y-96197229D01*
X130520879Y-96147650D01*
X130512531Y-96144103D01*
X130417641Y-96172826D01*
X130335958Y-96306691D01*
X130244365Y-96485691D01*
X130113245Y-96696615D01*
X130064026Y-96767186D01*
X129960549Y-96935236D01*
X129928617Y-97046306D01*
X129941446Y-97070353D01*
X130032648Y-97051842D01*
G37*
X130032648Y-97051842D02*
X130164066Y-96917850D01*
X130327811Y-96677622D01*
X130435991Y-96490529D01*
X130531084Y-96302322D01*
X130557347Y-96197229D01*
X130520879Y-96147650D01*
X130512531Y-96144103D01*
X130417641Y-96172826D01*
X130335958Y-96306691D01*
X130244365Y-96485691D01*
X130113245Y-96696615D01*
X130064026Y-96767186D01*
X129960549Y-96935236D01*
X129928617Y-97046306D01*
X129941446Y-97070353D01*
X130032648Y-97051842D01*
G36*
X129498587Y-97060763D02*
G01*
X129553271Y-97019955D01*
X129554650Y-96934447D01*
X129502902Y-96765917D01*
X129499994Y-96757655D01*
X129404261Y-96535562D01*
X129286350Y-96329006D01*
X129169048Y-96172449D01*
X129075142Y-96100348D01*
X129064396Y-96098947D01*
X129003125Y-96127176D01*
X129002105Y-96133381D01*
X129032460Y-96205326D01*
X129111362Y-96357610D01*
X129202631Y-96523127D01*
X129310071Y-96730655D01*
X129382846Y-96904055D01*
X129403158Y-96987912D01*
X129443868Y-97065808D01*
X129498587Y-97060763D01*
G37*
X129498587Y-97060763D02*
X129553271Y-97019955D01*
X129554650Y-96934447D01*
X129502902Y-96765917D01*
X129499994Y-96757655D01*
X129404261Y-96535562D01*
X129286350Y-96329006D01*
X129169048Y-96172449D01*
X129075142Y-96100348D01*
X129064396Y-96098947D01*
X129003125Y-96127176D01*
X129002105Y-96133381D01*
X129032460Y-96205326D01*
X129111362Y-96357610D01*
X129202631Y-96523127D01*
X129310071Y-96730655D01*
X129382846Y-96904055D01*
X129403158Y-96987912D01*
X129443868Y-97065808D01*
X129498587Y-97060763D01*
G36*
X137168577Y-97331089D02*
G01*
X137184480Y-97234458D01*
X137188013Y-97049080D01*
X137181334Y-96809018D01*
X137166602Y-96548335D01*
X137145976Y-96301092D01*
X137121613Y-96101353D01*
X137095672Y-95983178D01*
X137082027Y-95965263D01*
X137056269Y-96027035D01*
X137037374Y-96192199D01*
X137028141Y-96430521D01*
X137027856Y-96550131D01*
X137038420Y-96880726D01*
X137062350Y-97136403D01*
X137096747Y-97301062D01*
X137138708Y-97358600D01*
X137168577Y-97331089D01*
G37*
X137168577Y-97331089D02*
X137184480Y-97234458D01*
X137188013Y-97049080D01*
X137181334Y-96809018D01*
X137166602Y-96548335D01*
X137145976Y-96301092D01*
X137121613Y-96101353D01*
X137095672Y-95983178D01*
X137082027Y-95965263D01*
X137056269Y-96027035D01*
X137037374Y-96192199D01*
X137028141Y-96430521D01*
X137027856Y-96550131D01*
X137038420Y-96880726D01*
X137062350Y-97136403D01*
X137096747Y-97301062D01*
X137138708Y-97358600D01*
X137168577Y-97331089D01*
G36*
X150247855Y-97267583D02*
G01*
X150251483Y-97199008D01*
X150160708Y-97136128D01*
X150013591Y-97102657D01*
X149981440Y-97101579D01*
X149763055Y-97042045D01*
X149565429Y-96889961D01*
X149428329Y-96685104D01*
X149388947Y-96508932D01*
X149448359Y-96302786D01*
X149609406Y-96158986D01*
X149846306Y-96099428D01*
X149871715Y-96098947D01*
X150019926Y-96067054D01*
X150057368Y-95998684D01*
X150027236Y-95930469D01*
X149921054Y-95911252D01*
X149715145Y-95937739D01*
X149674358Y-95945419D01*
X149475615Y-96044771D01*
X149337208Y-96230600D01*
X149270371Y-96465041D01*
X149286339Y-96710230D01*
X149386368Y-96916012D01*
X149517472Y-97082685D01*
X149235973Y-97028201D01*
X148997385Y-96985946D01*
X148861419Y-96975997D01*
X148800593Y-96999929D01*
X148787368Y-97053915D01*
X148839498Y-97101931D01*
X149001924Y-97146625D01*
X149283702Y-97190031D01*
X149505899Y-97215472D01*
X149799868Y-97244130D01*
X150040242Y-97263317D01*
X150198800Y-97271051D01*
X150247855Y-97267583D01*
G37*
X150247855Y-97267583D02*
X150251483Y-97199008D01*
X150160708Y-97136128D01*
X150013591Y-97102657D01*
X149981440Y-97101579D01*
X149763055Y-97042045D01*
X149565429Y-96889961D01*
X149428329Y-96685104D01*
X149388947Y-96508932D01*
X149448359Y-96302786D01*
X149609406Y-96158986D01*
X149846306Y-96099428D01*
X149871715Y-96098947D01*
X150019926Y-96067054D01*
X150057368Y-95998684D01*
X150027236Y-95930469D01*
X149921054Y-95911252D01*
X149715145Y-95937739D01*
X149674358Y-95945419D01*
X149475615Y-96044771D01*
X149337208Y-96230600D01*
X149270371Y-96465041D01*
X149286339Y-96710230D01*
X149386368Y-96916012D01*
X149517472Y-97082685D01*
X149235973Y-97028201D01*
X148997385Y-96985946D01*
X148861419Y-96975997D01*
X148800593Y-96999929D01*
X148787368Y-97053915D01*
X148839498Y-97101931D01*
X149001924Y-97146625D01*
X149283702Y-97190031D01*
X149505899Y-97215472D01*
X149799868Y-97244130D01*
X150040242Y-97263317D01*
X150198800Y-97271051D01*
X150247855Y-97267583D01*
G36*
X144012808Y-97440986D02*
G01*
X144037994Y-97275649D01*
X144041579Y-97160065D01*
X144045095Y-96959926D01*
X144067811Y-96863140D01*
X144127976Y-96839380D01*
X144225395Y-96854595D01*
X144407726Y-96899125D01*
X144526184Y-96936944D01*
X144622750Y-96940739D01*
X144643158Y-96874783D01*
X144588547Y-96783714D01*
X144526184Y-96766715D01*
X144403463Y-96739196D01*
X144210655Y-96668974D01*
X144058289Y-96602685D01*
X143834752Y-96481116D01*
X143725275Y-96373451D01*
X143707368Y-96306493D01*
X143733334Y-96187560D01*
X143826430Y-96114761D01*
X144009458Y-96078241D01*
X144258310Y-96068317D01*
X144465148Y-96056292D01*
X144605173Y-96028018D01*
X144643992Y-95998684D01*
X144584383Y-95962243D01*
X144431558Y-95935524D01*
X144225791Y-95921103D01*
X144007357Y-95921554D01*
X143816534Y-95939453D01*
X143791031Y-95944153D01*
X143659592Y-96027689D01*
X143595795Y-96182766D01*
X143597895Y-96366657D01*
X143664149Y-96536634D01*
X143792812Y-96649972D01*
X143820267Y-96660376D01*
X143887735Y-96701784D01*
X143920123Y-96792656D01*
X143924800Y-96965961D01*
X143918668Y-97100647D01*
X143916209Y-97349684D01*
X143942291Y-97482530D01*
X143968800Y-97502631D01*
X144012808Y-97440986D01*
G37*
X144012808Y-97440986D02*
X144037994Y-97275649D01*
X144041579Y-97160065D01*
X144045095Y-96959926D01*
X144067811Y-96863140D01*
X144127976Y-96839380D01*
X144225395Y-96854595D01*
X144407726Y-96899125D01*
X144526184Y-96936944D01*
X144622750Y-96940739D01*
X144643158Y-96874783D01*
X144588547Y-96783714D01*
X144526184Y-96766715D01*
X144403463Y-96739196D01*
X144210655Y-96668974D01*
X144058289Y-96602685D01*
X143834752Y-96481116D01*
X143725275Y-96373451D01*
X143707368Y-96306493D01*
X143733334Y-96187560D01*
X143826430Y-96114761D01*
X144009458Y-96078241D01*
X144258310Y-96068317D01*
X144465148Y-96056292D01*
X144605173Y-96028018D01*
X144643992Y-95998684D01*
X144584383Y-95962243D01*
X144431558Y-95935524D01*
X144225791Y-95921103D01*
X144007357Y-95921554D01*
X143816534Y-95939453D01*
X143791031Y-95944153D01*
X143659592Y-96027689D01*
X143595795Y-96182766D01*
X143597895Y-96366657D01*
X143664149Y-96536634D01*
X143792812Y-96649972D01*
X143820267Y-96660376D01*
X143887735Y-96701784D01*
X143920123Y-96792656D01*
X143924800Y-96965961D01*
X143918668Y-97100647D01*
X143916209Y-97349684D01*
X143942291Y-97482530D01*
X143968800Y-97502631D01*
X144012808Y-97440986D01*
G36*
X141235308Y-97428869D02*
G01*
X141286676Y-97314612D01*
X141346505Y-97190373D01*
X141439157Y-97146842D01*
X141594005Y-97154820D01*
X141765957Y-97156489D01*
X141835366Y-97114152D01*
X141835789Y-97108891D01*
X141780652Y-97045539D01*
X141718816Y-97033713D01*
X141544062Y-97006461D01*
X141488033Y-96925246D01*
X141549404Y-96784721D01*
X141631564Y-96681530D01*
X141759142Y-96516064D01*
X141779013Y-96425514D01*
X141686744Y-96403782D01*
X141477901Y-96444771D01*
X141462360Y-96448880D01*
X141196410Y-96490373D01*
X140987163Y-96466334D01*
X140859926Y-96382888D01*
X140833158Y-96296545D01*
X140894935Y-96168402D01*
X141065593Y-96077607D01*
X141323121Y-96034326D01*
X141405667Y-96032105D01*
X141558562Y-96015021D01*
X141633677Y-95973113D01*
X141635263Y-95965263D01*
X141575186Y-95926951D01*
X141421744Y-95902769D01*
X141304780Y-95898421D01*
X141048445Y-95921104D01*
X140862715Y-96000672D01*
X140794899Y-96052732D01*
X140670445Y-96217425D01*
X140666220Y-96375041D01*
X140769148Y-96508403D01*
X140966156Y-96600336D01*
X141237129Y-96633684D01*
X141370123Y-96643514D01*
X141395925Y-96697701D01*
X141355732Y-96800789D01*
X141290197Y-96903740D01*
X141188079Y-96953230D01*
X141005483Y-96967615D01*
X140956113Y-96967894D01*
X140769012Y-96980293D01*
X140652203Y-97011894D01*
X140632631Y-97034736D01*
X140692006Y-97076256D01*
X140840660Y-97099668D01*
X140905311Y-97101579D01*
X141077329Y-97107072D01*
X141147566Y-97142202D01*
X141147915Y-97234939D01*
X141133947Y-97302105D01*
X141123081Y-97455632D01*
X141165216Y-97498570D01*
X141235308Y-97428869D01*
G37*
X141235308Y-97428869D02*
X141286676Y-97314612D01*
X141346505Y-97190373D01*
X141439157Y-97146842D01*
X141594005Y-97154820D01*
X141765957Y-97156489D01*
X141835366Y-97114152D01*
X141835789Y-97108891D01*
X141780652Y-97045539D01*
X141718816Y-97033713D01*
X141544062Y-97006461D01*
X141488033Y-96925246D01*
X141549404Y-96784721D01*
X141631564Y-96681530D01*
X141759142Y-96516064D01*
X141779013Y-96425514D01*
X141686744Y-96403782D01*
X141477901Y-96444771D01*
X141462360Y-96448880D01*
X141196410Y-96490373D01*
X140987163Y-96466334D01*
X140859926Y-96382888D01*
X140833158Y-96296545D01*
X140894935Y-96168402D01*
X141065593Y-96077607D01*
X141323121Y-96034326D01*
X141405667Y-96032105D01*
X141558562Y-96015021D01*
X141633677Y-95973113D01*
X141635263Y-95965263D01*
X141575186Y-95926951D01*
X141421744Y-95902769D01*
X141304780Y-95898421D01*
X141048445Y-95921104D01*
X140862715Y-96000672D01*
X140794899Y-96052732D01*
X140670445Y-96217425D01*
X140666220Y-96375041D01*
X140769148Y-96508403D01*
X140966156Y-96600336D01*
X141237129Y-96633684D01*
X141370123Y-96643514D01*
X141395925Y-96697701D01*
X141355732Y-96800789D01*
X141290197Y-96903740D01*
X141188079Y-96953230D01*
X141005483Y-96967615D01*
X140956113Y-96967894D01*
X140769012Y-96980293D01*
X140652203Y-97011894D01*
X140632631Y-97034736D01*
X140692006Y-97076256D01*
X140840660Y-97099668D01*
X140905311Y-97101579D01*
X141077329Y-97107072D01*
X141147566Y-97142202D01*
X141147915Y-97234939D01*
X141133947Y-97302105D01*
X141123081Y-97455632D01*
X141165216Y-97498570D01*
X141235308Y-97428869D01*
G36*
X133029342Y-96886531D02*
G01*
X133354869Y-96872705D01*
X133601158Y-96850770D01*
X133748177Y-96823009D01*
X133781316Y-96800789D01*
X133721325Y-96757957D01*
X133568722Y-96724077D01*
X133463816Y-96713574D01*
X133261901Y-96689006D01*
X133165216Y-96641349D01*
X133144848Y-96579890D01*
X133113297Y-96421219D01*
X133037039Y-96231802D01*
X132938648Y-96054027D01*
X132840695Y-95930283D01*
X132781952Y-95898421D01*
X132690750Y-95919330D01*
X132678421Y-95938009D01*
X132715717Y-96012786D01*
X132806083Y-96139854D01*
X132812105Y-96147550D01*
X132909073Y-96330840D01*
X132945789Y-96509014D01*
X132937712Y-96622423D01*
X132890515Y-96678981D01*
X132769756Y-96698425D01*
X132611579Y-96700526D01*
X132402691Y-96710855D01*
X132300233Y-96747164D01*
X132277368Y-96802978D01*
X132295257Y-96847634D01*
X132363297Y-96875781D01*
X132503055Y-96889814D01*
X132736093Y-96892129D01*
X133029342Y-96886531D01*
G37*
X133029342Y-96886531D02*
X133354869Y-96872705D01*
X133601158Y-96850770D01*
X133748177Y-96823009D01*
X133781316Y-96800789D01*
X133721325Y-96757957D01*
X133568722Y-96724077D01*
X133463816Y-96713574D01*
X133261901Y-96689006D01*
X133165216Y-96641349D01*
X133144848Y-96579890D01*
X133113297Y-96421219D01*
X133037039Y-96231802D01*
X132938648Y-96054027D01*
X132840695Y-95930283D01*
X132781952Y-95898421D01*
X132690750Y-95919330D01*
X132678421Y-95938009D01*
X132715717Y-96012786D01*
X132806083Y-96139854D01*
X132812105Y-96147550D01*
X132909073Y-96330840D01*
X132945789Y-96509014D01*
X132937712Y-96622423D01*
X132890515Y-96678981D01*
X132769756Y-96698425D01*
X132611579Y-96700526D01*
X132402691Y-96710855D01*
X132300233Y-96747164D01*
X132277368Y-96802978D01*
X132295257Y-96847634D01*
X132363297Y-96875781D01*
X132503055Y-96889814D01*
X132736093Y-96892129D01*
X133029342Y-96886531D01*
G36*
X151441429Y-97444525D02*
G01*
X151461052Y-97335526D01*
X151473519Y-97232409D01*
X151534800Y-97183553D01*
X151680712Y-97169059D01*
X151761842Y-97168421D01*
X151941226Y-97155145D01*
X152048829Y-97121554D01*
X152062631Y-97101579D01*
X152002889Y-97061715D01*
X151851733Y-97037804D01*
X151761842Y-97034736D01*
X151461052Y-97034736D01*
X151461052Y-96638812D01*
X151449809Y-96387951D01*
X151405733Y-96215702D01*
X151313307Y-96068120D01*
X151288005Y-96037233D01*
X151154558Y-95909319D01*
X151028842Y-95835807D01*
X150943947Y-95831804D01*
X150926316Y-95872090D01*
X150973399Y-95937243D01*
X151087314Y-96039217D01*
X151093421Y-96044047D01*
X151229136Y-96173438D01*
X151242186Y-96257431D01*
X151132256Y-96304503D01*
X151083452Y-96311744D01*
X150922239Y-96369500D01*
X150833136Y-96449868D01*
X150808593Y-96565821D01*
X150940233Y-96565821D01*
X150962024Y-96496299D01*
X151056546Y-96442890D01*
X151171799Y-96475454D01*
X151245829Y-96574917D01*
X151247949Y-96584320D01*
X151222731Y-96680156D01*
X151135688Y-96700526D01*
X150993389Y-96661367D01*
X150940233Y-96565821D01*
X150808593Y-96565821D01*
X150800729Y-96602969D01*
X150878949Y-96736032D01*
X151045399Y-96815766D01*
X151083452Y-96821939D01*
X151213926Y-96864680D01*
X151260526Y-96926468D01*
X151217914Y-96973412D01*
X151078070Y-96989803D01*
X150859473Y-96980836D01*
X150603243Y-96974079D01*
X150475027Y-97000330D01*
X150458421Y-97026703D01*
X150516267Y-97080122D01*
X150650592Y-97101579D01*
X150969815Y-97122573D01*
X151169038Y-97187473D01*
X151255492Y-97299151D01*
X151260526Y-97343881D01*
X151296927Y-97472001D01*
X151360789Y-97502631D01*
X151441429Y-97444525D01*
G37*
X151441429Y-97444525D02*
X151461052Y-97335526D01*
X151473519Y-97232409D01*
X151534800Y-97183553D01*
X151680712Y-97169059D01*
X151761842Y-97168421D01*
X151941226Y-97155145D01*
X152048829Y-97121554D01*
X152062631Y-97101579D01*
X152002889Y-97061715D01*
X151851733Y-97037804D01*
X151761842Y-97034736D01*
X151461052Y-97034736D01*
X151461052Y-96638812D01*
X151449809Y-96387951D01*
X151405733Y-96215702D01*
X151313307Y-96068120D01*
X151288005Y-96037233D01*
X151154558Y-95909319D01*
X151028842Y-95835807D01*
X150943947Y-95831804D01*
X150926316Y-95872090D01*
X150973399Y-95937243D01*
X151087314Y-96039217D01*
X151093421Y-96044047D01*
X151229136Y-96173438D01*
X151242186Y-96257431D01*
X151132256Y-96304503D01*
X151083452Y-96311744D01*
X150922239Y-96369500D01*
X150833136Y-96449868D01*
X150808593Y-96565821D01*
X150940233Y-96565821D01*
X150962024Y-96496299D01*
X151056546Y-96442890D01*
X151171799Y-96475454D01*
X151245829Y-96574917D01*
X151247949Y-96584320D01*
X151222731Y-96680156D01*
X151135688Y-96700526D01*
X150993389Y-96661367D01*
X150940233Y-96565821D01*
X150808593Y-96565821D01*
X150800729Y-96602969D01*
X150878949Y-96736032D01*
X151045399Y-96815766D01*
X151083452Y-96821939D01*
X151213926Y-96864680D01*
X151260526Y-96926468D01*
X151217914Y-96973412D01*
X151078070Y-96989803D01*
X150859473Y-96980836D01*
X150603243Y-96974079D01*
X150475027Y-97000330D01*
X150458421Y-97026703D01*
X150516267Y-97080122D01*
X150650592Y-97101579D01*
X150969815Y-97122573D01*
X151169038Y-97187473D01*
X151255492Y-97299151D01*
X151260526Y-97343881D01*
X151296927Y-97472001D01*
X151360789Y-97502631D01*
X151441429Y-97444525D01*
G36*
X145551805Y-97471927D02*
G01*
X145696823Y-97382926D01*
X145857761Y-97370144D01*
X146057953Y-97376897D01*
X146146064Y-97357537D01*
X146143281Y-97296467D01*
X146086410Y-97201842D01*
X145976918Y-97034736D01*
X146279248Y-97034736D01*
X146459166Y-97021524D01*
X146567410Y-96988077D01*
X146581579Y-96967894D01*
X146518243Y-96936366D01*
X146341920Y-96913720D01*
X146073140Y-96902117D01*
X145946579Y-96901052D01*
X145311579Y-96901052D01*
X145311579Y-96562447D01*
X145278940Y-96232015D01*
X145185641Y-95990391D01*
X145084335Y-95882734D01*
X144972284Y-95835254D01*
X144911975Y-95857271D01*
X144910526Y-95867795D01*
X144951271Y-95937500D01*
X145044210Y-96047504D01*
X145140917Y-96213335D01*
X145176965Y-96456569D01*
X145177895Y-96517108D01*
X145172514Y-96710246D01*
X145147218Y-96798979D01*
X145088277Y-96812442D01*
X145044210Y-96800789D01*
X144931659Y-96782774D01*
X144930835Y-96833798D01*
X145040873Y-96950832D01*
X145102382Y-97004277D01*
X145207357Y-97118289D01*
X145394728Y-97118289D01*
X145423374Y-97056527D01*
X145532270Y-97034445D01*
X145674714Y-97049840D01*
X145804001Y-97100513D01*
X145850265Y-97139758D01*
X145890886Y-97205902D01*
X145846778Y-97230399D01*
X145694887Y-97224550D01*
X145679800Y-97223311D01*
X145507840Y-97189870D01*
X145403999Y-97133820D01*
X145394728Y-97118289D01*
X145207357Y-97118289D01*
X145260064Y-97175533D01*
X145377980Y-97368084D01*
X145381295Y-97375886D01*
X145445019Y-97509844D01*
X145494313Y-97533577D01*
X145551805Y-97471927D01*
G37*
X145551805Y-97471927D02*
X145696823Y-97382926D01*
X145857761Y-97370144D01*
X146057953Y-97376897D01*
X146146064Y-97357537D01*
X146143281Y-97296467D01*
X146086410Y-97201842D01*
X145976918Y-97034736D01*
X146279248Y-97034736D01*
X146459166Y-97021524D01*
X146567410Y-96988077D01*
X146581579Y-96967894D01*
X146518243Y-96936366D01*
X146341920Y-96913720D01*
X146073140Y-96902117D01*
X145946579Y-96901052D01*
X145311579Y-96901052D01*
X145311579Y-96562447D01*
X145278940Y-96232015D01*
X145185641Y-95990391D01*
X145084335Y-95882734D01*
X144972284Y-95835254D01*
X144911975Y-95857271D01*
X144910526Y-95867795D01*
X144951271Y-95937500D01*
X145044210Y-96047504D01*
X145140917Y-96213335D01*
X145176965Y-96456569D01*
X145177895Y-96517108D01*
X145172514Y-96710246D01*
X145147218Y-96798979D01*
X145088277Y-96812442D01*
X145044210Y-96800789D01*
X144931659Y-96782774D01*
X144930835Y-96833798D01*
X145040873Y-96950832D01*
X145102382Y-97004277D01*
X145207357Y-97118289D01*
X145394728Y-97118289D01*
X145423374Y-97056527D01*
X145532270Y-97034445D01*
X145674714Y-97049840D01*
X145804001Y-97100513D01*
X145850265Y-97139758D01*
X145890886Y-97205902D01*
X145846778Y-97230399D01*
X145694887Y-97224550D01*
X145679800Y-97223311D01*
X145507840Y-97189870D01*
X145403999Y-97133820D01*
X145394728Y-97118289D01*
X145207357Y-97118289D01*
X145260064Y-97175533D01*
X145377980Y-97368084D01*
X145381295Y-97375886D01*
X145445019Y-97509844D01*
X145494313Y-97533577D01*
X145551805Y-97471927D01*
G36*
X142850922Y-97364214D02*
G01*
X142995526Y-97351917D01*
X143038947Y-97337852D01*
X142998761Y-97273744D01*
X142896808Y-97146458D01*
X142831496Y-97070483D01*
X142624046Y-96834210D01*
X142834535Y-96834210D01*
X143037611Y-96783743D01*
X143222200Y-96656634D01*
X143345737Y-96489326D01*
X143373158Y-96373081D01*
X143312289Y-96173971D01*
X143152069Y-96009990D01*
X142926075Y-95902076D01*
X142667883Y-95871169D01*
X142583986Y-95880955D01*
X142433730Y-95959876D01*
X142341761Y-96101983D01*
X142338027Y-96159690D01*
X142437368Y-96159690D01*
X142488408Y-96088521D01*
X142600790Y-96034234D01*
X142713410Y-96018041D01*
X142762627Y-96046799D01*
X142740765Y-96140949D01*
X142685488Y-96213684D01*
X142567692Y-96273226D01*
X142468101Y-96241349D01*
X142437368Y-96159690D01*
X142338027Y-96159690D01*
X142331668Y-96257934D01*
X142368883Y-96330915D01*
X142482770Y-96416950D01*
X142545816Y-96433157D01*
X142666979Y-96383163D01*
X142803932Y-96264512D01*
X142905416Y-96124199D01*
X142919459Y-96090592D01*
X142959951Y-96032553D01*
X143039064Y-96072327D01*
X143061498Y-96090421D01*
X143148789Y-96235243D01*
X143168178Y-96425579D01*
X143115621Y-96592142D01*
X143092421Y-96620315D01*
X142938645Y-96688502D01*
X142727141Y-96678376D01*
X142499969Y-96600581D01*
X142299192Y-96465762D01*
X142241110Y-96404880D01*
X142143322Y-96337322D01*
X142089331Y-96341440D01*
X142095112Y-96407009D01*
X142177613Y-96534998D01*
X142283010Y-96658204D01*
X142454934Y-96845136D01*
X142609438Y-97019238D01*
X142673605Y-97094922D01*
X142805000Y-97255371D01*
X142559556Y-97216944D01*
X142375250Y-97206791D01*
X142286596Y-97255440D01*
X142277575Y-97273732D01*
X142283199Y-97327974D01*
X142368256Y-97357491D01*
X142556006Y-97368392D01*
X142639992Y-97368947D01*
X142850922Y-97364214D01*
G37*
X142850922Y-97364214D02*
X142995526Y-97351917D01*
X143038947Y-97337852D01*
X142998761Y-97273744D01*
X142896808Y-97146458D01*
X142831496Y-97070483D01*
X142624046Y-96834210D01*
X142834535Y-96834210D01*
X143037611Y-96783743D01*
X143222200Y-96656634D01*
X143345737Y-96489326D01*
X143373158Y-96373081D01*
X143312289Y-96173971D01*
X143152069Y-96009990D01*
X142926075Y-95902076D01*
X142667883Y-95871169D01*
X142583986Y-95880955D01*
X142433730Y-95959876D01*
X142341761Y-96101983D01*
X142338027Y-96159690D01*
X142437368Y-96159690D01*
X142488408Y-96088521D01*
X142600790Y-96034234D01*
X142713410Y-96018041D01*
X142762627Y-96046799D01*
X142740765Y-96140949D01*
X142685488Y-96213684D01*
X142567692Y-96273226D01*
X142468101Y-96241349D01*
X142437368Y-96159690D01*
X142338027Y-96159690D01*
X142331668Y-96257934D01*
X142368883Y-96330915D01*
X142482770Y-96416950D01*
X142545816Y-96433157D01*
X142666979Y-96383163D01*
X142803932Y-96264512D01*
X142905416Y-96124199D01*
X142919459Y-96090592D01*
X142959951Y-96032553D01*
X143039064Y-96072327D01*
X143061498Y-96090421D01*
X143148789Y-96235243D01*
X143168178Y-96425579D01*
X143115621Y-96592142D01*
X143092421Y-96620315D01*
X142938645Y-96688502D01*
X142727141Y-96678376D01*
X142499969Y-96600581D01*
X142299192Y-96465762D01*
X142241110Y-96404880D01*
X142143322Y-96337322D01*
X142089331Y-96341440D01*
X142095112Y-96407009D01*
X142177613Y-96534998D01*
X142283010Y-96658204D01*
X142454934Y-96845136D01*
X142609438Y-97019238D01*
X142673605Y-97094922D01*
X142805000Y-97255371D01*
X142559556Y-97216944D01*
X142375250Y-97206791D01*
X142286596Y-97255440D01*
X142277575Y-97273732D01*
X142283199Y-97327974D01*
X142368256Y-97357491D01*
X142556006Y-97368392D01*
X142639992Y-97368947D01*
X142850922Y-97364214D01*
G36*
X134862584Y-97307662D02*
G01*
X134879352Y-97121472D01*
X134874836Y-96806877D01*
X134874292Y-96793407D01*
X134860486Y-96513305D01*
X134839230Y-96331342D01*
X134798756Y-96212043D01*
X134727295Y-96119932D01*
X134619300Y-96024723D01*
X134446836Y-95889973D01*
X134341793Y-95839014D01*
X134276159Y-95862022D01*
X134250970Y-95895574D01*
X134275470Y-95965959D01*
X134388382Y-96050888D01*
X134401117Y-96057666D01*
X134577120Y-96193807D01*
X134687677Y-96398146D01*
X134741625Y-96692941D01*
X134750526Y-96937618D01*
X134761411Y-97189986D01*
X134792214Y-97337185D01*
X134824227Y-97368947D01*
X134862584Y-97307662D01*
G37*
X134862584Y-97307662D02*
X134879352Y-97121472D01*
X134874836Y-96806877D01*
X134874292Y-96793407D01*
X134860486Y-96513305D01*
X134839230Y-96331342D01*
X134798756Y-96212043D01*
X134727295Y-96119932D01*
X134619300Y-96024723D01*
X134446836Y-95889973D01*
X134341793Y-95839014D01*
X134276159Y-95862022D01*
X134250970Y-95895574D01*
X134275470Y-95965959D01*
X134388382Y-96050888D01*
X134401117Y-96057666D01*
X134577120Y-96193807D01*
X134687677Y-96398146D01*
X134741625Y-96692941D01*
X134750526Y-96937618D01*
X134761411Y-97189986D01*
X134792214Y-97337185D01*
X134824227Y-97368947D01*
X134862584Y-97307662D01*
G36*
X131985351Y-96924272D02*
G01*
X131986516Y-96805457D01*
X131945003Y-96630409D01*
X131867099Y-96431876D01*
X131815947Y-96333121D01*
X131674693Y-96146769D01*
X131494077Y-95990068D01*
X131306441Y-95882382D01*
X131144128Y-95843078D01*
X131052226Y-95875844D01*
X131079006Y-95926540D01*
X131198230Y-96002719D01*
X131269822Y-96037348D01*
X131557089Y-96232397D01*
X131742970Y-96514488D01*
X131803266Y-96713913D01*
X131858514Y-96868987D01*
X131932590Y-96953148D01*
X131935216Y-96954107D01*
X131985351Y-96924272D01*
G37*
X131985351Y-96924272D02*
X131986516Y-96805457D01*
X131945003Y-96630409D01*
X131867099Y-96431876D01*
X131815947Y-96333121D01*
X131674693Y-96146769D01*
X131494077Y-95990068D01*
X131306441Y-95882382D01*
X131144128Y-95843078D01*
X131052226Y-95875844D01*
X131079006Y-95926540D01*
X131198230Y-96002719D01*
X131269822Y-96037348D01*
X131557089Y-96232397D01*
X131742970Y-96514488D01*
X131803266Y-96713913D01*
X131858514Y-96868987D01*
X131932590Y-96953148D01*
X131935216Y-96954107D01*
X131985351Y-96924272D01*
G36*
X152689896Y-96153407D02*
G01*
X152774781Y-96042622D01*
X152760244Y-95906794D01*
X152735702Y-95870602D01*
X152608677Y-95781926D01*
X152530526Y-95764736D01*
X152392243Y-95812953D01*
X152325350Y-95870602D01*
X152279322Y-96006326D01*
X152279598Y-96006884D01*
X152412401Y-96006884D01*
X152441778Y-95889726D01*
X152525313Y-95831734D01*
X152530526Y-95831579D01*
X152613062Y-95885226D01*
X152641763Y-95936335D01*
X152644585Y-96059892D01*
X152578109Y-96140045D01*
X152482333Y-96138182D01*
X152454809Y-96116808D01*
X152412401Y-96006884D01*
X152279598Y-96006884D01*
X152339527Y-96127915D01*
X152481028Y-96195432D01*
X152530526Y-96199210D01*
X152689896Y-96153407D01*
G37*
X152689896Y-96153407D02*
X152774781Y-96042622D01*
X152760244Y-95906794D01*
X152735702Y-95870602D01*
X152608677Y-95781926D01*
X152530526Y-95764736D01*
X152392243Y-95812953D01*
X152325350Y-95870602D01*
X152279322Y-96006326D01*
X152279598Y-96006884D01*
X152412401Y-96006884D01*
X152441778Y-95889726D01*
X152525313Y-95831734D01*
X152530526Y-95831579D01*
X152613062Y-95885226D01*
X152641763Y-95936335D01*
X152644585Y-96059892D01*
X152578109Y-96140045D01*
X152482333Y-96138182D01*
X152454809Y-96116808D01*
X152412401Y-96006884D01*
X152279598Y-96006884D01*
X152339527Y-96127915D01*
X152481028Y-96195432D01*
X152530526Y-96199210D01*
X152689896Y-96153407D01*
G36*
X148099840Y-97358495D02*
G01*
X148268734Y-97218492D01*
X148430042Y-97110794D01*
X148442172Y-97104330D01*
X148542385Y-97031414D01*
X148554428Y-96980042D01*
X148511329Y-96949272D01*
X148433233Y-96930841D01*
X148277856Y-96916482D01*
X148202500Y-96911233D01*
X148075682Y-96877847D01*
X148061600Y-96823211D01*
X148149672Y-96777694D01*
X148252631Y-96767368D01*
X148381495Y-96756703D01*
X148438577Y-96699097D01*
X148452871Y-96556131D01*
X148453158Y-96501671D01*
X148447281Y-96332316D01*
X148408606Y-96263392D01*
X148305563Y-96261648D01*
X148235921Y-96272879D01*
X148018684Y-96309785D01*
X148206227Y-96137524D01*
X148352953Y-96024601D01*
X148474179Y-95967112D01*
X148490306Y-95965263D01*
X148576839Y-95927963D01*
X148586842Y-95898421D01*
X148539393Y-95835453D01*
X148421035Y-95844082D01*
X148267754Y-95915621D01*
X148154175Y-96002863D01*
X148029437Y-96111102D01*
X147950607Y-96134543D01*
X147866028Y-96079780D01*
X147826915Y-96044637D01*
X147674309Y-95926029D01*
X147507118Y-95823561D01*
X147376937Y-95767812D01*
X147354657Y-95764736D01*
X147306579Y-95794683D01*
X147354277Y-95869020D01*
X147478219Y-95964495D01*
X147563406Y-96013270D01*
X147748758Y-96127969D01*
X147837885Y-96221624D01*
X147825295Y-96279193D01*
X147705497Y-96285637D01*
X147660004Y-96277869D01*
X147525721Y-96258371D01*
X147466189Y-96294253D01*
X147450998Y-96418004D01*
X147450526Y-96501671D01*
X147452022Y-96533421D01*
X147584210Y-96533421D01*
X147639936Y-96451767D01*
X147717895Y-96433157D01*
X147826766Y-96474952D01*
X147851579Y-96533421D01*
X148052105Y-96533421D01*
X148107831Y-96451767D01*
X148185789Y-96433157D01*
X148294661Y-96474952D01*
X148319473Y-96533421D01*
X148263747Y-96615074D01*
X148185789Y-96633684D01*
X148076917Y-96591889D01*
X148052105Y-96533421D01*
X147851579Y-96533421D01*
X147795853Y-96615074D01*
X147717895Y-96633684D01*
X147609023Y-96591889D01*
X147584210Y-96533421D01*
X147452022Y-96533421D01*
X147458575Y-96672415D01*
X147502051Y-96748048D01*
X147609950Y-96766989D01*
X147651052Y-96767368D01*
X147802941Y-96789774D01*
X147847299Y-96840113D01*
X147775303Y-96893064D01*
X147701184Y-96911241D01*
X147476263Y-96927056D01*
X147328379Y-96891598D01*
X147280014Y-96812097D01*
X147289128Y-96778760D01*
X147330255Y-96638149D01*
X147364854Y-96443814D01*
X147367547Y-96422259D01*
X147371486Y-96243563D01*
X147316268Y-96142152D01*
X147256466Y-96102408D01*
X147147789Y-96063887D01*
X147109653Y-96079885D01*
X147090171Y-96066156D01*
X147057677Y-95970218D01*
X146993426Y-95835946D01*
X146930656Y-95780832D01*
X146894906Y-95803630D01*
X146870445Y-95909778D01*
X146855795Y-96114017D01*
X146849474Y-96431091D01*
X146848947Y-96594693D01*
X146848947Y-96767368D01*
X147049473Y-96767368D01*
X147053600Y-96496177D01*
X147069347Y-96333398D01*
X147101767Y-96253921D01*
X147155911Y-96232636D01*
X147157050Y-96232631D01*
X147224424Y-96257246D01*
X147238714Y-96353159D01*
X147221177Y-96483289D01*
X147179548Y-96755795D01*
X147168579Y-96941535D01*
X147187396Y-97083654D01*
X147207658Y-97151710D01*
X147225776Y-97268076D01*
X147159242Y-97302054D01*
X147154241Y-97302105D01*
X147100901Y-97279970D01*
X147068883Y-97197118D01*
X147053355Y-97028882D01*
X147049473Y-96767368D01*
X146848947Y-96767368D01*
X146848947Y-97435789D01*
X147116316Y-97435789D01*
X147298173Y-97424252D01*
X147371009Y-97369514D01*
X147354490Y-97241385D01*
X147315153Y-97130557D01*
X147246621Y-96950306D01*
X147432126Y-97066071D01*
X147461882Y-97088919D01*
X147685980Y-97088919D01*
X147693309Y-97049724D01*
X147795125Y-97036888D01*
X147958193Y-97036223D01*
X148286052Y-97037709D01*
X148118947Y-97168421D01*
X147977261Y-97270235D01*
X147887196Y-97286843D01*
X147797362Y-97218244D01*
X147751316Y-97168421D01*
X147685980Y-97088919D01*
X147461882Y-97088919D01*
X147613555Y-97205379D01*
X147765629Y-97357036D01*
X147913627Y-97532235D01*
X148099840Y-97358495D01*
G37*
X148099840Y-97358495D02*
X148268734Y-97218492D01*
X148430042Y-97110794D01*
X148442172Y-97104330D01*
X148542385Y-97031414D01*
X148554428Y-96980042D01*
X148511329Y-96949272D01*
X148433233Y-96930841D01*
X148277856Y-96916482D01*
X148202500Y-96911233D01*
X148075682Y-96877847D01*
X148061600Y-96823211D01*
X148149672Y-96777694D01*
X148252631Y-96767368D01*
X148381495Y-96756703D01*
X148438577Y-96699097D01*
X148452871Y-96556131D01*
X148453158Y-96501671D01*
X148447281Y-96332316D01*
X148408606Y-96263392D01*
X148305563Y-96261648D01*
X148235921Y-96272879D01*
X148018684Y-96309785D01*
X148206227Y-96137524D01*
X148352953Y-96024601D01*
X148474179Y-95967112D01*
X148490306Y-95965263D01*
X148576839Y-95927963D01*
X148586842Y-95898421D01*
X148539393Y-95835453D01*
X148421035Y-95844082D01*
X148267754Y-95915621D01*
X148154175Y-96002863D01*
X148029437Y-96111102D01*
X147950607Y-96134543D01*
X147866028Y-96079780D01*
X147826915Y-96044637D01*
X147674309Y-95926029D01*
X147507118Y-95823561D01*
X147376937Y-95767812D01*
X147354657Y-95764736D01*
X147306579Y-95794683D01*
X147354277Y-95869020D01*
X147478219Y-95964495D01*
X147563406Y-96013270D01*
X147748758Y-96127969D01*
X147837885Y-96221624D01*
X147825295Y-96279193D01*
X147705497Y-96285637D01*
X147660004Y-96277869D01*
X147525721Y-96258371D01*
X147466189Y-96294253D01*
X147450998Y-96418004D01*
X147450526Y-96501671D01*
X147452022Y-96533421D01*
X147584210Y-96533421D01*
X147639936Y-96451767D01*
X147717895Y-96433157D01*
X147826766Y-96474952D01*
X147851579Y-96533421D01*
X148052105Y-96533421D01*
X148107831Y-96451767D01*
X148185789Y-96433157D01*
X148294661Y-96474952D01*
X148319473Y-96533421D01*
X148263747Y-96615074D01*
X148185789Y-96633684D01*
X148076917Y-96591889D01*
X148052105Y-96533421D01*
X147851579Y-96533421D01*
X147795853Y-96615074D01*
X147717895Y-96633684D01*
X147609023Y-96591889D01*
X147584210Y-96533421D01*
X147452022Y-96533421D01*
X147458575Y-96672415D01*
X147502051Y-96748048D01*
X147609950Y-96766989D01*
X147651052Y-96767368D01*
X147802941Y-96789774D01*
X147847299Y-96840113D01*
X147775303Y-96893064D01*
X147701184Y-96911241D01*
X147476263Y-96927056D01*
X147328379Y-96891598D01*
X147280014Y-96812097D01*
X147289128Y-96778760D01*
X147330255Y-96638149D01*
X147364854Y-96443814D01*
X147367547Y-96422259D01*
X147371486Y-96243563D01*
X147316268Y-96142152D01*
X147256466Y-96102408D01*
X147147789Y-96063887D01*
X147109653Y-96079885D01*
X147090171Y-96066156D01*
X147057677Y-95970218D01*
X146993426Y-95835946D01*
X146930656Y-95780832D01*
X146894906Y-95803630D01*
X146870445Y-95909778D01*
X146855795Y-96114017D01*
X146849474Y-96431091D01*
X146848947Y-96594693D01*
X146848947Y-96767368D01*
X147049473Y-96767368D01*
X147053600Y-96496177D01*
X147069347Y-96333398D01*
X147101767Y-96253921D01*
X147155911Y-96232636D01*
X147157050Y-96232631D01*
X147224424Y-96257246D01*
X147238714Y-96353159D01*
X147221177Y-96483289D01*
X147179548Y-96755795D01*
X147168579Y-96941535D01*
X147187396Y-97083654D01*
X147207658Y-97151710D01*
X147225776Y-97268076D01*
X147159242Y-97302054D01*
X147154241Y-97302105D01*
X147100901Y-97279970D01*
X147068883Y-97197118D01*
X147053355Y-97028882D01*
X147049473Y-96767368D01*
X146848947Y-96767368D01*
X146848947Y-97435789D01*
X147116316Y-97435789D01*
X147298173Y-97424252D01*
X147371009Y-97369514D01*
X147354490Y-97241385D01*
X147315153Y-97130557D01*
X147246621Y-96950306D01*
X147432126Y-97066071D01*
X147461882Y-97088919D01*
X147685980Y-97088919D01*
X147693309Y-97049724D01*
X147795125Y-97036888D01*
X147958193Y-97036223D01*
X148286052Y-97037709D01*
X148118947Y-97168421D01*
X147977261Y-97270235D01*
X147887196Y-97286843D01*
X147797362Y-97218244D01*
X147751316Y-97168421D01*
X147685980Y-97088919D01*
X147461882Y-97088919D01*
X147613555Y-97205379D01*
X147765629Y-97357036D01*
X147913627Y-97532235D01*
X148099840Y-97358495D01*
G36*
X146247368Y-96466579D02*
G01*
X146240442Y-96280968D01*
X146206397Y-96193027D01*
X146125335Y-96166938D01*
X146080263Y-96165789D01*
X145954646Y-96188670D01*
X145913158Y-96232631D01*
X145967297Y-96291932D01*
X146013421Y-96299473D01*
X146094060Y-96357579D01*
X146113684Y-96466579D01*
X146096205Y-96579585D01*
X146017549Y-96625848D01*
X145879737Y-96633684D01*
X145645789Y-96633684D01*
X145645789Y-95965263D01*
X146046842Y-95965263D01*
X146279715Y-95972963D01*
X146404743Y-96000259D01*
X146447104Y-96053445D01*
X146447895Y-96065526D01*
X146481894Y-96154508D01*
X146510792Y-96165789D01*
X146599995Y-96121449D01*
X146594529Y-96005981D01*
X146541580Y-95909314D01*
X146463124Y-95827403D01*
X146348273Y-95783333D01*
X146158420Y-95766387D01*
X146020771Y-95764736D01*
X145794901Y-95771350D01*
X145625846Y-95788572D01*
X145556666Y-95809298D01*
X145534251Y-95894126D01*
X145518247Y-96073791D01*
X145512105Y-96309477D01*
X145512105Y-96767368D01*
X146247368Y-96767368D01*
X146247368Y-96466579D01*
G37*
X146247368Y-96466579D02*
X146240442Y-96280968D01*
X146206397Y-96193027D01*
X146125335Y-96166938D01*
X146080263Y-96165789D01*
X145954646Y-96188670D01*
X145913158Y-96232631D01*
X145967297Y-96291932D01*
X146013421Y-96299473D01*
X146094060Y-96357579D01*
X146113684Y-96466579D01*
X146096205Y-96579585D01*
X146017549Y-96625848D01*
X145879737Y-96633684D01*
X145645789Y-96633684D01*
X145645789Y-95965263D01*
X146046842Y-95965263D01*
X146279715Y-95972963D01*
X146404743Y-96000259D01*
X146447104Y-96053445D01*
X146447895Y-96065526D01*
X146481894Y-96154508D01*
X146510792Y-96165789D01*
X146599995Y-96121449D01*
X146594529Y-96005981D01*
X146541580Y-95909314D01*
X146463124Y-95827403D01*
X146348273Y-95783333D01*
X146158420Y-95766387D01*
X146020771Y-95764736D01*
X145794901Y-95771350D01*
X145625846Y-95788572D01*
X145556666Y-95809298D01*
X145534251Y-95894126D01*
X145518247Y-96073791D01*
X145512105Y-96309477D01*
X145512105Y-96767368D01*
X146247368Y-96767368D01*
X146247368Y-96466579D01*
G36*
X140264441Y-97370265D02*
G01*
X140282482Y-97177817D01*
X140287378Y-96864630D01*
X140283768Y-96617787D01*
X140273437Y-96268953D01*
X140259139Y-96032261D01*
X140237548Y-95886168D01*
X140205342Y-95809135D01*
X140159195Y-95779619D01*
X140154258Y-95778560D01*
X140035204Y-95796420D01*
X139999627Y-95828350D01*
X140012003Y-95907820D01*
X140060237Y-95939465D01*
X140107597Y-95979941D01*
X140138585Y-96073110D01*
X140156294Y-96241718D01*
X140163818Y-96508512D01*
X140164737Y-96707677D01*
X140170850Y-97050950D01*
X140188397Y-97292329D01*
X140216185Y-97419216D01*
X140233636Y-97435789D01*
X140264441Y-97370265D01*
G37*
X140264441Y-97370265D02*
X140282482Y-97177817D01*
X140287378Y-96864630D01*
X140283768Y-96617787D01*
X140273437Y-96268953D01*
X140259139Y-96032261D01*
X140237548Y-95886168D01*
X140205342Y-95809135D01*
X140159195Y-95779619D01*
X140154258Y-95778560D01*
X140035204Y-95796420D01*
X139999627Y-95828350D01*
X140012003Y-95907820D01*
X140060237Y-95939465D01*
X140107597Y-95979941D01*
X140138585Y-96073110D01*
X140156294Y-96241718D01*
X140163818Y-96508512D01*
X140164737Y-96707677D01*
X140170850Y-97050950D01*
X140188397Y-97292329D01*
X140216185Y-97419216D01*
X140233636Y-97435789D01*
X140264441Y-97370265D01*
G36*
X139288248Y-97448492D02*
G01*
X139295789Y-97402368D01*
X139356053Y-97336563D01*
X139513001Y-97295325D01*
X139730870Y-97285092D01*
X139880658Y-97297115D01*
X139920003Y-97242526D01*
X139947785Y-97091852D01*
X139963437Y-96882237D01*
X139966394Y-96650828D01*
X139956092Y-96434770D01*
X139931964Y-96271208D01*
X139897368Y-96199210D01*
X139860170Y-96236769D01*
X139837326Y-96395823D01*
X139830526Y-96629739D01*
X139830526Y-97101579D01*
X139563158Y-97101579D01*
X139395731Y-97086754D01*
X139302607Y-97049720D01*
X139295789Y-97034736D01*
X139353964Y-96988163D01*
X139494518Y-96967921D01*
X139500350Y-96967894D01*
X139633316Y-96958092D01*
X139686116Y-96902475D01*
X139687645Y-96761725D01*
X139684166Y-96717792D01*
X139642830Y-96526721D01*
X139555206Y-96447440D01*
X139547166Y-96445661D01*
X139470326Y-96451898D01*
X139456525Y-96534635D01*
X139471968Y-96628921D01*
X139486260Y-96775398D01*
X139440649Y-96830429D01*
X139404408Y-96834210D01*
X139309007Y-96787048D01*
X139286894Y-96670789D01*
X139331132Y-96523271D01*
X139434783Y-96382334D01*
X139496316Y-96332894D01*
X139629567Y-96221590D01*
X139695219Y-96123024D01*
X139696650Y-96111713D01*
X139661011Y-96060703D01*
X139550553Y-96111354D01*
X139412763Y-96219737D01*
X139339363Y-96271488D01*
X139305513Y-96242793D01*
X139296105Y-96110758D01*
X139295789Y-96042465D01*
X139281482Y-95871250D01*
X139245590Y-95773508D01*
X139228947Y-95764736D01*
X139187871Y-95824211D01*
X139164302Y-95973541D01*
X139162105Y-96044610D01*
X139162105Y-96324484D01*
X138962276Y-96133036D01*
X138810178Y-96007082D01*
X138732692Y-95980919D01*
X138733364Y-96041107D01*
X138815739Y-96174205D01*
X138918784Y-96297899D01*
X139081887Y-96511059D01*
X139155628Y-96682236D01*
X139136710Y-96795303D01*
X139028421Y-96834210D01*
X138930568Y-96802698D01*
X138896116Y-96685447D01*
X138894737Y-96633684D01*
X138875375Y-96492888D01*
X138828726Y-96433173D01*
X138827895Y-96433157D01*
X138786038Y-96492457D01*
X138762757Y-96640593D01*
X138761052Y-96700526D01*
X138768971Y-96871965D01*
X138811882Y-96948176D01*
X138918520Y-96967473D01*
X138961579Y-96967894D01*
X139102375Y-96987256D01*
X139162090Y-97033905D01*
X139162105Y-97034736D01*
X139103346Y-97078917D01*
X138958860Y-97101001D01*
X138928158Y-97101579D01*
X138755126Y-97123321D01*
X138694633Y-97192710D01*
X138694210Y-97201842D01*
X138744942Y-97275998D01*
X138906851Y-97301924D01*
X138928158Y-97302105D01*
X139101189Y-97323847D01*
X139161682Y-97393236D01*
X139162105Y-97402368D01*
X139198198Y-97491319D01*
X139228947Y-97502631D01*
X139288248Y-97448492D01*
G37*
X139288248Y-97448492D02*
X139295789Y-97402368D01*
X139356053Y-97336563D01*
X139513001Y-97295325D01*
X139730870Y-97285092D01*
X139880658Y-97297115D01*
X139920003Y-97242526D01*
X139947785Y-97091852D01*
X139963437Y-96882237D01*
X139966394Y-96650828D01*
X139956092Y-96434770D01*
X139931964Y-96271208D01*
X139897368Y-96199210D01*
X139860170Y-96236769D01*
X139837326Y-96395823D01*
X139830526Y-96629739D01*
X139830526Y-97101579D01*
X139563158Y-97101579D01*
X139395731Y-97086754D01*
X139302607Y-97049720D01*
X139295789Y-97034736D01*
X139353964Y-96988163D01*
X139494518Y-96967921D01*
X139500350Y-96967894D01*
X139633316Y-96958092D01*
X139686116Y-96902475D01*
X139687645Y-96761725D01*
X139684166Y-96717792D01*
X139642830Y-96526721D01*
X139555206Y-96447440D01*
X139547166Y-96445661D01*
X139470326Y-96451898D01*
X139456525Y-96534635D01*
X139471968Y-96628921D01*
X139486260Y-96775398D01*
X139440649Y-96830429D01*
X139404408Y-96834210D01*
X139309007Y-96787048D01*
X139286894Y-96670789D01*
X139331132Y-96523271D01*
X139434783Y-96382334D01*
X139496316Y-96332894D01*
X139629567Y-96221590D01*
X139695219Y-96123024D01*
X139696650Y-96111713D01*
X139661011Y-96060703D01*
X139550553Y-96111354D01*
X139412763Y-96219737D01*
X139339363Y-96271488D01*
X139305513Y-96242793D01*
X139296105Y-96110758D01*
X139295789Y-96042465D01*
X139281482Y-95871250D01*
X139245590Y-95773508D01*
X139228947Y-95764736D01*
X139187871Y-95824211D01*
X139164302Y-95973541D01*
X139162105Y-96044610D01*
X139162105Y-96324484D01*
X138962276Y-96133036D01*
X138810178Y-96007082D01*
X138732692Y-95980919D01*
X138733364Y-96041107D01*
X138815739Y-96174205D01*
X138918784Y-96297899D01*
X139081887Y-96511059D01*
X139155628Y-96682236D01*
X139136710Y-96795303D01*
X139028421Y-96834210D01*
X138930568Y-96802698D01*
X138896116Y-96685447D01*
X138894737Y-96633684D01*
X138875375Y-96492888D01*
X138828726Y-96433173D01*
X138827895Y-96433157D01*
X138786038Y-96492457D01*
X138762757Y-96640593D01*
X138761052Y-96700526D01*
X138768971Y-96871965D01*
X138811882Y-96948176D01*
X138918520Y-96967473D01*
X138961579Y-96967894D01*
X139102375Y-96987256D01*
X139162090Y-97033905D01*
X139162105Y-97034736D01*
X139103346Y-97078917D01*
X138958860Y-97101001D01*
X138928158Y-97101579D01*
X138755126Y-97123321D01*
X138694633Y-97192710D01*
X138694210Y-97201842D01*
X138744942Y-97275998D01*
X138906851Y-97301924D01*
X138928158Y-97302105D01*
X139101189Y-97323847D01*
X139161682Y-97393236D01*
X139162105Y-97402368D01*
X139198198Y-97491319D01*
X139228947Y-97502631D01*
X139288248Y-97448492D01*
G36*
X131135391Y-113290405D02*
G01*
X131239971Y-113191161D01*
X131265263Y-113121368D01*
X131227045Y-113069002D01*
X131130144Y-113110429D01*
X131031316Y-113201579D01*
X130957248Y-113298998D01*
X130980116Y-113333519D01*
X131007588Y-113335263D01*
X131135391Y-113290405D01*
G37*
X131135391Y-113290405D02*
X131239971Y-113191161D01*
X131265263Y-113121368D01*
X131227045Y-113069002D01*
X131130144Y-113110429D01*
X131031316Y-113201579D01*
X130957248Y-113298998D01*
X130980116Y-113333519D01*
X131007588Y-113335263D01*
X131135391Y-113290405D01*
G36*
X137985625Y-113377837D02*
G01*
X137957707Y-113284123D01*
X137949474Y-113268421D01*
X137916793Y-113186789D01*
X137952114Y-113147603D01*
X138082103Y-113135471D01*
X138181070Y-113134737D01*
X138361267Y-113121557D01*
X138469847Y-113088185D01*
X138484211Y-113067895D01*
X138419737Y-113039308D01*
X138235506Y-113017945D01*
X137945303Y-113004867D01*
X137615263Y-113001053D01*
X137243638Y-113006012D01*
X136965923Y-113020184D01*
X136795903Y-113042507D01*
X136746316Y-113067895D01*
X136805155Y-113111740D01*
X136950177Y-113134030D01*
X136984768Y-113134737D01*
X137140601Y-113144420D01*
X137193965Y-113187400D01*
X137180790Y-113268421D01*
X137173887Y-113374923D01*
X137207355Y-113402105D01*
X137289969Y-113349823D01*
X137347895Y-113268421D01*
X137471171Y-113159303D01*
X137579690Y-113134737D01*
X137731000Y-113186863D01*
X137782369Y-113268421D01*
X137857654Y-113376832D01*
X137922909Y-113402105D01*
X137985625Y-113377837D01*
G37*
X137985625Y-113377837D02*
X137957707Y-113284123D01*
X137949474Y-113268421D01*
X137916793Y-113186789D01*
X137952114Y-113147603D01*
X138082103Y-113135471D01*
X138181070Y-113134737D01*
X138361267Y-113121557D01*
X138469847Y-113088185D01*
X138484211Y-113067895D01*
X138419737Y-113039308D01*
X138235506Y-113017945D01*
X137945303Y-113004867D01*
X137615263Y-113001053D01*
X137243638Y-113006012D01*
X136965923Y-113020184D01*
X136795903Y-113042507D01*
X136746316Y-113067895D01*
X136805155Y-113111740D01*
X136950177Y-113134030D01*
X136984768Y-113134737D01*
X137140601Y-113144420D01*
X137193965Y-113187400D01*
X137180790Y-113268421D01*
X137173887Y-113374923D01*
X137207355Y-113402105D01*
X137289969Y-113349823D01*
X137347895Y-113268421D01*
X137471171Y-113159303D01*
X137579690Y-113134737D01*
X137731000Y-113186863D01*
X137782369Y-113268421D01*
X137857654Y-113376832D01*
X137922909Y-113402105D01*
X137985625Y-113377837D01*
G36*
X130847976Y-113217976D02*
G01*
X130953249Y-113147229D01*
X131040801Y-113051953D01*
X131064737Y-112990693D01*
X131026337Y-112935978D01*
X130930283Y-112974838D01*
X130841004Y-113056608D01*
X130772816Y-113164774D01*
X130775088Y-113223860D01*
X130847976Y-113217976D01*
G37*
X130847976Y-113217976D02*
X130953249Y-113147229D01*
X131040801Y-113051953D01*
X131064737Y-112990693D01*
X131026337Y-112935978D01*
X130930283Y-112974838D01*
X130841004Y-113056608D01*
X130772816Y-113164774D01*
X130775088Y-113223860D01*
X130847976Y-113217976D01*
G36*
X139910138Y-113034751D02*
G01*
X139972538Y-113021480D01*
X139994337Y-112949201D01*
X139985304Y-112929592D01*
X139905571Y-112896204D01*
X139744477Y-112875813D01*
X139545337Y-112868610D01*
X139351468Y-112874785D01*
X139206189Y-112894529D01*
X139152632Y-112925933D01*
X139212137Y-112959449D01*
X139361449Y-112992195D01*
X139556758Y-113019063D01*
X139754257Y-113034951D01*
X139910138Y-113034751D01*
G37*
X139910138Y-113034751D02*
X139972538Y-113021480D01*
X139994337Y-112949201D01*
X139985304Y-112929592D01*
X139905571Y-112896204D01*
X139744477Y-112875813D01*
X139545337Y-112868610D01*
X139351468Y-112874785D01*
X139206189Y-112894529D01*
X139152632Y-112925933D01*
X139212137Y-112959449D01*
X139361449Y-112992195D01*
X139556758Y-113019063D01*
X139754257Y-113034951D01*
X139910138Y-113034751D01*
G36*
X131075169Y-112710146D02*
G01*
X131131579Y-112666842D01*
X131076372Y-112609799D01*
X131014606Y-112599264D01*
X130871990Y-112588113D01*
X130675800Y-112561745D01*
X130646974Y-112557097D01*
X130474163Y-112544570D01*
X130397784Y-112575178D01*
X130396316Y-112583458D01*
X130452498Y-112651258D01*
X130546711Y-112691554D01*
X130739058Y-112724913D01*
X130929774Y-112730495D01*
X131075169Y-112710146D01*
G37*
X131075169Y-112710146D02*
X131131579Y-112666842D01*
X131076372Y-112609799D01*
X131014606Y-112599264D01*
X130871990Y-112588113D01*
X130675800Y-112561745D01*
X130646974Y-112557097D01*
X130474163Y-112544570D01*
X130397784Y-112575178D01*
X130396316Y-112583458D01*
X130452498Y-112651258D01*
X130546711Y-112691554D01*
X130739058Y-112724913D01*
X130929774Y-112730495D01*
X131075169Y-112710146D01*
G36*
X144099350Y-112816475D02*
G01*
X144179878Y-112701965D01*
X144209089Y-112581093D01*
X144188250Y-112528881D01*
X144122017Y-112541166D01*
X144032959Y-112645048D01*
X144018061Y-112669742D01*
X143950510Y-112804495D01*
X143957560Y-112859883D01*
X143999442Y-112867368D01*
X144099350Y-112816475D01*
G37*
X144099350Y-112816475D02*
X144179878Y-112701965D01*
X144209089Y-112581093D01*
X144188250Y-112528881D01*
X144122017Y-112541166D01*
X144032959Y-112645048D01*
X144018061Y-112669742D01*
X143950510Y-112804495D01*
X143957560Y-112859883D01*
X143999442Y-112867368D01*
X144099350Y-112816475D01*
G36*
X143662863Y-112779781D02*
G01*
X143744813Y-112690758D01*
X143811863Y-112571001D01*
X143831579Y-112486961D01*
X143803553Y-112404607D01*
X143735865Y-112428201D01*
X143653101Y-112546462D01*
X143639279Y-112575217D01*
X143594399Y-112714283D01*
X143600594Y-112792348D01*
X143662863Y-112779781D01*
G37*
X143662863Y-112779781D02*
X143744813Y-112690758D01*
X143811863Y-112571001D01*
X143831579Y-112486961D01*
X143803553Y-112404607D01*
X143735865Y-112428201D01*
X143653101Y-112546462D01*
X143639279Y-112575217D01*
X143594399Y-112714283D01*
X143600594Y-112792348D01*
X143662863Y-112779781D01*
G36*
X161651081Y-113011544D02*
G01*
X161752044Y-112869615D01*
X161855337Y-112682795D01*
X161940167Y-112491770D01*
X161985738Y-112337226D01*
X161981387Y-112269311D01*
X161893376Y-112201018D01*
X161823809Y-112248510D01*
X161811300Y-112315921D01*
X161778946Y-112440357D01*
X161697680Y-112624080D01*
X161644195Y-112723796D01*
X161536804Y-112914992D01*
X161490463Y-113017774D01*
X161499513Y-113059581D01*
X161558297Y-113067850D01*
X161573242Y-113067895D01*
X161651081Y-113011544D01*
G37*
X161651081Y-113011544D02*
X161752044Y-112869615D01*
X161855337Y-112682795D01*
X161940167Y-112491770D01*
X161985738Y-112337226D01*
X161981387Y-112269311D01*
X161893376Y-112201018D01*
X161823809Y-112248510D01*
X161811300Y-112315921D01*
X161778946Y-112440357D01*
X161697680Y-112624080D01*
X161644195Y-112723796D01*
X161536804Y-112914992D01*
X161490463Y-113017774D01*
X161499513Y-113059581D01*
X161558297Y-113067850D01*
X161573242Y-113067895D01*
X161651081Y-113011544D01*
G36*
X132165603Y-112507938D02*
G01*
X132269037Y-112429758D01*
X132361798Y-112320785D01*
X132401579Y-112222009D01*
X132372563Y-112140498D01*
X132291343Y-112174695D01*
X132177774Y-112305882D01*
X132103300Y-112434439D01*
X132092303Y-112513289D01*
X132093811Y-112515039D01*
X132165603Y-112507938D01*
G37*
X132165603Y-112507938D02*
X132269037Y-112429758D01*
X132361798Y-112320785D01*
X132401579Y-112222009D01*
X132372563Y-112140498D01*
X132291343Y-112174695D01*
X132177774Y-112305882D01*
X132103300Y-112434439D01*
X132092303Y-112513289D01*
X132093811Y-112515039D01*
X132165603Y-112507938D01*
G36*
X152402172Y-113285313D02*
G01*
X152400534Y-113127309D01*
X152400160Y-113124746D01*
X152369263Y-112914229D01*
X152645684Y-112958431D01*
X152841604Y-112972015D01*
X152917149Y-112941754D01*
X152871391Y-112883834D01*
X152703404Y-112814443D01*
X152654737Y-112800526D01*
X152483953Y-112744028D01*
X152407327Y-112670242D01*
X152387719Y-112536737D01*
X152387369Y-112495063D01*
X152421516Y-112299554D01*
X152510635Y-112213230D01*
X152634739Y-112245236D01*
X152728646Y-112338909D01*
X152815207Y-112436338D01*
X152850231Y-112425964D01*
X152853777Y-112388230D01*
X152820502Y-112187372D01*
X152704411Y-112085726D01*
X152558463Y-112065263D01*
X152395833Y-112077885D01*
X152299781Y-112108399D01*
X152298246Y-112109824D01*
X152270762Y-112198918D01*
X152255084Y-112369140D01*
X152253684Y-112441937D01*
X152243006Y-112624216D01*
X152205476Y-112696300D01*
X152160182Y-112693608D01*
X152053730Y-112698423D01*
X152025528Y-112724315D01*
X152045235Y-112793420D01*
X152119030Y-112833639D01*
X152217983Y-112906252D01*
X152252813Y-113061576D01*
X152253684Y-113105820D01*
X152277456Y-113276857D01*
X152342371Y-113335263D01*
X152402172Y-113285313D01*
G37*
X152402172Y-113285313D02*
X152400534Y-113127309D01*
X152400160Y-113124746D01*
X152369263Y-112914229D01*
X152645684Y-112958431D01*
X152841604Y-112972015D01*
X152917149Y-112941754D01*
X152871391Y-112883834D01*
X152703404Y-112814443D01*
X152654737Y-112800526D01*
X152483953Y-112744028D01*
X152407327Y-112670242D01*
X152387719Y-112536737D01*
X152387369Y-112495063D01*
X152421516Y-112299554D01*
X152510635Y-112213230D01*
X152634739Y-112245236D01*
X152728646Y-112338909D01*
X152815207Y-112436338D01*
X152850231Y-112425964D01*
X152853777Y-112388230D01*
X152820502Y-112187372D01*
X152704411Y-112085726D01*
X152558463Y-112065263D01*
X152395833Y-112077885D01*
X152299781Y-112108399D01*
X152298246Y-112109824D01*
X152270762Y-112198918D01*
X152255084Y-112369140D01*
X152253684Y-112441937D01*
X152243006Y-112624216D01*
X152205476Y-112696300D01*
X152160182Y-112693608D01*
X152053730Y-112698423D01*
X152025528Y-112724315D01*
X152045235Y-112793420D01*
X152119030Y-112833639D01*
X152217983Y-112906252D01*
X152252813Y-113061576D01*
X152253684Y-113105820D01*
X152277456Y-113276857D01*
X152342371Y-113335263D01*
X152402172Y-113285313D01*
G36*
X139290407Y-112221092D02*
G01*
X139300798Y-112211202D01*
X139409027Y-112166231D01*
X139599541Y-112137577D01*
X139734158Y-112132105D01*
X139931278Y-112120725D01*
X140059897Y-112091469D01*
X140088421Y-112065263D01*
X140029616Y-112020351D01*
X139880846Y-111998191D01*
X139683582Y-111997116D01*
X139479294Y-112015454D01*
X139309451Y-112051537D01*
X139218133Y-112100299D01*
X139169271Y-112205997D01*
X139202679Y-112258760D01*
X139290407Y-112221092D01*
G37*
X139290407Y-112221092D02*
X139300798Y-112211202D01*
X139409027Y-112166231D01*
X139599541Y-112137577D01*
X139734158Y-112132105D01*
X139931278Y-112120725D01*
X140059897Y-112091469D01*
X140088421Y-112065263D01*
X140029616Y-112020351D01*
X139880846Y-111998191D01*
X139683582Y-111997116D01*
X139479294Y-112015454D01*
X139309451Y-112051537D01*
X139218133Y-112100299D01*
X139169271Y-112205997D01*
X139202679Y-112258760D01*
X139290407Y-112221092D01*
G36*
X137850078Y-112805545D02*
G01*
X137873771Y-112639845D01*
X137882632Y-112399928D01*
X137882632Y-112399474D01*
X137873800Y-112159455D01*
X137850129Y-111993604D01*
X137815855Y-111931579D01*
X137815790Y-111931579D01*
X137781501Y-111993402D01*
X137757808Y-112159102D01*
X137748948Y-112399020D01*
X137748948Y-112399474D01*
X137757780Y-112639492D01*
X137781451Y-112805343D01*
X137815725Y-112867368D01*
X137815790Y-112867368D01*
X137850078Y-112805545D01*
G37*
X137850078Y-112805545D02*
X137873771Y-112639845D01*
X137882632Y-112399928D01*
X137882632Y-112399474D01*
X137873800Y-112159455D01*
X137850129Y-111993604D01*
X137815855Y-111931579D01*
X137815790Y-111931579D01*
X137781501Y-111993402D01*
X137757808Y-112159102D01*
X137748948Y-112399020D01*
X137748948Y-112399474D01*
X137757780Y-112639492D01*
X137781451Y-112805343D01*
X137815725Y-112867368D01*
X137815790Y-112867368D01*
X137850078Y-112805545D01*
G36*
X133461974Y-113227840D02*
G01*
X133488261Y-113095769D01*
X133501691Y-112856991D01*
X133504474Y-112600275D01*
X133499384Y-112271849D01*
X133482844Y-112061527D01*
X133452948Y-111954071D01*
X133420921Y-111931817D01*
X133379883Y-111972279D01*
X133353601Y-112104123D01*
X133340164Y-112342618D01*
X133337369Y-112600000D01*
X133342450Y-112928400D01*
X133358965Y-113138707D01*
X133388819Y-113246173D01*
X133420921Y-113268458D01*
X133461974Y-113227840D01*
G37*
X133461974Y-113227840D02*
X133488261Y-113095769D01*
X133501691Y-112856991D01*
X133504474Y-112600275D01*
X133499384Y-112271849D01*
X133482844Y-112061527D01*
X133452948Y-111954071D01*
X133420921Y-111931817D01*
X133379883Y-111972279D01*
X133353601Y-112104123D01*
X133340164Y-112342618D01*
X133337369Y-112600000D01*
X133342450Y-112928400D01*
X133358965Y-113138707D01*
X133388819Y-113246173D01*
X133420921Y-113268458D01*
X133461974Y-113227840D01*
G36*
X160671940Y-113088025D02*
G01*
X160698981Y-112938384D01*
X160709029Y-112671949D01*
X160709211Y-112618196D01*
X160713891Y-112350018D01*
X160731625Y-112188504D01*
X160767949Y-112106848D01*
X160820474Y-112079605D01*
X160929608Y-112117405D01*
X160977508Y-112201874D01*
X161032879Y-112297177D01*
X161093419Y-112275950D01*
X161118982Y-112175437D01*
X161051817Y-112035274D01*
X160919260Y-111893558D01*
X160785671Y-111883455D01*
X160652728Y-111986974D01*
X160598167Y-112105663D01*
X160559932Y-112299583D01*
X160538881Y-112532499D01*
X160535866Y-112768178D01*
X160551742Y-112970386D01*
X160587365Y-113102890D01*
X160625658Y-113134790D01*
X160671940Y-113088025D01*
G37*
X160671940Y-113088025D02*
X160698981Y-112938384D01*
X160709029Y-112671949D01*
X160709211Y-112618196D01*
X160713891Y-112350018D01*
X160731625Y-112188504D01*
X160767949Y-112106848D01*
X160820474Y-112079605D01*
X160929608Y-112117405D01*
X160977508Y-112201874D01*
X161032879Y-112297177D01*
X161093419Y-112275950D01*
X161118982Y-112175437D01*
X161051817Y-112035274D01*
X160919260Y-111893558D01*
X160785671Y-111883455D01*
X160652728Y-111986974D01*
X160598167Y-112105663D01*
X160559932Y-112299583D01*
X160538881Y-112532499D01*
X160535866Y-112768178D01*
X160551742Y-112970386D01*
X160587365Y-113102890D01*
X160625658Y-113134790D01*
X160671940Y-113088025D01*
G36*
X155057037Y-112770088D02*
G01*
X155094127Y-112757989D01*
X155220739Y-112645705D01*
X155285410Y-112461278D01*
X155270737Y-112258611D01*
X155262796Y-112235570D01*
X155158519Y-112090653D01*
X154987385Y-111970271D01*
X154787985Y-111888443D01*
X154598911Y-111859192D01*
X154458754Y-111896535D01*
X154426053Y-111931579D01*
X154449978Y-111980901D01*
X154559112Y-111998421D01*
X154744076Y-112029737D01*
X154934643Y-112102446D01*
X155074430Y-112198143D01*
X155118985Y-112319589D01*
X155115139Y-112419946D01*
X155095896Y-112546239D01*
X155045751Y-112608583D01*
X154928025Y-112628521D01*
X154760263Y-112628414D01*
X154511315Y-112614212D01*
X154278952Y-112584381D01*
X154208816Y-112569927D01*
X154046346Y-112547612D01*
X153992878Y-112575457D01*
X154043214Y-112634127D01*
X154192156Y-112704283D01*
X154249992Y-112723104D01*
X154535672Y-112782095D01*
X154823870Y-112798549D01*
X155057037Y-112770088D01*
G37*
X155057037Y-112770088D02*
X155094127Y-112757989D01*
X155220739Y-112645705D01*
X155285410Y-112461278D01*
X155270737Y-112258611D01*
X155262796Y-112235570D01*
X155158519Y-112090653D01*
X154987385Y-111970271D01*
X154787985Y-111888443D01*
X154598911Y-111859192D01*
X154458754Y-111896535D01*
X154426053Y-111931579D01*
X154449978Y-111980901D01*
X154559112Y-111998421D01*
X154744076Y-112029737D01*
X154934643Y-112102446D01*
X155074430Y-112198143D01*
X155118985Y-112319589D01*
X155115139Y-112419946D01*
X155095896Y-112546239D01*
X155045751Y-112608583D01*
X154928025Y-112628521D01*
X154760263Y-112628414D01*
X154511315Y-112614212D01*
X154278952Y-112584381D01*
X154208816Y-112569927D01*
X154046346Y-112547612D01*
X153992878Y-112575457D01*
X154043214Y-112634127D01*
X154192156Y-112704283D01*
X154249992Y-112723104D01*
X154535672Y-112782095D01*
X154823870Y-112798549D01*
X155057037Y-112770088D01*
G36*
X147924612Y-113104585D02*
G01*
X148037503Y-113028532D01*
X148172438Y-112890845D01*
X148231555Y-112741366D01*
X148243158Y-112555495D01*
X148222038Y-112330119D01*
X148140079Y-112163568D01*
X148047774Y-112060121D01*
X147888619Y-111931033D01*
X147749204Y-111868233D01*
X147659339Y-111881155D01*
X147641579Y-111931579D01*
X147692849Y-111995999D01*
X147711460Y-111998421D01*
X147802193Y-112041896D01*
X147930663Y-112148016D01*
X147945407Y-112162488D01*
X148083382Y-112378017D01*
X148110986Y-112612761D01*
X148028813Y-112829023D01*
X147933354Y-112929359D01*
X147757450Y-113042939D01*
X147644045Y-113043314D01*
X147574447Y-112923482D01*
X147544790Y-112783816D01*
X147472171Y-112490933D01*
X147360652Y-112226864D01*
X147229883Y-112033069D01*
X147160887Y-111973885D01*
X147021902Y-111944040D01*
X146906229Y-112018650D01*
X146822823Y-112169260D01*
X146786012Y-112342184D01*
X146913467Y-112342184D01*
X146961247Y-112177970D01*
X146984936Y-112147064D01*
X147090849Y-112107726D01*
X147196045Y-112201343D01*
X147299886Y-112427186D01*
X147340579Y-112553299D01*
X147413465Y-112813478D01*
X147438995Y-112964739D01*
X147413015Y-113024676D01*
X147331371Y-113010881D01*
X147242508Y-112968656D01*
X147081926Y-112858246D01*
X146975140Y-112737387D01*
X146917753Y-112549448D01*
X146913467Y-112342184D01*
X146786012Y-112342184D01*
X146780641Y-112367412D01*
X146788642Y-112584652D01*
X146855780Y-112792523D01*
X146886558Y-112845418D01*
X147092477Y-113049961D01*
X147360373Y-113165512D01*
X147650874Y-113185808D01*
X147924612Y-113104585D01*
G37*
X147924612Y-113104585D02*
X148037503Y-113028532D01*
X148172438Y-112890845D01*
X148231555Y-112741366D01*
X148243158Y-112555495D01*
X148222038Y-112330119D01*
X148140079Y-112163568D01*
X148047774Y-112060121D01*
X147888619Y-111931033D01*
X147749204Y-111868233D01*
X147659339Y-111881155D01*
X147641579Y-111931579D01*
X147692849Y-111995999D01*
X147711460Y-111998421D01*
X147802193Y-112041896D01*
X147930663Y-112148016D01*
X147945407Y-112162488D01*
X148083382Y-112378017D01*
X148110986Y-112612761D01*
X148028813Y-112829023D01*
X147933354Y-112929359D01*
X147757450Y-113042939D01*
X147644045Y-113043314D01*
X147574447Y-112923482D01*
X147544790Y-112783816D01*
X147472171Y-112490933D01*
X147360652Y-112226864D01*
X147229883Y-112033069D01*
X147160887Y-111973885D01*
X147021902Y-111944040D01*
X146906229Y-112018650D01*
X146822823Y-112169260D01*
X146786012Y-112342184D01*
X146913467Y-112342184D01*
X146961247Y-112177970D01*
X146984936Y-112147064D01*
X147090849Y-112107726D01*
X147196045Y-112201343D01*
X147299886Y-112427186D01*
X147340579Y-112553299D01*
X147413465Y-112813478D01*
X147438995Y-112964739D01*
X147413015Y-113024676D01*
X147331371Y-113010881D01*
X147242508Y-112968656D01*
X147081926Y-112858246D01*
X146975140Y-112737387D01*
X146917753Y-112549448D01*
X146913467Y-112342184D01*
X146786012Y-112342184D01*
X146780641Y-112367412D01*
X146788642Y-112584652D01*
X146855780Y-112792523D01*
X146886558Y-112845418D01*
X147092477Y-113049961D01*
X147360373Y-113165512D01*
X147650874Y-113185808D01*
X147924612Y-113104585D01*
G36*
X141339162Y-113127790D02*
G01*
X141477101Y-113108606D01*
X141511496Y-113093066D01*
X141501305Y-113019543D01*
X141425294Y-112886289D01*
X141388952Y-112836099D01*
X141285475Y-112691403D01*
X141228548Y-112594243D01*
X141224737Y-112580656D01*
X141269481Y-112517482D01*
X141386508Y-112391365D01*
X141542237Y-112237594D01*
X141704421Y-112069505D01*
X141774525Y-111964811D01*
X141754415Y-111933128D01*
X141640506Y-111977827D01*
X141502245Y-112089046D01*
X141487046Y-112104822D01*
X141303733Y-112282533D01*
X141160848Y-112354161D01*
X141019817Y-112321467D01*
X140842065Y-112186208D01*
X140787528Y-112136720D01*
X140581188Y-111962157D01*
X140435443Y-111871800D01*
X140362165Y-111872224D01*
X140355790Y-111897728D01*
X140400412Y-111955581D01*
X140520532Y-112084636D01*
X140695529Y-112263182D01*
X140823684Y-112390336D01*
X141023436Y-112593828D01*
X141180675Y-112767858D01*
X141274466Y-112888479D01*
X141291579Y-112925502D01*
X141227734Y-112971532D01*
X141045755Y-112996886D01*
X140890527Y-113001053D01*
X140676903Y-113011200D01*
X140532074Y-113037708D01*
X140489474Y-113067895D01*
X140549675Y-113097421D01*
X140704065Y-113119143D01*
X140913323Y-113132090D01*
X141138129Y-113135296D01*
X141339162Y-113127790D01*
G37*
X141339162Y-113127790D02*
X141477101Y-113108606D01*
X141511496Y-113093066D01*
X141501305Y-113019543D01*
X141425294Y-112886289D01*
X141388952Y-112836099D01*
X141285475Y-112691403D01*
X141228548Y-112594243D01*
X141224737Y-112580656D01*
X141269481Y-112517482D01*
X141386508Y-112391365D01*
X141542237Y-112237594D01*
X141704421Y-112069505D01*
X141774525Y-111964811D01*
X141754415Y-111933128D01*
X141640506Y-111977827D01*
X141502245Y-112089046D01*
X141487046Y-112104822D01*
X141303733Y-112282533D01*
X141160848Y-112354161D01*
X141019817Y-112321467D01*
X140842065Y-112186208D01*
X140787528Y-112136720D01*
X140581188Y-111962157D01*
X140435443Y-111871800D01*
X140362165Y-111872224D01*
X140355790Y-111897728D01*
X140400412Y-111955581D01*
X140520532Y-112084636D01*
X140695529Y-112263182D01*
X140823684Y-112390336D01*
X141023436Y-112593828D01*
X141180675Y-112767858D01*
X141274466Y-112888479D01*
X141291579Y-112925502D01*
X141227734Y-112971532D01*
X141045755Y-112996886D01*
X140890527Y-113001053D01*
X140676903Y-113011200D01*
X140532074Y-113037708D01*
X140489474Y-113067895D01*
X140549675Y-113097421D01*
X140704065Y-113119143D01*
X140913323Y-113132090D01*
X141138129Y-113135296D01*
X141339162Y-113127790D01*
G36*
X138830157Y-113230563D02*
G01*
X138846060Y-113133932D01*
X138849592Y-112948554D01*
X138842914Y-112708492D01*
X138828182Y-112447809D01*
X138807555Y-112200566D01*
X138783192Y-112000827D01*
X138757251Y-111882652D01*
X138743606Y-111864737D01*
X138717849Y-111926509D01*
X138698953Y-112091673D01*
X138689720Y-112329995D01*
X138689435Y-112449605D01*
X138699999Y-112780200D01*
X138723930Y-113035877D01*
X138758326Y-113200536D01*
X138800288Y-113258074D01*
X138830157Y-113230563D01*
G37*
X138830157Y-113230563D02*
X138846060Y-113133932D01*
X138849592Y-112948554D01*
X138842914Y-112708492D01*
X138828182Y-112447809D01*
X138807555Y-112200566D01*
X138783192Y-112000827D01*
X138757251Y-111882652D01*
X138743606Y-111864737D01*
X138717849Y-111926509D01*
X138698953Y-112091673D01*
X138689720Y-112329995D01*
X138689435Y-112449605D01*
X138699999Y-112780200D01*
X138723930Y-113035877D01*
X138758326Y-113200536D01*
X138800288Y-113258074D01*
X138830157Y-113230563D01*
G36*
X136160401Y-113104585D02*
G01*
X136273293Y-113028532D01*
X136408228Y-112890845D01*
X136467344Y-112741366D01*
X136478948Y-112555495D01*
X136457828Y-112330119D01*
X136375869Y-112163568D01*
X136283563Y-112060121D01*
X136124408Y-111931033D01*
X135984994Y-111868233D01*
X135895128Y-111881155D01*
X135877369Y-111931579D01*
X135928639Y-111995999D01*
X135947249Y-111998421D01*
X136037983Y-112041896D01*
X136166453Y-112148016D01*
X136181196Y-112162488D01*
X136319171Y-112378017D01*
X136346775Y-112612761D01*
X136264602Y-112829023D01*
X136169144Y-112929359D01*
X135993239Y-113042939D01*
X135879835Y-113043314D01*
X135810237Y-112923482D01*
X135780579Y-112783816D01*
X135707960Y-112490933D01*
X135596441Y-112226864D01*
X135465672Y-112033069D01*
X135396676Y-111973885D01*
X135257692Y-111944040D01*
X135142018Y-112018650D01*
X135058612Y-112169260D01*
X135021802Y-112342184D01*
X135149256Y-112342184D01*
X135197036Y-112177970D01*
X135220726Y-112147064D01*
X135326638Y-112107726D01*
X135431835Y-112201343D01*
X135535676Y-112427186D01*
X135576368Y-112553299D01*
X135649254Y-112813478D01*
X135674784Y-112964739D01*
X135648804Y-113024676D01*
X135567161Y-113010881D01*
X135478298Y-112968656D01*
X135317716Y-112858246D01*
X135210929Y-112737387D01*
X135153542Y-112549448D01*
X135149256Y-112342184D01*
X135021802Y-112342184D01*
X135016431Y-112367412D01*
X135024431Y-112584652D01*
X135091570Y-112792523D01*
X135122347Y-112845418D01*
X135328267Y-113049961D01*
X135596162Y-113165512D01*
X135886664Y-113185808D01*
X136160401Y-113104585D01*
G37*
X136160401Y-113104585D02*
X136273293Y-113028532D01*
X136408228Y-112890845D01*
X136467344Y-112741366D01*
X136478948Y-112555495D01*
X136457828Y-112330119D01*
X136375869Y-112163568D01*
X136283563Y-112060121D01*
X136124408Y-111931033D01*
X135984994Y-111868233D01*
X135895128Y-111881155D01*
X135877369Y-111931579D01*
X135928639Y-111995999D01*
X135947249Y-111998421D01*
X136037983Y-112041896D01*
X136166453Y-112148016D01*
X136181196Y-112162488D01*
X136319171Y-112378017D01*
X136346775Y-112612761D01*
X136264602Y-112829023D01*
X136169144Y-112929359D01*
X135993239Y-113042939D01*
X135879835Y-113043314D01*
X135810237Y-112923482D01*
X135780579Y-112783816D01*
X135707960Y-112490933D01*
X135596441Y-112226864D01*
X135465672Y-112033069D01*
X135396676Y-111973885D01*
X135257692Y-111944040D01*
X135142018Y-112018650D01*
X135058612Y-112169260D01*
X135021802Y-112342184D01*
X135149256Y-112342184D01*
X135197036Y-112177970D01*
X135220726Y-112147064D01*
X135326638Y-112107726D01*
X135431835Y-112201343D01*
X135535676Y-112427186D01*
X135576368Y-112553299D01*
X135649254Y-112813478D01*
X135674784Y-112964739D01*
X135648804Y-113024676D01*
X135567161Y-113010881D01*
X135478298Y-112968656D01*
X135317716Y-112858246D01*
X135210929Y-112737387D01*
X135153542Y-112549448D01*
X135149256Y-112342184D01*
X135021802Y-112342184D01*
X135016431Y-112367412D01*
X135024431Y-112584652D01*
X135091570Y-112792523D01*
X135122347Y-112845418D01*
X135328267Y-113049961D01*
X135596162Y-113165512D01*
X135886664Y-113185808D01*
X136160401Y-113104585D01*
G36*
X130578579Y-112035164D02*
G01*
X130781796Y-112016683D01*
X130981327Y-111988580D01*
X131134420Y-111955843D01*
X131198325Y-111923456D01*
X131198421Y-111922295D01*
X131139343Y-111888388D01*
X130991169Y-111870413D01*
X130797490Y-111868007D01*
X130601898Y-111880807D01*
X130447984Y-111908449D01*
X130398252Y-111928968D01*
X130330156Y-111996604D01*
X130332095Y-112023322D01*
X130414428Y-112039039D01*
X130578579Y-112035164D01*
G37*
X130578579Y-112035164D02*
X130781796Y-112016683D01*
X130981327Y-111988580D01*
X131134420Y-111955843D01*
X131198325Y-111923456D01*
X131198421Y-111922295D01*
X131139343Y-111888388D01*
X130991169Y-111870413D01*
X130797490Y-111868007D01*
X130601898Y-111880807D01*
X130447984Y-111908449D01*
X130398252Y-111928968D01*
X130330156Y-111996604D01*
X130332095Y-112023322D01*
X130414428Y-112039039D01*
X130578579Y-112035164D01*
G36*
X126408309Y-113170151D02*
G01*
X126400072Y-113056937D01*
X126381124Y-112984783D01*
X126348417Y-112802753D01*
X126325895Y-112547411D01*
X126318948Y-112316362D01*
X126309828Y-112082610D01*
X126285518Y-111921801D01*
X126252106Y-111864737D01*
X126218755Y-111927147D01*
X126195694Y-112097017D01*
X126186239Y-112348302D01*
X126186176Y-112382763D01*
X126195095Y-112752301D01*
X126222205Y-113002698D01*
X126270332Y-113147609D01*
X126342299Y-113200692D01*
X126355499Y-113201579D01*
X126408309Y-113170151D01*
G37*
X126408309Y-113170151D02*
X126400072Y-113056937D01*
X126381124Y-112984783D01*
X126348417Y-112802753D01*
X126325895Y-112547411D01*
X126318948Y-112316362D01*
X126309828Y-112082610D01*
X126285518Y-111921801D01*
X126252106Y-111864737D01*
X126218755Y-111927147D01*
X126195694Y-112097017D01*
X126186239Y-112348302D01*
X126186176Y-112382763D01*
X126195095Y-112752301D01*
X126222205Y-113002698D01*
X126270332Y-113147609D01*
X126342299Y-113200692D01*
X126355499Y-113201579D01*
X126408309Y-113170151D01*
G36*
X159741098Y-113328343D02*
G01*
X159792466Y-113214086D01*
X159852295Y-113089847D01*
X159944947Y-113046316D01*
X160099795Y-113054294D01*
X160271747Y-113055963D01*
X160341156Y-113013626D01*
X160341579Y-113008365D01*
X160286442Y-112945013D01*
X160224606Y-112933187D01*
X160049852Y-112905935D01*
X159993823Y-112824720D01*
X160055194Y-112684195D01*
X160137354Y-112581004D01*
X160264932Y-112415538D01*
X160284803Y-112324988D01*
X160192534Y-112303256D01*
X159983691Y-112344245D01*
X159968150Y-112348354D01*
X159702200Y-112389847D01*
X159492953Y-112365808D01*
X159365716Y-112282362D01*
X159338948Y-112196019D01*
X159400725Y-112067876D01*
X159571383Y-111977081D01*
X159828911Y-111933800D01*
X159911457Y-111931579D01*
X160064352Y-111914495D01*
X160139467Y-111872587D01*
X160141053Y-111864737D01*
X160080976Y-111826425D01*
X159927534Y-111802243D01*
X159810570Y-111797895D01*
X159554235Y-111820578D01*
X159368505Y-111900146D01*
X159300689Y-111952206D01*
X159176235Y-112116899D01*
X159172010Y-112274515D01*
X159274938Y-112407877D01*
X159471946Y-112499810D01*
X159742919Y-112533158D01*
X159875913Y-112542988D01*
X159901715Y-112597175D01*
X159861522Y-112700263D01*
X159795987Y-112803214D01*
X159693869Y-112852704D01*
X159511273Y-112867089D01*
X159461903Y-112867368D01*
X159274802Y-112879767D01*
X159157993Y-112911368D01*
X159138421Y-112934210D01*
X159197796Y-112975730D01*
X159346450Y-112999142D01*
X159411101Y-113001053D01*
X159583119Y-113006546D01*
X159653356Y-113041676D01*
X159653705Y-113134413D01*
X159639737Y-113201579D01*
X159628871Y-113355106D01*
X159671006Y-113398044D01*
X159741098Y-113328343D01*
G37*
X159741098Y-113328343D02*
X159792466Y-113214086D01*
X159852295Y-113089847D01*
X159944947Y-113046316D01*
X160099795Y-113054294D01*
X160271747Y-113055963D01*
X160341156Y-113013626D01*
X160341579Y-113008365D01*
X160286442Y-112945013D01*
X160224606Y-112933187D01*
X160049852Y-112905935D01*
X159993823Y-112824720D01*
X160055194Y-112684195D01*
X160137354Y-112581004D01*
X160264932Y-112415538D01*
X160284803Y-112324988D01*
X160192534Y-112303256D01*
X159983691Y-112344245D01*
X159968150Y-112348354D01*
X159702200Y-112389847D01*
X159492953Y-112365808D01*
X159365716Y-112282362D01*
X159338948Y-112196019D01*
X159400725Y-112067876D01*
X159571383Y-111977081D01*
X159828911Y-111933800D01*
X159911457Y-111931579D01*
X160064352Y-111914495D01*
X160139467Y-111872587D01*
X160141053Y-111864737D01*
X160080976Y-111826425D01*
X159927534Y-111802243D01*
X159810570Y-111797895D01*
X159554235Y-111820578D01*
X159368505Y-111900146D01*
X159300689Y-111952206D01*
X159176235Y-112116899D01*
X159172010Y-112274515D01*
X159274938Y-112407877D01*
X159471946Y-112499810D01*
X159742919Y-112533158D01*
X159875913Y-112542988D01*
X159901715Y-112597175D01*
X159861522Y-112700263D01*
X159795987Y-112803214D01*
X159693869Y-112852704D01*
X159511273Y-112867089D01*
X159461903Y-112867368D01*
X159274802Y-112879767D01*
X159157993Y-112911368D01*
X159138421Y-112934210D01*
X159197796Y-112975730D01*
X159346450Y-112999142D01*
X159411101Y-113001053D01*
X159583119Y-113006546D01*
X159653356Y-113041676D01*
X159653705Y-113134413D01*
X159639737Y-113201579D01*
X159628871Y-113355106D01*
X159671006Y-113398044D01*
X159741098Y-113328343D01*
G36*
X156989434Y-113167057D02*
G01*
X156993062Y-113098482D01*
X156902287Y-113035602D01*
X156755170Y-113002131D01*
X156723019Y-113001053D01*
X156504634Y-112941519D01*
X156307009Y-112789435D01*
X156169908Y-112584578D01*
X156130527Y-112408406D01*
X156189938Y-112202260D01*
X156350985Y-112058460D01*
X156587886Y-111998902D01*
X156613294Y-111998421D01*
X156761505Y-111966528D01*
X156798948Y-111898158D01*
X156768815Y-111829943D01*
X156662633Y-111810726D01*
X156456724Y-111837213D01*
X156415937Y-111844893D01*
X156217195Y-111944245D01*
X156078788Y-112130074D01*
X156011950Y-112364515D01*
X156027918Y-112609704D01*
X156127947Y-112815486D01*
X156259052Y-112982159D01*
X155977552Y-112927675D01*
X155738965Y-112885420D01*
X155602999Y-112875471D01*
X155542172Y-112899403D01*
X155528948Y-112953389D01*
X155581077Y-113001405D01*
X155743504Y-113046099D01*
X156025282Y-113089505D01*
X156247478Y-113114946D01*
X156541447Y-113143604D01*
X156781822Y-113162791D01*
X156940380Y-113170525D01*
X156989434Y-113167057D01*
G37*
X156989434Y-113167057D02*
X156993062Y-113098482D01*
X156902287Y-113035602D01*
X156755170Y-113002131D01*
X156723019Y-113001053D01*
X156504634Y-112941519D01*
X156307009Y-112789435D01*
X156169908Y-112584578D01*
X156130527Y-112408406D01*
X156189938Y-112202260D01*
X156350985Y-112058460D01*
X156587886Y-111998902D01*
X156613294Y-111998421D01*
X156761505Y-111966528D01*
X156798948Y-111898158D01*
X156768815Y-111829943D01*
X156662633Y-111810726D01*
X156456724Y-111837213D01*
X156415937Y-111844893D01*
X156217195Y-111944245D01*
X156078788Y-112130074D01*
X156011950Y-112364515D01*
X156027918Y-112609704D01*
X156127947Y-112815486D01*
X156259052Y-112982159D01*
X155977552Y-112927675D01*
X155738965Y-112885420D01*
X155602999Y-112875471D01*
X155542172Y-112899403D01*
X155528948Y-112953389D01*
X155581077Y-113001405D01*
X155743504Y-113046099D01*
X156025282Y-113089505D01*
X156247478Y-113114946D01*
X156541447Y-113143604D01*
X156781822Y-113162791D01*
X156940380Y-113170525D01*
X156989434Y-113167057D01*
G36*
X143293138Y-113242000D02*
G01*
X143296842Y-113214084D01*
X143252633Y-113137792D01*
X143142113Y-113012947D01*
X143096316Y-112967631D01*
X142991808Y-112857201D01*
X142931691Y-112748945D01*
X142903814Y-112601599D01*
X142896026Y-112373902D01*
X142895790Y-112286705D01*
X142887302Y-112038768D01*
X142864408Y-111866504D01*
X142830961Y-111798085D01*
X142828948Y-111797895D01*
X142793344Y-111858778D01*
X142769205Y-112017828D01*
X142762106Y-112198947D01*
X142754516Y-112410390D01*
X142734789Y-112555539D01*
X142711974Y-112599559D01*
X142627650Y-112565486D01*
X142485993Y-112482418D01*
X142461316Y-112466316D01*
X142287298Y-112375089D01*
X142134463Y-112334181D01*
X142040330Y-112350808D01*
X142027001Y-112382763D01*
X142081656Y-112437467D01*
X142223820Y-112529862D01*
X142395133Y-112625167D01*
X142633853Y-112770723D01*
X142854261Y-112939407D01*
X142961090Y-113042930D01*
X143117725Y-113197693D01*
X143234341Y-113267075D01*
X143293138Y-113242000D01*
G37*
X143293138Y-113242000D02*
X143296842Y-113214084D01*
X143252633Y-113137792D01*
X143142113Y-113012947D01*
X143096316Y-112967631D01*
X142991808Y-112857201D01*
X142931691Y-112748945D01*
X142903814Y-112601599D01*
X142896026Y-112373902D01*
X142895790Y-112286705D01*
X142887302Y-112038768D01*
X142864408Y-111866504D01*
X142830961Y-111798085D01*
X142828948Y-111797895D01*
X142793344Y-111858778D01*
X142769205Y-112017828D01*
X142762106Y-112198947D01*
X142754516Y-112410390D01*
X142734789Y-112555539D01*
X142711974Y-112599559D01*
X142627650Y-112565486D01*
X142485993Y-112482418D01*
X142461316Y-112466316D01*
X142287298Y-112375089D01*
X142134463Y-112334181D01*
X142040330Y-112350808D01*
X142027001Y-112382763D01*
X142081656Y-112437467D01*
X142223820Y-112529862D01*
X142395133Y-112625167D01*
X142633853Y-112770723D01*
X142854261Y-112939407D01*
X142961090Y-113042930D01*
X143117725Y-113197693D01*
X143234341Y-113267075D01*
X143293138Y-113242000D01*
G36*
X130252344Y-113263671D02*
G01*
X130244121Y-113156904D01*
X130235579Y-113045320D01*
X130294806Y-113017549D01*
X130404932Y-113036366D01*
X130552146Y-113046823D01*
X130596842Y-113004692D01*
X130538991Y-112941337D01*
X130399554Y-112891418D01*
X130396661Y-112890832D01*
X130259255Y-112841230D01*
X130177235Y-112735230D01*
X130125533Y-112575003D01*
X130027530Y-112216946D01*
X129946889Y-111978823D01*
X129878027Y-111848866D01*
X129815359Y-111815309D01*
X129776170Y-111838743D01*
X129776261Y-111916733D01*
X129814571Y-112080833D01*
X129867110Y-112248443D01*
X129957936Y-112537031D01*
X129991815Y-112719501D01*
X129968603Y-112810751D01*
X129888154Y-112825679D01*
X129861579Y-112819894D01*
X129752051Y-112824350D01*
X129727895Y-112892994D01*
X129784463Y-112981627D01*
X129889689Y-113001053D01*
X130016446Y-113033934D01*
X130084241Y-113156085D01*
X130095655Y-113202162D01*
X130153268Y-113335826D01*
X130217071Y-113352802D01*
X130252344Y-113263671D01*
G37*
X130252344Y-113263671D02*
X130244121Y-113156904D01*
X130235579Y-113045320D01*
X130294806Y-113017549D01*
X130404932Y-113036366D01*
X130552146Y-113046823D01*
X130596842Y-113004692D01*
X130538991Y-112941337D01*
X130399554Y-112891418D01*
X130396661Y-112890832D01*
X130259255Y-112841230D01*
X130177235Y-112735230D01*
X130125533Y-112575003D01*
X130027530Y-112216946D01*
X129946889Y-111978823D01*
X129878027Y-111848866D01*
X129815359Y-111815309D01*
X129776170Y-111838743D01*
X129776261Y-111916733D01*
X129814571Y-112080833D01*
X129867110Y-112248443D01*
X129957936Y-112537031D01*
X129991815Y-112719501D01*
X129968603Y-112810751D01*
X129888154Y-112825679D01*
X129861579Y-112819894D01*
X129752051Y-112824350D01*
X129727895Y-112892994D01*
X129784463Y-112981627D01*
X129889689Y-113001053D01*
X130016446Y-113033934D01*
X130084241Y-113156085D01*
X130095655Y-113202162D01*
X130153268Y-113335826D01*
X130217071Y-113352802D01*
X130252344Y-113263671D01*
G36*
X128696591Y-113240083D02*
G01*
X128668984Y-113119896D01*
X128593496Y-112947321D01*
X128565818Y-112895851D01*
X128468433Y-112717340D01*
X128404989Y-112592850D01*
X128391053Y-112558160D01*
X128448492Y-112539428D01*
X128560256Y-112533158D01*
X128669328Y-112522589D01*
X128735873Y-112469138D01*
X128784147Y-112340186D01*
X128821217Y-112182237D01*
X128895283Y-112032842D01*
X128985796Y-111998421D01*
X129067382Y-112022104D01*
X129139421Y-112109154D01*
X129216608Y-112283576D01*
X129289347Y-112494203D01*
X129345664Y-112577447D01*
X129399310Y-112554270D01*
X129420752Y-112450376D01*
X129383654Y-112282769D01*
X129306297Y-112097146D01*
X129206961Y-111939201D01*
X129122672Y-111862787D01*
X128960555Y-111803700D01*
X128842706Y-111849946D01*
X128762475Y-111946452D01*
X128681964Y-112117463D01*
X128658421Y-112247241D01*
X128619571Y-112371340D01*
X128529588Y-112399474D01*
X128383807Y-112338428D01*
X128212895Y-112153022D01*
X128081392Y-111955531D01*
X128003223Y-111876176D01*
X127956162Y-111878563D01*
X127967399Y-111949624D01*
X128027431Y-112108813D01*
X128122087Y-112326329D01*
X128237200Y-112572372D01*
X128358600Y-112817142D01*
X128472118Y-113030838D01*
X128563586Y-113183659D01*
X128598972Y-113230544D01*
X128674019Y-113284694D01*
X128696591Y-113240083D01*
G37*
X128696591Y-113240083D02*
X128668984Y-113119896D01*
X128593496Y-112947321D01*
X128565818Y-112895851D01*
X128468433Y-112717340D01*
X128404989Y-112592850D01*
X128391053Y-112558160D01*
X128448492Y-112539428D01*
X128560256Y-112533158D01*
X128669328Y-112522589D01*
X128735873Y-112469138D01*
X128784147Y-112340186D01*
X128821217Y-112182237D01*
X128895283Y-112032842D01*
X128985796Y-111998421D01*
X129067382Y-112022104D01*
X129139421Y-112109154D01*
X129216608Y-112283576D01*
X129289347Y-112494203D01*
X129345664Y-112577447D01*
X129399310Y-112554270D01*
X129420752Y-112450376D01*
X129383654Y-112282769D01*
X129306297Y-112097146D01*
X129206961Y-111939201D01*
X129122672Y-111862787D01*
X128960555Y-111803700D01*
X128842706Y-111849946D01*
X128762475Y-111946452D01*
X128681964Y-112117463D01*
X128658421Y-112247241D01*
X128619571Y-112371340D01*
X128529588Y-112399474D01*
X128383807Y-112338428D01*
X128212895Y-112153022D01*
X128081392Y-111955531D01*
X128003223Y-111876176D01*
X127956162Y-111878563D01*
X127967399Y-111949624D01*
X128027431Y-112108813D01*
X128122087Y-112326329D01*
X128237200Y-112572372D01*
X128358600Y-112817142D01*
X128472118Y-113030838D01*
X128563586Y-113183659D01*
X128598972Y-113230544D01*
X128674019Y-113284694D01*
X128696591Y-113240083D01*
G36*
X127234827Y-113277179D02*
G01*
X127254732Y-113137232D01*
X127254737Y-113134737D01*
X127271300Y-112992704D01*
X127349426Y-112940354D01*
X127455263Y-112934210D01*
X127596059Y-112914849D01*
X127655774Y-112868200D01*
X127655790Y-112867368D01*
X127597706Y-112820436D01*
X127457758Y-112800531D01*
X127455263Y-112800526D01*
X127324523Y-112789139D01*
X127267977Y-112728899D01*
X127254861Y-112580687D01*
X127254737Y-112545538D01*
X127269493Y-112371571D01*
X127338012Y-112266587D01*
X127496671Y-112175180D01*
X127498469Y-112174322D01*
X127654581Y-112081199D01*
X127686158Y-112007551D01*
X127672750Y-111988644D01*
X127563051Y-111957226D01*
X127456061Y-111997994D01*
X127332372Y-112039587D01*
X127242612Y-111979515D01*
X127211147Y-111937345D01*
X127059569Y-111822910D01*
X126869749Y-111808838D01*
X126695661Y-111898702D01*
X126691354Y-111902932D01*
X126607128Y-112010320D01*
X126588078Y-112060614D01*
X126786842Y-112060614D01*
X126818922Y-111956750D01*
X126935889Y-111943546D01*
X126936554Y-111943640D01*
X127063889Y-112006364D01*
X127108561Y-112081974D01*
X127089695Y-112171518D01*
X126969054Y-112198880D01*
X126958849Y-112198947D01*
X126826165Y-112170233D01*
X126786907Y-112067525D01*
X126786842Y-112060614D01*
X126588078Y-112060614D01*
X126586316Y-112065263D01*
X126643227Y-112180544D01*
X126778680Y-112282098D01*
X126939752Y-112331931D01*
X126958722Y-112332631D01*
X127068676Y-112350990D01*
X127113654Y-112432086D01*
X127121053Y-112566579D01*
X127112959Y-112716367D01*
X127062981Y-112782934D01*
X126932579Y-112800003D01*
X126853684Y-112800526D01*
X126686258Y-112815351D01*
X126593134Y-112852385D01*
X126586316Y-112867368D01*
X126645615Y-112909225D01*
X126793751Y-112932506D01*
X126853684Y-112934210D01*
X127025123Y-112942129D01*
X127101335Y-112985040D01*
X127120631Y-113091678D01*
X127121053Y-113134737D01*
X127140414Y-113275533D01*
X127187063Y-113335248D01*
X127187895Y-113335263D01*
X127234827Y-113277179D01*
G37*
X127234827Y-113277179D02*
X127254732Y-113137232D01*
X127254737Y-113134737D01*
X127271300Y-112992704D01*
X127349426Y-112940354D01*
X127455263Y-112934210D01*
X127596059Y-112914849D01*
X127655774Y-112868200D01*
X127655790Y-112867368D01*
X127597706Y-112820436D01*
X127457758Y-112800531D01*
X127455263Y-112800526D01*
X127324523Y-112789139D01*
X127267977Y-112728899D01*
X127254861Y-112580687D01*
X127254737Y-112545538D01*
X127269493Y-112371571D01*
X127338012Y-112266587D01*
X127496671Y-112175180D01*
X127498469Y-112174322D01*
X127654581Y-112081199D01*
X127686158Y-112007551D01*
X127672750Y-111988644D01*
X127563051Y-111957226D01*
X127456061Y-111997994D01*
X127332372Y-112039587D01*
X127242612Y-111979515D01*
X127211147Y-111937345D01*
X127059569Y-111822910D01*
X126869749Y-111808838D01*
X126695661Y-111898702D01*
X126691354Y-111902932D01*
X126607128Y-112010320D01*
X126588078Y-112060614D01*
X126786842Y-112060614D01*
X126818922Y-111956750D01*
X126935889Y-111943546D01*
X126936554Y-111943640D01*
X127063889Y-112006364D01*
X127108561Y-112081974D01*
X127089695Y-112171518D01*
X126969054Y-112198880D01*
X126958849Y-112198947D01*
X126826165Y-112170233D01*
X126786907Y-112067525D01*
X126786842Y-112060614D01*
X126588078Y-112060614D01*
X126586316Y-112065263D01*
X126643227Y-112180544D01*
X126778680Y-112282098D01*
X126939752Y-112331931D01*
X126958722Y-112332631D01*
X127068676Y-112350990D01*
X127113654Y-112432086D01*
X127121053Y-112566579D01*
X127112959Y-112716367D01*
X127062981Y-112782934D01*
X126932579Y-112800003D01*
X126853684Y-112800526D01*
X126686258Y-112815351D01*
X126593134Y-112852385D01*
X126586316Y-112867368D01*
X126645615Y-112909225D01*
X126793751Y-112932506D01*
X126853684Y-112934210D01*
X127025123Y-112942129D01*
X127101335Y-112985040D01*
X127120631Y-113091678D01*
X127121053Y-113134737D01*
X127140414Y-113275533D01*
X127187063Y-113335248D01*
X127187895Y-113335263D01*
X127234827Y-113277179D01*
G36*
X158372406Y-113262095D02*
G01*
X158631857Y-113245321D01*
X158804490Y-113221409D01*
X158880916Y-113193668D01*
X158851744Y-113165406D01*
X158707584Y-113139931D01*
X158453290Y-113121216D01*
X158223808Y-113106070D01*
X158095507Y-113079160D01*
X158035902Y-113026706D01*
X158012505Y-112934929D01*
X158012405Y-112934210D01*
X158011824Y-112828264D01*
X158040490Y-112817471D01*
X158126866Y-112819749D01*
X158269383Y-112752650D01*
X158432812Y-112642678D01*
X158581929Y-112516332D01*
X158681506Y-112400115D01*
X158697922Y-112322882D01*
X158631169Y-112329288D01*
X158493668Y-112403891D01*
X158349061Y-112505419D01*
X158035527Y-112745117D01*
X158016004Y-112238085D01*
X157996655Y-111946052D01*
X157969202Y-111781041D01*
X157938235Y-111736993D01*
X157908342Y-111807851D01*
X157884115Y-111987556D01*
X157870142Y-112270050D01*
X157868421Y-112432895D01*
X157868421Y-113134737D01*
X157534211Y-113134737D01*
X157343563Y-113146760D01*
X157222554Y-113177501D01*
X157200000Y-113201579D01*
X157264352Y-113230535D01*
X157447738Y-113252069D01*
X157735654Y-113265019D01*
X158035527Y-113268421D01*
X158372406Y-113262095D01*
G37*
X158372406Y-113262095D02*
X158631857Y-113245321D01*
X158804490Y-113221409D01*
X158880916Y-113193668D01*
X158851744Y-113165406D01*
X158707584Y-113139931D01*
X158453290Y-113121216D01*
X158223808Y-113106070D01*
X158095507Y-113079160D01*
X158035902Y-113026706D01*
X158012505Y-112934929D01*
X158012405Y-112934210D01*
X158011824Y-112828264D01*
X158040490Y-112817471D01*
X158126866Y-112819749D01*
X158269383Y-112752650D01*
X158432812Y-112642678D01*
X158581929Y-112516332D01*
X158681506Y-112400115D01*
X158697922Y-112322882D01*
X158631169Y-112329288D01*
X158493668Y-112403891D01*
X158349061Y-112505419D01*
X158035527Y-112745117D01*
X158016004Y-112238085D01*
X157996655Y-111946052D01*
X157969202Y-111781041D01*
X157938235Y-111736993D01*
X157908342Y-111807851D01*
X157884115Y-111987556D01*
X157870142Y-112270050D01*
X157868421Y-112432895D01*
X157868421Y-113134737D01*
X157534211Y-113134737D01*
X157343563Y-113146760D01*
X157222554Y-113177501D01*
X157200000Y-113201579D01*
X157264352Y-113230535D01*
X157447738Y-113252069D01*
X157735654Y-113265019D01*
X158035527Y-113268421D01*
X158372406Y-113262095D01*
G36*
X153237132Y-113254764D02*
G01*
X153685842Y-113235000D01*
X153665555Y-112601010D01*
X153650231Y-112311080D01*
X153626085Y-112062904D01*
X153597189Y-111893196D01*
X153582124Y-111849037D01*
X153493797Y-111773071D01*
X153363177Y-111734097D01*
X153243885Y-111739099D01*
X153189541Y-111795060D01*
X153189474Y-111797895D01*
X153245131Y-111853189D01*
X153316007Y-111864737D01*
X153410507Y-111886426D01*
X153472151Y-111965734D01*
X153507211Y-112124021D01*
X153521959Y-112382645D01*
X153523684Y-112572046D01*
X153520038Y-112827733D01*
X153504510Y-112977272D01*
X153470221Y-113048108D01*
X153410288Y-113067683D01*
X153399352Y-113067895D01*
X153322887Y-113043206D01*
X153275249Y-112949445D01*
X153243188Y-112757066D01*
X153237852Y-112707784D01*
X153154226Y-112300044D01*
X152999178Y-112005295D01*
X152790609Y-111832447D01*
X152632035Y-111755263D01*
X152550126Y-111736856D01*
X152504856Y-111770773D01*
X152495665Y-111784896D01*
X152526203Y-111847310D01*
X152643539Y-111935035D01*
X152684384Y-111958293D01*
X152878048Y-112104904D01*
X153006512Y-112314677D01*
X153084989Y-112616264D01*
X153103280Y-112747274D01*
X153121749Y-112939345D01*
X153107347Y-113033655D01*
X153045079Y-113064923D01*
X152964837Y-113067895D01*
X152822353Y-113101940D01*
X152788421Y-113171212D01*
X152811271Y-113226474D01*
X152897565Y-113254465D01*
X153073918Y-113260143D01*
X153237132Y-113254764D01*
G37*
X153237132Y-113254764D02*
X153685842Y-113235000D01*
X153665555Y-112601010D01*
X153650231Y-112311080D01*
X153626085Y-112062904D01*
X153597189Y-111893196D01*
X153582124Y-111849037D01*
X153493797Y-111773071D01*
X153363177Y-111734097D01*
X153243885Y-111739099D01*
X153189541Y-111795060D01*
X153189474Y-111797895D01*
X153245131Y-111853189D01*
X153316007Y-111864737D01*
X153410507Y-111886426D01*
X153472151Y-111965734D01*
X153507211Y-112124021D01*
X153521959Y-112382645D01*
X153523684Y-112572046D01*
X153520038Y-112827733D01*
X153504510Y-112977272D01*
X153470221Y-113048108D01*
X153410288Y-113067683D01*
X153399352Y-113067895D01*
X153322887Y-113043206D01*
X153275249Y-112949445D01*
X153243188Y-112757066D01*
X153237852Y-112707784D01*
X153154226Y-112300044D01*
X152999178Y-112005295D01*
X152790609Y-111832447D01*
X152632035Y-111755263D01*
X152550126Y-111736856D01*
X152504856Y-111770773D01*
X152495665Y-111784896D01*
X152526203Y-111847310D01*
X152643539Y-111935035D01*
X152684384Y-111958293D01*
X152878048Y-112104904D01*
X153006512Y-112314677D01*
X153084989Y-112616264D01*
X153103280Y-112747274D01*
X153121749Y-112939345D01*
X153107347Y-113033655D01*
X153045079Y-113064923D01*
X152964837Y-113067895D01*
X152822353Y-113101940D01*
X152788421Y-113171212D01*
X152811271Y-113226474D01*
X152897565Y-113254465D01*
X153073918Y-113260143D01*
X153237132Y-113254764D01*
G36*
X151102767Y-113363389D02*
G01*
X151132741Y-113263642D01*
X151129343Y-113236910D01*
X151136335Y-113160394D01*
X151217732Y-113137224D01*
X151346580Y-113146870D01*
X151521473Y-113148685D01*
X151584617Y-113097302D01*
X151585263Y-113087894D01*
X151522305Y-113024850D01*
X151338635Y-113001170D01*
X151320247Y-113001053D01*
X151117949Y-112978429D01*
X151004341Y-112900273D01*
X150983684Y-112867368D01*
X150947181Y-112765772D01*
X151006916Y-112734645D01*
X151039990Y-112733684D01*
X151189058Y-112686693D01*
X151246978Y-112638331D01*
X151336836Y-112579140D01*
X151476010Y-112596395D01*
X151527595Y-112613214D01*
X151709494Y-112648285D01*
X151792999Y-112619527D01*
X151781546Y-112560298D01*
X151646594Y-112493962D01*
X151587409Y-112474856D01*
X151410350Y-112406554D01*
X151332114Y-112323574D01*
X151317895Y-112229685D01*
X151282552Y-112097298D01*
X151217632Y-112065263D01*
X151136029Y-112121223D01*
X151117369Y-112201299D01*
X151100417Y-112294611D01*
X151024980Y-112286443D01*
X150979909Y-112263769D01*
X150841794Y-112149635D01*
X150796731Y-112024269D01*
X150856971Y-111924297D01*
X150972691Y-111897588D01*
X151168225Y-111894821D01*
X151309676Y-111906384D01*
X151518728Y-111925050D01*
X151621323Y-111914253D01*
X151642185Y-111870264D01*
X151638605Y-111856789D01*
X151558364Y-111800468D01*
X151389973Y-111762289D01*
X151178086Y-111745073D01*
X150967356Y-111751646D01*
X150802436Y-111784830D01*
X150766448Y-111801640D01*
X150657446Y-111927984D01*
X150658604Y-112087803D01*
X150763139Y-112249792D01*
X150883421Y-112341488D01*
X151030531Y-112441773D01*
X151111763Y-112523357D01*
X151117369Y-112539760D01*
X151067983Y-112595787D01*
X150943112Y-112582715D01*
X150777684Y-112506810D01*
X150719089Y-112468291D01*
X150565511Y-112379668D01*
X150498844Y-112385255D01*
X150523230Y-112474283D01*
X150642809Y-112635983D01*
X150650995Y-112645366D01*
X150792943Y-112819453D01*
X150839815Y-112919753D01*
X150794226Y-112963742D01*
X150699606Y-112970266D01*
X150553492Y-112993470D01*
X150522974Y-113048714D01*
X150606462Y-113103707D01*
X150707117Y-113122821D01*
X150890208Y-113172936D01*
X150966286Y-113275950D01*
X151029305Y-113371796D01*
X151102767Y-113363389D01*
G37*
X151102767Y-113363389D02*
X151132741Y-113263642D01*
X151129343Y-113236910D01*
X151136335Y-113160394D01*
X151217732Y-113137224D01*
X151346580Y-113146870D01*
X151521473Y-113148685D01*
X151584617Y-113097302D01*
X151585263Y-113087894D01*
X151522305Y-113024850D01*
X151338635Y-113001170D01*
X151320247Y-113001053D01*
X151117949Y-112978429D01*
X151004341Y-112900273D01*
X150983684Y-112867368D01*
X150947181Y-112765772D01*
X151006916Y-112734645D01*
X151039990Y-112733684D01*
X151189058Y-112686693D01*
X151246978Y-112638331D01*
X151336836Y-112579140D01*
X151476010Y-112596395D01*
X151527595Y-112613214D01*
X151709494Y-112648285D01*
X151792999Y-112619527D01*
X151781546Y-112560298D01*
X151646594Y-112493962D01*
X151587409Y-112474856D01*
X151410350Y-112406554D01*
X151332114Y-112323574D01*
X151317895Y-112229685D01*
X151282552Y-112097298D01*
X151217632Y-112065263D01*
X151136029Y-112121223D01*
X151117369Y-112201299D01*
X151100417Y-112294611D01*
X151024980Y-112286443D01*
X150979909Y-112263769D01*
X150841794Y-112149635D01*
X150796731Y-112024269D01*
X150856971Y-111924297D01*
X150972691Y-111897588D01*
X151168225Y-111894821D01*
X151309676Y-111906384D01*
X151518728Y-111925050D01*
X151621323Y-111914253D01*
X151642185Y-111870264D01*
X151638605Y-111856789D01*
X151558364Y-111800468D01*
X151389973Y-111762289D01*
X151178086Y-111745073D01*
X150967356Y-111751646D01*
X150802436Y-111784830D01*
X150766448Y-111801640D01*
X150657446Y-111927984D01*
X150658604Y-112087803D01*
X150763139Y-112249792D01*
X150883421Y-112341488D01*
X151030531Y-112441773D01*
X151111763Y-112523357D01*
X151117369Y-112539760D01*
X151067983Y-112595787D01*
X150943112Y-112582715D01*
X150777684Y-112506810D01*
X150719089Y-112468291D01*
X150565511Y-112379668D01*
X150498844Y-112385255D01*
X150523230Y-112474283D01*
X150642809Y-112635983D01*
X150650995Y-112645366D01*
X150792943Y-112819453D01*
X150839815Y-112919753D01*
X150794226Y-112963742D01*
X150699606Y-112970266D01*
X150553492Y-112993470D01*
X150522974Y-113048714D01*
X150606462Y-113103707D01*
X150707117Y-113122821D01*
X150890208Y-113172936D01*
X150966286Y-113275950D01*
X151029305Y-113371796D01*
X151102767Y-113363389D01*
G36*
X149914211Y-112608405D02*
G01*
X149680263Y-112646369D01*
X149523537Y-112661776D01*
X149458270Y-112626867D01*
X149446316Y-112541904D01*
X149463533Y-112453341D01*
X149538360Y-112411412D01*
X149705559Y-112399656D01*
X149747106Y-112399474D01*
X149926489Y-112386197D01*
X150034093Y-112352607D01*
X150047895Y-112332631D01*
X149988099Y-112293012D01*
X149836580Y-112269046D01*
X149742666Y-112265789D01*
X149556723Y-112260527D01*
X149471050Y-112230343D01*
X149452277Y-112153645D01*
X149458587Y-112081974D01*
X149481769Y-111973955D01*
X149542951Y-111916132D01*
X149677781Y-111888956D01*
X149830658Y-111877954D01*
X150026782Y-111854433D01*
X150154149Y-111815690D01*
X150181579Y-111786615D01*
X150123151Y-111740050D01*
X149971755Y-111724987D01*
X149763221Y-111737117D01*
X149533381Y-111772133D01*
X149318065Y-111825729D01*
X149153104Y-111893596D01*
X149121530Y-111914042D01*
X148927550Y-112057458D01*
X148774229Y-111894255D01*
X148630964Y-111766244D01*
X148538130Y-111734021D01*
X148510527Y-111787535D01*
X148555188Y-111870322D01*
X148641694Y-111962723D01*
X148754425Y-112109895D01*
X148845384Y-112301269D01*
X148847405Y-112307293D01*
X148913407Y-112456777D01*
X148978964Y-112531278D01*
X148988109Y-112533158D01*
X149023288Y-112480752D01*
X149010322Y-112394683D01*
X149018977Y-112254365D01*
X149096145Y-112107228D01*
X149206394Y-112010384D01*
X149256149Y-111998421D01*
X149288018Y-112058641D01*
X149308500Y-112212992D01*
X149312632Y-112341433D01*
X149312632Y-112684444D01*
X149045263Y-112648582D01*
X148777895Y-112612721D01*
X148777895Y-112964442D01*
X148911579Y-112964442D01*
X148918283Y-112871955D01*
X148958909Y-112822945D01*
X149064230Y-112806335D01*
X149265018Y-112811046D01*
X149329342Y-112814047D01*
X149560109Y-112829932D01*
X149689219Y-112858023D01*
X149748703Y-112910741D01*
X149768465Y-112984342D01*
X149771218Y-113064845D01*
X149731680Y-113109916D01*
X149621454Y-113129780D01*
X149412143Y-113134659D01*
X149350702Y-113134737D01*
X149115657Y-113131972D01*
X148984222Y-113115903D01*
X148926331Y-113074873D01*
X148911919Y-112997220D01*
X148911579Y-112964442D01*
X148777895Y-112964442D01*
X148777895Y-113335263D01*
X149914211Y-113335263D01*
X149914211Y-112608405D01*
G37*
X149914211Y-112608405D02*
X149680263Y-112646369D01*
X149523537Y-112661776D01*
X149458270Y-112626867D01*
X149446316Y-112541904D01*
X149463533Y-112453341D01*
X149538360Y-112411412D01*
X149705559Y-112399656D01*
X149747106Y-112399474D01*
X149926489Y-112386197D01*
X150034093Y-112352607D01*
X150047895Y-112332631D01*
X149988099Y-112293012D01*
X149836580Y-112269046D01*
X149742666Y-112265789D01*
X149556723Y-112260527D01*
X149471050Y-112230343D01*
X149452277Y-112153645D01*
X149458587Y-112081974D01*
X149481769Y-111973955D01*
X149542951Y-111916132D01*
X149677781Y-111888956D01*
X149830658Y-111877954D01*
X150026782Y-111854433D01*
X150154149Y-111815690D01*
X150181579Y-111786615D01*
X150123151Y-111740050D01*
X149971755Y-111724987D01*
X149763221Y-111737117D01*
X149533381Y-111772133D01*
X149318065Y-111825729D01*
X149153104Y-111893596D01*
X149121530Y-111914042D01*
X148927550Y-112057458D01*
X148774229Y-111894255D01*
X148630964Y-111766244D01*
X148538130Y-111734021D01*
X148510527Y-111787535D01*
X148555188Y-111870322D01*
X148641694Y-111962723D01*
X148754425Y-112109895D01*
X148845384Y-112301269D01*
X148847405Y-112307293D01*
X148913407Y-112456777D01*
X148978964Y-112531278D01*
X148988109Y-112533158D01*
X149023288Y-112480752D01*
X149010322Y-112394683D01*
X149018977Y-112254365D01*
X149096145Y-112107228D01*
X149206394Y-112010384D01*
X149256149Y-111998421D01*
X149288018Y-112058641D01*
X149308500Y-112212992D01*
X149312632Y-112341433D01*
X149312632Y-112684444D01*
X149045263Y-112648582D01*
X148777895Y-112612721D01*
X148777895Y-112964442D01*
X148911579Y-112964442D01*
X148918283Y-112871955D01*
X148958909Y-112822945D01*
X149064230Y-112806335D01*
X149265018Y-112811046D01*
X149329342Y-112814047D01*
X149560109Y-112829932D01*
X149689219Y-112858023D01*
X149748703Y-112910741D01*
X149768465Y-112984342D01*
X149771218Y-113064845D01*
X149731680Y-113109916D01*
X149621454Y-113129780D01*
X149412143Y-113134659D01*
X149350702Y-113134737D01*
X149115657Y-113131972D01*
X148984222Y-113115903D01*
X148926331Y-113074873D01*
X148911919Y-112997220D01*
X148911579Y-112964442D01*
X148777895Y-112964442D01*
X148777895Y-113335263D01*
X149914211Y-113335263D01*
X149914211Y-112608405D01*
G36*
X146249310Y-113183672D02*
G01*
X146254606Y-113168158D01*
X146209893Y-113113435D01*
X146087500Y-113080165D01*
X145954160Y-113041787D01*
X145907111Y-112939496D01*
X145903684Y-112862929D01*
X145912795Y-112742323D01*
X145964291Y-112685197D01*
X146094421Y-112667921D01*
X146204474Y-112666842D01*
X146383858Y-112653566D01*
X146491462Y-112619976D01*
X146505263Y-112600000D01*
X146445521Y-112560137D01*
X146294365Y-112536225D01*
X146204474Y-112533158D01*
X146018896Y-112526271D01*
X145930972Y-112492258D01*
X145904858Y-112411089D01*
X145903684Y-112365071D01*
X145867953Y-112234199D01*
X145778134Y-112078701D01*
X145660296Y-111929040D01*
X145540504Y-111815681D01*
X145444823Y-111769090D01*
X145409092Y-111787016D01*
X145420947Y-111880724D01*
X145518668Y-112004945D01*
X145529667Y-112015009D01*
X145662806Y-112177653D01*
X145741309Y-112349342D01*
X145760384Y-112453669D01*
X145735219Y-112508426D01*
X145636976Y-112529595D01*
X145436819Y-112533155D01*
X145409615Y-112533158D01*
X145170110Y-112547234D01*
X145054605Y-112581412D01*
X145065068Y-112623613D01*
X145203470Y-112661758D01*
X145385658Y-112680059D01*
X145594257Y-112699377D01*
X145704013Y-112736920D01*
X145749747Y-112808646D01*
X145757939Y-112850658D01*
X145758093Y-112942805D01*
X145702196Y-112986968D01*
X145557640Y-113000409D01*
X145473860Y-113001053D01*
X145264368Y-113009629D01*
X145174703Y-113032655D01*
X145192293Y-113066080D01*
X145304567Y-113105850D01*
X145498954Y-113147912D01*
X145762882Y-113188215D01*
X146083780Y-113222705D01*
X146187763Y-113231197D01*
X146249310Y-113183672D01*
G37*
X146249310Y-113183672D02*
X146254606Y-113168158D01*
X146209893Y-113113435D01*
X146087500Y-113080165D01*
X145954160Y-113041787D01*
X145907111Y-112939496D01*
X145903684Y-112862929D01*
X145912795Y-112742323D01*
X145964291Y-112685197D01*
X146094421Y-112667921D01*
X146204474Y-112666842D01*
X146383858Y-112653566D01*
X146491462Y-112619976D01*
X146505263Y-112600000D01*
X146445521Y-112560137D01*
X146294365Y-112536225D01*
X146204474Y-112533158D01*
X146018896Y-112526271D01*
X145930972Y-112492258D01*
X145904858Y-112411089D01*
X145903684Y-112365071D01*
X145867953Y-112234199D01*
X145778134Y-112078701D01*
X145660296Y-111929040D01*
X145540504Y-111815681D01*
X145444823Y-111769090D01*
X145409092Y-111787016D01*
X145420947Y-111880724D01*
X145518668Y-112004945D01*
X145529667Y-112015009D01*
X145662806Y-112177653D01*
X145741309Y-112349342D01*
X145760384Y-112453669D01*
X145735219Y-112508426D01*
X145636976Y-112529595D01*
X145436819Y-112533155D01*
X145409615Y-112533158D01*
X145170110Y-112547234D01*
X145054605Y-112581412D01*
X145065068Y-112623613D01*
X145203470Y-112661758D01*
X145385658Y-112680059D01*
X145594257Y-112699377D01*
X145704013Y-112736920D01*
X145749747Y-112808646D01*
X145757939Y-112850658D01*
X145758093Y-112942805D01*
X145702196Y-112986968D01*
X145557640Y-113000409D01*
X145473860Y-113001053D01*
X145264368Y-113009629D01*
X145174703Y-113032655D01*
X145192293Y-113066080D01*
X145304567Y-113105850D01*
X145498954Y-113147912D01*
X145762882Y-113188215D01*
X146083780Y-113222705D01*
X146187763Y-113231197D01*
X146249310Y-113183672D01*
G36*
X144742720Y-112823746D02*
G01*
X144743885Y-112704931D01*
X144702372Y-112529883D01*
X144624468Y-112331350D01*
X144573316Y-112232595D01*
X144432062Y-112046243D01*
X144251446Y-111889542D01*
X144063810Y-111781856D01*
X143901497Y-111742552D01*
X143809595Y-111775318D01*
X143836375Y-111826014D01*
X143955599Y-111902193D01*
X144027191Y-111936822D01*
X144314458Y-112131871D01*
X144500339Y-112413962D01*
X144560634Y-112613387D01*
X144615883Y-112768461D01*
X144689959Y-112852622D01*
X144692585Y-112853581D01*
X144742720Y-112823746D01*
G37*
X144742720Y-112823746D02*
X144743885Y-112704931D01*
X144702372Y-112529883D01*
X144624468Y-112331350D01*
X144573316Y-112232595D01*
X144432062Y-112046243D01*
X144251446Y-111889542D01*
X144063810Y-111781856D01*
X143901497Y-111742552D01*
X143809595Y-111775318D01*
X143836375Y-111826014D01*
X143955599Y-111902193D01*
X144027191Y-111936822D01*
X144314458Y-112131871D01*
X144500339Y-112413962D01*
X144560634Y-112613387D01*
X144615883Y-112768461D01*
X144689959Y-112852622D01*
X144692585Y-112853581D01*
X144742720Y-112823746D01*
G36*
X134386179Y-113275478D02*
G01*
X134406842Y-113134737D01*
X134425069Y-112991181D01*
X134501488Y-112938765D01*
X134570003Y-112934210D01*
X134719023Y-112910618D01*
X134769902Y-112858748D01*
X134711788Y-112806965D01*
X134625795Y-112788365D01*
X134517694Y-112763705D01*
X134454131Y-112698399D01*
X134413954Y-112557918D01*
X134389255Y-112402225D01*
X134328895Y-112123366D01*
X134241884Y-111900476D01*
X134141794Y-111762186D01*
X134071091Y-111731053D01*
X134009270Y-111770037D01*
X134008158Y-111781184D01*
X134040128Y-111870607D01*
X134106053Y-111998421D01*
X134168375Y-112174236D01*
X134202140Y-112398652D01*
X134203947Y-112449605D01*
X134206316Y-112733684D01*
X133938948Y-112733684D01*
X133771521Y-112748509D01*
X133678397Y-112785543D01*
X133671579Y-112800526D01*
X133730878Y-112842383D01*
X133879014Y-112865664D01*
X133938948Y-112867368D01*
X134110134Y-112874451D01*
X134186210Y-112918181D01*
X134205718Y-113032283D01*
X134206316Y-113101316D01*
X134228058Y-113274347D01*
X134297448Y-113334840D01*
X134306579Y-113335263D01*
X134386179Y-113275478D01*
G37*
X134386179Y-113275478D02*
X134406842Y-113134737D01*
X134425069Y-112991181D01*
X134501488Y-112938765D01*
X134570003Y-112934210D01*
X134719023Y-112910618D01*
X134769902Y-112858748D01*
X134711788Y-112806965D01*
X134625795Y-112788365D01*
X134517694Y-112763705D01*
X134454131Y-112698399D01*
X134413954Y-112557918D01*
X134389255Y-112402225D01*
X134328895Y-112123366D01*
X134241884Y-111900476D01*
X134141794Y-111762186D01*
X134071091Y-111731053D01*
X134009270Y-111770037D01*
X134008158Y-111781184D01*
X134040128Y-111870607D01*
X134106053Y-111998421D01*
X134168375Y-112174236D01*
X134202140Y-112398652D01*
X134203947Y-112449605D01*
X134206316Y-112733684D01*
X133938948Y-112733684D01*
X133771521Y-112748509D01*
X133678397Y-112785543D01*
X133671579Y-112800526D01*
X133730878Y-112842383D01*
X133879014Y-112865664D01*
X133938948Y-112867368D01*
X134110134Y-112874451D01*
X134186210Y-112918181D01*
X134205718Y-113032283D01*
X134206316Y-113101316D01*
X134228058Y-113274347D01*
X134297448Y-113334840D01*
X134306579Y-113335263D01*
X134386179Y-113275478D01*
G36*
X162573054Y-112052881D02*
G01*
X162657939Y-111942096D01*
X162643403Y-111806268D01*
X162618861Y-111770076D01*
X162491835Y-111681400D01*
X162413684Y-111664210D01*
X162275402Y-111712427D01*
X162208508Y-111770076D01*
X162162480Y-111905800D01*
X162162756Y-111906358D01*
X162295559Y-111906358D01*
X162324936Y-111789200D01*
X162408472Y-111731208D01*
X162413684Y-111731053D01*
X162496220Y-111784700D01*
X162524921Y-111835809D01*
X162527743Y-111959366D01*
X162461268Y-112039519D01*
X162365492Y-112037656D01*
X162337967Y-112016282D01*
X162295559Y-111906358D01*
X162162756Y-111906358D01*
X162222685Y-112027389D01*
X162364186Y-112094906D01*
X162413684Y-112098684D01*
X162573054Y-112052881D01*
G37*
X162573054Y-112052881D02*
X162657939Y-111942096D01*
X162643403Y-111806268D01*
X162618861Y-111770076D01*
X162491835Y-111681400D01*
X162413684Y-111664210D01*
X162275402Y-111712427D01*
X162208508Y-111770076D01*
X162162480Y-111905800D01*
X162162756Y-111906358D01*
X162295559Y-111906358D01*
X162324936Y-111789200D01*
X162408472Y-111731208D01*
X162413684Y-111731053D01*
X162496220Y-111784700D01*
X162524921Y-111835809D01*
X162527743Y-111959366D01*
X162461268Y-112039519D01*
X162365492Y-112037656D01*
X162337967Y-112016282D01*
X162295559Y-111906358D01*
X162162756Y-111906358D01*
X162222685Y-112027389D01*
X162364186Y-112094906D01*
X162413684Y-112098684D01*
X162573054Y-112052881D01*
G36*
X138253272Y-112869446D02*
G01*
X138270832Y-112681643D01*
X138271240Y-112380539D01*
X138269482Y-112316685D01*
X138256387Y-112018307D01*
X138236285Y-111829298D01*
X138204232Y-111725358D01*
X138155283Y-111682188D01*
X138139522Y-111677984D01*
X138020460Y-111695892D01*
X137984891Y-111727824D01*
X137997266Y-111807294D01*
X138045500Y-111838939D01*
X138100388Y-111888797D01*
X138132854Y-112003576D01*
X138147635Y-112208993D01*
X138150000Y-112406625D01*
X138158325Y-112681185D01*
X138181541Y-112863661D01*
X138217012Y-112933994D01*
X138219351Y-112934210D01*
X138253272Y-112869446D01*
G37*
X138253272Y-112869446D02*
X138270832Y-112681643D01*
X138271240Y-112380539D01*
X138269482Y-112316685D01*
X138256387Y-112018307D01*
X138236285Y-111829298D01*
X138204232Y-111725358D01*
X138155283Y-111682188D01*
X138139522Y-111677984D01*
X138020460Y-111695892D01*
X137984891Y-111727824D01*
X137997266Y-111807294D01*
X138045500Y-111838939D01*
X138100388Y-111888797D01*
X138132854Y-112003576D01*
X138147635Y-112208993D01*
X138150000Y-112406625D01*
X138158325Y-112681185D01*
X138181541Y-112863661D01*
X138217012Y-112933994D01*
X138219351Y-112934210D01*
X138253272Y-112869446D01*
G36*
X137481579Y-112297113D02*
G01*
X137476520Y-112005428D01*
X137458558Y-111822430D01*
X137423511Y-111723405D01*
X137378433Y-111687276D01*
X137259707Y-111676460D01*
X137223638Y-111737815D01*
X137268798Y-111812377D01*
X137348845Y-111951854D01*
X137324383Y-112071443D01*
X137206498Y-112130869D01*
X137180790Y-112132105D01*
X137060520Y-112109927D01*
X137017234Y-112016375D01*
X137013684Y-111935524D01*
X136993080Y-111781159D01*
X136946842Y-111697631D01*
X136912607Y-111738259D01*
X136890101Y-111903592D01*
X136880338Y-112185081D01*
X136880000Y-112261845D01*
X136880000Y-112332631D01*
X137013684Y-112332631D01*
X137070887Y-112282385D01*
X137180790Y-112265789D01*
X137306407Y-112288670D01*
X137347895Y-112332631D01*
X137290693Y-112382878D01*
X137180790Y-112399474D01*
X137055173Y-112376593D01*
X137013684Y-112332631D01*
X136880000Y-112332631D01*
X136880000Y-112666842D01*
X137013684Y-112666842D01*
X137070887Y-112616595D01*
X137180790Y-112600000D01*
X137306407Y-112622881D01*
X137347895Y-112666842D01*
X137290693Y-112717089D01*
X137180790Y-112733684D01*
X137055173Y-112710803D01*
X137013684Y-112666842D01*
X136880000Y-112666842D01*
X136880000Y-112867368D01*
X137481579Y-112867368D01*
X137481579Y-112297113D01*
G37*
X137481579Y-112297113D02*
X137476520Y-112005428D01*
X137458558Y-111822430D01*
X137423511Y-111723405D01*
X137378433Y-111687276D01*
X137259707Y-111676460D01*
X137223638Y-111737815D01*
X137268798Y-111812377D01*
X137348845Y-111951854D01*
X137324383Y-112071443D01*
X137206498Y-112130869D01*
X137180790Y-112132105D01*
X137060520Y-112109927D01*
X137017234Y-112016375D01*
X137013684Y-111935524D01*
X136993080Y-111781159D01*
X136946842Y-111697631D01*
X136912607Y-111738259D01*
X136890101Y-111903592D01*
X136880338Y-112185081D01*
X136880000Y-112261845D01*
X136880000Y-112332631D01*
X137013684Y-112332631D01*
X137070887Y-112282385D01*
X137180790Y-112265789D01*
X137306407Y-112288670D01*
X137347895Y-112332631D01*
X137290693Y-112382878D01*
X137180790Y-112399474D01*
X137055173Y-112376593D01*
X137013684Y-112332631D01*
X136880000Y-112332631D01*
X136880000Y-112666842D01*
X137013684Y-112666842D01*
X137070887Y-112616595D01*
X137180790Y-112600000D01*
X137306407Y-112622881D01*
X137347895Y-112666842D01*
X137290693Y-112717089D01*
X137180790Y-112733684D01*
X137055173Y-112710803D01*
X137013684Y-112666842D01*
X136880000Y-112666842D01*
X136880000Y-112867368D01*
X137481579Y-112867368D01*
X137481579Y-112297113D01*
G36*
X132713128Y-113343346D02*
G01*
X132735212Y-113198860D01*
X132735790Y-113168158D01*
X132746968Y-113010978D01*
X132803668Y-112946509D01*
X132936316Y-112934210D01*
X133092386Y-112910527D01*
X133130059Y-112858376D01*
X133046088Y-112806103D01*
X132953027Y-112788256D01*
X132861511Y-112771858D01*
X132804678Y-112729685D01*
X132771461Y-112633417D01*
X132750792Y-112454737D01*
X132735790Y-112232368D01*
X132716048Y-111965238D01*
X132691775Y-111803561D01*
X132653669Y-111719192D01*
X132592424Y-111683987D01*
X132551974Y-111676272D01*
X132428039Y-111693502D01*
X132401579Y-111759825D01*
X132453059Y-111851393D01*
X132501842Y-111864737D01*
X132556317Y-111892253D01*
X132587495Y-111991195D01*
X132600644Y-112186148D01*
X132602106Y-112332631D01*
X132602106Y-112800526D01*
X132267895Y-112800526D01*
X132077247Y-112812549D01*
X131956238Y-112843291D01*
X131933684Y-112867368D01*
X131993800Y-112905498D01*
X132147507Y-112929700D01*
X132267895Y-112934210D01*
X132602106Y-112934210D01*
X132602106Y-113168158D01*
X132618894Y-113322790D01*
X132660175Y-113400085D01*
X132668948Y-113402105D01*
X132713128Y-113343346D01*
G37*
X132713128Y-113343346D02*
X132735212Y-113198860D01*
X132735790Y-113168158D01*
X132746968Y-113010978D01*
X132803668Y-112946509D01*
X132936316Y-112934210D01*
X133092386Y-112910527D01*
X133130059Y-112858376D01*
X133046088Y-112806103D01*
X132953027Y-112788256D01*
X132861511Y-112771858D01*
X132804678Y-112729685D01*
X132771461Y-112633417D01*
X132750792Y-112454737D01*
X132735790Y-112232368D01*
X132716048Y-111965238D01*
X132691775Y-111803561D01*
X132653669Y-111719192D01*
X132592424Y-111683987D01*
X132551974Y-111676272D01*
X132428039Y-111693502D01*
X132401579Y-111759825D01*
X132453059Y-111851393D01*
X132501842Y-111864737D01*
X132556317Y-111892253D01*
X132587495Y-111991195D01*
X132600644Y-112186148D01*
X132602106Y-112332631D01*
X132602106Y-112800526D01*
X132267895Y-112800526D01*
X132077247Y-112812549D01*
X131956238Y-112843291D01*
X131933684Y-112867368D01*
X131993800Y-112905498D01*
X132147507Y-112929700D01*
X132267895Y-112934210D01*
X132602106Y-112934210D01*
X132602106Y-113168158D01*
X132618894Y-113322790D01*
X132660175Y-113400085D01*
X132668948Y-113402105D01*
X132713128Y-113343346D01*
G36*
X131981355Y-113355249D02*
G01*
X131959328Y-113285131D01*
X131934061Y-113171742D01*
X131910000Y-112958774D01*
X131890402Y-112680318D01*
X131881134Y-112466316D01*
X131863464Y-112096152D01*
X131837054Y-111849139D01*
X131799592Y-111714898D01*
X131748763Y-111683050D01*
X131711991Y-111707658D01*
X131688414Y-111793587D01*
X131671918Y-111972814D01*
X131666316Y-112184851D01*
X131662759Y-112414153D01*
X131647689Y-112532333D01*
X131614509Y-112561861D01*
X131564438Y-112531817D01*
X131456529Y-112477523D01*
X131415476Y-112517888D01*
X131461182Y-112622404D01*
X131485927Y-112652164D01*
X131576650Y-112783484D01*
X131683863Y-112980819D01*
X131733733Y-113087047D01*
X131825449Y-113265883D01*
X131908219Y-113380043D01*
X131943964Y-113402105D01*
X131981355Y-113355249D01*
G37*
X131981355Y-113355249D02*
X131959328Y-113285131D01*
X131934061Y-113171742D01*
X131910000Y-112958774D01*
X131890402Y-112680318D01*
X131881134Y-112466316D01*
X131863464Y-112096152D01*
X131837054Y-111849139D01*
X131799592Y-111714898D01*
X131748763Y-111683050D01*
X131711991Y-111707658D01*
X131688414Y-111793587D01*
X131671918Y-111972814D01*
X131666316Y-112184851D01*
X131662759Y-112414153D01*
X131647689Y-112532333D01*
X131614509Y-112561861D01*
X131564438Y-112531817D01*
X131456529Y-112477523D01*
X131415476Y-112517888D01*
X131461182Y-112622404D01*
X131485927Y-112652164D01*
X131576650Y-112783484D01*
X131683863Y-112980819D01*
X131733733Y-113087047D01*
X131825449Y-113265883D01*
X131908219Y-113380043D01*
X131943964Y-113402105D01*
X131981355Y-113355249D01*
D11*
%TO.C,R2*%
X159790000Y-88641422D02*
X159790000Y-89158578D01*
X161210000Y-88641422D02*
X161210000Y-89158578D01*
%TO.C,R1*%
X158710000Y-88741422D02*
X158710000Y-89258578D01*
X157290000Y-88741422D02*
X157290000Y-89258578D01*
%TO.C,PJ320D*%
X166375000Y-92200000D02*
X166375000Y-86000000D01*
X178475000Y-86000000D02*
X175975000Y-86000000D01*
X174575000Y-86000000D02*
X172975000Y-86000000D01*
X171575000Y-86000000D02*
X168975000Y-86000000D01*
X167575000Y-86000000D02*
X166375000Y-86000000D01*
X166475000Y-92200000D02*
X166375000Y-92200000D01*
X167875000Y-92200000D02*
X178475000Y-92200000D01*
%TO.C,F1*%
D10*
X163728571Y-89066666D02*
X163728571Y-88733333D01*
X164252380Y-88733333D02*
X163252380Y-88733333D01*
X163252380Y-89209523D01*
X164252380Y-90114285D02*
X164252380Y-89542857D01*
X164252380Y-89828571D02*
X163252380Y-89828571D01*
X163395238Y-89733333D01*
X163490476Y-89638095D01*
X163538095Y-89542857D01*
%TO.C,R4*%
X162512380Y-98183333D02*
X162036190Y-97850000D01*
X162512380Y-97611904D02*
X161512380Y-97611904D01*
X161512380Y-97992857D01*
X161560000Y-98088095D01*
X161607619Y-98135714D01*
X161702857Y-98183333D01*
X161845714Y-98183333D01*
X161940952Y-98135714D01*
X161988571Y-98088095D01*
X162036190Y-97992857D01*
X162036190Y-97611904D01*
X161845714Y-99040476D02*
X162512380Y-99040476D01*
X161464761Y-98802380D02*
X162179047Y-98564285D01*
X162179047Y-99183333D01*
%TO.C,R3*%
X160012380Y-98183333D02*
X159536190Y-97850000D01*
X160012380Y-97611904D02*
X159012380Y-97611904D01*
X159012380Y-97992857D01*
X159060000Y-98088095D01*
X159107619Y-98135714D01*
X159202857Y-98183333D01*
X159345714Y-98183333D01*
X159440952Y-98135714D01*
X159488571Y-98088095D01*
X159536190Y-97992857D01*
X159536190Y-97611904D01*
X159012380Y-98516666D02*
X159012380Y-99135714D01*
X159393333Y-98802380D01*
X159393333Y-98945238D01*
X159440952Y-99040476D01*
X159488571Y-99088095D01*
X159583809Y-99135714D01*
X159821904Y-99135714D01*
X159917142Y-99088095D01*
X159964761Y-99040476D01*
X160012380Y-98945238D01*
X160012380Y-98659523D01*
X159964761Y-98564285D01*
X159917142Y-98516666D01*
%TO.C,R2*%
X161052380Y-91533333D02*
X160576190Y-91200000D01*
X161052380Y-90961904D02*
X160052380Y-90961904D01*
X160052380Y-91342857D01*
X160100000Y-91438095D01*
X160147619Y-91485714D01*
X160242857Y-91533333D01*
X160385714Y-91533333D01*
X160480952Y-91485714D01*
X160528571Y-91438095D01*
X160576190Y-91342857D01*
X160576190Y-90961904D01*
X160147619Y-91914285D02*
X160100000Y-91961904D01*
X160052380Y-92057142D01*
X160052380Y-92295238D01*
X160100000Y-92390476D01*
X160147619Y-92438095D01*
X160242857Y-92485714D01*
X160338095Y-92485714D01*
X160480952Y-92438095D01*
X161052380Y-91866666D01*
X161052380Y-92485714D01*
%TO.C,R1*%
X158452380Y-91633333D02*
X157976190Y-91300000D01*
X158452380Y-91061904D02*
X157452380Y-91061904D01*
X157452380Y-91442857D01*
X157500000Y-91538095D01*
X157547619Y-91585714D01*
X157642857Y-91633333D01*
X157785714Y-91633333D01*
X157880952Y-91585714D01*
X157928571Y-91538095D01*
X157976190Y-91442857D01*
X157976190Y-91061904D01*
X158452380Y-92585714D02*
X158452380Y-92014285D01*
X158452380Y-92300000D02*
X157452380Y-92300000D01*
X157595238Y-92204761D01*
X157690476Y-92109523D01*
X157738095Y-92014285D01*
%TO.C,PJ320D*%
X175871428Y-88652380D02*
X175871428Y-87652380D01*
X175490476Y-87652380D01*
X175395238Y-87700000D01*
X175347619Y-87747619D01*
X175300000Y-87842857D01*
X175300000Y-87985714D01*
X175347619Y-88080952D01*
X175395238Y-88128571D01*
X175490476Y-88176190D01*
X175871428Y-88176190D01*
X174585714Y-87652380D02*
X174585714Y-88366666D01*
X174633333Y-88509523D01*
X174728571Y-88604761D01*
X174871428Y-88652380D01*
X174966666Y-88652380D01*
X174204761Y-87652380D02*
X173585714Y-87652380D01*
X173919047Y-88033333D01*
X173776190Y-88033333D01*
X173680952Y-88080952D01*
X173633333Y-88128571D01*
X173585714Y-88223809D01*
X173585714Y-88461904D01*
X173633333Y-88557142D01*
X173680952Y-88604761D01*
X173776190Y-88652380D01*
X174061904Y-88652380D01*
X174157142Y-88604761D01*
X174204761Y-88557142D01*
X173204761Y-87747619D02*
X173157142Y-87700000D01*
X173061904Y-87652380D01*
X172823809Y-87652380D01*
X172728571Y-87700000D01*
X172680952Y-87747619D01*
X172633333Y-87842857D01*
X172633333Y-87938095D01*
X172680952Y-88080952D01*
X173252380Y-88652380D01*
X172633333Y-88652380D01*
X172014285Y-87652380D02*
X171919047Y-87652380D01*
X171823809Y-87700000D01*
X171776190Y-87747619D01*
X171728571Y-87842857D01*
X171680952Y-88033333D01*
X171680952Y-88271428D01*
X171728571Y-88461904D01*
X171776190Y-88557142D01*
X171823809Y-88604761D01*
X171919047Y-88652380D01*
X172014285Y-88652380D01*
X172109523Y-88604761D01*
X172157142Y-88557142D01*
X172204761Y-88461904D01*
X172252380Y-88271428D01*
X172252380Y-88033333D01*
X172204761Y-87842857D01*
X172157142Y-87747619D01*
X172109523Y-87700000D01*
X172014285Y-87652380D01*
X171252380Y-88652380D02*
X171252380Y-87652380D01*
X171014285Y-87652380D01*
X170871428Y-87700000D01*
X170776190Y-87795238D01*
X170728571Y-87890476D01*
X170680952Y-88080952D01*
X170680952Y-88223809D01*
X170728571Y-88414285D01*
X170776190Y-88509523D01*
X170871428Y-88604761D01*
X171014285Y-88652380D01*
X171252380Y-88652380D01*
%TD*%
M02*
