%TF.GenerationSoftware,KiCad,Pcbnew,(5.1.6)-1*%
%TF.CreationDate,2022-07-31T05:20:52+09:00*%
%TF.ProjectId,az-core-top,617a2d63-6f72-4652-9d74-6f702e6b6963,rev?*%
%TF.SameCoordinates,Original*%
%TF.FileFunction,Paste,Bot*%
%TF.FilePolarity,Positive*%
%FSLAX46Y46*%
G04 Gerber Fmt 4.6, Leading zero omitted, Abs format (unit mm)*
G04 Created by KiCad (PCBNEW (5.1.6)-1) date 2022-07-31 05:20:52*
%MOMM*%
%LPD*%
G01*
G04 APERTURE LIST*
%ADD10R,3.600000X1.270000*%
%ADD11R,1.900000X1.000000*%
%ADD12R,1.200000X2.500000*%
G04 APERTURE END LIST*
%TO.C,F1*%
G36*
G01*
X164975000Y-91600000D02*
X162625000Y-91600000D01*
G75*
G02*
X162350000Y-91325000I0J275000D01*
G01*
X162350000Y-90775000D01*
G75*
G02*
X162625000Y-90500000I275000J0D01*
G01*
X164975000Y-90500000D01*
G75*
G02*
X165250000Y-90775000I0J-275000D01*
G01*
X165250000Y-91325000D01*
G75*
G02*
X164975000Y-91600000I-275000J0D01*
G01*
G37*
G36*
G01*
X164975000Y-88300000D02*
X162625000Y-88300000D01*
G75*
G02*
X162350000Y-88025000I0J275000D01*
G01*
X162350000Y-87475000D01*
G75*
G02*
X162625000Y-87200000I275000J0D01*
G01*
X164975000Y-87200000D01*
G75*
G02*
X165250000Y-87475000I0J-275000D01*
G01*
X165250000Y-88025000D01*
G75*
G02*
X164975000Y-88300000I-275000J0D01*
G01*
G37*
%TD*%
D10*
%TO.C,REF\u002A\u002A*%
X121500000Y-87610000D03*
X121500000Y-90150000D03*
X121500000Y-92690000D03*
X121500000Y-95230000D03*
X121500000Y-97770000D03*
X121500000Y-100310000D03*
X121500000Y-102850000D03*
X121500000Y-105390000D03*
%TD*%
D11*
%TO.C,REF\u002A\u002A*%
X169250000Y-93750000D03*
X169250000Y-98830000D03*
X169250000Y-103910000D03*
X169250000Y-106450000D03*
X169250000Y-101370000D03*
X169250000Y-96290000D03*
%TD*%
%TO.C,R4*%
G36*
G01*
X162400000Y-97037500D02*
X161600000Y-97037500D01*
G75*
G02*
X161300000Y-96737500I0J300000D01*
G01*
X161300000Y-96137500D01*
G75*
G02*
X161600000Y-95837500I300000J0D01*
G01*
X162400000Y-95837500D01*
G75*
G02*
X162700000Y-96137500I0J-300000D01*
G01*
X162700000Y-96737500D01*
G75*
G02*
X162400000Y-97037500I-300000J0D01*
G01*
G37*
G36*
G01*
X162400000Y-95162500D02*
X161600000Y-95162500D01*
G75*
G02*
X161300000Y-94862500I0J300000D01*
G01*
X161300000Y-94262500D01*
G75*
G02*
X161600000Y-93962500I300000J0D01*
G01*
X162400000Y-93962500D01*
G75*
G02*
X162700000Y-94262500I0J-300000D01*
G01*
X162700000Y-94862500D01*
G75*
G02*
X162400000Y-95162500I-300000J0D01*
G01*
G37*
%TD*%
%TO.C,R3*%
G36*
G01*
X159900000Y-95162500D02*
X159100000Y-95162500D01*
G75*
G02*
X158800000Y-94862500I0J300000D01*
G01*
X158800000Y-94262500D01*
G75*
G02*
X159100000Y-93962500I300000J0D01*
G01*
X159900000Y-93962500D01*
G75*
G02*
X160200000Y-94262500I0J-300000D01*
G01*
X160200000Y-94862500D01*
G75*
G02*
X159900000Y-95162500I-300000J0D01*
G01*
G37*
G36*
G01*
X159900000Y-97037500D02*
X159100000Y-97037500D01*
G75*
G02*
X158800000Y-96737500I0J300000D01*
G01*
X158800000Y-96137500D01*
G75*
G02*
X159100000Y-95837500I300000J0D01*
G01*
X159900000Y-95837500D01*
G75*
G02*
X160200000Y-96137500I0J-300000D01*
G01*
X160200000Y-96737500D01*
G75*
G02*
X159900000Y-97037500I-300000J0D01*
G01*
G37*
%TD*%
%TO.C,R2*%
G36*
G01*
X160100000Y-89237500D02*
X160900000Y-89237500D01*
G75*
G02*
X161200000Y-89537500I0J-300000D01*
G01*
X161200000Y-90137500D01*
G75*
G02*
X160900000Y-90437500I-300000J0D01*
G01*
X160100000Y-90437500D01*
G75*
G02*
X159800000Y-90137500I0J300000D01*
G01*
X159800000Y-89537500D01*
G75*
G02*
X160100000Y-89237500I300000J0D01*
G01*
G37*
G36*
G01*
X160100000Y-87362500D02*
X160900000Y-87362500D01*
G75*
G02*
X161200000Y-87662500I0J-300000D01*
G01*
X161200000Y-88262500D01*
G75*
G02*
X160900000Y-88562500I-300000J0D01*
G01*
X160100000Y-88562500D01*
G75*
G02*
X159800000Y-88262500I0J300000D01*
G01*
X159800000Y-87662500D01*
G75*
G02*
X160100000Y-87362500I300000J0D01*
G01*
G37*
%TD*%
%TO.C,R1*%
G36*
G01*
X157600000Y-87462500D02*
X158400000Y-87462500D01*
G75*
G02*
X158700000Y-87762500I0J-300000D01*
G01*
X158700000Y-88362500D01*
G75*
G02*
X158400000Y-88662500I-300000J0D01*
G01*
X157600000Y-88662500D01*
G75*
G02*
X157300000Y-88362500I0J300000D01*
G01*
X157300000Y-87762500D01*
G75*
G02*
X157600000Y-87462500I300000J0D01*
G01*
G37*
G36*
G01*
X157600000Y-89337500D02*
X158400000Y-89337500D01*
G75*
G02*
X158700000Y-89637500I0J-300000D01*
G01*
X158700000Y-90237500D01*
G75*
G02*
X158400000Y-90537500I-300000J0D01*
G01*
X157600000Y-90537500D01*
G75*
G02*
X157300000Y-90237500I0J300000D01*
G01*
X157300000Y-89637500D01*
G75*
G02*
X157600000Y-89337500I300000J0D01*
G01*
G37*
%TD*%
D12*
%TO.C,PJ320D*%
X167175000Y-92350000D03*
X168275000Y-85850000D03*
X172275000Y-85850000D03*
X175275000Y-85850000D03*
%TD*%
M02*
