<?xml version="1.0" encoding="utf-8"?>
<!-- Generator: Adobe Illustrator 26.3.1, SVG Export Plug-In . SVG Version: 6.00 Build 0)  -->
<svg version="1.1" id="レイヤー_1" xmlns:svg="http://www.w3.org/2000/svg"
	 xmlns="http://www.w3.org/2000/svg" xmlns:xlink="http://www.w3.org/1999/xlink" x="0px" y="0px" viewBox="0 0 841.9 595.3"
	 style="enable-background:new 0 0 841.9 595.3;" xml:space="preserve">
<style type="text/css">
	.st0{fill:none;stroke:#0000FF;stroke-width:2.834646e-02;stroke-linecap:round;stroke-linejoin:round;stroke-miterlimit:10;}
	.st1{fill:none;stroke:#000000;stroke-width:2.834646e-02;stroke-linecap:round;stroke-linejoin:round;stroke-miterlimit:10;}
	.st2{fill:#FF0000;}
</style>
<path class="st0" d="M494.4,367.9v-70.3l0,0c3.3,0,6-2.7,6-6c0-3.3-2.7-6-6-6c-3.3,0-6,2.7-6,6c0,0,0,0,0,0l0,0v1.7H380.7v9.1h-33.2
	v1.4H324v-3.7v-8.8l0,0c0-4.7,3.8-8.5,8.5-8.5l0,0h11.1v13.3h27.2v-13.3h123.9l0,0h0c4.7,0,8.5,3.8,8.5,8.5l0,0v82.8l0,0v0
	c0,4.7-3.8,8.5-8.5,8.5l0,0H332.5l0,0c-4.7,0-8.5-3.8-8.5-8.5l0,0v-11.1h11.3v4h26.4v5.4h126.7v1.4h0c0,3.3,2.7,6,6,6
	c3.3,0,6-2.7,6-6C500.4,370.6,497.7,367.9,494.4,367.9"/>
<g transform="translate(0 0) scale(1 1)">
</g>
<ellipse transform="matrix(0.1602 -0.9871 0.9871 0.1602 59.8292 744.9665)" class="st1" cx="467.7" cy="337.3" rx="5.8" ry="5.8"/>
<ellipse transform="matrix(0.1602 -0.9871 0.9871 0.1602 140.9723 675.9297)" class="st1" cx="467.7" cy="255.1" rx="5.8" ry="5.8"/>
<rect x="304.2" y="268.2" class="st2" width="3" height="56.3"/>
<ellipse transform="matrix(0.1602 -0.9871 0.9871 0.1602 -8.4054 573.4862)" class="st1" cx="332.8" cy="291.7" rx="5.8" ry="5.8"/>
<ellipse transform="matrix(0.1602 -0.9871 0.9871 0.1602 -89.5484 642.523)" class="st1" cx="332.8" cy="373.9" rx="5.8" ry="5.8"/>
<path class="st0" d="M306.1,261.2C306.1,261.2,306.1,261.2,306.1,261.2c-3.3,0-6-2.7-6-6c0-3.3,2.7-6,6-6c3.3,0,6,2.7,6,6l0,0v1.4
	h126.7v5.4h26.4v4h11.3V255l0,0c0-4.7-3.8-8.5-8.5-8.5v0H305.9l0,0c-4.7,0-8.5,3.8-8.5,8.5l0,0v82.8l0,0c0,4.7,3.8,8.5,8.5,8.5l0,0
	h123.9v-13.3h27.2v13.3H468v0c4.7,0,8.5-3.8,8.5-8.5l0,0V329H453v-2.3h-33.2v9.1H312.1v1.7l0,0c0,3.3-2.7,6-6,6c-3.3,0-6-2.7-6-6
	c0-3.3,2.7-6,6-6l0,0L306.1,261.2"/>
</svg>
